<?xml version="1.0" encoding="UTF-8" standalone="no"?>
<!-- Created with Inkscape (http://www.inkscape.org/) -->

<svg
   width="1525.7086"
   height="1200"
   viewBox="0 0 403.67706 317.49998"
   version="1.1"
   id="svg8155"
   inkscape:version="1.1.1 (c3084ef, 2021-09-22)"
   sodipodi:docname="better-then-groouply.svg"
   xmlns:inkscape="http://www.inkscape.org/namespaces/inkscape"
   xmlns:sodipodi="http://sodipodi.sourceforge.net/DTD/sodipodi-0.dtd"
   xmlns="http://www.w3.org/2000/svg"
   xmlns:svg="http://www.w3.org/2000/svg">
  <sodipodi:namedview
     id="namedview8157"
     pagecolor="#ffffff"
     bordercolor="#666666"
     borderopacity="1.0"
     inkscape:pageshadow="2"
     inkscape:pageopacity="0.0"
     inkscape:pagecheckerboard="0"
     inkscape:document-units="px"
     showgrid="false"
     inkscape:zoom="0.32803202"
     inkscape:cx="1431.2627"
     inkscape:cy="391.73005"
     inkscape:window-width="1440"
     inkscape:window-height="795"
     inkscape:window-x="0"
     inkscape:window-y="25"
     inkscape:window-maximized="1"
     inkscape:current-layer="layer1"
     units="px">
    <inkscape:grid
       type="xygrid"
       id="grid9646" />
  </sodipodi:namedview>
  <defs
     id="defs8152" />
  <g
     inkscape:label="Warstwa 1"
     inkscape:groupmode="layer"
     id="layer1"
     transform="translate(143.96459,-2.7156781)">
    <path
       d="m 38.441009,58.973114 c -1.397,0 -2.532944,1.135945 -2.532944,2.532945 l 0.01411,17.377833 c 0,20.782138 16.90511,37.687248 37.687249,37.687248 1.919111,0 3.859389,-0.14817 5.789083,-0.45155 V 69.567031 H 57.72737 c -3.104445,0 -5.630334,-2.487083 -5.630334,-5.542139 v -2.518833 c 0,-1.397 -1.135944,-2.532945 -2.532944,-2.532945 z m 35.168416,60.624866 c -22.44725,0 -40.710555,-18.26331 -40.710555,-40.714088 L 32.88476,61.506059 c 0,-3.065639 2.494139,-5.55625 5.55625,-5.55625 h 11.123083 c 3.062111,0 5.55625,2.490611 5.55625,5.55625 v 2.518833 c 0,1.36525 1.192389,2.518834 2.607028,2.518834 H 82.425342 V 118.649 l -1.231194,0.23284 c -2.518833,0.47272 -5.069417,0.71614 -7.584722,0.71614"
       style="fill:#fdbf14;fill-opacity:1;fill-rule:nonzero;stroke:none;stroke-width:0.0352778"
       id="path840" />
    <path
       d="m 104.67857,116.11959 c 1.93322,0.30338 3.87702,0.45508 5.79261,0.45508 20.77861,0 37.68725,-16.905112 37.68725,-37.68725 l 0.0106,-17.381361 c 0,-1.397 -1.13594,-2.532945 -2.53294,-2.532945 h -11.11956 c -1.397,0 -2.53294,1.135945 -2.53294,2.532945 v 2.518833 c 0,3.055056 -2.52942,5.542139 -5.63386,5.542139 h -21.67114 z m 5.79261,3.47839 c -2.51178,0 -5.06236,-0.23989 -7.58472,-0.71614 l -1.2312,-0.23284 V 66.543726 h 24.69445 c 1.41463,0 2.61055,-1.153584 2.61055,-2.518834 v -2.518833 c 0,-3.065639 2.49061,-5.55625 5.55625,-5.55625 h 11.11956 c 3.06211,0 5.55625,2.490611 5.55625,5.55625 l -0.0106,17.381361 c 0,22.44725 -18.2633,40.71056 -40.71055,40.71056"
       style="fill:#fdbf14;fill-opacity:1;fill-rule:nonzero;stroke:none;stroke-width:0.0352778"
       id="path842" />
    <path
       d="m 96.324785,178.26139 h -8.568972 v -51.91125 h 8.568972 v 51.91125"
       style="fill:#fdbf14;fill-opacity:1;fill-rule:nonzero;stroke:none;stroke-width:0.0352778"
       id="path844" />
    <path
       d="m 96.324785,140.63059 h -8.568972 v -4.87186 h 8.568972 v 4.87186"
       style="fill:#ffa813;fill-opacity:1;fill-rule:nonzero;stroke:none;stroke-width:0.0352778"
       id="path846" />
    <path
       d="M 97.813508,138.3975 H 86.267091 v -13.17625 h 11.546417 v 13.17625"
       style="fill:#ffa813;fill-opacity:1;fill-rule:nonzero;stroke:none;stroke-width:0.0352778"
       id="path848" />
    <path
       d="M 97.813508,138.3975 H 86.267091 v -3.09739 h 11.546417 v 3.09739"
       style="fill:#fdbf14;fill-opacity:1;fill-rule:nonzero;stroke:none;stroke-width:0.0352778"
       id="path850" />
    <path
       d="m 111.44132,183.30258 c -3.94759,0 -7.15786,-3.13972 -7.29192,-7.05555 H 93.551952 90.525119 79.931203 c -0.134056,3.91583 -3.344334,7.05555 -7.295445,7.05555 h -7.309555 v 7.5565 h 25.198916 3.026833 25.198918 v -7.5565 h -7.30955"
       style="fill:#fdbf14;fill-opacity:1;fill-rule:nonzero;stroke:none;stroke-width:0.0352778"
       id="path852" />
    <path
       d="m 66.084675,72.929003 v 41.765357 c 0,10.33639 8.374944,18.71134 18.711333,18.71134 h 14.488583 c 10.332869,0 18.711339,-8.37495 18.711339,-18.71134 V 72.929003 H 66.084675"
       style="fill:#fdbf14;fill-opacity:1;fill-rule:nonzero;stroke:none;stroke-width:0.0352778"
       id="path854" />
    <path
       d="M 122.02818,73.429948 H 62.052425 v -8.060972 h 59.975755 v 8.060972"
       style="fill:#fdbf14;fill-opacity:1;fill-rule:nonzero;stroke:none;stroke-width:0.0352778"
       id="path856" />
    <path
       d="m 92.038536,83.963892 3.421944,6.932083 7.65175,1.114778 -5.535083,5.3975 1.305277,7.619997 -6.843888,-3.59833 -6.843889,3.59833 1.308805,-7.619997 -5.538611,-5.3975 7.65175,-1.114778 3.421945,-6.932083"
       style="fill:#ffa813;fill-opacity:1;fill-rule:nonzero;stroke:none;stroke-width:0.0352778"
       id="path858" />
    <path
       d="M 66.084675,76.79192 H 117.99593 V 72.929003 H 66.084675 v 3.862917"
       style="fill:#ffa813;fill-opacity:1;fill-rule:nonzero;stroke:none;stroke-width:0.0352778"
       id="path860" />
    <path
       d="m 68.734036,184.562 v 6.29708 H 118.75087 V 184.562 H 68.734036"
       style="fill:#ffa813;fill-opacity:1;fill-rule:nonzero;stroke:none;stroke-width:0.0352778"
       id="path862" />
    <path
       d="m 88.119175,185.17583 -0.236362,2.76578 -0.504472,2.29658 -0.931333,0.61737 -0.6985,0.20813 -0.204611,0.38806 -2.413,1.60161 c -0.652639,0.28575 -1.573389,0.43039 -2.684639,0.16228 -0.381,-0.0917 0.148167,-1.12536 0.278694,-1.28058 0.762,-0.89959 1.926167,-1.88031 1.926167,-1.88031 l 1.883833,-2.32128 2.130778,-2.90336 1.453445,0.34572"
       style="fill:#161711;fill-opacity:1;fill-rule:nonzero;stroke:none;stroke-width:0.0352778"
       id="path864" />
    <path
       d="m 109.64921,189.93128 -0.60325,1.10772 -0.32809,1.24883 0.0423,1.98967 1.07244,0.15875 0.81492,-0.16933 0.52916,0.37394 c 0,0 3.04448,0.60678 4.18748,0.64911 1.89441,0.0635 2.93511,-0.127 3.30552,-0.49389 0.21167,-0.20461 -0.67027,-0.60677 -0.96308,-0.65264 -1.68275,-0.26105 -3.45369,-1.34408 -3.45369,-1.34408 l -1.38289,-1.56986 -0.26459,-1.11125 -2.95627,-0.18697"
       style="fill:#161711;fill-opacity:1;fill-rule:nonzero;stroke:none;stroke-width:0.0352778"
       id="path866" />
    <path
       d="m 124.21893,98.406614 7.14728,-11.934472 c 0,0 -8.77359,5.690305 -10.2235,9.888361 -1.44639,4.205107 3.07622,2.046111 3.07622,2.046111"
       style="fill:#e9d6b8;fill-opacity:1;fill-rule:nonzero;stroke:none;stroke-width:0.0352778"
       id="path868" />
    <path
       d="m 107.74773,101.71214 10.06828,-3.136193 1.96145,-2.056694 -0.62442,-0.338667 2.20839,-1.792111 4.4203,3.083278 -2.18369,3.809997 -0.70908,-0.29986 -1.56987,2.02495 -1.19591,-0.0459 -10.23761,8.06802 -2.13784,-9.31686"
       style="fill:#b0bfde;fill-opacity:1;fill-rule:nonzero;stroke:none;stroke-width:0.0352778"
       id="path870" />
    <path
       d="m 96.250702,102.1002 13.878278,-1.59809 c 0,0 11.50761,2.89278 9.42975,26.70528 -0.0141,0.10936 -18.44322,4.06753 -18.07986,-0.43744 0.90664,-11.26067 -5.228168,-24.66975 -5.228168,-24.66975"
       style="fill:#d1dbea;fill-opacity:1;fill-rule:nonzero;stroke:none;stroke-width:0.0352778"
       id="path872" />
    <path
       d="M 85.741452,96.071225 75.084036,88.574697 c 0,0 5.337528,9.323917 7.972778,11.08075 2.638777,1.753303 2.684638,-3.584222 2.684638,-3.584222"
       style="fill:#e9d6b8;fill-opacity:1;fill-rule:nonzero;stroke:none;stroke-width:0.0352778"
       id="path874" />
    <path
       d="m 100.07481,102.9257 -11.945052,-7.044975 0.331611,-0.486833 -3.044472,-1.051278 -4.353278,4.953 3.227917,2.554106 0.543278,-0.86783 1.012472,-1.269999 -0.878417,1.573389 2.980972,3.29494 2.726972,0.56798 9.606137,8.22677 -0.20814,-10.44927"
       style="fill:#d1dbea;fill-opacity:1;fill-rule:nonzero;stroke:none;stroke-width:0.0352778"
       id="path876" />
    <path
       d="m 101.41184,126.49125 -17.69886,61.16461 4.430889,0.24695 8.547805,-19.46981 2.074334,-5.87022 10.156472,-23.03639 1.98967,-12.65414 -9.50031,-0.381"
       style="fill:#163f59;fill-opacity:1;fill-rule:nonzero;stroke:none;stroke-width:0.0352778"
       id="path878" />
    <path
       d="m 108.81312,190.12883 1.24884,-25.2483 -1.10067,-11.57111 -1.3335,-15.87853 2.02142,-10.63272 9.75783,0.3175 -2.04611,17.91758 -0.43039,16.23836 -0.3422,6.1207 -2.61408,24.10177 -5.16114,-1.36525"
       style="fill:#163f59;fill-opacity:1;fill-rule:nonzero;stroke:none;stroke-width:0.0352778"
       id="path880" />
    <path
       d="m 77.119564,90.215114 c 0,0 0.92075,-2.180167 0.596194,-2.772833 -0.324555,-0.592667 -1.658055,-2.681111 -1.658055,-2.681111 l -0.388056,-0.504473 c 0,0 -0.797278,0.119945 0.112889,1.513417 0.910167,1.393472 0.09172,0.9525 0.09172,0.9525 l -1.308805,-0.956028 -1.700389,-1.040694 -0.691445,-0.560917 c 0,0 -0.370416,-0.345722 -0.529166,-0.352778 -0.458611,-0.02469 -0.306917,0.331611 -0.306917,0.331611 l 2.50825,2.395362 -2.921,-1.591028 c 0,0 -0.409222,-0.141111 -0.553861,0.02822 -0.137583,0.162278 -0.02117,0.239889 -0.02117,0.239889 l 2.878667,2.564694 -1.601611,-0.652639 c 0,0 -0.402167,-0.127 -0.553861,0.03175 -0.165806,0.172862 -0.215195,0.215195 -0.215195,0.215195 l 5.817306,3.358444 0.4445,-0.518583"
       style="fill:#e9d6b8;fill-opacity:1;fill-rule:nonzero;stroke:none;stroke-width:0.0352778"
       id="path882" />
    <path
       d="m 73.380119,86.95192 -2.120194,-1.001889 c 0,0 -0.451556,-0.275167 -0.740833,-0.275167 -0.331612,0.0035 -0.338667,0.28575 -0.338667,0.28575 l 3.048,1.820333 0.151694,-0.829027"
       style="fill:#e9d6b8;fill-opacity:1;fill-rule:nonzero;stroke:none;stroke-width:0.0352778"
       id="path884" />
    <path
       d="m 129.28482,88.638197 c 0,0 -0.79023,-2.229555 -0.43039,-2.797527 0.3563,-0.575028 1.80622,-2.582334 1.80622,-2.582334 l 0.41981,-0.479778 c 0,0 0.78669,0.162278 -0.20109,1.499306 -0.9913,1.340556 -0.14816,0.948972 -0.14816,0.948972 l 1.36172,-0.878416 1.75683,-0.945445 0.72672,-0.518583 c 0,0 0.38806,-0.324556 0.54681,-0.321028 0.45861,0.0035 0.28575,0.34925 0.28575,0.34925 l -2.64231,2.247194 3.00567,-1.418166 c 0,0 0.41981,-0.119945 0.55386,0.05997 0.13053,0.169333 0.007,0.236361 0.007,0.236361 l -3.02331,2.395361 1.63689,-0.557389 c 0,0 0.40922,-0.105833 0.55033,0.0635 0.15875,0.179917 0.20461,0.229306 0.20461,0.229306 l -6.00075,3.01625 -0.41627,-0.546806"
       style="fill:#e9d6b8;fill-opacity:1;fill-rule:nonzero;stroke:none;stroke-width:0.0352778"
       id="path886" />
    <path
       d="m 133.20771,85.597253 2.17663,-0.874889 c 0,0 0.46567,-0.250472 0.75142,-0.232833 0.33161,0.02117 0.32456,0.306916 0.32456,0.306916 l -3.15031,1.636889 -0.1023,-0.836083"
       style="fill:#e9d6b8;fill-opacity:1;fill-rule:nonzero;stroke:none;stroke-width:0.0352778"
       id="path888" />
    <path
       d="m 106.20609,96.900253 c 0.46214,3.111497 0.56092,4.698997 0.48684,4.910667 -0.51506,1.44639 -4.55789,0.71967 -4.52614,-0.13053 0.0318,-0.85372 -1.07598,-4.455582 -1.3582,-4.960054 -0.27869,-0.500944 5.12234,-1.665111 5.3975,0.179917"
       style="fill:#e9d6b8;fill-opacity:1;fill-rule:nonzero;stroke:none;stroke-width:0.0352778"
       id="path890" />
    <path
       d="m 103.66257,95.905419 c -1.02659,0.09172 -2.00025,0.306917 -2.50473,0.518584 0.4057,0.896055 0.8255,1.778 1.16064,2.345972 0.92428,1.573385 2.54353,1.781525 3.60539,2.039055 0.22931,0.0529 0.49742,0.06 0.78317,0.0353 -0.0247,-0.55033 -0.16933,-1.703917 -0.50095,-3.944055 -0.127,-0.839611 -1.31233,-1.054806 -2.54352,-0.994834"
       style="fill:#dec9a9;fill-opacity:1;fill-rule:nonzero;stroke:none;stroke-width:0.0352778"
       id="path892" />
    <path
       d="m 105.01018,88.511197 3.49955,7.704667 c 0,0 0.82903,1.827389 0.254,2.405944 -0.57855,0.578556 -2.50825,1.298222 -3.57011,1.044222 -1.06186,-0.250472 -2.67758,-0.462139 -3.60539,-2.039055 -0.92428,-1.573389 -2.550583,-5.612694 -2.550583,-5.612694 0,0 -0.02822,-1.566334 2.765783,-1.887362 2.794,-0.324555 3.20675,-1.615722 3.20675,-1.615722"
       style="fill:#e9d6b8;fill-opacity:1;fill-rule:nonzero;stroke:none;stroke-width:0.0352778"
       id="path894" />
    <path
       d="m 103.89893,86.76142 c 0.37747,-0.0635 1.06539,-0.05645 1.4605,0.458611 0.40569,0.529166 0.25753,1.661583 -0.19756,2.017888 -0.45861,0.359834 -3.75708,1.883834 -4.22981,1.919112 -0.46566,0.04233 -1.308802,0.225777 -1.94733,-0.243417 -0.41275,-0.303389 0.437444,-1.753306 1.27705,-1.87325 2.13079,-0.299861 2.22956,-2.056694 3.63715,-2.278944"
       style="fill:#194866;fill-opacity:1;fill-rule:nonzero;stroke:none;stroke-width:0.0352778"
       id="path896" />
    <path
       d="m 99.852563,90.567892 1.513417,3.330222 0.53623,1.880305 -0.39159,0.176389 -0.71614,0.328084 c 0,0 -3.252611,-4.035778 -2.377722,-5.062361 0.871361,-1.026584 1.248833,-0.885473 1.435805,-0.652639"
       style="fill:#194866;fill-opacity:1;fill-rule:nonzero;stroke:none;stroke-width:0.0352778"
       id="path898" />
    <path
       d="m 101.61646,96.304058 c 0.13405,0.289278 0.007,0.627945 -0.28223,0.758472 l -0.30692,0.137584 c -0.28928,0.130528 -0.62794,0.0035 -0.75847,-0.282222 L 99.711452,95.69728 c -0.127,-0.289277 0,-0.627944 0.289278,-0.762 l 0.30339,-0.134055 c 0.28928,-0.134056 0.62794,-0.0035 0.75847,0.282222 l 0.55387,1.220611"
       style="fill:#e9d6b8;fill-opacity:1;fill-rule:nonzero;stroke:none;stroke-width:0.0352778"
       id="path900" />
    <path
       d="m 106.17434,102.49531 c 0,0 7.26017,9.12636 8.31145,20.75392 0.0811,0.91722 -0.68086,1.7533 -0.68086,1.7533 l -1.51342,-1.00894 c 0,0 -2.70228,-12.827 -6.11717,-21.49828"
       style="fill:#316091;fill-opacity:1;fill-rule:nonzero;stroke:none;stroke-width:0.0352778"
       id="path902" />
    <path
       d="m 106.07204,102.42828 0.14464,1.9685 -4.22275,-2.3495 0.15875,-0.51506 3.91936,0.89606"
       style="fill:#b0bfde;fill-opacity:1;fill-rule:nonzero;stroke:none;stroke-width:0.0352778"
       id="path904" />
    <path
       d="m 106.77054,101.22884 1.06892,2.08844 -1.73214,-0.93486 z"
       style="fill:#b0bfde;fill-opacity:1;fill-rule:nonzero;stroke:none;stroke-width:0.0352778"
       id="path906" />
    <path
       d="m -30.699906,172.59225 c 2.441222,2.84692 4.0005,7.21078 4.0005,12.11439 0,7.32367 -3.496028,13.462 -8.195028,15.09889 -2.437694,-2.84692 -4.0005,-7.21078 -4.0005,-12.11086 0,-7.3272 3.4925,-13.46553 8.195028,-15.10242"
       style="fill:#e4efff;fill-opacity:1;fill-rule:nonzero;stroke:none;stroke-width:0.0352778"
       id="path908" />
    <path
       d="m -28.466823,201.70347 c 3.697111,-4.55083 8.643055,-7.10494 12.872861,-7.08025 -0.194028,3.48545 -1.7145,7.3907 -4.504972,10.83028 -3.690056,4.55083 -8.639528,7.10142 -12.869333,7.08025 0.194028,-3.48545 1.7145,-7.39422 4.501444,-10.83028"
       style="fill:#e4efff;fill-opacity:1;fill-rule:nonzero;stroke:none;stroke-width:0.0352778"
       id="path910" />
    <path
       d="m -34.234739,217.01755 c 2.169583,-2.54705 5.348111,-4.56141 9.143999,-5.52802 6.138334,-1.55928 12.170833,0.0705 15.5963057,3.73239 -2.1731107,2.54705 -5.3481107,4.56847 -9.1404717,5.53155 -6.138334,1.55928 -12.174361,-0.0741 -15.599833,-3.73592"
       style="fill:#e4efff;fill-opacity:1;fill-rule:nonzero;stroke:none;stroke-width:0.0352778"
       id="path912" />
    <path
       d="m -47.6156,209.04125 c 5.693833,1.71803 9.856611,5.79261 11.20775,10.34697 -3.58775,2.08845 -8.473723,2.67053 -13.335,1.2065 -5.690306,-1.71803 -9.853083,-5.79261 -11.20775,-10.34344 3.594806,-2.09198 8.47725,-2.67406 13.335,-1.21003"
       style="fill:#e4efff;fill-opacity:1;fill-rule:nonzero;stroke:none;stroke-width:0.0352778"
       id="path914" />
    <path
       d="m -45.481295,192.58417 c 4.367389,2.47297 7.108472,6.59694 7.6835,10.81969 -3.39725,0.73025 -7.246055,0.19756 -10.720916,-1.77094 -4.370917,-2.48003 -7.090834,-6.63928 -7.62,-10.88673 3.383139,-0.68086 7.203722,-0.12347 10.657416,1.83798"
       style="fill:#e4efff;fill-opacity:1;fill-rule:nonzero;stroke:none;stroke-width:0.0352778"
       id="path916" />
    <path
       d="m -34.329989,255.61144 h -0.702028 v -57.32991 h 0.702028 v 57.32991"
       style="fill:#e4efff;fill-opacity:1;fill-rule:nonzero;stroke:none;stroke-width:0.0352778"
       id="path918" />
    <path
       d="m -34.354684,206.21197 -0.451555,0.53622 -4.071056,-3.40783 0.448028,-0.53622 4.074583,3.40783"
       style="fill:#e4efff;fill-opacity:1;fill-rule:nonzero;stroke:none;stroke-width:0.0352778"
       id="path920" />
    <path
       d="m -17.174406,233.28414 c -4.116917,2.87161 -9.020528,3.56658 -13.073945,2.26483 0.800806,-3.37961 2.945695,-6.62164 6.219472,-8.90764 4.123973,-2.87514 9.045222,-3.53483 13.105695,-2.18016 -0.843139,3.34786 -2.995084,6.55108 -6.251222,8.82297"
       style="fill:#e4efff;fill-opacity:1;fill-rule:nonzero;stroke:none;stroke-width:0.0352778"
       id="path922" />
    <path
       d="m -34.270017,237.44692 -0.289278,-0.63853 4.829528,-2.20486 0.292805,0.635 -4.833055,2.20839"
       style="fill:#e4efff;fill-opacity:1;fill-rule:nonzero;stroke:none;stroke-width:0.0352778"
       id="path924" />
    <path
       d="m -34.315878,222.54205 -0.599723,0.36337 -2.748138,-4.54731 0.599722,-0.36336 2.748139,4.5473"
       style="fill:#e4efff;fill-opacity:1;fill-rule:nonzero;stroke:none;stroke-width:0.0352778"
       id="path926" />
    <path
       d="m -34.587517,214.4458 -0.448028,-0.53622 2.44475,-2.03553 0.448028,0.53623 -2.44475,2.03552"
       style="fill:#e4efff;fill-opacity:1;fill-rule:nonzero;stroke:none;stroke-width:0.0352778"
       id="path928" />
    <path
       d="m -34.531073,217.91008 -0.246944,-0.65616 0.899583,-0.33867 0.250472,0.65617 -0.903111,0.33866"
       style="fill:#e4efff;fill-opacity:1;fill-rule:nonzero;stroke:none;stroke-width:0.0352778"
       id="path930" />
    <path
       d="m -40.891656,224.80689 c -3.693583,-4.55084 -8.643055,-7.10495 -12.872861,-7.07672 0.194028,3.48544 1.7145,7.39069 4.504972,10.82675 3.693584,4.55083 8.639528,7.10494 12.869333,7.08377 -0.194027,-3.48897 -1.7145,-7.39422 -4.501444,-10.8338"
       style="fill:#e4efff;fill-opacity:1;fill-rule:nonzero;stroke:none;stroke-width:0.0352778"
       id="path932" />
    <path
       d="m -35.120212,240.1245 c -2.173111,-2.54706 -5.351638,-4.56142 -9.147527,-5.52803 -6.138333,-1.55928 -12.170833,0.0706 -15.596305,3.73239 2.169583,2.54706 5.348111,4.56494 9.140472,5.52803 6.141861,1.55928 12.177888,-0.0706 15.60336,-3.73239"
       style="fill:#e4efff;fill-opacity:1;fill-rule:nonzero;stroke:none;stroke-width:0.0352778"
       id="path934" />
    <path
       d="m -34.770962,237.55275 0.451556,-0.53975 -2.448278,-2.03553 -0.448028,0.53622 2.44475,2.03906"
       style="fill:#e4efff;fill-opacity:1;fill-rule:nonzero;stroke:none;stroke-width:0.0352778"
       id="path936" />
    <path
       d="m -34.827406,241.01703 0.246944,-0.6597 -0.899583,-0.33866 -0.246944,0.65616 0.899583,0.3422"
       style="fill:#e4efff;fill-opacity:1;fill-rule:nonzero;stroke:none;stroke-width:0.0352778"
       id="path938" />
    <path
       d="m -31.394878,247.25766 c 1.164166,-2.08138 3.100916,-3.92994 5.616222,-5.13291 4.067527,-1.94028 8.505472,-1.64042 11.405305,0.43744 -1.164167,2.07786 -3.097389,3.92995 -5.612694,5.12939 -4.067528,1.94381 -8.505472,1.64395 -11.408833,-0.43392"
       style="fill:#e4efff;fill-opacity:1;fill-rule:nonzero;stroke:none;stroke-width:0.0352778"
       id="path940" />
    <path
       d="m -6.972074,279.812 c 28.903083,-4.22981 46.810083,6.32178 53.283555,8.06097 46.182138,12.42483 57.989609,16.00905 78.175559,4.37797 10.02947,-5.7785 37.73311,9.30981 65.36266,-2.58233 20.42584,-8.7877 54.58884,-1.5487 65.09103,-5.41161 17.17322,-6.31472 -3.64419,-29.37934 -22.9623,-32.48025 -11.01725,-1.76742 -53.78098,6.16655 -43.67036,-5.25992 12.6118,-14.24516 -9.09109,-16.40064 -20.67631,-10.46339 -4.61081,2.36361 -53.45642,21.59353 -52.83553,14.13934 2.26131,-27.2662 -21.995694,-19.18406 -32.617833,-5.91961 -5.863167,7.32366 -24.824972,7.13316 -31.824083,4.9918 -18.330333,-5.60211 -48.2141381,0.58208 -65.472026,2.09197 -75.159304,6.58989 -53.900916,37.53203 8.145638,28.45506"
       style="fill:#e4efff;fill-opacity:1;fill-rule:nonzero;stroke:none;stroke-width:0.0352778"
       id="path942" />
    <path
       d="m -133.31343,256.23586 c 8.81345,-1.28764 17.23778,-0.40922 24.16634,1.18886 -16.3442,-7.91986 -35.39526,-19.03942 -17.99873,-20.32705 5.4222,-0.39864 13.76539,2.22602 23.03992,6.32883 -10.34697,-8.42433 -16.04081,-15.34583 -9.76842,-16.62995 5.81731,-1.19591 17.688276,5.65503 30.321248,14.74612 -7.196666,-7.61648 -11.366499,-14.26987 -8.131527,-17.40606 2.638777,-2.56117 8.269111,0.37747 14.742583,5.82436 -0.28575,-4.78719 1.725083,-7.67997 6.314722,-7.09789 4.318,0.54328 7.817555,6.08542 10.311694,12.73175 3.852333,-9.57439 13.564305,-15.69508 23.773694,-14.0088 v 38.81261 c -0.310444,0.64911 -0.610306,1.27 -0.903111,1.85914 H -141.80479 c -1.70039,-2.61409 0.41416,-4.84012 8.49136,-6.02192"
       style="fill:#d1dbea;fill-opacity:1;fill-rule:nonzero;stroke:none;stroke-width:0.0352778"
       id="path944" />
    <path
       d="m -50.836461,256.95553 c -0.05644,0.004 -1.252361,-3.56659 -0.754945,-4.98123 0.292806,-0.98777 1.298222,-1.83797 1.298222,-1.83797 0,0 0.208139,0.98778 0.116417,2.00025 -0.130528,0.99836 -0.811389,3.78178 -0.659694,4.81895"
       style="fill:#b0bfde;fill-opacity:1;fill-rule:nonzero;stroke:none;stroke-width:0.0352778"
       id="path946" />
    <path
       d="m -51.33035,256.42283 c 0.0035,0 -1.100667,0.11289 -2.049639,0.3422 -0.9525,0.2293 -1.61925,0.39511 -2.31775,0.70908 -0.6985,0.31397 -0.892528,0.47978 -0.892528,0.47978 0,0.007 1.989667,0.63852 3.090334,0.2293 1.104194,-0.39511 2.077861,-1.34055 2.169583,-1.76036"
       style="fill:#b0bfde;fill-opacity:1;fill-rule:nonzero;stroke:none;stroke-width:0.0352778"
       id="path948" />
    <path
       d="m -53.686906,253.95339 c -0.05644,-0.004 -0.479777,-3.62656 -0.0035,-4.66373 0.483305,-1.26294 1.926166,-2.51177 2.19075,-2.80458 -0.0035,-0.004 -0.430389,1.6122 -0.73025,3.12914 -0.331612,1.48167 -0.818445,3.88408 -1.456973,4.33917"
       style="fill:#b0bfde;fill-opacity:1;fill-rule:nonzero;stroke:none;stroke-width:0.0352778"
       id="path950" />
    <path
       d="m -54.043211,253.80169 c 0,0 -0.335139,-0.0635 -1.143,-0.18344 -0.800806,-0.10584 -3.097389,-0.49036 -3.944056,-0.47978 -0.836083,0.0282 -2.310694,0.50094 -2.811638,0.67733 -0.1905,0.0741 1.686277,0.57503 2.808111,0.73378 0.853722,0.13406 2.099027,0.29986 2.790472,0.11642 0.324555,-0.0811 1.686277,-0.69497 2.501194,-0.40922 0.818445,0.28575 -0.204611,-0.45156 -0.201083,-0.45509"
       style="fill:#b0bfde;fill-opacity:1;fill-rule:nonzero;stroke:none;stroke-width:0.0352778"
       id="path952" />
    <path
       d="m -55.337906,251.98841 c -0.03175,0 -0.649111,-2.88925 -0.370416,-3.99697 0.215194,-1.05128 0.684389,-2.20133 1.418166,-3.06564 0.73025,-0.8643 1.404056,-1.59455 1.404056,-1.59455 -0.0071,-0.004 -0.257528,1.60514 -0.589139,2.7305 -0.345722,1.12183 -0.515056,2.24719 -1.005417,3.3655 -0.497416,1.11478 -0.860777,2.56116 -0.85725,2.56116"
       style="fill:#b0bfde;fill-opacity:1;fill-rule:nonzero;stroke:none;stroke-width:0.0352778"
       id="path954" />
    <path
       d="m -55.987017,251.31461 c -0.409222,-0.32808 -0.821972,-0.60325 -1.827389,-0.76906 -1.005416,-0.14816 -3.432527,-0.90311 -4.681361,-0.88194 -1.241777,0.0494 -3.093861,0.004 -3.199694,-0.0388 -0.109361,-0.0141 3.058583,1.61925 4.649611,1.76742 1.329972,0.15522 2.624667,0.0494 3.383139,-0.0176 0.762,-0.067 1.559278,-0.007 2.056694,0.3175 0,0 -0.225778,-0.24694 -0.381,-0.37747"
       style="fill:#b0bfde;fill-opacity:1;fill-rule:nonzero;stroke:none;stroke-width:0.0352778"
       id="path956" />
    <path
       d="m -57.507489,248.73933 c 0.0035,0.004 -0.345722,-1.17828 -0.01058,-2.84691 0.328083,-1.67217 0.79375,-3.08328 1.146528,-3.7077 0.345722,-0.63147 1.446388,-1.64747 1.566333,-1.82386 0.102305,-0.18344 -0.137584,1.61572 -0.254,2.16253 -0.137584,0.54328 -0.504472,1.5628 -1.132417,2.68464 -0.645583,1.11477 -1.27,2.98802 -1.315861,3.5313"
       style="fill:#b0bfde;fill-opacity:1;fill-rule:nonzero;stroke:none;stroke-width:0.0352778"
       id="path958" />
    <path
       d="m -57.694461,248.55941 c -0.546806,-0.26811 -1.756833,-0.55738 -2.490611,-0.77611 -0.733778,-0.23636 -1.308806,-0.0741 -4.081639,-1.31586 -2.451805,-1.1183 -4.265083,-2.80105 -4.258028,-2.80105 -0.0035,-0.004 0.437445,0.14111 1.869723,0.37747 1.432277,0.24694 3.626555,1.59456 5.436305,2.39536 1.806222,0.81492 3.030361,1.61219 3.033889,1.61572 0.162278,0.16934 0.324555,0.33514 0.490361,0.50447"
       style="fill:#b0bfde;fill-opacity:1;fill-rule:nonzero;stroke:none;stroke-width:0.0352778"
       id="path960" />
    <path
       d="m -59.451294,245.97003 c -0.03175,-0.0106 0.102305,-3.16442 0.515055,-4.56495 0.363361,-1.41111 0.624417,-2.50825 1.852083,-3.14678 1.23825,-0.64911 1.781528,-1.13241 1.781528,-1.13241 -0.0035,-0.004 -0.709083,1.59455 -1.326444,2.81164 -0.642056,1.20297 -1.354667,2.92805 -1.665111,3.46427 -0.338667,0.52212 -0.871361,2.59645 -1.157111,2.56823"
       style="fill:#b0bfde;fill-opacity:1;fill-rule:nonzero;stroke:none;stroke-width:0.0352778"
       id="path962" />
    <path
       d="m -60.107461,244.09678 c -0.631472,-0.5327 -1.277056,-0.96661 -2.719917,-1.80623 -1.36525,-0.79022 -2.959805,-1.79916 -3.788833,-2.14488 -0.829028,-0.31045 -3.527778,-1.524 -3.598333,-1.56987 -0.07761,-0.0141 2.056694,2.35303 3.393722,3.05859 1.319389,0.72672 2.480028,1.43228 4.145139,1.76741 1.665111,0.33162 2.585861,0.89606 3.076222,1.47814 0.486833,0.58209 -0.363361,-0.65264 -0.508,-0.78316"
       style="fill:#b0bfde;fill-opacity:1;fill-rule:nonzero;stroke:none;stroke-width:0.0352778"
       id="path964" />
    <path
       d="m -60.788322,242.11769 c -0.0071,-0.004 0.137583,-1.47108 0.726722,-2.06727 0.560917,-0.61384 1.654528,-2.58939 1.986139,-3.24909 0.275167,-0.69497 1.845028,-3.22439 1.940278,-3.429 0.0635,-0.22578 -0.860778,0.68439 -1.7145,1.17475 -0.860778,0.47625 -1.774473,1.83092 -2.257778,3.048 -0.522111,1.19945 -0.994833,3.61597 -0.956028,3.99697 0.01411,0.37042 0.275167,0.52564 0.275167,0.52564"
       style="fill:#b0bfde;fill-opacity:1;fill-rule:nonzero;stroke:none;stroke-width:0.0352778"
       id="path966" />
    <path
       d="m -61.511517,240.60075 c 0,0.004 -1.284111,-0.96661 -2.420055,-1.81328 -1.143,-0.8255 -3.104444,-2.04964 -3.623028,-2.49414 -0.518583,-0.40922 -3.129139,-1.90147 -3.192639,-2.04964 -0.07408,-0.127 1.464028,2.17664 3.20675,3.55248 1.728611,1.37936 2.945695,1.90852 4.148667,2.36361 1.202972,0.44802 1.950861,0.89252 2.233083,1.27705 0.271639,0.381 -0.356305,-0.83255 -0.352778,-0.83608"
       style="fill:#b0bfde;fill-opacity:1;fill-rule:nonzero;stroke:none;stroke-width:0.0352778"
       id="path968" />
    <path
       d="m -62.407572,236.73078 c -0.02469,-0.0106 0.818444,-2.51178 1.474611,-3.43959 0.620889,-0.94191 1.291167,-2.08491 2.017889,-2.67405 0.719666,-0.59972 1.859139,-1.45345 1.859139,-1.44992 -0.0071,-0.007 -0.850195,1.76742 -1.509889,2.90689 -0.677334,1.12536 -1.368778,2.40594 -2.218972,3.51719 -0.850195,1.1042 -1.643945,1.85209 -1.647473,1.84856 0.0071,-0.23636 0.01411,-0.47272 0.02469,-0.70908"
       style="fill:#b0bfde;fill-opacity:1;fill-rule:nonzero;stroke:none;stroke-width:0.0352778"
       id="path970" />
    <path
       d="m -62.799155,236.50853 c -0.0071,0.0176 -2.155473,-1.97556 -3.273778,-2.99509 -1.132417,-0.97014 -2.998611,-2.52236 -3.799417,-3.05152 -0.804333,-0.508 -1.509889,-1.143 -1.509889,-1.143 -0.03175,0.0459 2.906889,4.06047 4.423834,4.953 1.478138,0.99483 4.116916,2.6423 4.66725,3.55247 0.543277,0.93486 -0.522112,-1.30881 -0.508,-1.31586"
       style="fill:#b0bfde;fill-opacity:1;fill-rule:nonzero;stroke:none;stroke-width:0.0352778"
       id="path972" />
    <path
       d="m -63.144878,232.86433 c -0.02469,-0.0141 1.037167,-2.7058 1.520473,-3.47839 0.440972,-0.8008 1.566333,-1.89794 2.314222,-2.22955 0.740833,-0.34572 2.465916,-1.21003 2.709333,-1.52047 0.232833,-0.32456 -0.663222,1.42169 -1.591028,2.37419 -0.9525,0.93486 -2.289528,2.26131 -3.27025,3.40431 -0.980722,1.143 -1.49225,1.55927 -1.520472,2.56822 -0.02469,1.01247 -0.176389,-1.11831 -0.162278,-1.11831"
       style="fill:#b0bfde;fill-opacity:1;fill-rule:nonzero;stroke:none;stroke-width:0.0352778"
       id="path974" />
    <path
       d="m -63.441211,232.47628 c -0.0035,0.004 -1.128889,-1.36878 -2.032,-2.28248 -0.910167,-0.89605 -2.275417,-2.01436 -2.913944,-2.65994 -0.645584,-0.61383 -2.970389,-2.46239 -3.069167,-2.72344 -0.127,-0.22578 1.675694,3.35138 3.407833,4.74838 1.703917,1.43228 2.95275,2.03553 3.584222,2.58234 0.631473,0.5468 1.248834,1.17475 1.248834,1.17475 -0.07761,-0.2787 -0.151695,-0.56092 -0.225778,-0.83961"
       style="fill:#b0bfde;fill-opacity:1;fill-rule:nonzero;stroke:none;stroke-width:0.0352778"
       id="path976" />
    <path
       d="m -63.367128,228.45461 c -0.01411,-0.007 1.083028,-2.15547 2.240139,-3.19264 1.135945,-1.0548 3.048,-1.60867 3.732389,-1.83797 0.684389,-0.23283 1.100667,-0.24342 1.100667,-0.24695 -0.0035,0 -0.941917,0.96662 -2.010834,1.94734 -1.075972,0.97014 -2.607027,1.83091 -3.305527,2.21544 -0.705556,0.37395 -1.725084,1.47109 -1.792111,1.8662 -0.07761,0.38452 0.03175,-0.75142 0.03528,-0.75142"
       style="fill:#b0bfde;fill-opacity:1;fill-rule:nonzero;stroke:none;stroke-width:0.0352778"
       id="path978" />
    <path
       d="m -63.638767,228.63453 c -0.01058,0.007 -1.287638,-2.01436 -2.370666,-3.18911 -1.100667,-1.16064 -2.039056,-2.41653 -2.607028,-2.95628 -0.578555,-0.52211 -1.929694,-2.24367 -1.922639,-2.25072 -0.01058,0 0.702028,2.38477 1.961445,4.0393 0.92075,1.28764 3.859388,3.69358 4.755444,4.65314 0.709083,0.79728 0.179917,-0.29633 0.183444,-0.29633"
       style="fill:#b0bfde;fill-opacity:1;fill-rule:nonzero;stroke:none;stroke-width:0.0352778"
       id="path980" />
    <path
       d="m -63.226017,225.07147 c -0.01764,0 0.931334,-2.48355 2.617611,-3.53483 1.17475,-0.76553 2.836334,-1.25236 3.767667,-1.37584 1.17475,-0.16227 1.830917,-0.43391 1.830917,-0.43391 -0.0035,-0.004 -0.934861,0.99483 -1.700389,1.48519 -0.772583,0.47978 -2.088445,1.27353 -3.175,1.905 -1.097139,0.61384 -3.224389,1.62278 -3.411361,2.53295 -0.194028,0.89958 0.06703,-0.57856 0.07055,-0.57856"
       style="fill:#b0bfde;fill-opacity:1;fill-rule:nonzero;stroke:none;stroke-width:0.0352778"
       id="path982" />
    <path
       d="m -63.229544,224.57053 c 0,0 -0.582084,-0.93839 -1.11125,-1.86267 -0.546806,-0.91017 -1.566334,-2.88219 -2.31775,-3.81353 -0.779639,-0.88194 -2.695222,-3.55953 -2.726972,-3.79236 -0.07056,-0.20108 0.719666,3.25261 1.598083,4.69195 0.839611,1.48166 2.794,3.53836 3.728861,4.46616 0.931333,0.94545 1.023055,0.63853 0.829028,0.31045"
       style="fill:#b0bfde;fill-opacity:1;fill-rule:nonzero;stroke:none;stroke-width:0.0352778"
       id="path984" />
    <path
       d="m -62.714489,221.3038 c -0.02822,-0.0247 1.922639,-2.73402 3.171472,-3.41136 1.213556,-0.71966 2.688167,-1.22766 4.060472,-1.4605 1.372306,-0.23283 1.770945,-0.20108 1.770945,-0.20461 -0.01411,-0.0212 -2.215445,1.5875 -3.273778,2.17311 -1.075972,0.55739 -2.120194,1.21356 -3.273778,1.69686 -1.153583,0.47978 -2.356555,1.16417 -2.585861,2.07787 -0.232833,0.91016 0.123473,-0.87137 0.130528,-0.87137"
       style="fill:#b0bfde;fill-opacity:1;fill-rule:nonzero;stroke:none;stroke-width:0.0352778"
       id="path986" />
    <path
       d="m -62.8556,221.44492 c 0.0035,-0.004 -0.268111,-0.88195 -0.652639,-2.49767 -0.384528,-1.6122 -0.797278,-3.65478 -1.107722,-4.49792 -0.345722,-0.8008 -2.194278,-3.91583 -2.204861,-4.05694 -0.06703,-0.11289 -0.09172,3.68653 0.567972,5.29519 0.737306,1.92617 1.756833,3.1115 2.596445,4.91772 0.85725,1.79564 0.786694,1.89442 0.779638,1.90148 0.0035,-0.35278 0.01058,-0.70556 0.02117,-1.06186"
       style="fill:#b0bfde;fill-opacity:1;fill-rule:nonzero;stroke:none;stroke-width:0.0352778"
       id="path988" />
    <path
       d="m -61.843128,217.99122 c 0.0035,0.007 0.694972,-1.22767 2.345972,-2.49414 1.654528,-1.25941 2.734028,-1.86266 3.788834,-2.0708 1.058333,-0.20814 2.617611,-0.26459 2.617611,-0.26106 -0.0035,-0.007 -1.2065,0.94897 -2.166056,1.46403 -0.973666,0.49389 -2.959805,1.41817 -4.138083,2.07786 -1.185333,0.64558 -2.363611,1.43581 -2.811639,2.46239 -0.4445,1.01953 0.34925,-1.18533 0.363361,-1.17828"
       style="fill:#b0bfde;fill-opacity:1;fill-rule:nonzero;stroke:none;stroke-width:0.0352778"
       id="path990" />
    <path
       d="m -61.733767,217.455 c -0.0035,-0.007 0.292806,-2.01789 -0.141111,-4.03225 -0.440972,-2.02847 -0.391583,-3.05858 -0.733777,-3.82764 -0.359834,-0.75142 -1.291167,-3.62656 -1.27,-3.64419 -0.0635,0.0106 -0.381,4.91419 0.208138,6.58636 0.508,1.69686 1.439334,3.175 1.763889,5.01297 0.176389,0.94897 0.172861,-0.0953 0.172861,-0.0953"
       style="fill:#b0bfde;fill-opacity:1;fill-rule:nonzero;stroke:none;stroke-width:0.0352778"
       id="path992" />
    <path
       d="m -60.650739,214.33644 c -0.0071,-0.007 1.414639,-1.5875 2.522361,-2.28247 1.093611,-0.70908 2.250722,-1.32997 3.958167,-1.64394 1.710972,-0.30339 2.497666,-0.3175 2.497666,-0.32456 -0.0035,0.007 -0.860777,1.03011 -2.663472,1.8415 -1.80975,0.81845 -3.351389,1.29117 -4.169833,1.70039 -0.814917,0.40922 -1.972028,0.93133 -2.335389,1.38994 -0.370416,0.45509 0.186972,-0.68438 0.1905,-0.68086"
       style="fill:#b0bfde;fill-opacity:1;fill-rule:nonzero;stroke:none;stroke-width:0.0352778"
       id="path994" />
    <path
       d="m -59.941656,212.19155 c -0.03528,0.0106 0.05644,-3.60186 0.352778,-4.98122 0.324556,-1.93675 -0.596194,-4.75897 -0.582083,-5.09411 -0.04586,-0.3175 -1.231194,3.91583 -1.058333,5.37281 0.02117,0.82902 0.5715,3.9123 0.737305,5.05177 0.141111,1.15712 0.437445,0.56445 0.550333,-0.34925"
       style="fill:#b0bfde;fill-opacity:1;fill-rule:nonzero;stroke:none;stroke-width:0.0352778"
       id="path996" />
    <path
       d="m -59.133794,211.05208 c 0,-0.004 1.11125,-0.95603 2.215444,-1.67216 1.086555,-0.74084 3.182055,-1.77095 4.106333,-1.80975 0.924278,-0.067 2.518833,0.0212 2.518833,0.0212 0,0.007 -0.751416,0.97014 -2.268361,1.48872 -1.524,0.52212 -2.896305,1.00189 -3.926416,1.2947 -1.033639,0.28222 -2.677583,0.97367 -3.055056,1.59103 -0.381,0.6103 0.402167,-0.91723 0.409223,-0.9137"
       style="fill:#b0bfde;fill-opacity:1;fill-rule:nonzero;stroke:none;stroke-width:0.0352778"
       id="path998" />
    <path
       d="m -58.015489,208.79078 c 0,0 0.440972,-1.28059 0.733778,-2.65289 0.278694,-1.36878 0.702028,-3.00567 0.948972,-4.064 0.232833,-1.05128 0.405694,-2.81517 0.41275,-2.81517 -0.02117,-0.0141 -1.629833,2.54353 -1.9685,4.09575 -0.409222,1.55575 -0.359833,4.62845 -0.550333,6.01839 -0.186972,1.19239 0.416278,-0.58208 0.423333,-0.58208"
       style="fill:#b0bfde;fill-opacity:1;fill-rule:nonzero;stroke:none;stroke-width:0.0352778"
       id="path1000" />
    <path
       d="m -57.405183,208.21222 c -0.0035,-0.007 1.414638,-1.10772 2.141361,-1.91205 0.709083,-0.83609 2.638777,-2.00025 3.792361,-2.14489 1.146527,-0.16934 2.607027,-0.30692 2.607027,-0.30339 -0.0035,-0.007 -1.337027,0.81139 -2.070805,1.22766 -0.737306,0.41275 -1.583972,0.89606 -3.291417,1.74625 -1.7145,0.84314 -3.534833,2.01789 -3.852333,2.32128 -0.328083,0.29634 0.66675,-0.94191 0.673806,-0.93486"
       style="fill:#b0bfde;fill-opacity:1;fill-rule:nonzero;stroke:none;stroke-width:0.0352778"
       id="path1002" />
    <path
       d="m -57.094739,207.34086 c 0.0035,0.004 0.254,-0.53269 0.913695,-1.87678 0.642055,-1.35466 2.194277,-3.5313 2.871611,-4.064 0.642055,-0.58914 3.626555,-1.80975 3.855861,-1.94733 0.1905,-0.18697 -1.947334,2.21544 -2.554111,2.95628 -0.649112,0.71966 -1.252362,1.71097 -2.021417,2.30364 -0.79375,0.56444 -2.917472,2.59997 -3.07975,3.04447 -0.183444,0.4198 0.01058,-0.41628 0.01411,-0.41628"
       style="fill:#b0bfde;fill-opacity:1;fill-rule:nonzero;stroke:none;stroke-width:0.0352778"
       id="path1004" />
    <path
       d="m -45.223767,261.5875 c -0.05644,0.0776 -6.388805,-4.26861 -9.722555,-8.56192 -1.855611,-2.16253 -4.060472,-5.68678 -5.517445,-9.09108 -1.516944,-3.38667 -2.286,-6.65339 -2.557638,-8.00453 -0.289278,-1.35467 -0.66675,-4.4838 -0.596195,-7.51417 0.01764,-3.03741 0.486833,-5.97605 0.673806,-7.10141 0.22225,-2.77284 2.885722,-9.91306 4.804833,-12.61181 1.012472,-1.65805 2.166055,-2.57528 2.240139,-2.71286 0.06703,-0.15169 -1.202972,1.90147 -1.598084,2.5647 -0.451555,0.63147 -2.226027,3.87702 -3.009194,5.85963 -0.878417,1.93675 -1.749778,5.44337 -2.003778,6.94267 -0.486833,1.43933 -1.199444,9.63436 0.0071,14.49211 0.215194,1.0795 1.135944,4.86481 2.963333,8.61484 1.739195,3.77824 4.388556,7.51769 5.944306,9.18633 2.353027,2.65289 4.801305,4.44853 5.976055,5.19289 1.157111,0.75141 2.44475,2.34597 2.395361,2.74461"
       style="fill:#b0bfde;fill-opacity:1;fill-rule:nonzero;stroke:none;stroke-width:0.0352778"
       id="path1006" />
    <path
       d="m -105.22773,209.93025 c 0.004,0 0.0212,0.0141 0.06,0.0423 1.22061,0.90664 21.522966,16.38653 37.842466,57.71092 l 0.511528,-0.20109 C -83.697681,224.71866 -104.8714,209.51041 -104.90668,209.48572 l -0.3175,0.4445"
       style="fill:#3bb6d5;fill-opacity:1;fill-rule:nonzero;stroke:none;stroke-width:0.0352778"
       id="path1008" />
    <path
       d="m -84.449127,215.44064 c 0,0 0.05644,0.0811 0.169333,0.23989 1.668639,2.39889 15.211778,22.48958 19.321639,46.90886 l 0.543277,-0.0917 c -4.41325,-26.2008 -19.575638,-47.36041 -19.586221,-47.37805 l -0.448028,0.32103"
       style="fill:#3bb6d5;fill-opacity:1;fill-rule:nonzero;stroke:none;stroke-width:0.0352778"
       id="path1010" />
    <path
       d="m -96.68346,236.36389 c 0,0 0.01411,0.004 0.04586,0.0141 0.511528,0.17639 5.037666,1.79917 9.927166,6.25122 4.885972,4.45558 10.142361,11.73339 12.1285,23.25864 l 0.543278,-0.0917 c -2.070806,-12.0262 -7.6835,-19.52272 -12.781139,-24.003 -5.097639,-4.47675 -9.673166,-5.94431 -9.694333,-5.95489 l -0.169333,0.52564"
       style="fill:#3bb6d5;fill-opacity:1;fill-rule:nonzero;stroke:none;stroke-width:0.0352778"
       id="path1012" />
    <path
       d="m -107.80654,206.45186 c -3.36903,2.83281 -5.17172,6.23711 -4.02167,7.60236 1.14653,1.36525 4.81189,0.17639 8.18092,-2.65994 3.37256,-2.83281 5.171716,-6.23711 4.025188,-7.60236 -1.150048,-1.36878 -4.811878,-0.17639 -8.184438,2.65994"
       style="fill:#3bb6d5;fill-opacity:1;fill-rule:nonzero;stroke:none;stroke-width:0.0352778"
       id="path1014" />
    <path
       d="m -106.38484,208.13814 c -1.07245,0.89958 -1.64395,1.98261 -1.28059,2.413 0.36689,0.43391 1.53106,0.0564 2.59997,-0.84314 1.06892,-0.89958 1.64395,-1.98261 1.27706,-2.41653 -0.36336,-0.43039 -1.52753,-0.0529 -2.59644,0.84667"
       style="fill:#0c1153;fill-opacity:1;fill-rule:nonzero;stroke:none;stroke-width:0.0352778"
       id="path1016" />
    <path
       d="m -85.366349,213.92369 c -1.404056,1.18181 -2.155473,2.59998 -1.675695,3.16795 0.47625,0.56797 2.003778,0.0705 3.407833,-1.10772 1.400528,-1.18181 2.151945,-2.59998 1.675695,-3.16795 -0.479778,-0.56797 -2.003778,-0.0741 -3.407833,1.10772"
       style="fill:#3bb6d5;fill-opacity:1;fill-rule:nonzero;stroke:none;stroke-width:0.0352778"
       id="path1018" />
    <path
       d="m -84.777211,214.62572 c -0.4445,0.37395 -0.684388,0.8255 -0.532694,1.00542 0.151694,0.17991 0.638528,0.0247 1.083028,-0.35278 0.4445,-0.37394 0.684389,-0.82197 0.532694,-1.00542 -0.151694,-0.17991 -0.638528,-0.0212 -1.083028,0.35278"
       style="fill:#0c1153;fill-opacity:1;fill-rule:nonzero;stroke:none;stroke-width:0.0352778"
       id="path1020" />
    <path
       d="m -98.024016,235.11153 c -1.347606,1.94027 -1.806216,3.95816 -1.019528,4.50497 0.786695,0.5468 2.518834,-0.58561 3.866445,-2.52589 1.351139,-1.94028 1.806222,-3.95817 1.019528,-4.50497 -0.783167,-0.54681 -2.515306,0.58561 -3.866445,2.52589"
       style="fill:#3bb6d5;fill-opacity:1;fill-rule:nonzero;stroke:none;stroke-width:0.0352778"
       id="path1022" />
    <path
       d="m -97.050349,235.78886 c -0.430389,0.61383 -0.575028,1.25589 -0.324556,1.42875 0.250473,0.17286 0.797278,-0.18697 1.227667,-0.80081 0.426861,-0.61736 0.575028,-1.25588 0.324555,-1.43227 -0.250472,-0.17286 -0.800805,0.18697 -1.227666,0.80433"
       style="fill:#0c1153;fill-opacity:1;fill-rule:nonzero;stroke:none;stroke-width:0.0352778"
       id="path1024" />
    <path
       d="m -36.541906,269.21103 v -32.87184 c -5.5245,-3.29141 -12.446,-3.90525 -19.244027,2.10256 -4.586111,4.05342 -5.774972,9.97655 -11.662833,13.42672 -6.1595,3.61244 -17.466028,-6.59694 -32.335606,-0.32103 -6.173608,2.60703 -14.862528,8.66422 -21.385388,17.66359 h 84.627854"
       style="fill:#3bb6d5;fill-opacity:1;fill-rule:nonzero;stroke:none;stroke-width:0.0352778"
       id="path1026" />
    <path
       d="m -111.52834,249.02155 c -0.49389,-0.0741 -0.83609,-0.53975 -0.762,-1.03364 0.0776,-0.49741 0.53975,-0.83961 1.03363,-0.762 0.49742,0.0741 0.83962,0.53975 0.76553,1.03364 -0.0776,0.49389 -0.53975,0.83609 -1.03716,0.762 z m 2.06727,-0.62441 c -0.06,-0.0494 -0.12347,-0.0953 -0.18697,-0.14111 0.0318,-0.0106 0.067,-0.0212 0.0988,-0.0353 0.8643,-0.33867 1.42169,-0.9772 1.2453,-1.42875 -0.17991,-0.45156 -1.02305,-0.54328 -1.88383,-0.20461 -0.0741,0.0282 -0.14817,0.06 -0.21519,0.0952 0.007,-0.0353 0.0141,-0.0706 0.0176,-0.10584 0.13758,-0.91722 -0.13759,-1.71802 -0.61384,-1.79211 -0.47978,-0.0705 -0.98072,0.61384 -1.12183,1.53106 -0.0106,0.0776 -0.0176,0.15522 -0.0247,0.23283 l -0.0811,-0.0705 c -0.7232,-0.57856 -1.55575,-0.74084 -1.85914,-0.35984 -0.30339,0.37747 0.0388,1.15359 0.76552,1.73214 0.06,0.0494 0.12348,0.0953 0.18698,0.14111 -0.0318,0.0106 -0.067,0.0212 -0.0988,0.0353 -0.86431,0.33514 -1.4217,0.97719 -1.24531,1.42875 0.17992,0.45156 1.02306,0.54328 1.88384,0.20461 0.0741,-0.0282 0.14816,-0.06 0.21519,-0.0952 -0.007,0.0353 -0.0141,0.0706 -0.0176,0.10583 -0.13758,0.91723 0.13759,1.71803 0.61736,1.79212 0.47978,0.0706 0.9772,-0.61384 1.11831,-1.53106 0.0106,-0.0776 0.0176,-0.15522 0.0247,-0.23283 l 0.0811,0.067 c 0.72672,0.58209 1.55575,0.74437 1.85914,0.36337 0.30339,-0.37748 -0.0388,-1.15359 -0.76553,-1.73214"
       style="fill:#ffffff;fill-opacity:1;fill-rule:nonzero;stroke:none;stroke-width:0.0352778"
       id="path1028" />
    <path
       d="m 148.7264,255.83369 c 1.41817,0.10936 13.19389,-1.68275 18.50672,5.04472 4.21922,5.33753 6.48053,2.71287 7.49653,-0.14816 1.01953,-2.86456 0.70203,-6.02545 4.38855,-5.0165 12.13556,3.31611 23.51617,-1.9685 16.95098,-7.46125 -3.54542,-2.96686 0.60325,-6.81567 3.69358,-6.04661 6.55461,1.6263 11.71928,-0.25047 9.00994,-4.49086 -2.667,-4.17336 -2.50119,-7.43303 0.46214,-7.747 2.96334,-0.31398 8.33967,2.05316 8.5337,-3.69711 0.0776,-2.26484 -4.37092,-5.85259 -9.03817,-5.40103 -2.65994,0.25753 -10.58333,3.31258 -8.14917,-3.01625 2.50825,-6.52286 -3.16794,-6.06072 -5.72911,-3.19264 -0.95602,1.06892 -10.56569,10.26583 -10.68916,5.87728 -0.14464,-5.17525 -4.64256,-5.39398 -8.03981,0.28927 -1.54164,2.57881 -3.18558,9.2075 -5.30225,7.71173 -2.11314,-1.49578 -5.53508,-2.88925 -7.83519,1.10419 -3.9617,6.88975 -11.30653,26.41247 -14.25928,26.19022"
       style="fill:#d1dbea;fill-opacity:1;fill-rule:nonzero;stroke:none;stroke-width:0.0352778"
       id="path1030" />
    <path
       d="m 214.04673,224.21069 c -0.004,0 -0.0811,0 -0.2293,0 -2.20134,0 -20.02367,0.36689 -36.7912,12.13909 -8.90764,6.25122 -15.03539,10.88672 -20.48228,14.5415 -5.44688,3.6583 -10.20938,6.33236 -16.42533,8.69244 l 0.21167,0.55386 c 6.25828,-2.37772 11.07722,-5.08353 16.54528,-8.75594 5.46805,-3.66889 11.58875,-8.30086 20.48933,-14.54856 16.60525,-11.66283 34.31469,-12.03325 36.45253,-12.03325 0.0741,0 0.127,0 0.16227,0 0.0388,0.004 0.0529,0.004 0.0529,0.004 l 0.0141,-0.59267"
       style="fill:#ffffff;fill-opacity:1;fill-rule:nonzero;stroke:none;stroke-width:0.0352778"
       id="path1032" />
    <path
       d="m 202.97656,236.378 c -0.007,-0.007 -1.89441,-1.48872 -4.67077,-2.97392 -2.77636,-1.48166 -6.44172,-2.97744 -10.04006,-2.98097 -0.32455,0 -0.64911,0.0141 -0.97366,0.0388 l 0.0494,0.58913 c 0.30692,-0.0247 0.61384,-0.0353 0.92428,-0.0353 3.43606,-0.004 7.03439,1.44991 9.76136,2.91041 1.36525,0.73025 2.51531,1.4605 3.31964,2.01084 0.4057,0.27164 0.71967,0.50094 0.93839,0.65969 0.10583,0.0776 0.1905,0.14111 0.24342,0.18345 0.0564,0.0423 0.0847,0.0635 0.0847,0.0635 l 0.36336,-0.46567"
       style="fill:#ffffff;fill-opacity:1;fill-rule:nonzero;stroke:none;stroke-width:0.0352778"
       id="path1034" />
    <path
       d="m 196.96523,216.36844 c 0,0 -0.0141,0.0317 -0.0423,0.10231 -0.21167,0.51858 -1.23825,2.93864 -3.11503,5.87022 -1.8803,2.92806 -4.60728,6.36764 -8.21267,8.92881 l 0.3422,0.47977 c 3.94053,-2.80105 6.82625,-6.58988 8.73478,-9.67669 1.90852,-3.09033 2.83986,-5.47864 2.84339,-5.49275 l -0.55034,-0.21167"
       style="fill:#ffffff;fill-opacity:1;fill-rule:nonzero;stroke:none;stroke-width:0.0352778"
       id="path1036" />
    <path
       d="m 192.13218,250.30566 v 0.0141 -0.0141 0.0141 -0.0141 c -0.0741,0 -5.12234,-0.31044 -21.45242,-9.15811 l -0.28222,0.51859 c 16.62994,9.00994 21.63233,9.22514 21.71347,9.22866 l 0.0212,-0.58914"
       style="fill:#ffffff;fill-opacity:1;fill-rule:nonzero;stroke:none;stroke-width:0.0352778"
       id="path1038" />
    <path
       d="m 180.65984,218.79203 c 0,0 -0.0494,0.24341 -0.13758,0.67027 -0.31397,1.50284 -1.12183,5.30578 -2.07786,9.08403 -0.47625,1.88736 -0.98778,3.76767 -1.49225,5.34811 -0.50447,1.58045 -1.00542,2.86456 -1.4217,3.52425 l 0.49742,0.31398 c 0.27517,-0.43392 0.55033,-1.0407 0.83608,-1.78506 0.99484,-2.59292 2.08492,-6.84389 2.93159,-10.45633 0.84314,-3.61245 1.44286,-6.57931 1.44286,-6.58284 l -0.57856,-0.11641"
       style="fill:#ffffff;fill-opacity:1;fill-rule:nonzero;stroke:none;stroke-width:0.0352778"
       id="path1040" />
    <path
       d="m 166.15009,229.83397 c 0,0 -0.004,0.0459 -0.0141,0.14111 -0.067,0.71261 -0.40922,3.98639 -1.3723,7.78581 -0.95956,3.79941 -2.54706,8.12447 -5.04473,10.92552 l 0.44098,0.39159 c 2.78341,-3.12914 4.40972,-7.91986 5.36222,-11.93447 0.9525,-4.01461 1.21708,-7.25311 1.21708,-7.26017 l -0.58914,-0.0494"
       style="fill:#ffffff;fill-opacity:1;fill-rule:nonzero;stroke:none;stroke-width:0.0352778"
       id="path1042" />
    <path
       d="m 139.24726,304.65461 c 0,0 5.13997,3.4043 9.02406,0.36336 3.88055,-3.03742 6.64633,-6.54403 3.5948,-8.65717 -3.05153,-2.11314 -18.12219,0.508 -12.61886,8.29381"
       style="fill:#e4efff;fill-opacity:1;fill-rule:nonzero;stroke:none;stroke-width:0.0352778"
       id="path1044" />
    <path
       d="m 196.25615,181.20708 -0.94545,12.21317 c 0,0 -3.29494,-6.54403 -3.64772,-11.13014 -0.35278,-4.58258 4.68136,-1.25589 4.59317,-1.08303"
       style="fill:#e9d6b8;fill-opacity:1;fill-rule:nonzero;stroke:none;stroke-width:0.0352778"
       id="path1046" />
    <path
       d="m 218.09309,174.25383 -5.99722,9.75078 c 0,0 8.91822,-4.28272 8.45608,-8.27264 -0.45861,-3.98991 -2.45886,-1.47814 -2.45886,-1.47814"
       style="fill:#e9d6b8;fill-opacity:1;fill-rule:nonzero;stroke:none;stroke-width:0.0352778"
       id="path1048" />
    <path
       d="m 202.91306,151.11514 c 0.11642,1.39347 0.86431,2.59997 1.65453,2.65642 0.74436,0 1.49225,0 2.24014,0 0.7867,-0.0564 1.53811,-1.26295 1.65453,-2.65642 0.18344,-2.30011 0.36689,-4.59669 0.55033,-6.89328 0.12347,-1.37936 -0.41628,-4.14513 -1.60866,-4.96358 -1.09009,-0.72672 -2.34245,-0.72672 -3.43253,0 -1.19239,0.81845 -1.73214,3.58422 -1.6122,4.96358 0.18698,2.29659 0.37042,4.59317 0.55386,6.89328"
       style="fill:#e9d6b8;fill-opacity:1;fill-rule:nonzero;stroke:none;stroke-width:0.0352778"
       id="path1050" />
    <path
       d="m 196.40784,154.61117 c 0,0 -2.921,1.91911 -4.6108,13.589 -1.69334,11.66989 -0.61736,11.22539 -0.61736,11.22539 l 0.30691,2.65994 4.30742,0.44097 2.45886,-10.04358 -1.84503,-17.87172"
       style="fill:#b0bfde;fill-opacity:1;fill-rule:nonzero;stroke:none;stroke-width:0.0352778"
       id="path1052" />
    <path
       d="m 195.33187,154.75581 6.78392,-3.06211 3.49955,1.04775 4.32859,-0.49389 4.76602,2.06727 c 0,0 2.15195,2.06728 0.15523,8.71361 -2.00025,6.64634 -1.70392,17.62478 -1.70392,17.62478 l -17.31081,1.09714 c 0,0 1.17475,-23.30097 -0.51858,-26.99455"
       style="fill:#d1dbea;fill-opacity:1;fill-rule:nonzero;stroke:none;stroke-width:0.0352778"
       id="path1054" />
    <path
       d="m 211.63373,154.61117 c 0,0 2.61408,-1.47814 5.22817,1.77094 4.45558,5.53861 6.61458,12.4072 7.07319,13.73717 0.46214,1.32997 1.07597,5.31636 -0.76553,6.49816 -1.84855,1.18181 -1.84855,1.18181 -1.84855,1.18181 l -3.84175,-2.36361 0.61383,-1.18181 0.30692,-0.7373 c 0,0 -2.15195,-4.72722 -4.45911,-9.00995 -2.30717,-4.28272 -2.30717,-9.89541 -2.30717,-9.89541"
       style="fill:#d1dbea;fill-opacity:1;fill-rule:nonzero;stroke:none;stroke-width:0.0352778"
       id="path1056" />
    <path
       d="m 206.47259,152.59328 1.71097,1.86619 1.71098,-2.46591 -1.03011,-1.52047 -2.39184,2.12019"
       style="fill:#b0bfde;fill-opacity:1;fill-rule:nonzero;stroke:none;stroke-width:0.0352778"
       id="path1058" />
    <path
       d="m 202.71551,150.62125 3.28789,2.1202 -1.55575,1.86619 -2.56822,-2.91394 0.83608,-1.07245"
       style="fill:#b0bfde;fill-opacity:1;fill-rule:nonzero;stroke:none;stroke-width:0.0352778"
       id="path1060" />
    <path
       d="m 205.35781,137.6355 v -1.59455 h -3.44311 c -1.15711,0 -2.0955,0.93839 -2.0955,2.0955 v 1.59455 h 0.6597 1.73214 1.05127 c 1.15712,0 2.0955,-0.93839 2.0955,-2.0955"
       style="fill:#163f59;fill-opacity:1;fill-rule:nonzero;stroke:none;stroke-width:0.0352778"
       id="path1062" />
    <path
       d="m 208.65629,147.3122 c 0,1.03011 -0.83609,1.86266 -1.8662,1.86266 h -4.2298 c -1.03011,0 -1.86267,-0.83255 -1.86267,-1.86266 v -8.46314 c 0,-1.03011 0.83256,-1.8662 1.86267,-1.8662 h 4.2298 c 1.03011,0 1.8662,0.83609 1.8662,1.8662 v 8.46314"
       style="fill:#e9d6b8;fill-opacity:1;fill-rule:nonzero;stroke:none;stroke-width:0.0352778"
       id="path1064" />
    <path
       d="m 205.49187,136.04095 c 0.73378,0 1.37583,0.37747 1.75331,0.94897 h 0.71966 c 0.89606,0 1.62278,0.72672 1.62278,1.62278 v 4.01461 h -1.143 v -1.62983 c 0,-0.63148 -0.51153,-1.143 -1.143,-1.143 h -0.66675 -1.73567 -1.04775 c -1.16064,0 -2.09902,-0.94192 -2.09902,-2.09903 v -1.7145 h 3.73944"
       style="fill:#163f59;fill-opacity:1;fill-rule:nonzero;stroke:none;stroke-width:0.0352778"
       id="path1066" />
    <path
       d="m 208.08479,143.67153 c 0,-0.55033 0.4445,-0.99483 0.99483,-0.99483 h 0.0811 c 0.55033,0 0.99836,0.4445 0.99836,0.99483 v 1.2065 c 0,0.55033 -0.44803,0.99483 -0.99836,0.99483 h -0.0811 c -0.40569,0 -0.75494,-0.24341 -0.91017,-0.59266"
       style="fill:#e9d6b8;fill-opacity:1;fill-rule:nonzero;stroke:none;stroke-width:0.0352778"
       id="path1068" />
    <path
       d="m 206.94884,188.00511 c 0,0 -5.21758,18.47144 -9.39447,25.0825 -4.18042,6.61458 -5.63739,-1.98614 -5.63739,-1.98614 l 5.18936,-30.71989 12.13909,-0.0776 c 0,0 -0.31045,0.63147 -2.29659,7.70114"
       style="fill:#163f59;fill-opacity:1;fill-rule:nonzero;stroke:none;stroke-width:0.0352778"
       id="path1070" />
    <path
       d="m 201.18445,180.37806 c 0,0 3.4925,30.30361 3.99345,31.82761 1.69333,5.15055 5.55625,1.82386 6.15597,0.10936 0.59619,-1.71803 1.59103,-14.42509 1.39347,-23.69609 -0.19755,-9.271 -0.19755,-8.66069 -0.19755,-8.66069 l -11.34534,0.41981"
       style="fill:#194866;fill-opacity:1;fill-rule:nonzero;stroke:none;stroke-width:0.0352778"
       id="path1072" />
    <path
       d="m 211.83129,239.87755 c 0.17991,0.21873 0.0494,0.79375 0.0494,0.79375 0,0 -3.14325,0.34925 -4.15573,0.11289 -0.26105,-0.0635 -0.70555,-0.28927 -1.12183,-0.52916 -0.0706,-0.0423 -0.19756,-0.28223 -0.26458,-0.32456 -0.127,-0.0741 -0.19403,0.0529 -0.29986,-0.0176 -0.28223,-0.17286 -0.47625,-0.31044 -0.48331,-0.33161 -0.27517,-1.43933 0.0917,-2.02142 0.0917,-2.02142 0,0 2.67759,-0.889 3.17853,-0.26811 1.18181,1.4605 2.61056,2.10961 3.00567,2.58586"
       style="fill:#161711;fill-opacity:1;fill-rule:nonzero;stroke:none;stroke-width:0.0352778"
       id="path1074" />
    <path
       d="m 192.29093,238.58286 -0.44803,2.34244 h -2.38831 c 0,0 -0.13405,-0.33161 -0.33514,-0.33161 -0.16933,0 -0.39158,0.33161 -0.62088,0.33161 -0.50448,0 -1.06187,0 -1.28412,0 -0.44802,0 -4.79072,0 -4.79072,0 0,0 -0.10936,-0.49388 0.0247,-0.66322 0.067,-0.0847 0.46566,-0.23636 0.73377,-0.31397 1.2312,-0.34572 4.7625,-1.42522 5.37634,-2.6035 0.74436,-1.43581 3.73239,1.23825 3.73239,1.23825"
       style="fill:#161711;fill-opacity:1;fill-rule:nonzero;stroke:none;stroke-width:0.0352778"
       id="path1076" />
    <path
       d="m 204.29595,199.27636 c 0,0 0.77259,11.4935 0.66323,17.56833 -0.0847,4.58259 -0.0917,13.37028 0.60325,20.85623 0.0423,0.45861 3.78177,0.11288 3.78177,0.11288 0,0 2.50825,-28.64908 2.90689,-33.34455 0.39864,-4.69195 -4.97064,-8.54781 -7.95514,-5.19289"
       style="fill:#194866;fill-opacity:1;fill-rule:nonzero;stroke:none;stroke-width:0.0352778"
       id="path1078" />
    <path
       d="m 193.20815,211.99753 c 0,0 1.05833,0.23283 4.37797,0.51858 1.51342,0.13053 -4.42736,26.51831 -4.42736,26.51831 l -4.70606,-2.032 3.54542,-26.57828 1.21003,1.57339"
       style="fill:#163f59;fill-opacity:1;fill-rule:nonzero;stroke:none;stroke-width:0.0352778"
       id="path1080" />
    <path
       d="M 133.89209,272.95047 H 56.041092 v -81.95028 h 77.850998 v 81.95028"
       style="fill:#fec12f;fill-opacity:1;fill-rule:nonzero;stroke:none;stroke-width:0.0352778"
       id="path1082" />
    <path
       d="m -38.577434,265.81025 c -3.369027,-4.09928 -6.117166,-8.60425 -8.173861,-13.39145 -1.643944,-3.83116 -2.850444,-7.84577 -3.58775,-11.938 -1.252361,-6.97088 -0.691444,-11.81452 -0.684389,-11.86391 l 0.430389,0.0529 c -0.0035,0.0459 -0.557388,4.84012 0.687917,11.75103 0.73025,4.05695 1.929694,8.03981 3.559528,11.8357 2.039055,4.74486 4.766027,9.21102 8.106833,13.27855 l -0.338667,0.27517"
       style="fill:#0c1153;fill-opacity:1;fill-rule:nonzero;stroke:none;stroke-width:0.0352778"
       id="path1084" />
    <path
       d="m -50.924656,229.22367 c 0,0 -0.659694,-1.24531 -0.440972,-2.62114 0.08114,-0.49742 0.592667,-1.29823 1.054806,-1.22414 0.465666,0.0741 0.737305,0.76553 0.620888,1.48872 -0.218722,1.37583 -1.234722,2.35656 -1.234722,2.35656"
       style="fill:#0c1153;fill-opacity:1;fill-rule:nonzero;stroke:none;stroke-width:0.0352778"
       id="path1086" />
    <path
       d="m -50.914072,231.64019 c 0,0 0.176388,-1.24883 1.044222,-2.16605 0.3175,-0.33161 1.100666,-0.68439 1.393472,-0.4057 0.292806,0.2787 0.130528,0.92781 -0.328083,1.41111 -0.871361,0.91723 -2.109611,1.16064 -2.109611,1.16064"
       style="fill:#0c1153;fill-opacity:1;fill-rule:nonzero;stroke:none;stroke-width:0.0352778"
       id="path1088" />
    <path
       d="m -50.533072,235.72889 c 0,0 0.229305,-1.13595 1.083027,-1.78506 0.310445,-0.23283 1.051278,-0.36336 1.305278,-0.0282 0.257528,0.33867 0.07056,0.91017 -0.381,1.24883 -0.853722,0.64911 -2.007305,0.56445 -2.007305,0.56445"
       style="fill:#0c1153;fill-opacity:1;fill-rule:nonzero;stroke:none;stroke-width:0.0352778"
       id="path1090" />
    <path
       d="m -50.776489,231.49203 c 0,0 -1.128889,0.20461 -2.042583,-0.3422 -0.331611,-0.20108 -0.723195,-0.83608 -0.508,-1.19591 0.218722,-0.35984 0.814916,-0.39864 1.294694,-0.10937 0.910167,0.55034 1.255889,1.64748 1.255889,1.64748"
       style="fill:#0c1153;fill-opacity:1;fill-rule:nonzero;stroke:none;stroke-width:0.0352778"
       id="path1092" />
    <path
       d="m -44.652267,256.43341 c 0,0 -1.023056,0.58914 -2.176639,0.4445 -0.416278,-0.0564 -1.097139,-0.46213 -1.04775,-0.85019 0.04939,-0.39158 0.620889,-0.63853 1.227667,-0.56092 1.150055,0.14464 1.996722,0.96661 1.996722,0.96661"
       style="fill:#0c1153;fill-opacity:1;fill-rule:nonzero;stroke:none;stroke-width:0.0352778"
       id="path1094" />
    <path
       d="m -50.7906,235.73947 c 0,0 -1.312333,0.13406 -2.427111,-0.53975 -0.402167,-0.24342 -0.917222,-0.97014 -0.691445,-1.34408 0.225778,-0.37395 0.92075,-0.36689 1.509889,-0.0106 1.114778,0.67028 1.608667,1.89442 1.608667,1.89442"
       style="fill:#0c1153;fill-opacity:1;fill-rule:nonzero;stroke:none;stroke-width:0.0352778"
       id="path1096" />
    <path
       d="m -50.3461,240.09628 c 0,0 -1.277056,0.32808 -2.250722,-0.26106 -0.34925,-0.21167 -0.744361,-0.93839 -0.47625,-1.38289 0.268111,-0.4445 0.934861,-0.53269 1.446389,-0.22225 0.973666,0.58914 1.280583,1.8662 1.280583,1.8662"
       style="fill:#0c1153;fill-opacity:1;fill-rule:nonzero;stroke:none;stroke-width:0.0352778"
       id="path1098" />
    <path
       d="m -50.035656,239.96928 c 0,0 0.01411,-1.2947 0.821972,-2.14136 0.292806,-0.30692 1.083028,-0.56092 1.435806,-0.22578 0.352778,0.33866 0.268111,1.00189 -0.15875,1.44639 -0.804333,0.84666 -2.099028,0.92075 -2.099028,0.92075"
       style="fill:#0c1153;fill-opacity:1;fill-rule:nonzero;stroke:none;stroke-width:0.0352778"
       id="path1100" />
    <path
       d="m -44.461767,256.53219 c 0,0 -0.416278,-1.016 -0.03175,-2.21897 0.137583,-0.43392 0.6985,-1.16769 1.100667,-1.14653 0.398639,0.0212 0.546805,0.59267 0.345722,1.22767 -0.381,1.20297 -1.414639,2.13783 -1.414639,2.13783"
       style="fill:#0c1153;fill-opacity:1;fill-rule:nonzero;stroke:none;stroke-width:0.0352778"
       id="path1102" />
    <path
       d="m -48.141239,248.27014 c 0,0 0.236361,-0.81845 1.146528,-1.45345 0.328083,-0.23283 1.121833,-0.49741 1.400527,-0.33161 0.278695,0.16581 0.08467,0.59267 -0.395111,0.92781 -0.910166,0.63852 -2.151944,0.85725 -2.151944,0.85725"
       style="fill:#0c1153;fill-opacity:1;fill-rule:nonzero;stroke:none;stroke-width:0.0352778"
       id="path1104" />
    <path
       d="m -49.400656,244.50953 c 0,0 -0.797278,0.0705 -1.598083,-0.51506 -0.289278,-0.21519 -0.726722,-0.82903 -0.645583,-1.13242 0.08114,-0.30338 0.515055,-0.27869 0.938388,0.0318 0.797278,0.58914 1.305278,1.61573 1.305278,1.61573"
       style="fill:#0c1153;fill-opacity:1;fill-rule:nonzero;stroke:none;stroke-width:0.0352778"
       id="path1106" />
    <path
       d="m -46.2821,252.65164 c 0,0 -0.451556,-1.29823 -0.215195,-2.286 0.08467,-0.35631 0.518584,-0.75495 0.871361,-0.48331 0.356306,0.27164 0.536223,0.9525 0.409223,1.47108 -0.232834,0.98778 -1.065389,1.29823 -1.065389,1.29823"
       style="fill:#0c1153;fill-opacity:1;fill-rule:nonzero;stroke:none;stroke-width:0.0352778"
       id="path1108" />
    <path
       d="m -47.993072,248.39008 c 0,0 -1.569862,0.32456 -2.808112,-0.0635 -0.448027,-0.14111 -0.970138,-0.66675 -0.656166,-1.01953 0.313972,-0.34572 1.135944,-0.45508 1.788583,-0.25047 1.23825,0.38453 1.675695,1.3335 1.675695,1.3335"
       style="fill:#0c1153;fill-opacity:1;fill-rule:nonzero;stroke:none;stroke-width:0.0352778"
       id="path1110" />
    <path
       d="m -46.373822,252.888 c 0,0 -1.488723,0.30339 -2.592917,-0.0882 -0.398639,-0.14111 -0.8255,-0.66322 -0.497417,-1.00541 0.328084,-0.3422 1.100667,-0.43745 1.68275,-0.23284 1.104195,0.39159 1.407584,1.32645 1.407584,1.32645"
       style="fill:#0c1153;fill-opacity:1;fill-rule:nonzero;stroke:none;stroke-width:0.0352778"
       id="path1112" />
    <path
       d="m -54.3466,225.16672 c 0,0 -1.023056,0.58914 -2.173111,0.4445 -0.419806,-0.0529 -1.100667,-0.46214 -1.051278,-0.85019 0.04939,-0.38806 0.620889,-0.63853 1.227667,-0.56092 1.153583,0.14464 1.996722,0.96661 1.996722,0.96661"
       style="fill:#0c1153;fill-opacity:1;fill-rule:nonzero;stroke:none;stroke-width:0.0352778"
       id="path1114" />
    <path
       d="m -42.50385,260.01058 c 0,0 -0.225778,-0.82197 0.232833,-1.83444 0.162278,-0.37042 0.712611,-1.00189 1.040694,-1.00189 0.328084,0 0.384528,0.46566 0.144639,1.00189 -0.455083,1.01247 -1.418166,1.83444 -1.418166,1.83444"
       style="fill:#0c1153;fill-opacity:1;fill-rule:nonzero;stroke:none;stroke-width:0.0352778"
       id="path1116" />
    <path
       d="m -44.733406,242.48105 c 0,0 0.06703,-1.27352 0.613833,-2.12725 0.197556,-0.30691 0.705556,-0.57502 0.913695,-0.254 0.204611,0.32103 0.123472,0.9772 -0.165806,1.42523 -0.543277,0.85019 -1.361722,0.95602 -1.361722,0.95602"
       style="fill:#0c1153;fill-opacity:1;fill-rule:nonzero;stroke:none;stroke-width:0.0352778"
       id="path1118" />
    <path
       d="m -49.196045,244.73178 c 0,0 0.04233,-1.0795 0.8255,-2.18723 0.28575,-0.40216 1.044223,-1.016 1.375834,-0.91369 0.331611,0.10231 0.236361,0.69497 -0.179917,1.27706 -0.783167,1.10772 -2.021417,1.82386 -2.021417,1.82386"
       style="fill:#0c1153;fill-opacity:1;fill-rule:nonzero;stroke:none;stroke-width:0.0352778"
       id="path1120" />
    <path
       d="m -55.411989,272.95047 -0.356306,3.00919 c -2.377722,0.55739 -4.706055,0.83962 -6.889749,0.85725 -0.398639,-2.0955 -0.550334,-4.27566 -0.405695,-6.47347 0.709084,-10.82675 16.495889,-17.53305 27.234444,-8.18091 -1.979083,4.21922 -6.600472,8.48077 -12.957527,11.39825 -1.651,0.75847 -3.323167,1.37936 -4.98475,1.87325 l -1.640417,-2.48356"
       style="fill:#0c1153;fill-opacity:1;fill-rule:nonzero;stroke:none;stroke-width:0.0352778"
       id="path1122" />
    <path
       d="m -62.481655,276.89453 0.02117,-0.0423 c 0.1905,-0.42686 1.922639,-4.13808 5.549195,-7.73289 3.630083,-3.59833 9.143999,-7.07672 16.933332,-7.07672 1.308806,0 2.681112,0.0988 4.120445,0.31045 l 0.05644,-0.381 c -1.456972,-0.2152 -2.846916,-0.31398 -4.176889,-0.31398 -8.163277,-0.004 -13.885333,3.77473 -17.554221,7.54239 -3.668889,3.76767 -5.295195,7.52475 -5.30225,7.53886 l 0.352778,0.15523"
       style="fill:#3bb6d5;fill-opacity:1;fill-rule:nonzero;stroke:none;stroke-width:0.0352778"
       id="path1124" />
    <path
       d="m -63.116655,272.11439 3.608916,-0.0988 -0.01058,-0.38453 -3.608917,0.0988"
       style="fill:#3bb6d5;fill-opacity:1;fill-rule:nonzero;stroke:none;stroke-width:0.0352778"
       id="path1126" />
    <path
       d="m -62.718017,268.56191 5.849056,0.41275 0.02469,-0.38452 -5.845527,-0.41275"
       style="fill:#3bb6d5;fill-opacity:1;fill-rule:nonzero;stroke:none;stroke-width:0.0352778"
       id="path1128" />
    <path
       d="m -61.345711,265.22816 7.560028,1.143 0.05644,-0.37747 -7.5565,-1.14653"
       style="fill:#3bb6d5;fill-opacity:1;fill-rule:nonzero;stroke:none;stroke-width:0.0352778"
       id="path1130" />
    <path
       d="m -58.558767,261.88736 7.997472,2.56822 0.119945,-0.36689 -8.001,-2.56822"
       style="fill:#3bb6d5;fill-opacity:1;fill-rule:nonzero;stroke:none;stroke-width:0.0352778"
       id="path1132" />
    <path
       d="m -55.189739,259.70366 7.570611,3.47487 0.15875,-0.34925 -7.567083,-3.47487"
       style="fill:#3bb6d5;fill-opacity:1;fill-rule:nonzero;stroke:none;stroke-width:0.0352778"
       id="path1134" />
    <path
       d="m -50.63185,258.19025 7.126111,4.07105 0.1905,-0.33161 -7.126111,-4.07105"
       style="fill:#3bb6d5;fill-opacity:1;fill-rule:nonzero;stroke:none;stroke-width:0.0352778"
       id="path1136" />
    <path
       d="m -45.668267,258.00328 6.170083,4.02519 0.211667,-0.32103 -6.173611,-4.02872"
       style="fill:#3bb6d5;fill-opacity:1;fill-rule:nonzero;stroke:none;stroke-width:0.0352778"
       id="path1138" />
    <path
       d="m -58.661072,276.47119 -0.790222,-4.6355 -0.377473,0.0635 0.786695,4.6355"
       style="fill:#3bb6d5;fill-opacity:1;fill-rule:nonzero;stroke:none;stroke-width:0.0352778"
       id="path1140" />
    <path
       d="m -57.048878,268.8018 0.751417,7.26017 0.381,-0.0388 -0.747889,-7.26016"
       style="fill:#3bb6d5;fill-opacity:1;fill-rule:nonzero;stroke:none;stroke-width:0.0352778"
       id="path1142" />
    <path
       d="m -53.947961,266.21594 1.534583,8.71361 0.377472,-0.0635 -1.534583,-8.71714"
       style="fill:#3bb6d5;fill-opacity:1;fill-rule:nonzero;stroke:none;stroke-width:0.0352778"
       id="path1144" />
    <path
       d="m -50.688295,264.31447 2.116667,9.11931 0.377472,-0.0847 -2.120194,-9.12283"
       style="fill:#3bb6d5;fill-opacity:1;fill-rule:nonzero;stroke:none;stroke-width:0.0352778"
       id="path1146" />
    <path
       d="m -47.724961,263.05505 2.324805,8.66775 0.373945,-0.0988 -2.328334,-8.67128"
       style="fill:#3bb6d5;fill-opacity:1;fill-rule:nonzero;stroke:none;stroke-width:0.0352778"
       id="path1148" />
    <path
       d="m -43.597461,262.13783 1.661583,7.18608 0.373944,-0.0847 -1.658055,-7.18609"
       style="fill:#3bb6d5;fill-opacity:1;fill-rule:nonzero;stroke:none;stroke-width:0.0352778"
       id="path1150" />
    <path
       d="m -39.58285,261.89441 0.606777,4.55437 0.381,-0.0529 -0.606777,-4.55436"
       style="fill:#3bb6d5;fill-opacity:1;fill-rule:nonzero;stroke:none;stroke-width:0.0352778"
       id="path1152" />
    <path
       d="m 188.23045,273.43025 c 0,0 -39.50405,-6.8827 -48.53516,-20.48581 -9.03111,-13.60664 -5.73264,-38.78791 16.70755,-17.83644 22.43667,20.955 18.70075,32.93533 31.82761,38.32225"
       style="fill:#b0bfde;fill-opacity:1;fill-rule:nonzero;stroke:none;stroke-width:0.0352778"
       id="path1154" />
    <path
       d="m 140.34087,235.6548 c 0.004,0.007 4.54025,7.54239 12.78467,16.05492 8.24441,8.509 20.20358,17.99167 35.06258,21.87928 l 0.0847,-0.31397 c -14.77434,-3.86292 -26.69117,-13.31031 -34.91089,-21.79462 -4.11339,-4.24038 -7.29897,-8.24088 -9.45797,-11.17952 -1.07597,-1.47109 -1.89795,-2.67406 -2.45181,-3.51014 -0.27516,-0.41981 -0.4833,-0.74436 -0.62441,-0.96661 -0.13759,-0.22225 -0.20814,-0.33867 -0.20814,-0.33867 l -0.2787,0.16933"
       style="fill:#b0bfde;fill-opacity:1;fill-rule:nonzero;stroke:none;stroke-width:0.0352778"
       id="path1156" />
    <path
       d="m 145.11043,203.25217 c 0,0 -3.28084,-1.3582 -4.82953,-4.32859 -0.56092,-1.0795 -0.62442,-3.40783 0.49389,-3.98991 1.1183,-0.58561 2.73755,0.31397 3.55247,1.8803 1.5487,2.97039 0.78317,6.4382 0.78317,6.4382"
       style="fill:#b0bfde;fill-opacity:1;fill-rule:nonzero;stroke:none;stroke-width:0.0352778"
       id="path1158" />
    <path
       d="m 148.04907,208.01467 c 0,0 -1.07598,-2.91395 -0.0565,-5.61975 0.37042,-0.98073 1.85914,-2.35303 2.91042,-1.95792 1.04775,0.39864 1.43228,1.96497 0.89605,3.39019 -1.01952,2.70581 -3.75002,4.18748 -3.75002,4.18748"
       style="fill:#b0bfde;fill-opacity:1;fill-rule:nonzero;stroke:none;stroke-width:0.0352778"
       id="path1160" />
    <path
       d="m 150.33859,214.13183 c 0,0 0.20461,-3.09739 2.24014,-5.15055 0.73731,-0.74436 2.65642,-1.38995 3.4537,-0.59973 0.79727,0.79023 0.50447,2.37773 -0.56445,3.46075 -2.03553,2.05317 -5.12939,2.28953 -5.12939,2.28953"
       style="fill:#b0bfde;fill-opacity:1;fill-rule:nonzero;stroke:none;stroke-width:0.0352778"
       id="path1162" />
    <path
       d="m 148.04554,208.19105 c 0,0 -2.56117,1.30528 -5.4222,0.889 -1.03716,-0.15169 -2.71991,-1.15005 -2.58938,-2.05669 0.13405,-0.90664 1.55927,-1.45344 3.06563,-1.23119 2.86456,0.41627 4.94595,2.39888 4.94595,2.39888"
       style="fill:#b0bfde;fill-opacity:1;fill-rule:nonzero;stroke:none;stroke-width:0.0352778"
       id="path1164" />
    <path
       d="m 150.72312,213.97661 c 0,0 -2.57175,1.40406 -5.4363,0.98425 -1.03364,-0.14817 -2.70934,-1.19239 -2.57175,-2.15194 0.14111,-0.95956 1.57339,-1.5487 3.08327,-1.32645 2.86103,0.41628 4.92478,2.49414 4.92478,2.49414"
       style="fill:#b0bfde;fill-opacity:1;fill-rule:nonzero;stroke:none;stroke-width:0.0352778"
       id="path1166" />
    <path
       d="m 152.90329,222.49619 c 0,0 -2.02847,1.48167 -4.20864,1.16417 -0.79375,-0.11642 -2.04611,-1.09714 -1.905,-2.05669 0.14111,-0.96309 1.25942,-1.59456 2.40947,-1.42523 2.18722,0.3175 3.70417,2.31775 3.70417,2.31775"
       style="fill:#b0bfde;fill-opacity:1;fill-rule:nonzero;stroke:none;stroke-width:0.0352778"
       id="path1168" />
    <path
       d="m 153.23137,222.37272 c 0,0 -0.0529,-2.39889 1.3335,-4.2933 0.50095,-0.68792 1.89442,-1.4852 2.54353,-1.00895 0.64911,0.47272 0.53975,1.73214 -0.1905,2.7305 -1.38642,1.89442 -3.68653,2.57175 -3.68653,2.57175"
       style="fill:#b0bfde;fill-opacity:1;fill-rule:nonzero;stroke:none;stroke-width:0.0352778"
       id="path1170" />
    <path
       d="m 168.9582,254.15094 c 0.73378,-0.0741 1.1677,-0.33161 1.19945,-0.34925 l -0.30692,-0.50447 0.15522,0.254 -0.15169,-0.254 c -0.0494,0.0282 -1.20297,0.69497 -3.03036,-0.10583 -2.04611,-0.89606 -4.064,-3.20675 -5.9937,-6.87211 -2.6423,-5.02356 -5.03061,-12.47775 -7.09436,-22.15445 -2.39889,-11.2395 -5.66561,-16.58055 -7.82461,-20.11539 -0.55386,-0.90311 -1.03364,-1.68627 -1.37583,-2.38477 l -0.52564,0.25752 c 0.35278,0.7232 0.83608,1.51695 1.397,2.43417 2.14136,3.50308 5.37633,8.79122 7.75406,19.93194 4.59669,21.54062 9.85661,27.90825 13.462,29.45695 0.94191,0.40569 1.73566,0.46566 2.33538,0.40569"
       style="fill:#b0bfde;fill-opacity:1;fill-rule:nonzero;stroke:none;stroke-width:0.0352778"
       id="path1172" />
    <path
       d="m 157.40826,261.59455 c 12.83758,-24.29933 15.10947,-47.20519 14.75317,-62.1418 -0.38453,-16.1925 -3.85939,-26.79347 -3.89467,-26.89931 l -0.94544,0.3175 c 0.0353,0.10231 3.4678,10.59039 3.84527,26.64531 0.34573,14.80961 -1.91205,37.51792 -14.64027,61.61264 l 0.88194,0.46566"
       style="fill:#3bb6d5;fill-opacity:1;fill-rule:nonzero;stroke:none;stroke-width:0.0352778"
       id="path1174" />
    <path
       d="m 168.31968,173.96456 c 0,0 0.91016,-3.10092 -0.21167,-6.08189 -0.40569,-1.0795 -1.92264,-2.63878 -2.92453,-2.26131 -1.00189,0.37747 -1.30175,2.0567 -0.70908,3.62656 1.1183,2.98097 3.84528,4.71664 3.84528,4.71664"
       style="fill:#3bb6d5;fill-opacity:1;fill-rule:nonzero;stroke:none;stroke-width:0.0352778"
       id="path1176" />
    <path
       d="m 169.4027,179.37969 c 0,0 -0.96308,-2.71638 -3.33375,-4.37444 -0.85725,-0.60325 -2.77283,-1.03011 -3.302,-0.27164 -0.52916,0.75495 0.13406,2.13783 1.38289,3.01272 2.37067,1.65806 5.25286,1.63336 5.25286,1.63336"
       style="fill:#3bb6d5;fill-opacity:1;fill-rule:nonzero;stroke:none;stroke-width:0.0352778"
       id="path1178" />
    <path
       d="m 170.42223,188.71419 c 0,0 -1.03364,-2.44122 -3.24203,-3.49955 -0.8008,-0.38453 -2.52236,-0.3422 -2.94216,0.52917 -0.41628,0.87488 0.26105,2.0708 1.42522,2.62819 2.21192,1.06186 4.75897,0.34219 4.75897,0.34219"
       style="fill:#3bb6d5;fill-opacity:1;fill-rule:nonzero;stroke:none;stroke-width:0.0352778"
       id="path1180" />
    <path
       d="m 169.02523,179.11158 c 0,0 2.63172,-0.0564 4.42384,-1.70744 0.64911,-0.59972 1.24177,-2.20486 0.58913,-2.91042 -0.65263,-0.70555 -2.00377,-0.52211 -2.94569,0.34925 -1.79211,1.651 -2.06728,4.26861 -2.06728,4.26861"
       style="fill:#3bb6d5;fill-opacity:1;fill-rule:nonzero;stroke:none;stroke-width:0.0352778"
       id="path1182" />
    <path
       d="m 166.72865,237.80322 c 0,0 2.56117,0.84667 5.07647,-0.007 0.9137,-0.31045 2.25072,-1.53106 1.96145,-2.38125 -0.28928,-0.8502 -1.67923,-1.14653 -3.00567,-0.69498 -2.51531,0.85373 -4.03225,3.08328 -4.03225,3.08328"
       style="fill:#3bb6d5;fill-opacity:1;fill-rule:nonzero;stroke:none;stroke-width:0.0352778"
       id="path1184" />
    <path
       d="m 171.00432,188.62247 c 0,0 3.00566,-0.30691 5.19288,-2.32128 0.79375,-0.73377 1.6122,-2.59291 0.93487,-3.32669 -0.67734,-0.73378 -2.23662,-0.40217 -3.38667,0.65969 -2.19428,2.02142 -2.74108,4.98828 -2.74108,4.98828"
       style="fill:#3bb6d5;fill-opacity:1;fill-rule:nonzero;stroke:none;stroke-width:0.0352778"
       id="path1186" />
    <path
       d="m 172.0062,198.58844 c 0,0 3.00567,0.14817 4.91773,-1.61572 0.69497,-0.63853 1.24177,-2.44828 0.44097,-3.31964 -0.80433,-0.86783 -2.33539,-0.762 -3.34433,0.16934 -1.91206,1.76389 -2.01437,4.76602 -2.01437,4.76602"
       style="fill:#3bb6d5;fill-opacity:1;fill-rule:nonzero;stroke:none;stroke-width:0.0352778"
       id="path1188" />
    <path
       d="m 171.25479,198.44733 c 0,0 -0.63147,-2.8963 -2.82575,-4.42383 -0.79375,-0.55386 -2.68464,-0.76553 -3.31964,0.15169 -0.63853,0.92075 -0.14464,2.36714 1.01247,3.16795 2.19781,1.52753 5.13292,1.10419 5.13292,1.10419"
       style="fill:#3bb6d5;fill-opacity:1;fill-rule:nonzero;stroke:none;stroke-width:0.0352778"
       id="path1190" />
    <path
       d="m 166.34412,238.11014 c 0,0 0.46567,-2.46239 -0.94192,-4.98475 -0.508,-0.91017 -2.10608,-2.30011 -2.99155,-2.06728 -0.88547,0.22931 -0.95956,1.58044 -0.21872,2.90689 1.40758,2.52236 4.15219,4.14514 4.15219,4.14514"
       style="fill:#3bb6d5;fill-opacity:1;fill-rule:nonzero;stroke:none;stroke-width:0.0352778"
       id="path1192" />
    <path
       d="m 170.80323,217.91361 c 0,0 -0.89958,-1.72508 -3.23144,-2.73756 -0.84314,-0.36688 -2.74461,-0.59619 -3.29142,-0.0988 -0.5468,0.49741 0.0882,1.36877 1.31586,1.90147 2.32834,1.01247 5.207,0.93486 5.207,0.93486"
       style="fill:#3bb6d5;fill-opacity:1;fill-rule:nonzero;stroke:none;stroke-width:0.0352778"
       id="path1194" />
    <path
       d="m 171.91095,208.90367 c 0,0 1.81681,-0.20109 3.34081,-1.88384 0.55386,-0.6103 1.24883,-2.18722 0.93133,-2.82928 -0.32102,-0.64205 -1.28058,-0.38805 -2.08844,0.50095 -1.524,1.68275 -2.1837,4.21217 -2.1837,4.21217"
       style="fill:#3bb6d5;fill-opacity:1;fill-rule:nonzero;stroke:none;stroke-width:0.0352778"
       id="path1196" />
    <path
       d="m 168.64423,228.57808 c 0,0 0.41981,-3.10797 -0.55739,-5.21758 -0.3563,-0.76553 -1.50989,-1.45697 -2.17664,-0.68439 -0.67027,0.77611 -0.762,2.37419 -0.24694,3.48544 0.97367,2.10962 2.98097,2.41653 2.98097,2.41653"
       style="fill:#3bb6d5;fill-opacity:1;fill-rule:nonzero;stroke:none;stroke-width:0.0352778"
       id="path1198" />
    <path
       d="m 170.53159,218.24875 c 0,0 3.66536,0.004 6.26181,-1.42875 0.94192,-0.51858 1.86619,-1.93675 1.00542,-2.57881 -0.86431,-0.64205 -2.75873,-0.50094 -4.1275,0.254 -2.59645,1.43228 -3.13973,3.75356 -3.13973,3.75356"
       style="fill:#3bb6d5;fill-opacity:1;fill-rule:nonzero;stroke:none;stroke-width:0.0352778"
       id="path1200" />
    <path
       d="m 168.9582,229.07197 c 0,0 3.47487,-0.007 5.77145,-1.38994 0.83255,-0.50095 1.54517,-1.8662 0.65617,-2.48356 -0.89253,-0.61383 -2.67053,-0.47272 -3.88056,0.25047 -2.29658,1.38289 -2.54706,3.62303 -2.54706,3.62303"
       style="fill:#3bb6d5;fill-opacity:1;fill-rule:nonzero;stroke:none;stroke-width:0.0352778"
       id="path1202" />
    <path
       d="m 138.98973,183.62714 c 0,0 2.56117,0.84667 5.07648,-0.007 0.91369,-0.31044 2.25072,-1.53458 1.96144,-2.38477 -0.28575,-0.8502 -1.67922,-1.14653 -3.00567,-0.69498 -2.51883,0.85373 -4.03225,3.08681 -4.03225,3.08681"
       style="fill:#3bb6d5;fill-opacity:1;fill-rule:nonzero;stroke:none;stroke-width:0.0352778"
       id="path1204" />
    <path
       d="m 163.55365,246.80258 c 0,0 0.127,-1.94733 -1.36172,-4.01108 -0.53623,-0.74789 -2.06375,-1.91558 -2.79753,-1.76742 -0.73731,0.1517 -0.64558,1.22767 0.13758,2.31422 1.4852,2.06023 4.02167,3.46428 4.02167,3.46428"
       style="fill:#3bb6d5;fill-opacity:1;fill-rule:nonzero;stroke:none;stroke-width:0.0352778"
       id="path1206" />
    <path
       d="m 160.51976,206.50125 c 0,0 -0.73731,-2.82575 -2.3495,-4.48381 -0.58208,-0.59972 -1.84503,-0.97366 -2.16253,-0.15522 -0.31397,0.81845 0.17286,2.2472 1.01953,3.11856 1.61219,1.65805 3.4925,1.52047 3.4925,1.52047"
       style="fill:#3bb6d5;fill-opacity:1;fill-rule:nonzero;stroke:none;stroke-width:0.0352778"
       id="path1208" />
    <path
       d="m 171.54759,209.50339 c 0,0 -0.58208,-2.40595 -2.85397,-4.52967 -0.81844,-0.76905 -2.80105,-1.79564 -3.49603,-1.41464 -0.69144,0.37747 -0.21166,1.66159 0.98425,2.77989 2.26836,2.12725 5.36575,3.16442 5.36575,3.16442"
       style="fill:#3bb6d5;fill-opacity:1;fill-rule:nonzero;stroke:none;stroke-width:0.0352778"
       id="path1210" />
    <path
       d="m 149.34023,240.50197 c 10.14236,8.24442 15.494,19.96017 15.38111,31.12558 -10.90789,2.39536 -23.47383,-0.44802 -33.61619,-8.69244 -10.14236,-8.24442 -15.494,-19.96017 -15.37758,-31.12558 10.90436,-2.39889 23.4703,0.44802 33.61266,8.69244"
       style="fill:#3bb6d5;fill-opacity:1;fill-rule:nonzero;stroke:none;stroke-width:0.0352778"
       id="path1212" />
    <path
       d="m 119.54109,235.00922 43.27173,35.16489 0.31044,-0.38453 -43.26819,-35.16841"
       style="fill:#0c1153;fill-opacity:1;fill-rule:nonzero;stroke:none;stroke-width:0.0352778"
       id="path1214" />
    <path
       d="m 128.56162,241.86722 -8.71361,0.89958 0.0494,0.49389 8.71361,-0.90311"
       style="fill:#0c1153;fill-opacity:1;fill-rule:nonzero;stroke:none;stroke-width:0.0352778"
       id="path1216" />
    <path
       d="m 135.93821,247.86444 -10.73856,1.10772 0.0494,0.49389 10.74208,-1.11125"
       style="fill:#0c1153;fill-opacity:1;fill-rule:nonzero;stroke:none;stroke-width:0.0352778"
       id="path1218" />
    <path
       d="m 143.31832,253.85814 -17.95639,1.85561 0.0529,0.49389 17.95287,-1.85561"
       style="fill:#0c1153;fill-opacity:1;fill-rule:nonzero;stroke:none;stroke-width:0.0352778"
       id="path1220" />
    <path
       d="m 150.6949,259.85536 -17.46603,1.80622 0.0494,0.49389 17.46956,-1.80622"
       style="fill:#0c1153;fill-opacity:1;fill-rule:nonzero;stroke:none;stroke-width:0.0352778"
       id="path1222" />
    <path
       d="m 158.07148,265.85258 -9.72608,1.00542 0.0529,0.49389 9.72608,-1.00542"
       style="fill:#0c1153;fill-opacity:1;fill-rule:nonzero;stroke:none;stroke-width:0.0352778"
       id="path1224" />
    <path
       d="m 128.03246,241.25339 -0.89959,-8.71361 -0.49036,0.0494 0.89958,8.71361"
       style="fill:#0c1153;fill-opacity:1;fill-rule:nonzero;stroke:none;stroke-width:0.0352778"
       id="path1226" />
    <path
       d="m 135.41257,247.25061 -1.40406,-13.589 -0.49389,0.0529 1.40406,13.58547"
       style="fill:#0c1153;fill-opacity:1;fill-rule:nonzero;stroke:none;stroke-width:0.0352778"
       id="path1228" />
    <path
       d="m 142.78915,253.24783 -1.75683,-17.00741 -0.49036,0.0494 1.75683,17.00742"
       style="fill:#0c1153;fill-opacity:1;fill-rule:nonzero;stroke:none;stroke-width:0.0352778"
       id="path1230" />
    <path
       d="m 150.16926,259.24153 -1.80622,-17.46603 -0.49036,0.0494 1.80269,17.46955"
       style="fill:#0c1153;fill-opacity:1;fill-rule:nonzero;stroke:none;stroke-width:0.0352778"
       id="path1232" />
    <path
       d="m 157.54584,265.23875 -1.54869,-15.00717 -0.49389,0.0494 1.54869,15.01069"
       style="fill:#0c1153;fill-opacity:1;fill-rule:nonzero;stroke:none;stroke-width:0.0352778"
       id="path1234" />
    <path
       d="m 231.41398,272.95047 h -77.851 v -32.12394 h 77.851 v 32.12394"
       style="fill:#fec12f;fill-opacity:1;fill-rule:nonzero;stroke:none;stroke-width:0.0352778"
       id="path1236" />
    <path
       d="m 4.1580647,132.13923 c 0,3.16441 -2.7587221,5.72911 -6.1630277,5.72911 -3.4007777,0 -6.1594998,-2.5647 -6.1594998,-5.72911 0,-3.16442 2.7587221,-5.73264 6.1594998,-5.73264 3.4043056,0 6.1630277,2.56822 6.1630277,5.73264"
       style="fill:#282723;fill-opacity:1;fill-rule:nonzero;stroke:none;stroke-width:0.0352778"
       id="path1238" />
    <path
       d="m -0.20932407,132.40381 c 0,3.16442 -2.75872223,5.73264 -6.15949993,5.73264 -3.4043053,0 -6.163027,-2.56822 -6.163027,-5.73264 0,-3.16442 2.7587217,-5.72911 6.163027,-5.72911 3.4007777,0 6.15949993,2.56469 6.15949993,5.72911"
       style="fill:#282723;fill-opacity:1;fill-rule:nonzero;stroke:none;stroke-width:0.0352778"
       id="path1240" />
    <path
       d="m -14.683795,127.65189 c 0,0 0.913694,-0.4833 -1.640417,-5.1823 -2.550583,-4.70253 -7.411861,-11.05959 -7.411861,-11.05959 l 4.917722,11.32064 c 0,0 2.077861,4.25097 4.134556,4.92125"
       style="fill:#e9d6b8;fill-opacity:1;fill-rule:nonzero;stroke:none;stroke-width:0.0352778"
       id="path1242" />
    <path
       d="m -10.080046,133.58561 -7.087305,-13.13391 -0.331611,-0.79375 -4.021667,1.78153 c 0,0 5.602111,10.08591 5.997222,10.52688 0.391584,0.4445 2.656417,4.70606 2.931584,5.52098 0.271639,0.81491 2.109611,4.71311 4.6884157,3.28083 2.5752777,-1.43228 -2.1766387,-7.18256 -2.1766387,-7.18256"
       style="fill:#f4da80;fill-opacity:1;fill-rule:nonzero;stroke:none;stroke-width:0.0352778"
       id="path1244" />
    <path
       d="m -21.227823,114.89192 c -1.248833,-2.21545 -0.719667,-3.70417 -0.885472,-4.74839 -0.165806,-1.04422 -0.155222,-2.18017 -0.162278,-2.16958 -0.631472,0.94897 -0.254,1.67922 -0.34925,2.18722 -0.09172,0.508 0.0035,0.33514 -0.497417,-0.42333 -0.28575,-0.43039 0.02822,-1.60162 0.130528,-2.38125 0.08467,-0.67381 -0.05997,-0.99837 -0.05997,-0.99837 0,0 -0.4445,0.95603 -0.649111,2.00025 -0.246945,1.25942 -0.257528,2.667 -0.208139,2.97039 0.08819,0.56445 0.874889,2.07081 1.608667,3.05859 0.8255,1.11477 1.975555,2.10255 1.072444,0.50447"
       style="fill:#e9d6b8;fill-opacity:1;fill-rule:nonzero;stroke:none;stroke-width:0.0352778"
       id="path1246" />
    <path
       d="m 5.2305091,127.00984 c 0,0 -0.9136944,-0.48331 1.6368889,-5.18231 2.554111,-4.699 7.415389,-11.05958 7.415389,-11.05958 l -4.9177224,11.32064 c 0,0 -2.0778611,4.25097 -4.1345555,4.92125"
       style="fill:#e9d6b8;fill-opacity:1;fill-rule:nonzero;stroke:none;stroke-width:0.0352778"
       id="path1248" />
    <path
       d="m 0.62675926,132.94356 7.08377754,-13.13392 0.3351389,-0.79022 4.0216673,1.778 c 0,0 -5.6056395,10.08944 -5.9972228,10.53042 -0.3915833,0.44097 -2.4800277,4.77661 -2.9315833,5.51744 -1.4887221,2.44475 -1.4887221,3.81 -1.8273888,3.48897 -2.10961107,-2.0073 -0.68438884,-7.39069 -0.68438884,-7.39069"
       style="fill:#f4da80;fill-opacity:1;fill-rule:nonzero;stroke:none;stroke-width:0.0352778"
       id="path1250" />
    <path
       d="m 11.77101,114.24986 c 1.252361,-2.21544 0.723194,-3.70064 0.889,-4.74486 0.162277,-1.04775 0.155222,-2.18016 0.162277,-2.17311 0.631473,0.9525 0.254,1.67922 0.345723,2.18722 0.09172,0.50448 -0.0035,0.33867 0.500944,-0.42333 0.282222,-0.43039 -0.03175,-1.60161 -0.130528,-2.38125 -0.08467,-0.67381 0.05645,-0.99836 0.05645,-0.99836 0,0 0.448027,0.95955 0.652639,2.00025 0.246944,1.25942 0.257527,2.667 0.204611,2.97392 -0.08467,0.56091 -0.874889,2.06727 -1.605139,3.05505 -0.8255,1.11831 -1.975556,2.10256 -1.075972,0.50447"
       style="fill:#e9d6b8;fill-opacity:1;fill-rule:nonzero;stroke:none;stroke-width:0.0352778"
       id="path1252" />
    <path
       d="m -17.273184,207.56664 -1.4605,6.87211 c 0,0 -3.234972,2.46592 -4.282722,2.75519 -1.04775,0.28928 -0.829028,-0.10583 -0.712611,-0.33161 0.112888,-0.22578 2.067277,-1.64041 2.532944,-2.54353 0.462139,-0.90663 1.192389,-6.86505 1.322917,-7.1508 0.127,-0.28575 2.599972,0.39864 2.599972,0.39864"
       style="fill:#e9d6b8;fill-opacity:1;fill-rule:nonzero;stroke:none;stroke-width:0.0352778"
       id="path1254" />
    <path
       d="m 5.2728424,209.24233 c 0,0 1.2065,3.8982 1.3581944,5.23522 0.1446389,1.33703 -0.084667,1.77448 0.3280834,2.18017 0.41275,0.40217 3.3125828,3.59833 3.9511118,3.55953 0.642055,-0.0353 0.60325,-0.64206 0.60325,-0.64206 0,0 -2.2754174,-2.43416 -2.6564174,-3.39019 -0.381,-0.95956 -0.7831667,-6.37117 -0.8184444,-6.91797 -0.035278,-0.54681 -2.7657778,-0.0247 -2.7657778,-0.0247"
       style="fill:#e9d6b8;fill-opacity:1;fill-rule:nonzero;stroke:none;stroke-width:0.0352778"
       id="path1256" />
    <path
       d="m -4.495574,159.924 -6.064249,24.74031 -6.427611,23.7878 -3.721806,-0.57856 c 0,0 4.723695,-24.38047 4.847167,-26.51477 0.123472,-2.13431 1.054805,-19.51214 4.148666,-23.20925 3.0973884,-3.70064 7.217833,1.77447 7.217833,1.77447"
       style="fill:#194866;fill-opacity:1;fill-rule:nonzero;stroke:none;stroke-width:0.0352778"
       id="path1258" />
    <path
       d="m -6.940324,161.0035 c 0,0 -3.541888,-3.53131 -5.679721,-1.41464 -0.211667,0.5962 -0.402167,1.2947 -0.567973,2.06728 1.950861,3.26672 3.7288607,5.96547 4.1557214,6.68514 0.186973,0.31397 0.6879171,1.23472 1.3828893,2.52236 l 0.7902222,-4.42736 -0.081139,-5.43278"
       style="fill:#163f59;fill-opacity:1;fill-rule:nonzero;stroke:none;stroke-width:0.0352778"
       id="path1260" />
    <path
       d="m 1.7309537,156.69608 c 0,0 3.1820554,13.40203 3.6406665,20.701 0.4586111,7.3025 2.5682222,28.5997 2.5682222,28.5997 l 0.2328333,3.73239 -2.9068888,0.0811 -6.24063877,-27.00161 -5.90549983,-24.8285 8.6113054,-1.28411"
       style="fill:#194866;fill-opacity:1;fill-rule:nonzero;stroke:none;stroke-width:0.0352778"
       id="path1262" />
    <path
       d="m -0.12112964,126.18434 c 0,3.01977 -2.41299996,5.46452 -5.39044436,5.46452 -2.9774446,0 -5.390444,-2.44475 -5.390444,-5.46452 0,-3.01978 2.4129994,-5.46453 5.390444,-5.46453 2.9774444,0 5.39044436,2.44475 5.39044436,5.46453"
       style="fill:#282723;fill-opacity:1;fill-rule:nonzero;stroke:none;stroke-width:0.0352778"
       id="path1264" />
    <path
       d="m -6.4534906,127.78948 c 0,0 0.5150555,2.92452 0.084667,3.73591 -0.4268611,0.81492 -3.3372777,2.68464 -3.7641384,3.25614 -0.426861,0.56797 0.8572497,4.95653 5.0482495,4.30742 4.19452773,-0.65264 5.93372216,-2.68817 5.93372216,-3.34081 0,-0.64911 1.94027764,-1.78153 0.57150004,-2.26836 -1.36877824,-0.49036 -3.594806,-0.81492 -4.1945282,-1.46403 -0.5997222,-0.64911 -1.3687777,-2.27541 -0.9419166,-3.98286 0.4303888,-1.70744 -2.7375555,-0.24341 -2.7375555,-0.24341"
       style="fill:#e9d6b8;fill-opacity:1;fill-rule:nonzero;stroke:none;stroke-width:0.0352778"
       id="path1266" />
    <path
       d="m -4.1745462,121.95806 c -0.084667,-0.0212 -0.1763889,-0.0388 -0.2681112,-0.0564 -0.1834444,1.00542 -1.0265833,2.19428 -2.3283332,3.12914 -0.3175,0.22578 -0.6420556,0.4198 -0.9666111,0.58914 v 0.94191 c 0,1.397 1.2453055,2.52942 2.7834166,2.52942 1.5345833,0 2.7798888,-1.13242 2.7798888,-2.52942 v -2.12372 c -0.7655278,-0.4833 -1.4957777,-1.36172 -2.0002499,-2.48003"
       style="fill:#e9d6b8;fill-opacity:1;fill-rule:nonzero;stroke:none;stroke-width:0.0352778"
       id="path1268" />
    <path
       d="m 0.55267596,157.81792 -12.73880496,3.52072 1.993195,-11.10897 -0.455084,-13.03161 c 0,0 2.5682218,0.93839 4.8154162,1.07244 1.4746111,0.0882 4.617861,-1.07244 4.617861,-1.07244 l 1.76741676,20.61986"
       style="fill:#ad5c49;fill-opacity:1;fill-rule:nonzero;stroke:none;stroke-width:0.0352778"
       id="path1270" />
    <path
       d="m -11.37474,135.67406 c 0,0 0.430389,8.04686 0.172861,10.97492 -0.257528,2.92452 -2.82575,12.18846 -3.083278,13.89591 -0.254,1.70744 -0.254,1.70744 -0.254,1.70744 0,0 1.11125,0.64911 1.710973,0.73378 0.599722,0.0776 1.742722,-0.46919 2.137833,-2.44122 0.493889,-2.4377 2.0108324,-10.8338 2.3106937,-12.35428 0.4303889,-2.15194 0.084667,-8.45255 0.4303889,-9.26747 0.3386667,-0.81139 1.5804444,-3.45369 1.4111111,-4.1028 -0.1728611,-0.64911 -1.4111111,-1.83092 -1.4111111,-1.83092 0,0 -2.7410826,1.13947 -3.4254716,2.68464"
       style="fill:#f4da80;fill-opacity:1;fill-rule:nonzero;stroke:none;stroke-width:0.0352778"
       id="path1272" />
    <path
       d="m -0.56915737,132.74953 c 0,0 -1.66863893,0.67028 -2.18369443,0.9137 -0.5150556,0.24341 -0.2575278,2.92452 0,3.29141 0.2575277,0.36336 0.7055555,8.59367 0.7690555,10.54453 0.067028,1.95086 0.3245556,9.63436 0.6420555,11.03489 0.3245556,1.40052 0.127,3.048 1.66863896,3.5948 1.54163884,0.55033 3.46780544,0.55033 3.46780544,0.55033 0,0 -0.7690556,-4.81541 -1.1571111,-6.46288 -0.3845277,-1.64395 -1.601611,-5.60917 -1.7321388,-8.10683 -0.12699999,-2.49767 0.4268611,-6.32531 0.8925278,-8.29028 0.5256388,-2.21192 0.776111,-5.24228 0.9066388,-5.60917 0.127,-0.36689 -2.76224994,-1.28058 -3.27377767,-1.4605"
       style="fill:#f4da80;fill-opacity:1;fill-rule:nonzero;stroke:none;stroke-width:0.0352778"
       id="path1274" />
    <path
       d="m -18.589045,214.09303 c 0,0 0.15875,0.46566 -0.01058,0.89252 -0.137583,0.34925 -0.680861,1.33703 -0.680861,1.33703 l -0.758472,0.15875 0.109361,-0.47625 c 0,0 -1.576916,1.17828 -2.296583,1.47109 -0.719667,0.2928 -2.268361,1.06891 -2.966861,0.65263 -0.183445,-0.11288 -0.183445,-0.34925 -0.183445,-0.34925 0,0 1.471084,-1.016 1.700389,-1.15358 0.225778,-0.14111 0.589139,0.30339 1.157111,0.10583 0.567973,-0.19755 2.293056,-1.21355 2.772834,-1.5628 0.624416,-0.45508 1.157111,-1.07597 1.157111,-1.07597"
       style="fill:#161711;fill-opacity:1;fill-rule:nonzero;stroke:none;stroke-width:0.0352778"
       id="path1276" />
    <path
       d="m 6.6874813,215.74755 c 0,0 -0.1128889,0.46214 -0.017639,0.91017 0.077611,0.35983 0.4092222,0.92781 0.4092222,0.92781 l 0.6632222,0.30691 c 0,0 1.2911667,1.35467 1.9155833,1.74625 0.620889,0.39159 1.93675,1.38289 2.635251,1.07245 0.186972,-0.0847 0.22225,-0.3175 0.22225,-0.3175 0,0 -1.213556,-1.21356 -1.404056,-1.38642 -0.1905,-0.17286 -0.582084,0.2152 -1.0795,-0.06 -0.4974172,-0.2787 -1.9367505,-1.53106 -2.3318616,-1.94733 -0.5115278,-0.53975 -1.0124722,-1.25237 -1.0124722,-1.25237"
       style="fill:#161711;fill-opacity:1;fill-rule:nonzero;stroke:none;stroke-width:0.0352778"
       id="path1278" />
    <path
       d="m -0.89018517,132.50259 -1.86266663,1.16064 c 0,0 0.5150555,0.17991 0.7690555,0.73025 0.2575278,0.55033 0.4515556,1.28058 0.4515556,1.28058 l 1.66863886,-2.68464 c 0,0 -1.02658333,-0.66675 -1.02658333,-0.48683"
       style="fill:#f0ca67;fill-opacity:1;fill-rule:nonzero;stroke:none;stroke-width:0.0352778"
       id="path1280" />
    <path
       d="m -7.7587684,132.68603 0.2998611,0.47272 0.9630833,1.62278 c 0,0 -0.2046111,-0.508 -0.9419166,0.0388 -0.4974167,0.37042 -0.7690556,1.28058 -0.7690556,1.28058 l -0.5150554,-2.92805 0.9630832,-0.48683"
       style="fill:#f0ca67;fill-opacity:1;fill-rule:nonzero;stroke:none;stroke-width:0.0352778"
       id="path1282" />
    <path
       d="m 36.370203,272.95047 h -77.850998 v -57.69328 h 77.850998 v 57.69328"
       style="fill:#fec12f;fill-opacity:1;fill-rule:nonzero;stroke:none;stroke-width:0.0352778"
       id="path1284" />
  </g>
</svg>
