<?xml version="1.0" encoding="UTF-8" standalone="no"?>
<!-- Created with Inkscape (http://www.inkscape.org/) -->

<svg
   width="270.93332mm"
   height="108.29193mm"
   viewBox="0 0 270.93332 108.29193"
   version="1.1"
   id="svg785"
   inkscape:version="1.1.1 (c3084ef, 2021-09-22)"
   sodipodi:docname="groupstracker-easy-setup.svg"
   xmlns:inkscape="http://www.inkscape.org/namespaces/inkscape"
   xmlns:sodipodi="http://sodipodi.sourceforge.net/DTD/sodipodi-0.dtd"
   xmlns="http://www.w3.org/2000/svg"
   xmlns:svg="http://www.w3.org/2000/svg">
  <sodipodi:namedview
     id="namedview787"
     pagecolor="#ffffff"
     bordercolor="#666666"
     borderopacity="1.0"
     inkscape:pageshadow="2"
     inkscape:pageopacity="0.0"
     inkscape:pagecheckerboard="0"
     inkscape:document-units="mm"
     showgrid="false"
     inkscape:zoom="0.55678311"
     inkscape:cx="387.04479"
     inkscape:cy="257.73052"
     inkscape:window-width="1365"
     inkscape:window-height="779"
     inkscape:window-x="0"
     inkscape:window-y="25"
     inkscape:window-maximized="0"
     inkscape:current-layer="layer1" />
  <defs
     id="defs782" />
  <g
     inkscape:label="Warstwa 1"
     inkscape:groupmode="layer"
     id="layer1"
     transform="translate(11.914938,-51.823955)">
    <path
       d="m 258.4416,132.12318 c -1.83869,-5.67237 -4.10087,-8.04422 -5.05171,-11.09625 0.001,-10e-4 0.014,-10e-4 0.014,-10e-4 -0.006,-0.0198 -0.008,-0.0397 -0.0152,-0.0618 0.001,0 0.009,0 0.009,0 -0.004,-0.0128 -0.004,-0.0257 -0.008,-0.0373 -0.002,-0.007 -0.005,-0.014 -0.007,-0.021 0,0 0.007,0 0.007,-10e-4 -0.002,-0.006 -0.004,-0.0117 -0.006,-0.0175 -0.42117,-1.41868 -0.59384,-2.99603 -0.1715,-5.12171 0.004,-0.0128 0.021,-0.0245 0.021,-0.0362 v -0.001 c 0,-0.001 -0.005,-0.002 -0.005,-0.002 0.002,-0.0163 0.005,-0.0338 0.005,-0.0502 0,-0.001 0,-0.001 0,-0.002 v -0.22983 c 0,-0.001 0,-0.001 0,-0.001 0.224,-1.81534 0.90417,-4.02503 1.96118,-6.85386 1.60301,-4.29489 -2.89219,-8.25925 -3.24919,-12.904951 -0.44682,-5.828125 -14.20076,-9.914989 -19.96063,-12.083838 -3.2667,-1.229676 -6.70022,1.464177 -9.05691,-0.757172 -4.7157,-4.447367 -4.5197,-20.130985 -15.80845,-17.068462 -14.55194,3.94803 -22.1785,-6.498382 -36.63827,-5.076205 -9.20974,0.905341 -14.87861,11.086917 -24.58068,10.119743 -5.23721,-0.522671 -8.32424,-5.350374 -13.71777,-6.423715 -5.54288,-1.103675 -12.0786,-0.527337 -17.32747,1.202843 -5.76104,1.897014 -7.74906,11.475419 -14.17394,11.459085 C 93.872694,77.036272 89.81523,69.911385 84.556324,67.400699 78.115926,64.32301 70.092466,65.78252 63.97547,68.685209 50.982673,74.849922 58.355245,84.485494 40.02234,88.939861 c -3.831011,0.92984 -7.485273,1.928514 -11.041767,3.052023 -0.0013,0 -0.0023,0.0012 -0.0033,0.0012 -3.769297,1.190009 -11.552888,-3.05669 -11.55522,-3.057856 -8.1610114,-4.82187 -13.7525366,-9.35207 -22.8507376,-4.302699 -7.8987444,4.384366 -8.0305764,34.422751 -2.4027686,42.664151 9.921e-4,0.002 0.021132,0.006 0.021132,0.008 v 10e-4 c 0.1120019,0.30917 0.4172053,0.61367 0.6808714,0.90884 3.8158478,4.2712 9.1945702,12.75409 4.7470874,16.28562 -0.250603,0.19951 -0.5167197,0.40134 -0.7478405,0.59617 -0.00549,0.004 -0.035115,0.007 -0.03955,0.0117 0,0 -0.049233,0.001 -0.049233,0.004 0,0 0,0 0,0.001 0,0.005 0.045384,0.0478 0.045384,0.049 -12.6551741,10.68441 -0.3888535,14.2416 5.1597388,14.95327 H 249.32388 c 0.85051,-1.06633 6.34788,-12.15325 6.88922,-13.49726 1.88418,-4.67721 3.7917,-9.66824 2.22835,-14.49478"
       style="fill:#f2f9ff;fill-opacity:1;fill-rule:nonzero;stroke:none;stroke-width:0.0116668"
       id="path16" />
    <path
       d="m 52.399367,155.16036 c -0.02812,0.0152 -0.05647,0.0292 -0.08458,0.0432 -2.112499,1.11535 -4.299783,2.12102 -6.541432,2.86536 -3.037906,1.01151 -6.17358,1.71034 -9.354754,2.04635 h -7.75641 c -5.436821,-0.56001 -10.88123,-2.18169 -16.076087,-4.96887 -6.3297945,-3.3927 -11.61915221,-8.21923 -15.7104493,-13.90094 -9.921e-4,-0.002 -0.00231,-0.021 -0.00331,-0.0233 -4.3441158,-6.03638 -7.3366387,-13.08893 -8.7872827,-20.53232 1.319395,-0.69884 2.6679525,-1.33234 4.0405459,-1.88885 0.00853,-0.004 0.018321,-0.0105 0.027052,-0.014 9.4848387,-3.83953 20.1176851,-4.2292 30.1872611,-0.52268 1.876012,0.68951 3.733477,1.52251 5.559439,2.50136 7.653509,4.10319 13.785787,10.24924 18.117071,17.54563 0.0216,0.035 0.04223,0.07 0.06288,0.105 2.971757,5.03537 5.089622,10.61208 6.259098,16.44196 0.02182,0.10149 0.0413,0.20066 0.0609,0.30216"
       style="fill:#e9f0f2;fill-opacity:1;fill-rule:nonzero;stroke:none;stroke-width:0.0116668"
       id="path18" />
    <path
       d="m 52.556634,155.15452 c 0.03337,-0.0747 0.0089,-0.17383 -0.05903,-0.21 L -2.1873917,125.6283 c -0.068252,-0.0373 -0.1545843,0.002 -0.187834,0.077 -0.033484,0.0747 -0.00923,0.17384 0.059148,0.21117 L 52.3688,155.23269 c 0.06813,0.0362 0.154351,-0.004 0.187834,-0.0782"
       style="fill:#c5d2e0;fill-opacity:1;fill-rule:nonzero;stroke:none;stroke-width:0.0116668"
       id="path20" />
    <path
       d="m 35.220186,145.92145 c 0.01564,-0.035 0.01888,-0.0758 0.0068,-0.1155 -0.02487,-0.0793 -0.10302,-0.12133 -0.175003,-0.0945 l -20.789104,7.81673 c -0.07175,0.0268 -0.109902,0.112 -0.08552,0.19133 0.02497,0.0782 0.103136,0.12017 0.175003,0.0933 l 20.788988,-7.81556 c 0.03582,-0.014 0.06358,-0.042 0.07887,-0.0758"
       style="fill:#c5d2e0;fill-opacity:1;fill-rule:nonzero;stroke:none;stroke-width:0.0116668"
       id="path22" />
    <path
       d="m 28.239618,142.12392 c 0.01541,-0.035 0.01878,-0.0758 0.0065,-0.1155 l -7.131422,-22.784 c -0.02507,-0.0782 -0.103248,-0.12017 -0.174768,-0.0933 -0.07187,0.0268 -0.110133,0.112 -0.0854,0.19133 l 7.131538,22.78401 c 0.0245,0.0782 0.102781,0.12016 0.174532,0.0933 0.03594,-0.0128 0.06347,-0.042 0.07898,-0.0758"
       style="fill:#c5d2e0;fill-opacity:1;fill-rule:nonzero;stroke:none;stroke-width:0.0116668"
       id="path24" />
    <path
       d="m 43.393216,150.24749 c 0.01551,-0.035 0.01892,-0.0758 0.0065,-0.1155 L 36.899283,129.364 c -0.0246,-0.0782 -0.102666,-0.12017 -0.174533,-0.0933 -0.07199,0.0268 -0.110018,0.11317 -0.08563,0.19134 l 6.500597,20.76799 c 0.02461,0.0793 0.102669,0.12133 0.174536,0.0933 0.03628,-0.0128 0.06358,-0.0408 0.07898,-0.0758"
       style="fill:#c5d2e0;fill-opacity:1;fill-rule:nonzero;stroke:none;stroke-width:0.0116668"
       id="path26" />
    <path
       d="m 11.191925,132.98419 c 0.01541,-0.0338 0.01865,-0.0758 0.0062,-0.11433 L 6.2546718,117.07541 c -0.024605,-0.0793 -0.102785,-0.12134 -0.1746519,-0.0933 -0.071986,0.0268 -0.1101334,0.112 -0.0854,0.19134 l 4.9433181,15.79328 c 0.02474,0.0793 0.103017,0.12134 0.174652,0.0945 0.03605,-0.014 0.06358,-0.042 0.07933,-0.077"
       style="fill:#c5d2e0;fill-opacity:1;fill-rule:nonzero;stroke:none;stroke-width:0.0116668"
       id="path28" />
    <path
       d="m 18.583864,137.00222 c 0.01551,-0.035 0.01915,-0.0758 0.0066,-0.1155 -0.02461,-0.0782 -0.102782,-0.12017 -0.174649,-0.0933 l -17.41613181,6.54854 c -0.0718668,0.0268 -0.11001768,0.11201 -0.0856343,0.19134 0.0247372,0.0782 0.10266921,0.12017 0.17476761,0.0933 l 17.4161315,-6.54854 c 0.03617,-0.0128 0.0637,-0.0408 0.07887,-0.0758"
       style="fill:#c5d2e0;fill-opacity:1;fill-rule:nonzero;stroke:none;stroke-width:0.0116668"
       id="path30" />
    <path
       d="m 72.191548,123.40345 c 0,0.005 -0.04247,0.008 -0.04247,0.0128 v 10e-4 c 0,0.12366 0.035,0.24266 0.0231,0.364 -0.0012,0.002 0.0196,0.006 0.0196,0.008 -0.219219,1.88302 -0.502837,3.5502 -0.630822,4.55237 -0.337402,2.64719 -0.360503,6.82739 -0.803139,11.29692 -9.26e-4,0.002 -0.0084,0.006 -0.0084,0.008 -0.0119,0.12017 -0.05612,0.24033 -0.05612,0.36167 v 0.0128 c 0,1.22851 -0.262386,2.47568 -0.471804,3.71586 -0.0013,0.005 0.0038,0.0105 0.0027,0.0152 -1.294427,7.61023 -4.417733,15.01861 -12.934697,16.25762 -0.135801,0.0198 -0.265419,0.098 -0.405653,0.098 h -4.357066 c -0.140001,0 -0.277902,-0.0782 -0.415686,-0.098 -2.177367,-0.31034 -4.289983,-1.02784 -6.302615,-1.98218 -0.01191,-0.005 -0.02275,-0.021 -0.03465,-0.0268 -2.485718,-1.18301 -4.818369,-2.76852 -6.928653,-4.5127 -2.487818,-2.05452 -4.668686,-4.34003 -6.432815,-6.46922 -0.06732,-0.0817 -0.134517,-0.1645 -0.200785,-0.245 -0.691136,-0.84584 -1.316124,-1.66484 -1.866097,-2.43135 -0.183402,-0.25433 -0.482888,-0.74317 -0.882122,-1.39534 -0.0033,-0.007 -0.0076,-0.014 -0.01191,-0.021 -0.09439,-0.15517 -0.178971,-0.31734 -0.278836,-0.48884 -0.0053,-0.014 -0.02682,-0.0257 -0.02682,-0.0385 v -0.001 c -0.448005,-0.92284 -1.201209,-2.07785 -1.797964,-3.32853 -0.0013,-0.002 -0.01098,-0.006 -0.01306,-0.008 -0.012,-0.0257 -0.02335,-0.0513 -0.03535,-0.0782 -0.386287,-0.81551 -0.761023,-1.66952 -1.073343,-2.52819 -0.0043,-0.0128 -0.01144,-0.0233 -0.01597,-0.035 -0.0064,-0.0198 -0.01376,-0.0385 -0.02017,-0.0583 -0.219334,-0.60084 -0.411136,-1.20401 -0.562103,-1.79435 -9.92e-4,-0.004 -0.002,-0.008 -0.0033,-0.0128 0,0 0,-0.001 -9.92e-4,-0.001 -0.0023,-0.004 -0.01541,-0.008 -0.01644,-0.0128 -0.01412,-0.056 -0.0413,-0.11317 -0.05332,-0.16916 -0.147351,-0.63468 -0.215719,-1.25418 -0.327837,-1.84102 v -0.007 c 0,-0.0315 0.01108,-0.0642 0.0099,-0.0945 -0.0812,-2.37535 0.823673,-4.19886 3.907197,-4.37503 2.94457,-0.16917 -3.140459,-5.47871 -3.495362,-5.84388 -1.179273,-1.21217 -2.325531,-2.54218 -3.333423,-3.95386 v -0.001 c -1.231892,-1.76052 -2.255652,-3.64587 -2.819855,-5.58605 -1.665428,-5.73537 0.891806,-7.44642 8.256677,-8.86988 C 24.742451,99.664163 23.166507,94.816627 21.425128,90.123092 20.71229,88.203911 18.44707,83.59321 17.909,79.434012 c -0.0013,-0.0012 -3.31e-4,-0.0035 -3.31e-4,-0.0047 -0.397018,-3.07769 0.152369,-5.909211 2.980855,-7.219388 2.821955,-1.306676 5.701662,0.091 8.086463,2.108183 l 0.0013,0.0012 c 2.283769,1.930848 4.112066,4.431033 5.001772,5.665376 3.853879,5.346873 7.59494,11.442752 8.37393,17.965634 2.211201,-4.208198 6.262478,-8.55523 9.434904,-7.429389 1.122925,0.40017 2.136415,1.486345 2.918671,3.50936 0.707356,1.829347 1.189193,3.692528 1.517962,5.580209 0.0238,0.135334 0.0399,0.270668 0.06172,0.406003 0.846306,5.22041 0.52057,10.62491 0.632571,16.03595 v 0.006 c 0.224002,7.17738 6.861335,-3.31336 10.596913,-3.36003 5.075388,-0.0607 5.217489,5.90338 4.675918,10.70541"
       style="fill:#deedff;fill-opacity:1;fill-rule:nonzero;stroke:none;stroke-width:0.0116668"
       id="path32" />
    <path
       d="m 60.776796,158.73505 c -0.0052,0.002 -0.01073,0.004 -0.01633,0.004 -0.03255,0.002 -0.05647,-0.0175 -0.05367,-0.0432 0.363653,-3.03919 -1.835413,-10.03575 -6.535715,-20.79366 C 44.255857,115.20802 26.353339,83.057947 26.17367,82.735944 c -0.01237,-0.02217 0.0026,-0.05133 0.033,-0.06417 0.03033,-0.014 0.06498,-0.007 0.07735,0.01517 0.179784,0.322003 18.083818,32.474406 28.000326,55.170916 4.705203,10.76958 6.906136,17.7778 6.540966,20.83099 -0.0026,0.021 -0.0231,0.0408 -0.04853,0.0467"
       style="fill:#c5d2e0;fill-opacity:1;fill-rule:nonzero;stroke:none;stroke-width:0.0116668"
       id="path34" />
    <path
       d="m 54.920319,139.50007 c -0.0093,0.004 -0.01925,0.004 -0.02882,0.002 l -18.465205,-2.275 c -0.03115,-0.004 -0.04807,-0.028 -0.0378,-0.0537 0.01015,-0.0257 0.0441,-0.0432 0.07537,-0.0397 l 18.464737,2.27501 c 0.03115,0.005 0.0483,0.028 0.0378,0.0537 -0.0068,0.0175 -0.0252,0.0315 -0.04608,0.0373"
       style="fill:#c5d2e0;fill-opacity:1;fill-rule:nonzero;stroke:none;stroke-width:0.0116668"
       id="path36" />
    <path
       d="m 46.125337,120.46926 c -0.01389,0.005 -0.02834,0.005 -0.0413,0 l -20.086651,-6.85421 c -0.02824,-0.009 -0.03698,-0.0362 -0.01994,-0.0607 0.01716,-0.0245 0.05402,-0.0362 0.0819,-0.0268 l 20.086651,6.85422 c 0.02811,0.009 0.03722,0.0373 0.01984,0.0607 -0.0091,0.014 -0.02404,0.0233 -0.04048,0.0268"
       style="fill:#c5d2e0;fill-opacity:1;fill-rule:nonzero;stroke:none;stroke-width:0.0116668"
       id="path38" />
    <path
       d="m 42.666842,113.69554 c -0.01072,0.002 -0.02183,0.004 -0.03244,0.001 -0.03056,-0.005 -0.0455,-0.0303 -0.03348,-0.056 l 8.016112,-16.812961 c 0.01225,-0.02567 0.04702,-0.04083 0.07735,-0.03617 0.03068,0.0058 0.04538,0.03033 0.03348,0.056 L 42.711402,113.6607 c -0.0077,0.0163 -0.0251,0.0292 -0.04457,0.035"
       style="fill:#c5d2e0;fill-opacity:1;fill-rule:nonzero;stroke:none;stroke-width:0.0116668"
       id="path40" />
    <path
       d="m 57.491555,127.37948 c 9.265153,17.28196 26.399298,28.70722 45.536045,32.43708 8.52023,-16.07446 9.15373,-35.42843 -0.112,-52.71121 C 93.651026,89.823034 76.516531,78.397782 57.379671,74.66792 c -8.519763,16.074454 -9.153502,35.42832 0.111884,52.71156"
       style="fill:#e9f0f2;fill-opacity:1;fill-rule:nonzero;stroke:none;stroke-width:0.0116668"
       id="path42" />
    <path
       d="m 103.05793,159.92622 v 0.001 c 0,0.0152 -0.0175,0.18783 -0.0198,0.18783 h -0.42817 v -0.1435 l -0.0898,-0.147 -6.354878,-11.84409 -0.250835,-0.462 -0.01983,-0.001 -10.530878,-19.59898 v -0.002 l -0.224002,-0.45967 v -0.001 l -0.021,-0.006 -11.849689,-22.10057 v -10e-4 -0.002 -9.9e-4 l -0.200785,-0.44812 0.03582,-0.011 0.05297,-9.9e-4 v -9.9e-4 l -9.2846,-17.226465 c -0.04888,-0.08983 -0.02147,-0.203002 0.07712,-0.248502 0.09882,-0.04317 0.216185,-0.01167 0.266235,0.07817 l 14.521842,27.100697 3.64e-4,0.004 0.244302,0.462 -0.01085,10e-4 11.54367,21.5625 v 0.004 10e-4 l 0.223885,0.45851 v 0.001 l 0.02508,0.005 12.237839,22.80151 c 0.005,0.0105 0.021,0.021 0.0245,0.0315 0.001,10e-4 0.0128,0.004 0.0128,0.005 0,0.001 0.0187,0.001 0.0187,0.002"
       style="fill:#c5d2e0;fill-opacity:1;fill-rule:nonzero;stroke:none;stroke-width:0.0116668"
       id="path44" />
    <path
       d="m 90.687437,137.18306 c -0.04573,0.021 -0.100217,0.0257 -0.152368,0.009 -0.104301,-0.0327 -0.159718,-0.13533 -0.124018,-0.231 l 10.347359,-27.52351 c 0.0362,-0.095 0.14934,-0.14571 0.25434,-0.11328 0.10383,0.0329 0.15983,0.13615 0.12367,0.23147 l -10.347832,27.52315 c -0.01797,0.0478 -0.0553,0.084 -0.101151,0.10384"
       style="fill:#c5d2e0;fill-opacity:1;fill-rule:nonzero;stroke:none;stroke-width:0.0116668"
       id="path46" />
    <path
       d="m 85.660349,127.94182 c -0.04585,0.021 -0.100334,0.0257 -0.152368,0.009 l -30.164742,-9.4419 c -0.104184,-0.0327 -0.159718,-0.1365 -0.123901,-0.231 0.0357,-0.0957 0.149101,-0.14584 0.253401,-0.11317 l 30.164627,9.44191 c 0.104301,0.0315 0.159951,0.13533 0.124017,0.231 -0.01797,0.0467 -0.05507,0.0828 -0.101034,0.10383"
       style="fill:#c5d2e0;fill-opacity:1;fill-rule:nonzero;stroke:none;stroke-width:0.0116668"
       id="path48" />
    <path
       d="m 96.416047,148.00514 c -0.0455,0.0198 -0.100335,0.0245 -0.152835,0.008 l -27.495273,-8.60656 c -0.104301,-0.0327 -0.159601,-0.1365 -0.1239,-0.231 0.0357,-0.0957 0.149101,-0.14584 0.253401,-0.11317 l 27.495273,8.60656 c 0.103834,0.0327 0.159835,0.13534 0.123668,0.23101 -0.0175,0.0478 -0.05483,0.084 -0.100334,0.105"
       style="fill:#c5d2e0;fill-opacity:1;fill-rule:nonzero;stroke:none;stroke-width:0.0116668"
       id="path50" />
    <path
       d="m 73.560525,105.3719 c -0.04608,0.0204 -0.100334,0.025 -0.152368,0.009 l -20.91044,-6.545058 c -0.1043,-0.03267 -0.159834,-0.136501 -0.124251,-0.231002 0.03617,-0.09567 0.149451,-0.145835 0.253752,-0.113168 l 20.910324,6.544818 c 0.104184,0.0324 0.159718,0.13592 0.124017,0.23088 -0.01785,0.0478 -0.0553,0.0842 -0.101034,0.10477"
       style="fill:#c5d2e0;fill-opacity:1;fill-rule:nonzero;stroke:none;stroke-width:0.0116668"
       id="path52" />
    <path
       d="m 78.879865,115.15856 c -0.04585,0.021 -0.100217,0.0257 -0.152368,0.008 -0.104417,-0.0315 -0.159951,-0.13534 -0.124017,-0.23101 l 8.668981,-23.058171 c 0.03593,-0.0945 0.149218,-0.145834 0.253519,-0.113167 0.104184,0.03267 0.159601,0.136501 0.124018,0.232168 l -8.669099,23.05817 c -0.01785,0.0478 -0.05507,0.084 -0.101034,0.10384"
       style="fill:#c5d2e0;fill-opacity:1;fill-rule:nonzero;stroke:none;stroke-width:0.0116668"
       id="path54" />
    <path
       d="m 247.57985,131.78952 c -8.04656,15.00927 -22.92518,24.92951 -39.5433,28.16937 -7.39906,-13.95927 -7.94973,-30.76639 0.0968,-45.77451 8.0454,-15.008109 22.92518,-24.929517 39.5433,-28.169374 7.39906,13.959271 7.94856,30.766394 -0.0968,45.774514"
       style="fill:#e9f0f2;fill-opacity:1;fill-rule:nonzero;stroke:none;stroke-width:0.0116668"
       id="path56" />
    <path
       d="m 242.00431,97.198756 -8.0139,14.948614 -0.0187,0.0105 v 10e-4 l -0.203,0.39317 0.001,0.008 -10.31108,19.19415 -0.014,0.005 v 0.001 l -0.20533,0.39668 0.0187,0.004 -9.10824,17.01946 v 0.001 l -0.224,0.40134 v 0.001 l -5.53587,10.37874 -0.0572,0.15283 h -0.39317 c -0.006,0 -0.002,-0.10616 0.0128,-0.13299 l 0.0303,-0.0875 0.002,-0.021 10.58991,-19.73781 0.007,-0.0175 0.23334,-0.37683 0.0373,-0.0292 v -0.001 l 4.10203,-7.71056 0.021,-0.0595 5.85088,-10.95508 -0.0397,-0.001 0.14467,-0.39901 v -10e-4 l 0.056,-0.0327 12.6351,-23.505003 c 0.0432,-0.07817 0.18083,-0.103834 0.26716,-0.06533 0.0852,0.03733 0.15634,0.140001 0.11434,0.217002"
       style="fill:#c5d2e0;fill-opacity:1;fill-rule:nonzero;stroke:none;stroke-width:0.0116668"
       id="path58" />
    <path
       d="m 218.65796,140.20708 c 0.0397,0.0175 0.0875,0.0222 0.13184,0.008 0.091,-0.0292 0.14,-0.119 0.1085,-0.20184 l -8.98574,-23.90051 c -0.0315,-0.0828 -0.13066,-0.12717 -0.2205,-0.0992 -0.091,0.0292 -0.13883,0.119 -0.10733,0.20067 l 8.98573,23.90168 c 0.0152,0.042 0.0478,0.0735 0.0875,0.091"
       style="fill:#c5d2e0;fill-opacity:1;fill-rule:nonzero;stroke:none;stroke-width:0.0116668"
       id="path60" />
    <path
       d="m 223.02366,132.18152 c 0.0397,0.0175 0.0875,0.021 0.133,0.007 l 26.1942,-8.19823 c 0.091,-0.0292 0.13883,-0.119 0.1085,-0.20183 -0.0315,-0.0817 -0.13067,-0.12601 -0.2205,-0.098 l -26.19537,8.19939 c -0.091,0.028 -0.13883,0.11783 -0.10733,0.20067 0.0152,0.0408 0.0478,0.0735 0.0875,0.091"
       style="fill:#c5d2e0;fill-opacity:1;fill-rule:nonzero;stroke:none;stroke-width:0.0116668"
       id="path62" />
    <path
       d="m 213.68326,149.60348 c 0.0397,0.0187 0.0875,0.0222 0.133,0.008 l 23.87718,-7.47489 c 0.0898,-0.028 0.13883,-0.11667 0.10733,-0.1995 -0.0315,-0.0828 -0.1295,-0.12717 -0.2205,-0.0992 l -23.87718,7.47373 c -0.0898,0.0292 -0.13883,0.119 -0.10733,0.20066 0.0152,0.042 0.0478,0.0735 0.0875,0.091"
       style="fill:#c5d2e0;fill-opacity:1;fill-rule:nonzero;stroke:none;stroke-width:0.0116668"
       id="path64" />
    <path
       d="m 233.53074,112.58137 c 0.0397,0.0175 0.0875,0.0222 0.133,0.007 l 18.15814,-5.68322 c 0.091,-0.0286 0.13883,-0.1183 0.10733,-0.2009 -0.0303,-0.0828 -0.12833,-0.12659 -0.21933,-0.0981 l -18.1593,5.68357 c -0.0898,0.028 -0.13767,0.11784 -0.10734,0.20067 0.0152,0.042 0.0478,0.0723 0.0875,0.091"
       style="fill:#c5d2e0;fill-opacity:1;fill-rule:nonzero;stroke:none;stroke-width:0.0116668"
       id="path66" />
    <path
       d="m 228.91187,121.0806 c 0.0397,0.0175 0.0875,0.0222 0.13184,0.007 0.091,-0.028 0.13883,-0.11783 0.1085,-0.20066 l -7.52856,-20.02367 c -0.0303,-0.0828 -0.1295,-0.126 -0.2205,-0.098 -0.0898,0.028 -0.13883,0.11784 -0.10733,0.20067 l 7.52855,20.02365 c 0.0152,0.0408 0.0478,0.0735 0.0875,0.091"
       style="fill:#c5d2e0;fill-opacity:1;fill-rule:nonzero;stroke:none;stroke-width:0.0116668"
       id="path68" />
    <path
       d="m 173.87163,148.31547 c -0.001,0.001 -0.002,0.004 -0.004,0.005 -2.88635,4.19419 -6.33154,8.05006 -10.25157,11.47425 -0.0688,0.0595 -0.13767,0.17733 -0.20651,0.238 -0.009,0.008 -0.0198,0.0828 -0.0292,0.0828 h -0.14117 c -0.009,0 -0.0198,0 -0.0292,-0.004 l -0.0117,0.004 h -0.001 c -6.63372,-3.91886 -12.46593,-9.0009 -17.17696,-14.83427 0,-0.001 0,-0.0338 -0.001,-0.0362 0,-0.002 -0.001,-0.0187 -0.001,-0.0187 -6.84489,-8.47589 -11.29226,-18.7193 -12.42976,-29.96722 -0.92401,-9.14312 0.378,-18.0053 3.73686,-26.086861 v -0.0012 c 3.47202,-8.750066 9.1969,-16.597125 16.54346,-22.934506 9.54457,5.623376 17.42196,13.465768 22.721,22.813171 3.77186,6.652383 6.22071,14.067656 7.02222,21.986006 1.37434,13.5941 -2.35552,26.54653 -9.74057,37.27994"
       style="fill:#e9f0f2;fill-opacity:1;fill-rule:nonzero;stroke:none;stroke-width:0.0116668"
       id="path70" />
    <path
       d="m 163.61655,159.79439 c -0.0688,0.0595 -0.13767,0.17734 -0.2065,0.238 -0.009,0.008 -0.0198,0.0828 -0.0292,0.0828 h -0.14117 c -0.009,0 -0.0198,-0.07 -0.0292,-0.0758 l 0.0257,-0.0373 -2.50485,-25.07185 v 0 l 0.008,-0.0175 -0.008,-0.48417 v -0.008 l -1.03951,-9.75924 -0.0805,-0.14583 c 0,-0.001 0,-0.001 0,-0.001 l -1.36035,-13.82511 0.0163,-0.0233 v -10e-4 l -0.0712,-0.49175 0.001,-0.0185 -1.05,-10.370116 c 0,-0.0012 0,-0.0012 0,-0.0012 l -0.014,-0.117835 -1.96702,-19.372645 c -0.0105,-0.09917 0.077,-0.189001 0.18667,-0.198335 0.1085,-0.0093 0.21,0.06417 0.21933,0.162168 l 1.91102,18.979476 v 0.0012 0.508671 0.0023 l 2.46635,24.355516 -0.0117,0.028 0.009,0.48067 v 10e-4 l 0.0338,0.0537 2.29136,21.49949 0.0268,0.0408 v 0.001 l 0.0222,0.48767 -0.004,0.0222 1.29851,13.07609"
       style="fill:#c5d2e0;fill-opacity:1;fill-rule:nonzero;stroke:none;stroke-width:0.0116668"
       id="path72" />
    <path
       d="m 160.82236,134.97104 c 0.0502,-0.005 0.0992,-0.0268 0.13417,-0.0642 0.07,-0.077 0.0583,-0.19133 -0.0257,-0.2555 l -24.37652,-18.4848 c -0.084,-0.0642 -0.20883,-0.0537 -0.27883,0.0233 -0.07,0.077 -0.0583,0.19134 0.0257,0.2555 l 24.37652,18.48481 c 0.042,0.0315 0.0945,0.0443 0.14466,0.0408"
       style="fill:#c5d2e0;fill-opacity:1;fill-rule:nonzero;stroke:none;stroke-width:0.0116668"
       id="path74" />
    <path
       d="m 159.85519,124.75446 c 0.0502,-0.005 0.0992,-0.0257 0.133,-0.0653 l 20.25932,-22.24115 c 0.07,-0.0769 0.0583,-0.19099 -0.0257,-0.25469 -0.084,-0.0639 -0.20883,-0.0534 -0.27883,0.0232 l -20.25932,22.24162 c -0.07,0.077 -0.0583,0.19133 0.0257,0.2555 0.042,0.0315 0.0945,0.0443 0.14584,0.0408"
       style="fill:#c5d2e0;fill-opacity:1;fill-rule:nonzero;stroke:none;stroke-width:0.0116668"
       id="path76" />
    <path
       d="m 162.08937,146.8583 c 0.0502,-0.004 0.0992,-0.0257 0.13417,-0.0642 l 18.46614,-20.27449 c 0.07,-0.0758 0.0583,-0.19017 -0.0257,-0.25433 -0.084,-0.0642 -0.20884,-0.0537 -0.27884,0.0233 L 161.919,146.56307 c -0.07,0.0758 -0.0583,0.19017 0.0257,0.25433 0.042,0.0315 0.0945,0.0455 0.14467,0.0408"
       style="fill:#c5d2e0;fill-opacity:1;fill-rule:nonzero;stroke:none;stroke-width:0.0116668"
       id="path78" />
    <path
       d="m 157.341,99.886776 c 0.0502,-0.0035 0.0992,-0.02567 0.13417,-0.06417 l 14.04327,-15.417615 c 0.07,-0.077 0.0583,-0.191335 -0.0257,-0.255503 -0.084,-0.063 -0.21,-0.05367 -0.27884,0.02334 l -14.04327,15.418783 c -0.0712,0.077 -0.0595,0.190168 0.0245,0.254335 0.042,0.03267 0.0945,0.0455 0.14583,0.04083"
       style="fill:#c5d2e0;fill-opacity:1;fill-rule:nonzero;stroke:none;stroke-width:0.0116668"
       id="path80" />
    <path
       d="m 158.36885,110.70419 c 0.0513,-0.005 0.0992,-0.0257 0.13416,-0.0642 0.07,-0.0771 0.0595,-0.19122 -0.0257,-0.25491 L 138.05586,94.899239 c -0.084,-0.06417 -0.20883,-0.05367 -0.27884,0.02334 -0.07,0.077 -0.0595,0.190168 0.0257,0.254335 l 20.42148,15.486456 c 0.042,0.0315 0.0945,0.0455 0.14467,0.0408"
       style="fill:#c5d2e0;fill-opacity:1;fill-rule:nonzero;stroke:none;stroke-width:0.0116668"
       id="path82" />
    <path
       d="m 150.07262,126.41814 c -0.0385,0.13534 -0.0723,0.266 -0.105,0.38967 -0.0432,0.161 -0.0817,0.31267 -0.11667,0.45151 -0.97884,3.97252 -1.71268,11.31908 -3.83253,18.01696 -2.27269,7.17622 -6.13905,13.71894 -13.60694,14.83895 h -4.52086 c -0.0455,0 -0.0922,-0.0793 -0.13767,-0.0863 -5.95705,-0.81084 -11.17092,-4.7472 -15.27645,-9.3194 -1.52951,-1.70335 -2.88285,-3.51519 -4.0752,-5.27571 -0.002,-0.002 0.0315,-0.0233 0.0315,-0.0257 v -0.001 c -1.45601,-2.05802 -2.61218,-4.06937 -3.51986,-5.83688 -1.12817,-2.19335 -8.274058,-18.5793 0.94268,-18.01347 3.08235,0.189 -2.48502,-6.40738 -2.80352,-6.85188 -0.84468,-1.17718 -1.78618,-2.43485 -2.34619,-3.74503 v -0.001 c 0,-0.0152 -0.0455,-0.0292 -0.0548,-0.0443 -0.0945,-0.1365 -0.18084,-0.27417 -0.2555,-0.413 -0.003,-0.009 -0.0152,-0.0181 -0.0198,-0.0272 -1.199339,-2.24585 -2.130346,-4.63147 -2.483848,-7.01627 -0.242669,-1.6449 -0.247336,-2.97246 0.021,-4.049298 0,-0.0023 0,-0.0035 0,-0.0058 0.789838,-3.173049 3.875698,-4.156557 9.728908,-4.62206 -2.56902,-4.917537 -3.56303,-10.435912 -4.74137,-15.804952 -0.83767,-3.823195 -5.471709,-17.182796 1.84801,-19.713314 6.08421,-2.103516 11.00175,7.19372 12.55109,10.190909 3.28303,6.354881 6.35139,13.515935 6.28372,20.76799 3.87453,-5.866045 11.27358,-11.589754 13.33977,-2.728854 0.13067,0.558837 0.24967,1.118841 0.3465,1.678846 0.3325,1.915681 0.504,3.838362 0.504,5.766876 0,0.0012 0,0.0012 0,0.0023 0,0.06533 0,0.129501 0,0.196002 v 0.0058 c 0,5.541705 -0.94384,11.134515 -1.51084,16.783795 -0.001,0.002 -0.002,0.005 -0.002,0.007 -0.7875,7.89256 7.62773,-2.76035 11.51159,-2.3372 7.04789,0.77327 3.55719,12.19094 2.30068,16.82264"
       style="fill:#deedff;fill-opacity:1;fill-rule:nonzero;stroke:none;stroke-width:0.0116668"
       id="path84" />
    <path
       d="m 134.55583,159.22272 c -0.006,10e-4 -0.0117,0.002 -0.0175,10e-4 -0.0338,-0.002 -0.056,-0.0257 -0.0502,-0.0537 0.78634,-3.28768 -0.55767,-11.23975 -3.9947,-23.63684 -7.25089,-26.15013 -21.52633,-63.687797 -21.66983,-64.063467 -0.009,-0.02567 0.009,-0.056 0.0432,-0.0665 0.0327,-0.0105 0.0677,0.0012 0.0782,0.02683 0.1435,0.37567 14.42011,37.916137 21.67217,64.069147 3.44052,12.40993 4.78453,20.37599 3.99586,23.67768 -0.006,0.0233 -0.0303,0.042 -0.0572,0.0455"
       style="fill:#c5d2e0;fill-opacity:1;fill-rule:nonzero;stroke:none;stroke-width:0.0116668"
       id="path86" />
    <path
       d="m 131.05697,137.38256 c -0.0105,10e-4 -0.021,10e-4 -0.0303,-0.001 l -18.87449,-4.84505 c -0.0315,-0.008 -0.0455,-0.0362 -0.0315,-0.063 0.014,-0.0268 0.0513,-0.042 0.0828,-0.0338 l 18.87447,4.84404 c 0.0315,0.009 0.0455,0.0373 0.0315,0.0642 -0.009,0.0187 -0.0303,0.0315 -0.0525,0.035"
       style="fill:#c5d2e0;fill-opacity:1;fill-rule:nonzero;stroke:none;stroke-width:0.0116668"
       id="path88" />
    <path
       d="m 124.47809,115.39189 c -0.0152,0.002 -0.0303,10e-4 -0.0432,-0.005 l -19.94315,-10.07296 c -0.028,-0.0146 -0.0338,-0.0455 -0.0128,-0.0699 0.0222,-0.0243 0.0618,-0.0322 0.0898,-0.0181 l 19.94198,10.07226 c 0.028,0.014 0.0338,0.0455 0.0128,0.0688 -0.0117,0.014 -0.028,0.0221 -0.0455,0.0245"
       style="fill:#c5d2e0;fill-opacity:1;fill-rule:nonzero;stroke:none;stroke-width:0.0116668"
       id="path90" />
    <path
       d="m 121.7959,107.52232 c -0.0117,0.002 -0.0233,0.001 -0.0338,-0.002 -0.0315,-0.01 -0.0432,-0.0391 -0.028,-0.0652 l 10.5852,-17.419635 c 0.0163,-0.02683 0.0548,-0.03967 0.0852,-0.03033 0.0315,0.0105 0.0432,0.03967 0.0268,0.06533 l -10.58408,17.419865 c -0.0105,0.0168 -0.0303,0.029 -0.0513,0.0321"
       style="fill:#c5d2e0;fill-opacity:1;fill-rule:nonzero;stroke:none;stroke-width:0.0116668"
       id="path92" />
    <path
       d="m 213.72992,108.69273 c -0.27883,0.511 -5.27337,8.22284 -2.18284,7.52167 7.10855,-1.61468 5.50204,8.68356 3.94219,14.63711 -0.0502,0.19367 -0.10733,0.38383 -0.10733,0.56817 v 0.001 c -0.448,1.51201 -0.84001,2.67402 -1.02901,3.17803 -1.37434,3.65519 -3.60386,8.33356 -6.58355,12.68176 -0.99867,1.45601 -2.09302,2.87585 -3.26202,4.20586 -3.15003,3.58519 -6.91606,6.60338 -11.24092,7.92756 -0.98934,0.30217 -1.94252,0.58917 -2.84902,0.70117 h -4.18253 c -5.88005,-0.896 -9.69391,-5.93138 -12.36326,-11.72859 -1.54001,-3.34369 -2.69736,-7.01288 -3.6517,-10.33674 -0.0408,-0.14467 -0.0817,-0.30567 -0.12366,-0.44917 -0.93101,-3.28186 -1.66602,-6.24171 -2.38002,-8.26939 -0.66267,-1.88419 -2.39985,-5.88122 -3.11036,-9.70674 -0.0303,-0.15867 -0.0583,-0.31851 -0.084,-0.47601 -0.62067,-3.79403 -0.13417,-7.32788 3.53619,-8.34756 0.91584,-0.2541 2.14785,0.0852 3.4767,0.6475 0.1225,0.0513 0.245,0.10617 0.36866,0.16101 4.2187,1.88651 9.17591,5.62921 8.0034,-0.30334 -10e-4,-0.002 -10e-4,-0.003 -10e-4,-0.003 -0.45501,-2.3029 -0.97884,-4.58457 -1.47351,-6.86204 -0.0327,-0.15295 -0.0653,-0.30602 -0.098,-0.45792 -1.06635,-4.942968 -1.97285,-9.867505 -1.76052,-14.93321 0.0385,-0.925173 0.11434,-1.85268 0.23334,-2.787187 1.20517,-9.460571 9.23773,-4.785703 13.7306,0.614838 -0.78751,-7.451556 1.59601,-15.327782 4.27703,-22.408335 1.26584,-3.340192 5.30371,-13.718936 11.65159,-12.554594 7.63706,1.401177 4.28987,15.913453 3.8232,19.986317 -0.65451,5.721376 -1.10601,11.562919 -3.2107,17.047461 7.97307,-0.647505 11.01925,0.476003 10.69725,7.325554 -0.10033,2.139683 -0.602,4.347036 -1.38601,6.503746 v 0.001 c -0.78401,2.05066 -1.64735,4.05443 -2.66002,5.91423"
       style="fill:#deedff;fill-opacity:1;fill-rule:nonzero;stroke:none;stroke-width:0.0116668"
       id="path94" />
    <path
       d="m 186.32472,159.70456 c 0.005,0 0.0105,0 0.0163,-10e-4 0.035,-0.008 0.0548,-0.0362 0.0455,-0.0642 -1.12001,-3.25503 -0.55417,-11.66092 1.68234,-24.98552 4.71687,-28.10871 15.39079,-69.092853 15.49812,-69.503523 0.007,-0.028 -0.0152,-0.05483 -0.0502,-0.06067 -0.035,-0.0058 -0.0688,0.01167 -0.077,0.03967 -0.10616,0.410669 -10.78125,41.398193 -15.49812,69.510523 -2.23884,13.3386 -2.80468,21.75849 -1.68001,25.02752 0.008,0.0222 0.0338,0.0373 0.063,0.0373"
       style="fill:#c5d2e0;fill-opacity:1;fill-rule:nonzero;stroke:none;stroke-width:0.0116668"
       id="path96" />
    <path
       d="m 187.6839,136.64872 c 0.0105,0 0.021,-0.002 0.0303,-0.006 l 18.56181,-8.09089 c 0.0315,-0.0128 0.0432,-0.0455 0.0257,-0.07 -0.0163,-0.0257 -0.056,-0.035 -0.0875,-0.021 l -18.56064,8.08973 c -0.0315,0.014 -0.0432,0.0455 -0.0268,0.0712 0.0128,0.0175 0.0338,0.0268 0.0572,0.0268"
       style="fill:#c5d2e0;fill-opacity:1;fill-rule:nonzero;stroke:none;stroke-width:0.0116668"
       id="path98" />
    <path
       d="m 192.13593,112.93371 c 0.0163,0 0.0315,-0.005 0.0432,-0.0128 l 19.12064,-13.647772 c 0.0268,-0.01983 0.0303,-0.0525 0.006,-0.07467 -0.0245,-0.021 -0.0642,-0.02217 -0.091,-0.0035 l -19.12064,13.647772 c -0.0268,0.0187 -0.0292,0.0513 -0.006,0.0735 0.0128,0.0117 0.0303,0.0175 0.0478,0.0175"
       style="fill:#c5d2e0;fill-opacity:1;fill-rule:nonzero;stroke:none;stroke-width:0.0116668"
       id="path100" />
    <path
       d="m 194.06095,104.39189 c 0.0117,0 0.0233,-0.003 0.0338,-0.008 0.0303,-0.0151 0.0397,-0.0474 0.021,-0.0717 L 181.70469,88.124355 c -0.0187,-0.0245 -0.0583,-0.03267 -0.0887,-0.0175 -0.0292,0.01517 -0.0397,0.04783 -0.0198,0.07233 l 12.40993,16.187975 c 0.0117,0.0156 0.0338,0.0247 0.0548,0.0247"
       style="fill:#c5d2e0;fill-opacity:1;fill-rule:nonzero;stroke:none;stroke-width:0.0116668"
       id="path102" />
    <path
       d="m 138.7407,101.4766 c 0,0 -0.66151,1.22338 -0.64634,1.41192 0.0152,0.18841 -0.48767,-0.61204 -0.48767,-0.61204 l 0.644,-1.1962 0.49001,0.39632"
       style="fill:#bcd0e3;fill-opacity:1;fill-rule:nonzero;stroke:none;stroke-width:0.0116668"
       id="path104" />
    <path
       d="m 134.50333,157.04104 c 0,0 0.30567,0.77117 0.11434,1.64851 -0.19134,0.87617 -0.46317,1.04184 -0.46317,1.04184 l -5.87538,0.38384 c 0,0 -0.0117,-2.20735 3.52686,-2.67752 0.34767,-0.0467 0.4725,-0.63117 0.4725,-0.63117 l 2.22485,0.2345"
       style="fill:#1a1a1a;fill-opacity:1;fill-rule:nonzero;stroke:none;stroke-width:0.0116668"
       id="path106" />
    <path
       d="m 144.99291,128.29532 c 0.59267,-1.32768 1.66485,-5.53004 3.13602,-10.03107 l -7.61839,-0.0852 c -0.2625,-0.004 -0.8855,4.01453 -0.9205,4.20236 -0.86801,4.55354 -1.66835,9.11874 -2.48502,13.68161 -0.69651,3.88969 -4.44153,20.24882 -4.82654,20.74349 l 2.22485,0.2345 c 3.13836,-8.5354 6.13672,-17.5503 6.20438,-17.7918 0.67784,-2.10002 1.98452,-5.79371 4.2852,-10.95392"
       style="fill:#4d4d4d;fill-opacity:1;fill-rule:nonzero;stroke:none;stroke-width:0.0116668"
       id="path108" />
    <path
       d="m 148.0531,156.61053 c 0,0 -0.40017,0.72568 -0.32083,1.62052 0.0817,0.8925 0.51216,1.11534 0.51216,1.11534 l 5.88355,0.602 c 0,0 0.004,-1.69868 -3.44753,-2.60752 -0.34067,-0.0898 -0.39083,-0.68484 -0.39083,-0.68484 l -2.23652,-0.0455"
       style="fill:#1a1a1a;fill-opacity:1;fill-rule:nonzero;stroke:none;stroke-width:0.0116668"
       id="path110" />
    <path
       d="m 154.44648,110.66102 c -0.133,-0.60142 -0.308,-1.18674 -0.51217,-1.76028 -0.77817,-2.18471 -1.98101,-4.20306 -2.91085,-6.32816 -0.41651,-0.95119 -1.02785,-1.83646 -2.00435,-2.2693 -1.02784,-0.456171 -2.36019,-0.27767 -3.25736,-1.039508 0,0 -2.37302,0.007 -4.59903,0.354669 -0.19367,0.03033 -0.44801,0.236835 -0.63234,0.316169 -0.59268,0.2555 -1.21801,0.39667 -1.84452,0.5425 -1.87601,0.43634 -2.22601,1.9585 -2.57952,3.62137 -0.43517,2.04868 -0.82717,4.11719 -1.43734,6.12317 -0.315,-0.007 -0.66384,-0.006 -1.05234,0.007 -1.91452,0.0633 -3.21419,0.92121 -6.91255,-0.51812 l -0.0199,1.51516 c 2.57252,0.99634 5.46004,1.87835 8.24257,1.76285 1.78851,-0.0747 2.31351,-1.31251 2.78835,-2.781 0.22634,-0.69861 0.52967,-1.82865 0.90767,-2.95134 0.18317,0.44415 0.33834,0.95247 0.43167,1.53114 0.38851,2.40102 1.42918,7.29989 1.42101,9.66941 0,0 4.81487,1.05467 9.33574,-2.53052 0,0 -0.91934,-3.34486 -1.05234,-4.55703 -0.301,-2.74146 -0.19834,-4.37492 0.0292,-5.34805 -0.0327,0.14211 0.71633,0.92518 0.83417,1.09061 0.33484,0.47006 0.65217,0.95236 0.95317,1.44481 1.74302,2.84763 2.42085,7.02899 1.66602,10.27001 l 1.31484,0.0968 c 0.99634,-2.53402 1.48168,-5.58954 0.89017,-8.2624"
       style="fill:#ffffff;fill-opacity:1;fill-rule:nonzero;stroke:none;stroke-width:0.0116668"
       id="path112" />
    <path
       d="m 127.08211,109.74623 -0.45267,-0.17978 -0.41884,1.65458 0.71168,0.22283 0.15983,-1.69763"
       style="fill:#f2f2f2;fill-opacity:1;fill-rule:nonzero;stroke:none;stroke-width:0.0116668"
       id="path114" />
    <path
       d="m 126.67144,109.71053 c -0.3115,-0.22213 -0.62184,-0.44578 -0.96601,-0.6167 -0.16217,-0.0806 -0.36633,-0.12833 -0.51683,-0.22669 -0.10734,-0.0702 -0.0887,-0.22948 -0.21934,-0.2863 -0.119,-0.0523 -0.27067,-0.0194 -0.38967,0.0159 -0.28933,0.0852 -0.4305,0.3486 -0.47367,0.62405 -0.042,0.27825 -0.10383,0.61239 -0.009,0.88481 0.0548,0.1554 0.15634,0.29073 0.29401,0.3808 0.12366,0.0808 0.2695,0.0812 0.41067,0.0979 0.14583,0.0173 0.28233,0.0616 0.41767,0.11877 0.14816,0.0618 0.29633,0.1225 0.45033,0.16567 0.2065,0.0583 0.42584,0.0968 0.64051,0.1155 0.0373,0.002 0.0747,0.005 0.11317,0.005 l 0.2485,-1.27833"
       style="fill:#fdcba9;fill-opacity:1;fill-rule:nonzero;stroke:none;stroke-width:0.0116668"
       id="path116" />
    <path
       d="m 125.52343,109.23756 0.203,-0.56409 0.009,0.10944 -0.1995,-0.59267 c -0.0257,-0.0784 0.0163,-0.1624 0.0945,-0.18865 0.0723,-0.0241 0.1505,0.0106 0.182,0.0777 l 0.26717,0.56549 c 0.0117,0.0229 0.0152,0.0476 0.0128,0.0709 l -0.004,0.0387 -0.0583,0.59641 c -0.0128,0.1449 -0.14117,0.25001 -0.28584,0.2366 -0.1435,-0.0141 -0.24967,-0.14222 -0.23566,-0.28654 0.002,-0.0215 0.007,-0.0438 0.014,-0.0633"
       style="fill:#ffae81;fill-opacity:1;fill-rule:nonzero;stroke:none;stroke-width:0.0116668"
       id="path118" />
    <path
       d="m 150.17062,117.09757 c -1.13518,-1.63451 -8.45957,2.19919 -6.15772,8.07806 2.76269,7.05255 2.34619,13.94061 2.39169,14.52045 0,0.0105 0.18433,7.14238 1.65784,16.91795 l 2.22719,0.042 c -0.10967,-6.29187 0.0607,-11.80675 0.45033,-16.50612 0,-2.27735 2.71719,-18.3168 -0.56933,-23.05234"
       style="fill:#4d4d4d;fill-opacity:1;fill-rule:nonzero;stroke:none;stroke-width:0.0116668"
       id="path120" />
    <path
       d="m 145.48058,99.387439 c -0.68134,1.067511 -1.40934,0.858671 -2.01368,0.926341 -1.20284,0.13533 -2.22018,-0.689506 -2.22018,-0.689506 0.2275,-0.364003 0.43167,-0.616004 0.52967,-1.097841 0.002,-0.0047 0.002,-0.0082 0.004,-0.01283 l 0.0187,-0.08867 c 0.0712,-0.346503 0.15167,-0.754839 0.19834,-0.98934 l 0.0175,-0.09333 c 0.0117,-0.06184 0.0186,-0.164502 0.0186,-0.164502 0.12484,-0.41417 0.79334,-0.43867 1.46418,-0.43867 h 10e-4 c 0.74901,0.144668 1.50035,0.383837 1.50035,0.383837 -0.22984,0.228668 -0.0875,0.852839 0.10033,1.362676 0.17151,0.466671 0.38151,0.90184 0.38151,0.90184"
       style="fill:#fdcba9;fill-opacity:1;fill-rule:nonzero;stroke:none;stroke-width:0.0116668"
       id="path122" />
    <path
       d="m 143.7154,100.25428 0.4025,1.07544 -0.504,1.12363 -0.6965,-1.09155 0.26367,-1.06435 c 0,0 0.19599,0.0793 0.53433,-0.0432"
       style="fill:#1a1a1a;fill-opacity:1;fill-rule:nonzero;stroke:none;stroke-width:0.0116668"
       id="path124" />
    <path
       d="m 153.79081,120.6711 c 0.0338,-0.35234 -0.021,-0.90767 -0.21117,-1.74535 l -1.27634,-0.2625 c -0.0128,-0.002 -0.0945,0.29984 -0.0992,0.3185 -0.042,0.18084 -0.0723,0.36517 -0.0852,0.55067 -0.0128,0.1715 0.002,0.33834 0.005,0.50867 0.001,0.0945 -0.0303,0.18434 -0.0432,0.27767 -0.0805,0.58217 0.25434,0.92051 0.385,0.98818 0.0723,0.0373 0.1505,0.0677 0.22751,0.0922 0.57517,0.18084 1.03484,-0.10733 1.09784,-0.728"
       style="fill:#fdcba9;fill-opacity:1;fill-rule:nonzero;stroke:none;stroke-width:0.0116668"
       id="path126" />
    <path
       d="m 153.28447,119.60242 0.50051,0.33017 -0.0583,-0.0933 0.196,0.59384 c 0.0268,0.0782 0.11084,0.12016 0.189,0.0945 0.0723,-0.0245 0.11434,-0.0992 0.0992,-0.1715 l -0.12483,-0.61251 c -0.005,-0.0257 -0.0163,-0.0478 -0.0327,-0.0653 l -0.0257,-0.028 -0.40367,-0.44334 c -0.098,-0.10733 -0.26483,-0.1155 -0.371,-0.0175 -0.10734,0.098 -0.1155,0.26367 -0.0175,0.36984 0.0152,0.0175 0.0327,0.0315 0.049,0.0432"
       style="fill:#ffae81;fill-opacity:1;fill-rule:nonzero;stroke:none;stroke-width:0.0116668"
       id="path128" />
    <path
       d="m 145.09908,98.519432 c -1.42451,1.438511 -2.62969,0.715173 -3.31919,-0.0058 l 0.0187,-0.08867 0.19833,-0.989341 0.0175,-0.162167 1.48284,-0.534338 h 10e-4 c 0.74901,0.144668 1.50035,0.383837 1.50035,0.383837 -0.22984,0.228668 -0.0875,0.886673 0.10033,1.39651"
       style="fill:#ffae81;fill-opacity:1;fill-rule:nonzero;stroke:none;stroke-width:0.0116668"
       id="path130" />
    <path
       d="m 149.80078,115.8959 0.36867,1.20167 c 0,0 -5.35621,2.59469 -9.81758,1.38368 0,0 0.0828,-0.65101 0.07,-0.81668 0,0 5.3352,0.94268 9.3789,-1.76867"
       style="fill:#1a1a1a;fill-opacity:1;fill-rule:nonzero;stroke:none;stroke-width:0.0116668"
       id="path132" />
    <path
       d="m 145.85508,99.336105 -0.476,-0.655671 -1.91451,1.594846 0.79917,1.50186 1.59134,-2.441035"
       style="fill:#f2f2f2;fill-opacity:1;fill-rule:nonzero;stroke:none;stroke-width:0.0116668"
       id="path134" />
    <path
       d="m 141.16505,99.632441 0.41417,-0.533171 1.88535,1.17601 -0.61718,1.59834 -1.68234,-2.241179"
       style="fill:#f2f2f2;fill-opacity:1;fill-rule:nonzero;stroke:none;stroke-width:0.0116668"
       id="path136" />
    <path
       d="m 143.8694,101.79254 c 0,0 1.02434,10.4995 2.81869,12.77685 l 0.0467,1.18301 -1.20635,-0.23567 c 0,0 -3.15585,-4.4952 -2.17351,-13.63599 l 0.5145,-0.0882"
       style="fill:#1a1a1a;fill-opacity:1;fill-rule:nonzero;stroke:none;stroke-width:0.0116668"
       id="path138" />
    <path
       d="m 152.3698,118.22225 c 0,0 1.38718,0.10616 1.55284,0.0163 0.16567,-0.091 -0.33483,0.69651 -0.33483,0.69651 l -1.38018,-0.10384 0.16217,-0.609"
       style="fill:#f2f2f2;fill-opacity:1;fill-rule:nonzero;stroke:none;stroke-width:0.0116668"
       id="path140" />
    <path
       d="m 146.32642,93.68823 c 0,2.216683 -1.29501,5.213872 -2.89102,5.213872 -1.59834,0 -2.89336,-2.997189 -2.89336,-5.213872 0,-2.215517 1.29502,-2.811688 2.89336,-2.811688 1.59601,0 2.89102,0.596171 2.89102,2.811688"
       style="fill:#fdcba9;fill-opacity:1;fill-rule:nonzero;stroke:none;stroke-width:0.0116668"
       id="path142" />
    <path
       d="m 141.01105,96.081081 c 0,0 -0.72917,0.284669 -0.93684,-1.762847 -0.0175,-0.176168 0.30567,-0.364002 0.5145,-0.1155 0.20767,0.248502 0.42234,1.878347 0.42234,1.878347"
       style="fill:#fdcba9;fill-opacity:1;fill-rule:nonzero;stroke:none;stroke-width:0.0116668"
       id="path144" />
    <path
       d="m 145.85859,96.081081 c 0,0 0.72917,0.284669 0.93567,-1.762847 0.0187,-0.176168 -0.30451,-0.364002 -0.51334,-0.1155 -0.20883,0.248502 -0.42233,1.878347 -0.42233,1.878347"
       style="fill:#fdcba9;fill-opacity:1;fill-rule:nonzero;stroke:none;stroke-width:0.0116668"
       id="path146" />
    <path
       d="m 140.80221,95.550244 c 0.0292,0.134167 -0.686,-2.073183 -0.69184,-3.423026 0,-0.06883 0.49584,-2.074349 1.79902,-1.401177 0,0 0.329,1.003341 0.45033,1.124675 0,0 -1.53417,0.190168 -1.55167,0.588004 0,0 -0.0898,2.717187 -0.006,3.111524"
       style="fill:#1a1a1a;fill-opacity:1;fill-rule:nonzero;stroke:none;stroke-width:0.0116668"
       id="path148" />
    <path
       d="m 141.93739,90.789041 c -0.0187,-0.05717 0.49933,-1.066341 1.79784,-0.847006 0,0 2.71836,0.494671 2.85253,2.087182 0,0 -0.12017,2.831522 -0.51801,3.528027 l 0.0513,-1.590179 c 0,0 0.004,-1.552845 -1.29735,-1.556345 0,0 -1.86785,0.08633 -2.45585,-0.467837 -0.588,-0.553004 -0.4305,-1.153842 -0.4305,-1.153842"
       style="fill:#1a1a1a;fill-opacity:1;fill-rule:nonzero;stroke:none;stroke-width:0.0116668"
       id="path150" />
    <path
       d="m 118.12204,103.43044 c 0.71984,0 1.33351,-0.25154 1.91918,-0.67084 v 7.47267 h 19.74832 V 90.483372 h -7.54489 c 0.41884,0.487671 0.67084,1.200509 0.67084,1.920348 0,1.675346 -1.35801,3.04269 -3.03336,3.04269 -1.67418,0 -3.03219,-1.372011 -3.03219,-3.047356 0,-0.719839 0.25084,-1.428011 0.67084,-1.915682 h -7.47956 v 7.55189 c -0.58567,-0.418836 -1.19934,-0.670838 -1.91918,-0.670838 -1.67418,0 -3.03219,1.35801 -3.03219,3.033356 0,1.67488 1.35801,3.03266 3.03219,3.03266"
       style="fill:#ffe357;fill-opacity:1;fill-rule:nonzero;stroke:none;stroke-width:0.0116668"
       id="path152" />
    <path
       d="m 197.31364,110.71936 c -2.50252,-1.06646 -4.87554,-2.61091 -5.91505,-5.22356 -0.49233,-1.23913 -1.45368,-2.26382 -2.46752,-3.10009 -0.47484,-0.39118 -0.96717,-0.798 -1.52484,-1.06587 -0.511,-0.24605 -1.07218,-0.35222 -1.59835,-0.55639 -0.4795,-0.18667 -0.92167,-0.49117 -1.43851,-0.57167 -2.18868,-0.340671 -4.52436,-0.348838 -4.52436,-0.348838 -0.82018,0.697668 -3.3017,0.800338 -3.3017,0.800338 l -0.59267,4.43535 c 0,0 1.67651,0.04 0.94734,6.67257 -0.13183,1.19234 -1.03484,4.48353 -1.03484,4.48353 4.4462,3.52569 9.1829,2.48852 9.1829,2.48852 -0.009,-2.33102 1.01501,-7.14939 1.39651,-9.51167 0.1295,-0.80092 0.32667,-1.65131 0.77584,-2.33977 0.14584,-0.22458 0.30801,-0.39177 0.48417,-0.52174 0,-0.0181 0,-0.036 0,-0.0542 0.10034,0.12694 0.19951,0.25446 0.29517,0.38489 1.19585,1.62238 2.53402,3.19237 4.30387,4.20598 1.86785,1.06868 4.14986,1.44201 6.25221,1.73951 0.46201,0.0653 0.92401,0.13184 1.38835,0.17617 l 0.65217,-1.34051 c -1.11885,-0.10617 -2.24235,-0.31033 -3.28069,-0.7525"
       style="fill:#ffffff;fill-opacity:1;fill-rule:nonzero;stroke:none;stroke-width:0.0116668"
       id="path154" />
    <path
       d="m 200.05182,111.38553 c 0,0 -0.3255,1.32884 -0.46084,1.45601 -0.13533,0.12717 0.75951,-0.12367 0.75951,-0.12367 l 0.32084,-1.29734 -0.61951,-0.035"
       style="fill:#f2f2f2;fill-opacity:1;fill-rule:nonzero;stroke:none;stroke-width:0.0116668"
       id="path156" />
    <path
       d="m 203.15401,111.74486 c -0.0408,-0.17616 -0.13417,-0.33717 -0.28233,-0.43983 -0.14,-0.0957 -0.25317,-0.0548 -0.40017,-0.009 -0.16217,0.0502 -0.28934,0.0338 -0.45734,0.0303 -0.45617,-0.0105 -0.91584,0.049 -1.36501,0.11783 l -0.34533,1.23434 c -0.007,0.0245 0.44683,0.16101 0.47366,0.16917 0.17851,0.049 0.36051,0.0793 0.54368,0.0992 0.22283,0.0234 0.41183,-0.0303 0.62067,0.0677 0.31616,0.147 0.55067,0.16567 0.80267,-0.10967 0.189,-0.20767 0.35,-0.47367 0.413,-0.75017 0.0303,-0.13067 0.0292,-0.27417 -0.004,-0.40951"
       style="fill:#fdcba9;fill-opacity:1;fill-rule:nonzero;stroke:none;stroke-width:0.0116668"
       id="path158" />
    <path
       d="m 201.74,111.7017 0.336,-0.49701 -0.0945,0.0583 0.59618,-0.19017 c 0.0782,-0.0257 0.12133,-0.1085 0.0968,-0.18667 -0.0222,-0.0735 -0.0968,-0.1155 -0.17033,-0.1015 l -0.61368,0.11667 c -0.0257,0.006 -0.0478,0.0163 -0.0653,0.0327 l -0.0292,0.0257 -0.448,0.399 c -0.1085,0.0957 -0.11784,0.2625 -0.021,0.36983 0.0957,0.1085 0.2625,0.11784 0.371,0.0222 0.0152,-0.0152 0.0303,-0.0315 0.042,-0.049"
       style="fill:#ffae81;fill-opacity:1;fill-rule:nonzero;stroke:none;stroke-width:0.0116668"
       id="path160" />
    <path
       d="m 195.72812,157.15887 c -0.6615,-2.41968 -3.15118,-13.2056 -3.65402,-16.23429 -0.81551,-4.9257 -2.42552,-9.97741 -3.9947,-14.71644 -0.73734,-2.22835 -1.54818,-4.4567 -2.59585,-6.56255 -0.14,-0.28233 -0.27651,-0.57284 -0.43984,-0.8435 l -7.52855,-0.24267 c 1.94134,6.32571 5.27103,12.09842 7.84822,18.16746 0.74434,1.75468 1.45018,3.52687 2.13385,5.30605 0.73734,1.91801 1.17368,3.97836 1.83168,5.9232 0.74434,2.19686 4.1452,9.33108 4.21053,9.43375 l 2.18868,-0.23101"
       style="fill:#4d4d4d;fill-opacity:1;fill-rule:nonzero;stroke:none;stroke-width:0.0116668"
       id="path162" />
    <path
       d="m 193.53827,157.32687 c 0,0 -0.29983,0.75834 -0.112,1.62052 0.18901,0.86217 0.63701,1.02667 0.63701,1.02667 l 5.90338,0.14117 c 0,0 -0.29284,-1.93668 -3.7742,-2.39985 -0.34183,-0.0455 -0.46434,-0.61951 -0.46434,-0.61951 l -2.18985,0.231"
       style="fill:#1a1a1a;fill-opacity:1;fill-rule:nonzero;stroke:none;stroke-width:0.0116668"
       id="path164" />
    <path
       d="m 181.25085,118.99575 -5.87771,-1.79785 c 0,0 -1.38485,3.06953 -2.91669,8.29623 -0.85634,2.92019 -2.19802,11.27359 -2.52352,12.39943 -0.60784,2.10468 -5.33754,16.73013 -5.37021,16.78146 0,0 1.76052,0.83767 2.20152,0.79567 0.112,-0.84934 3.84769,-8.82356 5.90338,-12.16492 1.40351,-2.28202 2.72768,-5.54054 3.71236,-8.03256 1.50268,-3.80103 2.87002,-7.67439 3.94336,-11.62009 0.40834,-1.49801 0.88434,-3.09169 0.92751,-4.65737"
       style="fill:#4d4d4d;fill-opacity:1;fill-rule:nonzero;stroke:none;stroke-width:0.0116668"
       id="path166" />
    <path
       d="m 164.56272,154.67502 c 0,0 -0.61367,0.53784 -0.83883,1.39185 -0.22401,0.854 0.10033,1.204 0.10033,1.204 l 5.22204,2.77319 c 0,0 0.59267,-1.86785 -2.29602,-3.86286 -0.3185,-0.2205 0.0222,-0.71517 0.0198,-0.72101 l -2.20735,-0.78517"
       style="fill:#1a1a1a;fill-opacity:1;fill-rule:nonzero;stroke:none;stroke-width:0.0116668"
       id="path168" />
    <path
       d="m 175.87247,116.1514 -0.54483,1.07101 c 0,0 5.32587,2.70902 9.71491,1.51667 0,0 0.042,-0.686 0.056,-0.84817 0,0 -5.25003,0.92751 -9.22607,-1.73951"
       style="fill:#1a1a1a;fill-opacity:1;fill-rule:nonzero;stroke:none;stroke-width:0.0116668"
       id="path170" />
    <path
       d="m 181.70702,102.27799 c 0,0 -1.00801,10.32905 -2.77319,12.56906 l -0.0455,1.16318 1.18534,-0.23333 c 0,0 3.10569,-4.42054 2.13969,-13.41152 l -0.50634,-0.0874"
       style="fill:#1a1a1a;fill-opacity:1;fill-rule:nonzero;stroke:none;stroke-width:0.0116668"
       id="path172" />
    <path
       d="m 180.09934,103.62655 c 0,0 -2.76619,0.45886 -5.99204,6.84454 -0.73734,1.46044 -3.6937,1.61444 -1.92969,-2.63319 0.56468,-1.35882 1.44318,-3.09239 2.06152,-4.62505 0.581,-1.44131 1.45834,-2.43823 2.30418,-2.62257 0.79801,-0.17383 3.55603,3.03627 3.55603,3.03627"
       style="fill:#ffffff;fill-opacity:1;fill-rule:nonzero;stroke:none;stroke-width:0.0116668"
       id="path174" />
    <path
       d="m 171.57444,118.54542 c 0,0 -2.23185,-7.00589 1.01501,-10.67205 0,0 2.11868,-4.12851 1.54935,2.13525 -0.17034,1.87741 -1.89819,4.6751 -1.26935,8.52746 l -1.29501,0.009"
       style="fill:#ffffff;fill-opacity:1;fill-rule:nonzero;stroke:none;stroke-width:0.0116668"
       id="path176" />
    <path
       d="m 172.78429,117.93525 c 0,0 -1.36852,0.0128 -1.52602,-0.0863 -0.15633,-0.10033 0.28351,0.70584 0.28351,0.70584 l 1.36151,-0.0105 -0.119,-0.609"
       style="fill:#f2f2f2;fill-opacity:1;fill-rule:nonzero;stroke:none;stroke-width:0.0116668"
       id="path178" />
    <path
       d="m 172.70845,119.20342 0.5495,0.23917 -0.0735,-0.0817 0.29517,0.55067 c 0.0385,0.0735 0.12834,0.10034 0.20067,0.0618 0.0677,-0.0362 0.0968,-0.11667 0.07,-0.1855 l -0.2275,-0.58334 c -0.009,-0.0233 -0.0257,-0.0432 -0.0432,-0.0583 l -0.0315,-0.0233 -0.4725,-0.3675 c -0.11434,-0.0898 -0.28,-0.0688 -0.36867,0.0455 -0.0887,0.11434 -0.0677,0.28001 0.0455,0.36867 0.0175,0.0128 0.0373,0.0245 0.056,0.0338"
       style="fill:#ffae81;fill-opacity:1;fill-rule:nonzero;stroke:none;stroke-width:0.0116668"
       id="path180" />
    <path
       d="m 183.96337,99.297605 c 0.004,0.48417 -0.0653,0.775835 0.15983,1.134005 0,0 -0.8365,0.58684 -2.02068,0.45501 -0.59384,-0.0665 -1.31018,0.13883 -1.98101,-0.911176 0,0 0.11433,-1.438511 0.71634,-2.901522 0.0163,-0.042 0.0338,-0.08167 0.0513,-0.123668 0.10967,-0.250835 0.23217,-0.500504 0.37217,-0.743172 0,0 2.30535,0.05483 2.92135,0.709339 0.063,0.0665 0.10734,0.138834 0.13184,0.218168 0,0 -0.0467,0.143501 -0.1085,0.379169 -0.0688,0.275336 -0.15517,0.676672 -0.20417,1.113009 -0.0257,0.219335 -0.0397,0.44567 -0.0385,0.670838"
       style="fill:#fdcba9;fill-opacity:1;fill-rule:nonzero;stroke:none;stroke-width:0.0116668"
       id="path182" />
    <path
       d="m 184.20604,97.513758 c -0.0688,0.275336 -0.15517,0.676672 -0.20417,1.113009 -1.94601,0.169168 -2.69269,-0.599672 -3.16402,-1.552845 -0.005,-0.0058 -0.008,-0.014 -0.0117,-0.021 0.0455,-0.269502 0.10267,-0.541338 0.18084,-0.812006 0,0 2.72885,-0.611338 3.18735,0.161001 0,0 -0.0152,0.203001 -0.0117,0.514504 0.001,0.172668 0.008,0.374502 0.0233,0.597337"
       style="fill:#ffae81;fill-opacity:1;fill-rule:nonzero;stroke:none;stroke-width:0.0116668"
       id="path184" />
    <path
       d="m 183.76154,91.94055 c 0,0 0.58916,0.325502 1.04884,2.032349 0.0805,0.298668 0.73617,0.95084 0.679,1.176008 -0.0572,0.225169 -0.55884,0.423504 -0.55884,0.423504 0,0 0.26484,1.635678 -0.002,2.201516 0,0 -2.76152,0.554171 -4.05186,-1.29151 0,0 -4.39487,-6.042212 2.88519,-4.541867"
       style="fill:#fdcba9;fill-opacity:1;fill-rule:nonzero;stroke:none;stroke-width:0.0116668"
       id="path186" />
    <path
       d="m 183.92954,92.080551 0.36167,-0.985841 c 0,0 -0.69184,-0.820173 -1.80835,-0.917007 -1.11768,-0.09683 -1.62168,0.36517 -1.62168,0.36517 0,0 -0.95784,0.07117 -1.35101,0.544837 -0.392,0.474837 -0.31384,0.455004 -0.609,0.756006 -0.29634,0.301002 -0.61251,0.85634 -0.63818,1.458344 -0.0257,0.602005 0.51451,1.580845 0.60201,2.101183 0.0863,0.520337 0.97884,1.085008 1.25884,1.331176 0.82251,0.721006 0.70234,0.255502 0.79451,-0.162168 0.14583,-0.661505 -1.20401,-2.976188 -0.0455,-1.684679 0,0 0.343,0.091 -0.0105,-0.875007 -0.11317,-0.311502 0.25667,-0.448003 0.17617,-1.180675 -0.0525,-0.479504 -0.21001,-0.554171 -0.49001,-0.728005 0,0 2.69386,0.368669 3.38103,-0.02334"
       style="fill:#1a1a1a;fill-opacity:1;fill-rule:nonzero;stroke:none;stroke-width:0.0116668"
       id="path188" />
    <path
       d="m 181.48885,94.831572 c 0,0 -0.63584,-1.396511 -1.28217,-0.296336 -0.31384,0.532004 0.8365,1.873681 1.33234,1.926181 l -0.0502,-1.629845"
       style="fill:#fdcba9;fill-opacity:1;fill-rule:nonzero;stroke:none;stroke-width:0.0116668"
       id="path190" />
    <path
       d="m 181.85752,100.76528 -0.39433,1.05818 0.49466,1.10484 0.68484,-1.07369 -0.259,-1.04733 c 0,0 -0.19367,0.0782 -0.52617,-0.042"
       style="fill:#1a1a1a;fill-opacity:1;fill-rule:nonzero;stroke:none;stroke-width:0.0116668"
       id="path192" />
    <path
       d="m 179.75284,99.861109 0.469,-0.644005 1.88301,1.568016 -0.78633,1.47806 -1.56568,-2.402071"
       style="fill:#f2f2f2;fill-opacity:1;fill-rule:nonzero;stroke:none;stroke-width:0.0116668"
       id="path194" />
    <path
       d="m 184.36704,100.15394 -0.40717,-0.524999 -1.85502,1.156179 0.60668,1.57291 1.65551,-2.20409"
       style="fill:#f2f2f2;fill-opacity:1;fill-rule:nonzero;stroke:none;stroke-width:0.0116668"
       id="path196" />
    <path
       d="m 172.87062,118.53608 -1.28218,-0.021 c 0,0 -0.1295,0.67434 0.14001,1.52835 -0.0432,0.009 -0.084,0.0186 -0.11901,0.0315 -0.196,0.0653 -0.3675,0.3255 -0.3885,0.51217 -0.0443,0.39901 0.3815,0.51451 0.714,0.51567 0.33834,0.002 0.72684,0.007 1.04068,-0.1505 0.112,-0.056 0.26367,-0.1855 0.34767,-0.32783 0.1575,-0.23334 0.0933,-0.82835 -0.45267,-2.08836"
       style="fill:#fdcba9;fill-opacity:1;fill-rule:nonzero;stroke:none;stroke-width:0.0116668"
       id="path198" />
    <path
       d="m 208.59889,98.626767 c 0.71984,0 1.35684,0.250835 1.89351,0.670838 v -7.473723 h -7.49589 c 0.41884,-0.585671 0.66851,-1.201675 0.66851,-1.920347 0,-1.67418 -1.35801,-3.04269 -3.03219,-3.04269 -1.67535,0 -3.03336,1.373177 -3.03336,3.048523 0,0.718672 0.25084,1.328843 0.66851,1.914514 h -7.52389 V 111.5722 h 19.74831 v -7.55084 c -0.53667,0.4193 -1.17367,0.67084 -1.89351,0.67084 -1.67418,0 -3.03219,-1.35778 -3.03219,-3.03278 0,-1.674643 1.35801,-3.032653 3.03219,-3.032653"
       style="fill:#88becf;fill-opacity:1;fill-rule:nonzero;stroke:none;stroke-width:0.0116668"
       id="path200" />
    <path
       d="m 252.92555,135.36071 c 1.14218,-17.8338 -0.6335,-18.10564 -0.6335,-18.10564 l -6.18921,1.44551 c 0.60667,4.87671 0.413,4.90704 0.48417,6.44239 0.18783,4.08569 0.64283,8.15039 1.27867,12.18825 0.20767,1.32185 0.27534,2.65419 0.37567,3.98653 0.1925,2.54569 0.52034,5.08554 0.85751,7.61606 0.31033,2.32985 0.61017,4.71454 0.96134,7.03855 0.70584,-0.0478 1.47351,-0.0618 2.18401,-0.14816 -0.10033,0 0.42701,-13.85078 0.47251,-15.17962 0.0583,-1.75468 0.26367,-3.52919 0.20883,-5.28387"
       style="fill:#4d4d4d;fill-opacity:1;fill-rule:nonzero;stroke:none;stroke-width:0.0116668"
       id="path202" />
    <path
       d="m 234.47925,157.1437 c 0,0 0.29983,0.75485 0.112,1.61235 -0.18667,0.85751 -0.63234,1.02084 -0.63234,1.02084 l -5.87187,0.14117 c 0,0 0.29166,-1.92618 3.75319,-2.38702 0.34067,-0.0443 0.462,-0.616 0.462,-0.616 l 2.17702,0.22866"
       style="fill:#1a1a1a;fill-opacity:1;fill-rule:nonzero;stroke:none;stroke-width:0.0116668"
       id="path204" />
    <path
       d="m 242.83614,118.77175 c 0,0 -2.14785,5.23487 -6.18454,19.10664 0,0 0,0.0105 0,0.0303 -0.73384,2.98552 -2.54919,11.47425 -4.34937,19.00631 l 2.17702,0.22867 c 3.26086,-8.86674 4.7857,-13.0691 5.56737,-15.13061 0.0397,-0.0793 0.0898,-0.15867 0.1295,-0.24267 0.10267,-0.21584 2.21435,-5.05637 6.83672,-13.42727 0.74201,-1.34518 1.47351,-5.27221 3.35303,-9.81407 l -7.52973,0.24267"
       style="fill:#4d4d4d;fill-opacity:1;fill-rule:nonzero;stroke:none;stroke-width:0.0116668"
       id="path206" />
    <path
       d="m 250.0602,155.97236 c 0,0 -0.32784,0.74201 -0.1715,1.60652 0.15516,0.8645 0.59384,1.04417 0.59384,1.04417 l 5.86254,0.35934 c 0,0 -0.2205,-1.93552 -3.6622,-2.52469 -0.33833,-0.0572 -0.43867,-0.6335 -0.43867,-0.6335 l -2.18401,0.14816"
       style="fill:#1a1a1a;fill-opacity:1;fill-rule:nonzero;stroke:none;stroke-width:0.0116668"
       id="path208" />
    <path
       d="m 256.46991,110.54202 c -0.0968,-0.60235 -0.22167,-1.19444 -0.3605,-1.75351 -0.35467,-1.41938 -0.96134,-3.25432 -1.34401,-4.85255 -0.15867,-0.66606 -0.43167,-1.30003 -0.78867,-1.88243 -0.81201,-1.32558 -2.81169,-0.96508 -3.84537,-2.082753 0,0 -2.31468,-0.387336 -4.50803,-0.178501 -0.0373,0.0035 -0.37683,0.133001 -0.525,0.179668 -0.50517,0.156336 -1.03251,0.260166 -1.55868,0.311506 -0.86801,0.084 -1.75818,0.231 -2.37652,0.90417 -0.74434,0.80909 -1.03367,2.00108 -1.43151,2.99754 -0.63467,1.59029 -1.17251,3.19482 -1.69634,4.82338 -0.40017,1.24193 -1.01735,2.41432 -1.50852,3.62183 -0.36283,0.89134 -0.8085,1.70101 -1.42334,2.44535 -0.518,0.62651 -1.13167,1.17601 -1.76635,1.68352 l 1.27285,0.76067 c 1.70218,-1.36735 3.39619,-2.94119 4.67136,-4.71804 0.68601,-0.9555 1.26118,-2.07551 1.75468,-3.1436 0.30101,-0.65206 0.72918,-1.71397 1.22735,-2.76047 0.12483,0.45255 0.217,0.96449 0.24033,1.53767 0.0957,2.37722 0.65684,7.19209 0.37101,9.49277 0,0 4.42986,1.65085 9.24006,-1.30084 0,0 -0.50167,-3.35652 -0.49,-4.55003 0.0257,-2.45539 0.2695,-3.97977 0.56584,-4.92629 0.1435,0.28933 0.27767,0.58264 0.4025,0.87676 0.24967,0.58579 0.469,1.18359 0.67667,1.78501 0.10967,0.31944 0.21584,0.64039 0.31967,0.96134 0.0863,0.26717 0.329,0.70584 0.31384,0.98234 -0.10734,2.07785 0.27767,4.0822 -0.17734,6.15188 -0.0373,0.17034 -0.49817,1.91451 -0.60783,1.88652 l 1.24717,0.32083 c 1.19118,-1.92851 2.13385,-4.36453 2.28085,-6.63022 0.0607,-0.94267 -0.0198,-1.95768 -0.17617,-2.94352"
       style="fill:#ffffff;fill-opacity:1;fill-rule:nonzero;stroke:none;stroke-width:0.0116668"
       id="path210" />
    <path
       d="m 234.29725,117.59808 c 0,0 -0.38267,0.64983 -1.16084,1.1025 0,0 -3.58986,-0.2135 0.20066,-1.94134 l 0.96018,0.83884"
       style="fill:#fdcba9;fill-opacity:1;fill-rule:nonzero;stroke:none;stroke-width:0.0116668"
       id="path212" />
    <path
       d="m 233.11541,118.59908 c 0.1575,0.27767 -0.22167,0.49584 -0.43168,0.52384 -0.46666,0.063 -0.98934,-0.28817 -1.253,-0.65451 -0.168,-0.23216 -0.0747,-0.92867 0.315,-0.86333 0.4725,0.0793 1.16667,0.63583 1.36968,0.994"
       style="fill:#fdcba9;fill-opacity:1;fill-rule:nonzero;stroke:none;stroke-width:0.0116668"
       id="path214" />
    <path
       d="m 233.45957,116.40223 -0.34767,0.32551 1.29268,1.05817 0.49234,-0.54017 -1.43735,-0.84351"
       style="fill:#f2f2f2;fill-opacity:1;fill-rule:nonzero;stroke:none;stroke-width:0.0116668"
       id="path216" />
    <path
       d="m 233.00924,116.88407 -0.58684,-0.0677 -0.0408,-0.006 c -0.0245,-0.002 -0.0478,0.002 -0.07,0.0105 l -0.58451,0.24616 c -0.0782,0.0327 -0.1155,0.12251 -0.0817,0.20184 0.0292,0.0712 0.1085,0.10733 0.182,0.0863 l 0.61134,-0.17383 -0.10966,0.005 0.5495,0.217 c 0.13883,0.0548 0.29517,-0.0128 0.35,-0.15167 0.0548,-0.13883 -0.014,-0.29517 -0.15167,-0.34883 -0.0221,-0.009 -0.0455,-0.0152 -0.0677,-0.0187"
       style="fill:#ffae81;fill-opacity:1;fill-rule:nonzero;stroke:none;stroke-width:0.0116668"
       id="path218" />
    <path
       d="m 245.83917,100.03378 c 0,0 0.756,0.68017 1.94018,0.68834 0.59383,0.005 1.27751,0.29283 2.06501,-0.66501 0,0 0.0607,-1.515511 -0.40017,-3.076522 -0.0758,-0.260169 -0.168,-0.522671 -0.27767,-0.778173 0,0 -2.76735,-0.267168 -3.12435,0.551838 0,0 0.22283,1.130508 0.0887,2.178183 -0.0607,0.47717 -0.0268,0.774672 -0.29167,1.101344"
       style="fill:#fdcba9;fill-opacity:1;fill-rule:nonzero;stroke:none;stroke-width:0.0116668"
       id="path220" />
    <path
       d="m 246.13084,98.932436 c 2.25284,0.02333 2.94702,-0.882007 3.31335,-1.951848 -0.0758,-0.260169 -0.168,-0.522671 -0.27767,-0.778173 0,0 -2.76735,-0.267168 -3.12435,0.551838 0,0 0.22283,1.130508 0.0887,2.178183"
       style="fill:#ffae81;fill-opacity:1;fill-rule:nonzero;stroke:none;stroke-width:0.0116668"
       id="path222" />
    <path
       d="m 245.9255,92.360553 c 0,0 -0.54134,0.394336 -0.78517,2.135016 -0.042,0.303336 -0.60784,1.027841 -0.52384,1.243676 0.084,0.215835 0.60317,0.348836 0.60317,0.348836 0,0 -0.0595,1.647346 0.27417,2.17235 0,0 2.79419,0.205335 3.83836,-1.773347 0,0 3.59219,-6.506549 -3.40669,-4.126531"
       style="fill:#fdcba9;fill-opacity:1;fill-rule:nonzero;stroke:none;stroke-width:0.0116668"
       id="path224" />
    <path
       d="m 245.79483,92.497054 c -0.45617,-0.331336 -0.20533,-1.158508 0.22634,-1.446677 0.96951,-0.646338 2.28668,-0.595005 3.34719,-0.353503 0.5705,0.130668 1.10017,0.623005 1.47818,1.036008 0.357,0.390836 0.581,0.752505 0.672,1.292676 0.0992,0.590338 -0.574,1.660179 -0.71984,2.164183 -0.33833,1.167842 -1.35451,1.792013 -1.49684,1.390677 -0.1435,-0.40717 0.0665,-0.971841 0.15283,-1.373177 0.0303,-0.137668 0.24967,-0.771173 -0.005,-0.696505 -0.16683,0.04783 -0.51567,0.756005 -0.48884,0.01983 0.009,-0.254336 0.0618,-0.512171 0.0163,-0.765339 -0.10733,-0.595005 -0.504,-1.157342 0.12833,-1.632179 -0.0863,0.06533 -0.22983,0.0525 -0.33016,0.0735 -0.29751,0.06417 -0.59034,0.142335 -0.88784,0.204168 -0.34767,0.0735 -0.69651,0.107335 -1.05001,0.141168 -0.2625,0.02567 -0.61367,0.123668 -0.87151,0.03383 -0.0653,-0.02334 -0.1225,-0.0525 -0.1715,-0.08867"
       style="fill:#1a1a1a;fill-opacity:1;fill-rule:nonzero;stroke:none;stroke-width:0.0116668"
       id="path226" />
    <path
       d="m 248.02785,100.69412 0.26484,1.09107 -0.62184,1.03227 -0.54718,-1.14147 0.38034,-1.00287 c 0,0 0.18084,0.0992 0.52384,0.021"
       style="fill:#1a1a1a;fill-opacity:1;fill-rule:nonzero;stroke:none;stroke-width:0.0116668"
       id="path228" />
    <path
       d="m 252.04821,116.19807 0.36167,1.17367 c 0,0 -5.11704,2.58419 -9.48157,1.40001 0,0 -0.042,-0.6825 -0.0537,-0.84351 0,0 5.21853,0.92051 9.17356,-1.73017"
       style="fill:#1a1a1a;fill-opacity:1;fill-rule:nonzero;stroke:none;stroke-width:0.0116668"
       id="path230" />
    <path
       d="m 250.21303,100.05244 -0.38617,-0.693001 -2.04635,1.324181 0.60084,1.55319 1.83168,-2.18437"
       style="fill:#f2f2f2;fill-opacity:1;fill-rule:nonzero;stroke:none;stroke-width:0.0116668"
       id="path232" />
    <path
       d="m 245.62333,99.792276 0.46434,-0.470171 1.69284,1.361515 -0.78517,1.48097 -1.37201,-2.372314"
       style="fill:#f2f2f2;fill-opacity:1;fill-rule:nonzero;stroke:none;stroke-width:0.0116668"
       id="path234" />
    <path
       d="m 249.09769,94.879405 c 0,0 0.79334,-1.303176 1.30201,-0.140001 0.24617,0.563504 -1.05001,1.750013 -1.54468,1.743013 l 0.24267,-1.603012"
       style="fill:#fdcba9;fill-opacity:1;fill-rule:nonzero;stroke:none;stroke-width:0.0116668"
       id="path236" />
    <path
       d="m 247.99752,102.20554 c 0,0 -0.2345,10.3175 1.24134,12.73835 l -0.0922,1.15501 -1.14334,-0.37101 c 0,0 -2.53985,-4.73436 -0.51684,-13.4968 l 0.51101,-0.0255"
       style="fill:#1a1a1a;fill-opacity:1;fill-rule:nonzero;stroke:none;stroke-width:0.0116668"
       id="path238" />
    <path
       d="m 253.39806,119.79493 c -0.098,0.005 -0.196,0.004 -0.29401,0.002 -0.098,-0.001 -0.196,-0.005 -0.294,-0.008 l -0.0432,-10e-4 -0.003,10e-4 c -0.0793,0.0163 -0.15867,0.0338 -0.238,0.049 -0.0793,0.014 -0.15984,0.0292 -0.24034,0.0385 -0.0828,0.0105 -0.14233,0.0875 -0.13183,0.17034 0.009,0.0817 0.0828,0.14117 0.1645,0.13416 0.0805,-0.007 0.161,-0.009 0.24267,-0.0117 0.0805,-0.002 0.16217,-0.001 0.24267,-0.001 l -0.0467,-10e-4 c 0.0957,0.0257 0.19017,0.0478 0.28467,0.0735 0.0945,0.0257 0.189,0.0537 0.2835,0.084 0.14233,0.0467 0.29517,-0.0303 0.343,-0.17384 0.0467,-0.14233 -0.0303,-0.29517 -0.17383,-0.343 -0.0303,-0.009 -0.0642,-0.014 -0.0957,-0.0128"
       style="fill:#ffae81;fill-opacity:1;fill-rule:nonzero;stroke:none;stroke-width:0.0116668"
       id="path240" />
    <path
       d="m 254.3979,120.14143 c 0.0327,0.021 -0.27534,0.67084 -0.29051,0.70117 -0.32783,0.66384 -0.945,1.05001 -1.65667,0.94501 -0.41067,-0.0595 -0.69184,-0.20417 -0.45967,-0.66617 0.25316,-0.50634 0.749,-0.94968 1.15267,-1.33351 0,0 1.22034,0.3395 1.25418,0.3535"
       style="fill:#fdcba9;fill-opacity:1;fill-rule:nonzero;stroke:none;stroke-width:0.0116668"
       id="path242" />
    <path
       d="m 253.27089,119.35042 c 0,0 1.38718,0.182 1.55518,0.10384 0.16683,-0.0793 -0.42817,0.68717 -0.42817,0.68717 l -1.28101,-0.3465 0.154,-0.44451"
       style="fill:#f2f2f2;fill-opacity:1;fill-rule:nonzero;stroke:none;stroke-width:0.0116668"
       id="path244" />
    <path
       d="m 235.31692,98.053929 c 0.41884,0.48767 0.67084,1.165509 0.67084,1.885348 0,1.675233 -1.35801,3.025073 -3.03219,3.025073 -1.67535,0 -3.03336,-1.34576 -3.03336,-3.020407 0,-0.721005 0.25201,-1.402344 0.67084,-1.890014 h -7.54722 v 7.484461 c -0.48767,-0.42071 -1.16434,-0.67294 -1.88652,-0.67294 -1.67417,0 -3.02285,1.35777 -3.02285,3.03265 0,1.675 1.34401,3.03243 3.01819,3.03243 0.72217,0 1.40351,-0.25201 1.89118,-0.67283 v 7.54571 h 19.74948 V 98.053929 h -7.47839"
       style="fill:#ffc58f;fill-opacity:1;fill-rule:nonzero;stroke:none;stroke-width:0.0116668"
       id="path246" />
    <path
       d="m 106.06329,102.74315 c 0,0 1.04534,-9.00942 -4.1627,-7.821744 -3.809198,0.868006 -1.93085,8.465284 -1.93085,8.465284 1.33001,0.77689 5.07154,0.48848 6.09355,-0.64354"
       style="fill:#1a1a1a;fill-opacity:1;fill-rule:nonzero;stroke:none;stroke-width:0.0116668"
       id="path248" />
    <path
       d="m 103.36827,152.82934 c 0,0.001 -1.11768,2.31002 -0.23334,1.90168 0.11783,-0.0537 0.17033,-2.27852 -0.0315,0.0758 -0.0583,0.693 -0.1085,1.38717 -0.1365,2.08251 -0.0315,0.76184 0.0653,1.29851 0.64984,1.82352 0.56233,0.50283 1.15734,0.8925 1.90751,1.05583 0.21234,0.0455 0.35117,0.0653 0.413,-0.1575 0.12484,-0.4515 0.0303,-1.08967 -0.0268,-1.54351 -0.0537,-0.4235 -0.0852,-0.8575 -0.26717,-1.25184 -0.126,-0.27534 -0.28583,-0.54484 -0.42933,-0.81317 -0.39084,-0.72684 -0.79101,-1.45252 -1.22151,-2.15602 -0.0677,-0.11083 -0.66034,-0.93917 -0.62418,-1.01734"
       style="fill:#1a1a1a;fill-opacity:1;fill-rule:nonzero;stroke:none;stroke-width:0.0116668"
       id="path250" />
    <path
       d="m 94.468865,153.53985 c 0,0 0.173835,2.33685 -0.290502,2.41501 -0.558837,0.0957 0.172668,-1.95884 -0.225168,0.37217 -0.115501,0.68251 -0.275336,1.35218 -0.507504,2.00552 -0.242669,0.68134 -0.620671,0.99634 -1.244843,1.31368 -0.46667,0.23916 -1.165509,0.60783 -1.706962,0.4165 -0.537604,-0.19017 0.06498,-1.70335 0.271952,-2.26569 0.518003,-1.40584 2.469851,-3.25619 3.703027,-4.25719"
       style="fill:#1a1a1a;fill-opacity:1;fill-rule:nonzero;stroke:none;stroke-width:0.0116668"
       id="path252" />
    <path
       d="m 105.45661,105.57338 c 0,0 -0.5705,0.77456 2.78253,5.30464 0.13416,0.18317 0.8855,1.68002 1.01967,1.87952 0.23917,0.35817 0.74667,0.24733 1.01967,0.36517 0.24151,-0.28 0.45734,-0.56117 0.63351,-0.83884 -0.0257,-0.28467 -0.098,-0.64634 -0.22984,-1.09551 -0.084,-0.28817 -0.19366,-0.61239 -0.33017,-0.97604 -0.4375,-1.15991 -1.106,-2.70727 -1.93551,-3.84268 -0.76301,-1.04522 -1.16084,-1.15816 -1.33934,-1.23656 -0.67901,-0.29528 -1.62052,0.4403 -1.62052,0.4403"
       style="fill:#ffffff;fill-opacity:1;fill-rule:nonzero;stroke:none;stroke-width:0.0116668"
       id="path254" />
    <path
       d="m 107.85647,130.35684 -1.25651,7.62655 c 0,0 -1.90868,3.33553 -3.25386,0.0152 l 0.29283,-7.64172 h 4.21754"
       style="fill:#fdcba9;fill-opacity:1;fill-rule:nonzero;stroke:none;stroke-width:0.0116668"
       id="path256" />
    <path
       d="m 106.66062,137.81773 c 0.35934,4.71103 -1.57034,12.02375 -1.79434,16.51079 -0.0268,0.52267 -0.89834,1.61468 -1.52601,-0.26834 0,0 0.31383,-12.60826 0,-15.97295 -0.20184,-2.16185 3.18969,-1.97868 3.32035,-0.2695"
       style="fill:#fdcba9;fill-opacity:1;fill-rule:nonzero;stroke:none;stroke-width:0.0116668"
       id="path258" />
    <path
       d="m 104.84411,154.25035 c 0.0992,0.175 0.50984,2.18285 0.57167,2.92719 0.12017,1.45834 -1.85151,0.168 -1.85151,0.0677 0,-0.10151 0,-2.89453 0,-2.89453 0,0 0.74084,-1.043 1.27984,-0.10033"
       style="fill:#fdcba9;fill-opacity:1;fill-rule:nonzero;stroke:none;stroke-width:0.0116668"
       id="path260" />
    <path
       d="m 97.044885,129.74083 -0.851673,7.42706 c 0,0 0.367502,3.8372 3.015856,1.42568 l 3.399692,-8.76174 -5.563875,-0.091"
       style="fill:#fdcba9;fill-opacity:1;fill-rule:nonzero;stroke:none;stroke-width:0.0116668"
       id="path262" />
    <path
       d="m 96.103378,137.38956 c -1.685846,4.4147 -1.919182,11.97475 -2.982023,16.33929 -0.123668,0.5075 0.145835,2.19218 1.28451,0.56467 0,0 3.54436,-12.56276 4.803203,-15.69995 0.809672,-2.01369 -2.493186,-2.80469 -3.10569,-1.20401"
       style="fill:#fdcba9;fill-opacity:1;fill-rule:nonzero;stroke:none;stroke-width:0.0116668"
       id="path264" />
    <path
       d="m 93.260189,153.78135 c -0.168001,0.161 -1.783846,3.07069 -1.783846,3.07069 0,0 1.656679,0.84817 1.699846,0.735 0.04433,-0.112 1.226176,-3.28186 1.226176,-3.28186 0,0 -0.236835,-1.38484 -1.142176,-0.52383"
       style="fill:#fdcba9;fill-opacity:1;fill-rule:nonzero;stroke:none;stroke-width:0.0116668"
       id="path266" />
    <path
       d="m 100.01174,119.51259 c -0.03267,0.0677 2.99369,0.92051 2.99369,0.92051 l 4.07753,0.13883 h 0.0163 c 0,0 -0.009,-0.0257 -0.0245,-0.077 -0.0397,-0.12017 -0.10383,-0.77001 -0.10383,-0.77001 0.11083,-1.77801 -0.51917,-4.72737 -0.343,-7.39088 0.25317,-3.82168 1.30434,-4.38705 1.18651,-4.86481 -0.40134,-1.64431 -1.12468,-1.41564 -0.66617,-2.32215 0,0 -1.41402,-0.66593 -3.10103,-1.41272 l -1.09201,0.41008 -1.092,-0.41008 c -1.68702,0.74679 -2.828026,1.21987 -2.828026,1.21987 0.430504,0.85097 -0.389669,1.63626 0.81784,6.0288 1.236676,4.49636 0.224006,8.39539 0.158666,8.52956"
       style="fill:#ffffff;fill-opacity:1;fill-rule:nonzero;stroke:none;stroke-width:0.0116668"
       id="path268" />
    <path
       d="m 103.17926,107.0798 c 0.62534,-1.20401 1.68118,-2.38935 1.75235,-2.92206 0.0152,-0.11001 -0.49817,-0.30928 -0.49817,-0.30928 -0.21817,-0.25399 -0.25084,-0.75974 -0.26134,-1.15886 -0.007,-0.26099 0.014,-0.52116 0.0455,-0.74002 0.0338,-0.24256 0.0793,-0.45279 0.11433,-0.58929 0.0268,-0.10617 0.0467,-0.16917 0.0467,-0.16917 -0.73734,0.55919 -2.70319,-0.92984 -2.50719,-0.27884 0.0268,0.0875 0.0408,0.19951 0.0467,0.32667 0.007,0.17675 -0.002,0.38454 -0.021,0.60236 -0.006,0.0568 -0.0117,0.11433 -0.0175,0.17267 0,0 0,0 0,4.6e-4 -0.0817,0.78459 -0.23917,1.71361 -0.23917,1.71361 -0.0315,0.0562 -0.2975,0.21105 -0.31034,0.27884 -0.1995,1.01652 1.83985,3.09215 1.84918,3.0729"
       style="fill:#fdcba9;fill-opacity:1;fill-rule:nonzero;stroke:none;stroke-width:0.0116668"
       id="path270" />
    <path
       d="m 107.23346,118.32375 0.0338,0.46784 0.0303,-0.0817 -0.27417,0.40483 c -0.0362,0.0537 -0.0222,0.126 0.0315,0.16217 0.049,0.0338 0.11433,0.0233 0.15283,-0.021 l 0.31967,-0.36867 c 0.014,-0.0152 0.021,-0.0327 0.0245,-0.0513 l 0.006,-0.0303 0.0817,-0.46084 c 0.0198,-0.112 -0.0548,-0.21817 -0.16567,-0.238 -0.112,-0.0198 -0.21816,0.0548 -0.238,0.16684 -0.003,0.0163 -0.003,0.0338 -0.002,0.0502"
       style="fill:#ffae81;fill-opacity:1;fill-rule:nonzero;stroke:none;stroke-width:0.0116668"
       id="path272" />
    <path
       d="m 104.1721,102.6896 c -0.007,-0.26099 0.014,-0.52116 0.0455,-0.74002 0.0338,-0.24256 0.0793,-0.45279 0.11433,-0.58929 0.0268,-0.10617 0.0467,-0.16917 0.0467,-0.16917 -0.73734,0.55919 -2.70319,-0.92984 -2.50719,-0.27884 0.0268,0.0875 0.0408,0.19951 0.0467,0.32667 0.007,0.17675 1.26117,1.69192 2.25401,1.45065"
       style="fill:#ffae81;fill-opacity:1;fill-rule:nonzero;stroke:none;stroke-width:0.0116668"
       id="path274" />
    <path
       d="m 100.70475,98.934769 c 0.36983,0.92984 1.015,1.898181 1.72551,2.615571 0.4025,0.40659 0.82717,0.73197 1.23434,0.92307 0.40834,0.19274 0.80034,0.24885 1.13751,0.1148 0.294,-0.11736 0.51917,-0.36995 0.68134,-0.71389 0.10383,-0.21875 0.18083,-0.47448 0.23567,-0.75553 0.22283,-1.16668 0.0338,-2.773192 -0.45501,-4.000535 -0.79217,-1.986848 -2.04401,-2.048682 -3.30286,-1.547011 -1.25884,0.50167 -2.048677,1.376677 -1.2565,3.363525"
       style="fill:#fdcba9;fill-opacity:1;fill-rule:nonzero;stroke:none;stroke-width:0.0116668"
       id="path276" />
    <path
       d="m 103.91077,95.07424 c 0.7175,0.084 1.95768,2.077849 1.58201,2.412685 -0.68484,0.612504 -3.72169,-0.723339 -4.23386,3.459195 0,0 -3.663365,-6.609219 2.65185,-5.87188"
       style="fill:#1a1a1a;fill-opacity:1;fill-rule:nonzero;stroke:none;stroke-width:0.0116668"
       id="path278" />
    <path
       d="m 101.20525,99.709442 c -0.091,-0.136501 -0.70584,-0.837674 -0.34534,0.221668 0.36167,1.05934 0.91118,0.77934 0.91118,0.77934 l -0.56584,-1.001008"
       style="fill:#fdcba9;fill-opacity:1;fill-rule:nonzero;stroke:none;stroke-width:0.0116668"
       id="path280" />
    <path
       d="m 103.17926,107.0798 c 0,0 1.15851,-2.00167 1.27168,-3.22469 0.008,-0.0877 1.82118,0.78435 1.82118,0.78435 l -1.01151,0.44089 0.36634,0.51217 -2.44769,1.48728"
       style="fill:#f2f2f2;fill-opacity:1;fill-rule:nonzero;stroke:none;stroke-width:0.0116668"
       id="path282" />
    <path
       d="m 103.17926,107.0798 c 0,0 -1.36034,-1.3943 -1.53884,-3.35175 -0.007,-0.081 -1.793181,0.79906 -1.793181,0.79906 l 1.071011,0.45839 -0.15517,0.54682 2.41618,1.54748"
       style="fill:#f2f2f2;fill-opacity:1;fill-rule:nonzero;stroke:none;stroke-width:0.0116668"
       id="path284" />
    <path
       d="m 99.715404,120.23826 -0.02683,0.0945 c 0,0 -3.263192,10.92242 -3.795196,13.33393 -0.43867,1.98685 11.201252,2.00552 11.540752,1.05468 1.19351,-3.34486 -0.32434,-14.19961 -0.32434,-14.19961 -0.035,-0.10966 -0.0292,-0.3675 -0.11433,-0.7245 l -6.98605,-0.266 -0.294003,0.707"
       style="fill:#4d4d4d;fill-opacity:1;fill-rule:nonzero;stroke:none;stroke-width:0.0116668"
       id="path286" />
    <path
       d="m 99.812239,120.00026 c 0,0 7.196051,0.26367 7.256721,0.21117 0.203,-0.17384 -0.0653,-1.06401 -0.0653,-1.06401 l -6.91022,-0.19134 -0.281171,1.04418"
       style="fill:#1a1a1a;fill-opacity:1;fill-rule:nonzero;stroke:none;stroke-width:0.0116668"
       id="path288" />
    <path
       d="m 110.64715,111.8697 c -0.21,-0.27534 -0.55067,-0.94384 -1.04184,-0.0467 -0.014,0.0233 -0.71517,1.17368 -0.728,1.19818 -0.57984,1.50268 -0.92634,1.69051 -1.83985,4.4287 l 0.84701,0.55067 c 0,0 1.46884,-2.12452 2.68802,-4.44037 0.70583,-1.55284 0.0747,-1.69051 0.0747,-1.69051"
       style="fill:#ffffff;fill-opacity:1;fill-rule:nonzero;stroke:none;stroke-width:0.0116668"
       id="path290" />
    <path
       d="m 106.11345,118.32492 c 0,-0.002 0,-0.004 0,-0.004 0.33951,-0.48067 0.75717,-0.686 0.75717,-0.686 l 0.78284,0.6545 c -0.4795,0.41534 -0.66617,0.63817 -0.96017,1.08034 -0.0805,0.196 -0.19367,0.44684 -0.33834,0.44684 -0.54717,-0.004 -0.45383,-1.29851 -0.2415,-1.49218"
       style="fill:#fdcba9;fill-opacity:1;fill-rule:nonzero;stroke:none;stroke-width:0.0116668"
       id="path292" />
    <path
       d="m 108.01513,118.06591 c 0,0 -0.94267,-0.7455 -0.931,-0.8645 0.0117,-0.11901 -0.28467,0.4095 -0.28467,0.4095 l 0.875,0.71517 0.34067,-0.26017"
       style="fill:#f2f2f2;fill-opacity:1;fill-rule:nonzero;stroke:none;stroke-width:0.0116668"
       id="path294" />
    <path
       d="m 109.36264,116.3719 c -0.721,0 -1.44434,0.252 -1.91101,0.67084 v -7.45623 H 87.734815 v 7.45156 c 0.46667,-0.4165 1.169592,-0.66617 1.886631,-0.66617 1.675229,0 3.020406,1.35801 3.020406,3.03336 0,1.67418 -1.339344,3.03218 -3.014223,3.03218 -0.716922,0 -1.426144,-0.24966 -1.892814,-0.66617 v 7.53206 h 19.716815 v -7.53672 c 0.46667,0.41883 1.19001,0.67083 1.91101,0.67083 1.67418,0 3.03219,-1.358 3.03219,-3.03218 0,-1.67535 -1.35801,-3.03336 -3.03219,-3.03336"
       style="fill:#88becf;fill-opacity:1;fill-rule:nonzero;stroke:none;stroke-width:0.0116668"
       id="path296" />
    <path
       d="m 100.87975,105.13507 c 0,0 -1.550515,2.42073 -1.869017,7.06247 -0.01983,0.28583 -0.03967,0.539 -0.126001,0.83067 -0.156335,0.525 -0.415337,0.97884 -0.688339,1.20634 -0.371002,-0.28117 -0.709338,-0.57284 -1.002174,-0.87151 -0.06417,-0.36867 -0.101501,-0.847 -0.09683,-1.45484 0.0012,-0.38967 0.292835,-3.12599 0.658005,-4.88755 0.344169,-1.65727 0.946174,-1.8101 1.125842,-1.96142 0.679005,-0.57529 1.998514,0.0758 1.998514,0.0758"
       style="fill:#ffffff;fill-opacity:1;fill-rule:nonzero;stroke:none;stroke-width:0.0116668"
       id="path298" />
    <path
       d="m 97.422887,110.84652 c -0.113167,0.40251 -0.198334,0.84118 -0.257835,1.30201 -0.458503,3.47553 0.43517,8.20406 0.43517,8.20406 l 1.130509,-0.29866 c 0.08983,-6.09355 0.401336,-9.98068 -0.09333,-10.01743 l -1.21451,0.81002"
       style="fill:#ffffff;fill-opacity:1;fill-rule:nonzero;stroke:none;stroke-width:0.0116668"
       id="path300" />
    <path
       d="m 98.481062,120.72943 0.320836,0.34184 -0.028,-0.0817 0.042,0.4865 c 0.0058,0.0642 0.063,0.11201 0.127167,0.10734 0.05833,-0.006 0.103834,-0.0548 0.106168,-0.11317 0.0023,-0.10033 0.0093,-0.1995 0.01283,-0.29983 0.0035,-0.0875 0.01633,-0.18667 -0.01983,-0.26834 -0.02683,-0.0607 -0.0665,-0.1155 -0.100334,-0.17267 -0.03617,-0.063 -0.07117,-0.12716 -0.106168,-0.19133 -0.0082,-0.0163 -0.0175,-0.0327 -0.02567,-0.0478 -0.05483,-0.0992 -0.180835,-0.13416 -0.280003,-0.0793 -0.098,0.0537 -0.134167,0.1785 -0.07933,0.27767 0.0082,0.0152 0.01867,0.0303 0.03033,0.0408"
       style="fill:#ffae81;fill-opacity:1;fill-rule:nonzero;stroke:none;stroke-width:0.0116668"
       id="path302" />
    <path
       d="m 98.947732,121.1996 c 0.0012,-0.001 0.0023,-0.002 0.0023,-0.002 -0.042,-0.57751 -0.296335,-0.95201 -0.296335,-0.95201 l -1.058175,0.0933 c 0.198335,0.58451 0.277669,0.97184 0.298669,1.49451 -0.03267,0.20767 -0.0665,0.47951 0.0595,0.54717 0.476003,0.25434 1.076841,-0.91234 0.994007,-1.18067"
       style="fill:#fdcba9;fill-opacity:1;fill-rule:nonzero;stroke:none;stroke-width:0.0116668"
       id="path304" />
    <path
       d="m 97.438054,120.00959 c 0,0 1.223843,-0.0852 1.286843,-0.18783 0.06183,-0.10267 0.0525,0.48534 0.0525,0.48534 l -1.219176,0.084 -0.120168,-0.38151"
       style="fill:#f2f2f2;fill-opacity:1;fill-rule:nonzero;stroke:none;stroke-width:0.0116668"
       id="path306" />
    <path
       d="m 60.959614,118.33191 c 0,0 0.635488,5.17888 0.361086,15.18545 l 0.0231,4.79737 -0.354902,17.8933 -2.1328,-0.34767 -1.991164,-16.12695 c -0.480204,-3.10453 -0.532121,-5.52421 -0.965658,-9.54107 -0.07222,-0.66851 -0.09357,-1.38718 -0.154701,-2.12219 0.04293,0.77351 -0.896707,3.8862 -1.182542,4.85337 -1.059108,3.5782 -1.276576,4.61304 -1.972031,6.31988 l -6.149779,17.5363 -2.118684,-0.224 c 0.578205,-2.43835 1.125608,-4.8872 1.644663,-7.33956 0.952008,-4.4987 1.719331,-9.03239 2.583135,-13.54743 0.579955,-3.03102 1.226643,-6.04921 1.802398,-9.08023 0.428869,-2.25869 1.117441,-4.71221 1.082441,-7.02572 l 9.525438,-1.23085"
       style="fill:#4d4d4d;fill-opacity:1;fill-rule:nonzero;stroke:none;stroke-width:0.0116668"
       id="path308" />
    <path
       d="m 46.439873,156.7797 c 0,0 0.283151,0.73151 0.100801,1.56685 -0.182586,0.83534 -0.616588,0.99517 -0.616588,0.99517 l -5.717761,0.1365 c 0,0 0.284554,-1.87484 3.65496,-2.32402 0.332269,-0.0432 0.450571,-0.60083 0.450571,-0.60083 l 2.128017,0.22633"
       style="fill:#1a1a1a;fill-opacity:1;fill-rule:nonzero;stroke:none;stroke-width:0.0116668"
       id="path310" />
    <path
       d="m 58.855865,155.86036 c 0,0 -0.417553,0.63001 -0.46317,1.48401 -0.04515,0.85284 0.330519,1.12118 0.330519,1.12118 l 5.476841,1.64968 c 0,0 0.222952,-1.88302 -2.907705,-3.21069 -0.308236,-0.1295 -0.303686,-0.69651 -0.303686,-0.69651 l -2.132799,-0.34767"
       style="fill:#1a1a1a;fill-opacity:1;fill-rule:nonzero;stroke:none;stroke-width:0.0116668"
       id="path312" />
    <path
       d="m 60.595845,106.37944 c 0,0 0.612621,-1.55973 -0.476587,-3.81806 -0.38197,-0.79136 -1.725397,-0.97791 -3.335059,-1.11243 0,0 -2.221933,-0.13183 -4.342015,0.19834 0,0 -2.069683,0.62394 -3.741877,1.51259 0,0 -0.05367,0.0114 -0.128101,0.0589 -0.183638,0.0817 -0.182702,0.0677 -0.284204,0.18749 -0.625338,0.74037 -0.726956,1.99186 -1.030056,2.88974 -0.490821,1.45414 -0.801974,2.61848 -0.897057,4.15907 -0.05122,0.82776 -0.40857,1.8836 -0.880026,2.61161 -0.3199,0.49233 -0.79917,0.92984 -1.208441,1.34984 -1.170992,1.20051 -2.560035,2.21902 -3.884444,3.24103 l 1.043473,0.9975 c 2.039697,-0.798 4.095848,-1.92501 5.69816,-3.42652 0.922608,-0.86451 1.68363,-2.01368 2.2175,-3.15586 0.264834,-0.567 0.55452,-1.47036 0.854822,-2.44757 0.02392,0.10664 0.0476,0.21689 0.07105,0.33192 0.582404,2.85882 0.807339,4.67417 1.452861,8.91153 0,0 4.648968,1.72902 8.954584,-1.68584 0,0 -0.103368,-3.34369 -0.241385,-4.49753 -0.429104,-3.59465 0.156801,-6.30577 0.156801,-6.30577"
       style="fill:#ffffff;fill-opacity:1;fill-rule:nonzero;stroke:none;stroke-width:0.0116668"
       id="path314" />
    <path
       d="m 54.807268,102.28313 0.382903,1.02446 -0.47997,1.07007 -0.663139,-1.03962 0.251302,-1.0142 c 0,0 0.186435,0.0752 0.508904,-0.0407"
       style="fill:#1a1a1a;fill-opacity:1;fill-rule:nonzero;stroke:none;stroke-width:0.0116668"
       id="path316" />
    <path
       d="m 52.614618,101.89987 c 0,0 0.80944,0.56876 1.956048,0.43961 0.575054,-0.0643 1.449011,0.0672 2.098149,-0.95096 0,0 -0.209185,-1.575244 -0.923773,-2.859754 -0.128685,-0.232168 -0.223769,-0.486504 -0.359336,-0.722172 0,0 -2.707037,0.06533 -2.956939,0.89834 0,0 0.347669,1.067508 0.339852,2.095346 -0.0033,0.46901 -0.320602,0.65847 -0.154001,1.09959"
       style="fill:#fdcba9;fill-opacity:1;fill-rule:nonzero;stroke:none;stroke-width:0.0116668"
       id="path318" />
    <path
       d="m 57.098618,101.37767 -0.539703,-0.66139 -1.991166,1.58586 0.761606,1.43117 1.769263,-2.35564"
       style="fill:#f2f2f2;fill-opacity:1;fill-rule:nonzero;stroke:none;stroke-width:0.0116668"
       id="path320" />
    <path
       d="m 52.084131,101.70854 0.569921,-0.41125 1.913697,1.00485 -0.58707,1.52345 -1.896548,-2.11705"
       style="fill:#f2f2f2;fill-opacity:1;fill-rule:nonzero;stroke:none;stroke-width:0.0116668"
       id="path322" />
    <path
       d="m 54.906552,103.706 c 0,0 -0.295169,7.17786 1.210892,13.07424 l -0.457336,0.90067 -0.827406,-0.497 c 0,0 -1.554246,-9.46641 -0.417087,-13.39355 l 0.490937,-0.0844"
       style="fill:#1a1a1a;fill-opacity:1;fill-rule:nonzero;stroke:none;stroke-width:0.0116668"
       id="path324" />
    <path
       d="m 52.768619,100.80028 c 2.192184,0.24734 3.106857,-0.877337 2.976423,-2.271514 -0.104768,-0.243835 -0.223769,-0.486504 -0.359336,-0.722172 0,0 -2.707037,0.06533 -2.956939,0.89834 0,0 0.347669,1.067508 0.339852,2.095346"
       style="fill:#ffae81;fill-opacity:1;fill-rule:nonzero;stroke:none;stroke-width:0.0116668"
       id="path326" />
    <path
       d="m 51.804012,94.471069 c 0,0 -0.987007,-0.06533 -0.509604,2.156016 0.06242,0.291669 -0.348836,1.341677 -0.242668,1.540012 0.107101,0.198335 0.504587,-0.0105 0.504587,-0.0105 0,0 -0.154001,1.893513 0.230535,2.361353 0,0 3.879079,0.441 3.792745,-2.454688 0,0 2.714504,-6.708383 -3.775595,-3.592193"
       style="fill:#fdcba9;fill-opacity:1;fill-rule:nonzero;stroke:none;stroke-width:0.0116668"
       id="path328" />
    <path
       d="m 52.215032,94.481569 c -0.246869,0.164501 -0.986541,0.659172 -0.986541,0.659172 0,0 -1.70218,-1.450178 0.83779,-2.518853 1.000657,-0.42117 1.85338,-0.518003 1.85338,-0.518003 0,0 0.908257,-0.353503 1.388694,0 0.479737,0.353502 0.625222,0.301002 0.973824,0.514503 0.348253,0.213502 0.792756,1.055842 0.958074,1.615846 0.164851,0.558837 -0.04083,1.42451 0,1.933181 0.04025,0.509837 -0.940807,1.621679 -1.097842,1.947181 -0.385003,0.802673 -0.397369,0.41417 -0.582054,0.042 -0.291902,-0.588005 0.43412,-3.078857 -0.351869,-1.592512 0,0 -0.470754,0.478337 -0.365286,-0.513338 0.03372,-0.318502 -0.175352,-0.673171 -0.271486,-1.380177 -0.06335,-0.46317 0.06743,-0.570504 0.290269,-0.799172 0,0 -1.866097,0.08983 -2.646953,0.610171"
       style="fill:#1a1a1a;fill-opacity:1;fill-rule:nonzero;stroke:none;stroke-width:0.0116668"
       id="path330" />
    <path
       d="m 60.604478,117.18391 0.351519,1.14334 c 0,0 -5.271389,2.38818 -9.521821,1.23434 0,0 0.196585,-0.87384 0.183635,-1.03134 0,0 5.135005,1.23551 8.986667,-1.34634"
       style="fill:#1a1a1a;fill-opacity:1;fill-rule:nonzero;stroke:none;stroke-width:0.0116668"
       id="path332" />
    <path
       d="m 55.164037,96.536084 c 0,0 0.615888,-1.35101 1.243093,-0.287002 0.303569,0.515671 -0.811073,1.815347 -1.29081,1.865514 l 0.04772,-1.578512"
       style="fill:#fdcba9;fill-opacity:1;fill-rule:nonzero;stroke:none;stroke-width:0.0116668"
       id="path334" />
    <path
       d="m 38.635162,118.25608 c 0.03162,0.014 0.06382,0.0303 0.09637,0.0478 0.292133,-0.16917 0.794973,-0.33951 1.596829,-0.50518 l 0.730339,1.00335 c 0,0 -1.089211,0.9975 -1.953485,1.0815 -0.239868,0.0233 -0.448933,-0.189 -0.612503,-0.364 -0.128333,-0.1365 -0.372986,-0.43867 -0.384068,-0.63467 -0.01412,-0.25084 0.204399,-0.76067 0.526518,-0.62884"
       style="fill:#fdcba9;fill-opacity:1;fill-rule:nonzero;stroke:none;stroke-width:0.0116668"
       id="path336" />
    <path
       d="m 39.655188,118.35525 -0.356771,-0.48184 0.09637,0.0525 -0.603521,-0.16333 c -0.07957,-0.021 -0.126468,-0.10384 -0.10465,-0.18317 0.01971,-0.0735 0.09181,-0.119 0.16555,-0.10734 l 0.618572,0.0898 c 0.0252,0.004 0.04818,0.014 0.06627,0.0303 l 0.03,0.0233 0.464569,0.37917 c 0.112584,0.0922 0.129153,0.25667 0.03768,0.36984 -0.0917,0.112 -0.256903,0.12833 -0.368786,0.0373 -0.0174,-0.014 -0.03291,-0.0303 -0.04527,-0.0467"
       style="fill:#ffae81;fill-opacity:1;fill-rule:nonzero;stroke:none;stroke-width:0.0116668"
       id="path338" />
    <path
       d="m 40.673461,117.39274 c 0,0 0.921675,1.11184 1.095391,1.15967 0.173253,0.0478 -0.691252,0.25551 -0.691252,0.25551 l -0.949326,-1.00918 0.545187,-0.406"
       style="fill:#f2f2f2;fill-opacity:1;fill-rule:nonzero;stroke:none;stroke-width:0.0116668"
       id="path340" />
    <path
       d="m 51.548394,98.279097 c 0,0 0.870223,0.239169 0.898223,0.518005 0.02777,0.278835 -0.0089,0.525003 -0.0089,0.525003 0,0 1.583761,0.169168 1.82538,-0.128334 0.241852,-0.297502 0.576338,-2.718354 0.576338,-2.718354 0,0 0.593487,-0.51567 0.351985,1.131675 -0.07467,0.508671 0.36937,0.550671 0.36937,0.550671 0,0 0.272769,3.366907 -3.773378,2.361347 -0.291436,-0.0723 -0.437037,-0.723335 -0.254686,-1.173671 0.06253,-0.154001 0.659172,0.268335 0.662789,0.102667 0.0105,-0.493504 -0.666405,-0.712839 -0.666405,-0.712839 l 0.01925,-0.45617"
       style="fill:#1a1a1a;fill-opacity:1;fill-rule:nonzero;stroke:none;stroke-width:0.0116668"
       id="path342" />
    <path
       d="m 70.013015,104.70083 -18.253103,7.53987 2.858005,6.91839 c 0.380802,-0.61134 0.850506,-1.07684 1.516094,-1.35218 1.547945,-0.63934 3.328758,0.0945 3.968213,1.64268 0.639572,1.54818 -0.108267,3.32502 -1.656212,3.96553 -0.665588,0.27417 -1.32371,0.27417 -2.024648,0.11083 l 2.878421,6.96739 6.976486,-2.88169 c -0.202652,0.61134 -0.175818,1.33701 0.09952,2.00435 0.639455,1.54818 2.410118,2.27735 3.95818,1.63801 1.547945,-0.63934 2.288667,-2.40218 1.649212,-3.95036 -0.275452,-0.66734 -0.769889,-1.20401 -1.34506,-1.49335 l 6.914769,-2.85602 -7.539874,-18.25345"
       style="fill:#3c738c;fill-opacity:1;fill-rule:nonzero;stroke:none;stroke-width:0.0116668"
       id="path344" />
    <path
       d="m 56.295246,102.52696 c -0.646805,0.81493 0.05273,2.41712 0.544837,3.09368 0.78284,1.0759 1.78373,1.95149 2.829888,2.76327 0.736172,0.57143 1.493811,1.11417 2.249117,1.65924 1.38216,0.99704 2.61487,1.62821 3.062289,3.39923 0.369487,1.46301 0.722756,2.93068 1.106359,4.3902 0.01587,0.0607 0.269502,1.10017 0.351519,1.08967 0.0011,0 1.245776,-0.15283 1.245776,-0.15283 0.505754,-2.80002 0.06813,-6.55088 -1.279493,-9.08409 -1.200975,-2.2567 -2.668303,-3.63559 -4.123264,-5.72324 -0.344753,-0.49455 -0.775839,-0.90487 -1.244143,-1.28008 -0.596987,-0.47868 -1.225942,-0.8827 -2.010998,-0.92634 -0.624871,-0.0353 -1.353343,0.0315 -1.942398,0.24897 -0.278019,0.10302 -0.600838,0.28537 -0.789489,0.52232"
       style="fill:#ffffff;fill-opacity:1;fill-rule:nonzero;stroke:none;stroke-width:0.0116668"
       id="path346" />
    <path
       d="m 67.717231,118.77525 c 0.04282,-0.007 0.05425,0.59267 0.05577,0.62301 0.01948,0.33016 -0.129151,1.00217 -0.38512,1.24367 -0.145485,0.13884 -0.299252,0.27884 -0.47087,0.38034 -0.140935,0.0828 -0.35572,0.12133 -0.529904,0.0525 -0.183868,-0.0723 -0.307536,-0.31967 -0.255619,-0.48534 0.161235,-0.51684 0.161935,-1.16084 0.307302,-1.66718 0,0 1.277277,-0.147 1.278443,-0.147"
       style="fill:#fdcba9;fill-opacity:1;fill-rule:nonzero;stroke:none;stroke-width:0.0116668"
       id="path348" />
    <path
       d="m 66.568056,119.52076 -0.576571,0.16333 0.08412,-0.0712 -0.365986,0.50751 c -0.0483,0.0665 -0.141634,0.0817 -0.208018,0.0327 -0.06207,-0.0443 -0.07922,-0.12716 -0.04328,-0.1925 l 0.303335,-0.54717 c 0.01237,-0.0222 0.03045,-0.0397 0.05075,-0.0525 l 0.03348,-0.0186 0.518237,-0.301 c 0.125418,-0.0735 0.286069,-0.0303 0.358753,0.0945 0.07292,0.126 0.03033,0.28583 -0.09508,0.35933 -0.01855,0.0105 -0.03955,0.0199 -0.05973,0.0257"
       style="fill:#ffae81;fill-opacity:1;fill-rule:nonzero;stroke:none;stroke-width:0.0116668"
       id="path350" />
    <path
       d="m 66.347671,118.45908 c 0,0 1.429061,-0.27183 1.569412,-0.38617 0.139768,-0.11317 -0.192735,0.71167 -0.192735,0.71167 l -1.310643,0.14234 -0.06603,-0.46784"
       style="fill:#f2f2f2;fill-opacity:1;fill-rule:nonzero;stroke:none;stroke-width:0.0116668"
       id="path352" />
    <path
       d="m 28.267735,156.97804 c 0,0 -0.299251,0.75367 -0.111767,1.61118 0.187602,0.8575 0.632806,1.02084 0.632806,1.02084 l 5.871644,0.14117 c 0,0 -0.292137,-1.92618 -3.753545,-2.38586 -0.340318,-0.0467 -0.462354,-0.61833 -0.462354,-0.61833 l -2.176784,0.231"
       style="fill:#1a1a1a;fill-opacity:1;fill-rule:nonzero;stroke:none;stroke-width:0.0116668"
       id="path354" />
    <path
       d="m 19.818323,118.60492 c 0.264252,0.008 1.154308,3.04502 1.222209,3.23635 1.317643,3.70303 2.456553,7.46906 3.529542,11.25026 1.265376,4.4567 2.417118,8.77923 3.191908,13.34909 0.145602,0.85984 1.943913,8.84574 2.682186,10.30642 l -2.176433,0.231 c -3.258408,-8.8609 -4.805769,-13.06444 -5.589075,-15.12712 -0.03932,-0.0805 -0.0791,-0.161 -0.119585,-0.24733 -0.101733,-0.21583 -1.584228,-4.75187 -6.20683,-13.12277 -0.742704,-1.34517 -2.140266,-5.57787 -4.019896,-10.11857 0,0 7.485389,0.24267 7.485974,0.24267"
       style="fill:#4d4d4d;fill-opacity:1;fill-rule:nonzero;stroke:none;stroke-width:0.0116668"
       id="path356" />
    <path
       d="m 12.434201,155.74486 c 0,0 0.488838,0.64751 0.535504,1.52484 0.0469,0.87618 -0.33927,1.15151 -0.33927,1.15151 l -5.6234913,1.69402 c 0,0 -0.2291365,-1.93435 2.9856371,-3.29703 0.3162852,-0.133 0.2823382,-0.7175 0.2823382,-0.7175 l 2.159282,-0.35584"
       style="fill:#1a1a1a;fill-opacity:1;fill-rule:nonzero;stroke:none;stroke-width:0.0116668"
       id="path358" />
    <path
       d="m 9.6556457,135.31521 c -0.1860845,-3.40203 -0.3000674,-6.80639 -0.3000674,-10.20025 0,-1.81651 0.024373,-3.64819 0.2210837,-5.45653 0.061135,-0.56118 0.1218009,-1.30201 0.3917703,-1.89935 0.1142177,-0.25201 0.1590157,-0.35934 0.3687857,-0.55301 l 7.214603,-2.92019 c -0.607252,4.87671 -1.603476,9.28674 -1.673944,10.82209 -0.268336,5.81704 -0.977093,11.27358 -1.340978,13.33626 -0.04223,1.17485 -0.285602,5.29904 -2.097565,17.31463 L 10.2748,156.1007 c 0.236835,-3.46736 0.446371,-6.79005 0.17442,-9.91791 -0.313137,-3.60736 -0.5946548,-7.23689 -0.7935743,-10.86758"
       style="fill:#4d4d4d;fill-opacity:1;fill-rule:nonzero;stroke:none;stroke-width:0.0116668"
       id="path360" />
    <path
       d="m 26.577222,113.26621 c -0.05553,-0.203 -0.117015,-0.40484 -0.187252,-0.60434 -0.86684,-2.46087 -1.202141,-5.08437 -1.889779,-7.59809 -0.335887,-1.22816 -0.525004,-2.94889 -1.673828,-3.72473 -1.049426,-0.7091 -2.520486,-0.5271 -3.621244,-1.23061 -2.177135,-0.339498 -4.499286,-0.347665 -4.499286,-0.347665 -0.815739,0.694175 -3.349406,0.892505 -3.349406,0.892505 l -0.524187,4.31402 c 0,0 1.667412,0.0398 0.942672,6.63523 -0.130436,1.18651 -1.029824,4.45787 -1.029824,4.45787 4.42135,3.50702 9.132618,2.47568 9.132618,2.47568 -0.0086,-2.31818 1.00894,-7.10972 1.388811,-9.4587 0.0917,-0.56642 0.243486,-1.06553 0.422103,-1.49988 0.299251,0.88924 0.532472,1.79878 0.826474,2.6893 0.577154,1.74873 1.442592,3.52792 2.296366,5.16009 0.256086,0.49001 2.619186,4.73554 3.107672,4.55704 0,0 1.391845,-0.50984 1.391729,-0.50984 -0.758106,-0.88317 -1.450995,-1.85152 -1.884766,-2.93885 -0.419653,-1.05118 -0.551368,-2.18286 -0.848873,-3.26903"
       style="fill:#ffffff;fill-opacity:1;fill-rule:nonzero;stroke:none;stroke-width:0.0116668"
       id="path362" />
    <path
       d="m 28.155267,120.11926 c 0,0 0.255385,0.71051 0.93626,1.29851 0,0 3.566991,0.45617 0.163215,-1.94368 l -1.099475,0.64517"
       style="fill:#fdcba9;fill-opacity:1;fill-rule:nonzero;stroke:none;stroke-width:0.0116668"
       id="path364" />
    <path
       d="m 29.131427,121.3221 c -0.191687,0.22634 0.09485,0.49468 0.283849,0.57751 0.405188,0.17617 0.882357,-0.0292 1.222209,-0.2625 0.197286,-0.13534 0.29902,-0.29167 0.313955,-0.53201 0.01319,-0.21233 -0.02123,-0.49934 -0.290504,-0.50517 -0.479154,-0.0105 -1.264441,0.40834 -1.529509,0.72217"
       style="fill:#fdcba9;fill-opacity:1;fill-rule:nonzero;stroke:none;stroke-width:0.0116668"
       id="path366" />
    <path
       d="m 18.903067,100.33711 c 0,0 -0.831491,0.58334 -2.008667,0.45151 -0.59022,-0.0665 -1.303643,0.13766 -1.970165,-0.90651 0,0 0.120286,-1.513179 0.764406,-3.00769 0.107686,-0.249668 0.230069,-0.49817 0.369136,-0.740839 0,0 2.779604,0.06767 3.036391,0.922841 0,0 -0.357353,1.096674 -0.349072,2.151349 0.0035,0.481837 -0.06533,0.772339 0.157971,1.129339"
       style="fill:#fdcba9;fill-opacity:1;fill-rule:nonzero;stroke:none;stroke-width:0.0116668"
       id="path368" />
    <path
       d="m 18.745096,99.207771 c -2.238964,-0.245002 -2.819736,-1.227342 -3.056455,-2.333351 0.107686,-0.249668 0.230069,-0.49817 0.369136,-0.740839 0,0 2.779604,0.06767 3.036391,0.922841 0,0 -0.357353,1.096674 -0.349072,2.151349"
       style="fill:#ffae81;fill-opacity:1;fill-rule:nonzero;stroke:none;stroke-width:0.0116668"
       id="path370" />
    <path
       d="m 19.735255,92.708222 c 0,0 0.490703,0.456171 0.523721,2.213184 0.0056,0.306835 0.481135,1.094341 0.371468,1.297343 -0.108966,0.204168 -0.640621,0.274169 -0.640621,0.274169 0,0 -0.137549,1.642679 -0.532236,2.123349 0,0 -2.797807,-0.128335 -3.598961,-2.219017 0,0 -2.787422,-6.888052 3.876629,-3.689028"
       style="fill:#fdcba9;fill-opacity:1;fill-rule:nonzero;stroke:none;stroke-width:0.0116668"
       id="path372" />
    <path
       d="m 19.864057,92.883224 0.586136,-0.86334 c 0,0 -0.470403,-0.957841 -1.524496,-1.320677 -1.054207,-0.361669 -1.652477,-0.03733 -1.652477,-0.03733 0,0 -0.941624,-0.162168 -1.434777,0.200668 -0.492803,0.362836 -0.412185,0.362836 -0.769889,0.583337 -0.358286,0.218169 -0.796607,0.679006 -0.966007,1.25301 -0.169635,0.575171 0.116549,1.649679 0.07502,2.17235 -0.04142,0.52267 0.683669,1.282176 0.894954,1.586678 0.619389,0.89484 0.616122,0.416503 0.805708,0.035 0.300183,-0.603172 -0.445669,-3.161691 0.361319,-1.63568 0,0 0.308352,0.170335 0.200434,-0.848172 -0.03453,-0.32667 0.354903,-0.369837 0.453719,-1.095509 0.06463,-0.476003 -0.06918,-0.586838 -0.298434,-0.821339 0,0 2.510918,1.004507 3.268792,0.791006"
       style="fill:#1a1a1a;fill-opacity:1;fill-rule:nonzero;stroke:none;stroke-width:0.0116668"
       id="path374" />
    <path
       d="m 16.65185,100.73028 -0.39352,1.05211 0.493385,1.09889 0.680289,-1.06762 -0.257835,-1.04138 c 0,0 -0.191333,0.077 -0.522319,-0.042"
       style="fill:#1a1a1a;fill-opacity:1;fill-rule:nonzero;stroke:none;stroke-width:0.0116668"
       id="path376" />
    <path
       d="m 10.698537,116.03123 -0.360852,1.17484 c 0,0 5.116805,2.58302 9.48087,1.39885 0,0 0.04235,-0.68251 0.05519,-0.84351 0,0 -5.219941,0.92167 -9.175203,-1.73018"
       style="fill:#1a1a1a;fill-opacity:1;fill-rule:nonzero;stroke:none;stroke-width:0.0116668"
       id="path378" />
    <path
       d="m 14.558134,99.831942 0.466204,-0.641671 1.873214,1.559849 -0.781907,1.46942 -1.557511,-2.387598"
       style="fill:#f2f2f2;fill-opacity:1;fill-rule:nonzero;stroke:none;stroke-width:0.0116668"
       id="path380" />
    <path
       d="m 19.146434,100.12244 -0.404953,-0.521499 -1.843929,1.149179 0.603171,1.56381 1.645711,-2.19149"
       style="fill:#f2f2f2;fill-opacity:1;fill-rule:nonzero;stroke:none;stroke-width:0.0116668"
       id="path382" />
    <path
       d="m 16.284813,94.829238 c 0,0 -0.632104,-1.388344 -1.276111,-0.294002 -0.311967,0.528504 0.83324,1.863181 1.325811,1.915681 l -0.0497,-1.621679"
       style="fill:#fdcba9;fill-opacity:1;fill-rule:nonzero;stroke:none;stroke-width:0.0116668"
       id="path384" />
    <path
       d="m 16.501231,102.23494 c 0,0 -1.001942,10.2706 -2.757205,12.49895 l -0.04538,1.15617 1.17881,-0.231 c 0,0 3.08784,-4.39603 2.127548,-13.33778 l -0.503769,-0.0863"
       style="fill:#1a1a1a;fill-opacity:1;fill-rule:nonzero;stroke:none;stroke-width:0.0116668"
       id="path386" />
    <path
       d="m 29.09911,119.13692 0.312552,0.35817 -1.391028,0.92401 -0.435986,-0.58568 1.514462,-0.6965"
       style="fill:#f2f2f2;fill-opacity:1;fill-rule:nonzero;stroke:none;stroke-width:0.0116668"
       id="path388" />
    <path
       d="m 28.817241,119.84043 0.531185,-0.15284 0.04842,-0.014 c 0.0026,0 0.0056,-0.001 0.0086,-0.001 l 0.678772,-0.035 c 0.08423,-0.005 0.156218,0.0595 0.160534,0.1435 0.0046,0.0793 -0.05145,0.147 -0.127285,0.15983 l -0.670837,0.11201 0.05717,-0.0163 -0.46877,0.29283 c -0.126352,0.0793 -0.292719,0.0397 -0.372054,-0.0863 -0.07886,-0.126 -0.04013,-0.29284 0.0861,-0.37217 0.0216,-0.0128 0.04527,-0.0233 0.06814,-0.0303"
       style="fill:#ffae81;fill-opacity:1;fill-rule:nonzero;stroke:none;stroke-width:0.0116668"
       id="path390" />
    <path
       d="m 12.901222,120.94643 c -0.381737,-0.61133 -0.920042,-0.9975 -1.585631,-1.27167 L 17.65204,115.71389 7.1834608,98.967436 -9.5627629,109.43601 l 3.999829,6.39805 c 0.1913329,-0.61367 0.6623218,-1.20517 1.2730759,-1.58668 1.4201927,-0.88784 3.29947533,-0.46083 4.1873157,0.95901 0.88772132,1.41984 0.44392019,3.29936 -0.9762758,4.1872 -0.6106383,0.3815 -1.3443607,0.54367 -1.9800801,0.44567 l 3.96471073,6.34321 6.40411557,-4.00403 c -0.045383,0.71868 0.066384,1.37201 0.4481202,1.98218 0.8878404,1.42101 2.7590697,1.85268 4.1791467,0.96484 1.420196,-0.88784 1.851867,-2.75918 0.964027,-4.17903"
       style="fill:#bccacf;fill-opacity:1;fill-rule:nonzero;stroke:none;stroke-width:0.0116668"
       id="path392" />
    <path
       d="m 1.4118006,116.34156 0.4069367,0.66151 0.018321,0.0303 c 0.00794,0.0117 0.013195,0.0257 0.01518,0.0397 l 0.077581,0.48417 c 0.013658,0.084 -0.043284,0.16217 -0.1270493,0.175 -0.075601,0.0128 -0.1472359,-0.0327 -0.1697507,-0.10383 l -0.1516675,-0.4655 0.033716,0.0712 -0.52885338,-0.56933 c -0.10091651,-0.1085 -0.0948513,-0.27884 0.0137576,-0.37917 0.10885028,-0.10151 0.27895158,-0.0945 0.37963328,0.0128 0.012137,0.014 0.022984,0.0292 0.032211,0.0432"
       style="fill:#ffae81;fill-opacity:1;fill-rule:nonzero;stroke:none;stroke-width:0.0116668"
       id="path394" />
    <path
       d="m 11.590227,100.64745 c -1.30621,-0.1575 -3.0394211,1.8122 -3.9167614,2.55257 -1.7391636,1.46756 -3.5085443,2.95145 -4.8859199,4.77882 -1.3715451,1.81978 -1.89771644,4.01219 -2.2718665,6.22188 -0.0861007,0.50867 -0.14781796,1.0045 -0.16695291,1.51901 l 1.21509231,0.42817 c 0.2964528,-1.59602 0.9828074,-3.06019 1.8835984,-4.4007 0.3615533,-0.53784 0.7556551,-1.05234 1.1426401,-1.57186 1.5029135,-2.01894 3.3232766,-3.37928 5.6216269,-4.39149 1.071242,-0.47156 2.230216,-0.9534 3.425476,-0.91117 0.05367,0.002 0.451153,-0.0294 0.482769,0.047 -0.0017,-0.004 -1.723528,-4.17542 -2.529702,-4.27225"
       style="fill:#ffffff;fill-opacity:1;fill-rule:nonzero;stroke:none;stroke-width:0.0116668"
       id="path396" />
    <path
       d="m 0.3159429,115.69639 c -0.0754848,-0.0537 -0.31465182,1.11185 -0.33145194,1.22735 -0.05413411,0.37217 -0.03032622,0.7595 0.22668595,1.05584 0.2526997,0.2905 0.72392009,0.53667 1.08197439,0.25433 0.197633,-0.15516 0.21315,-0.72917 0.2348513,-0.95434 0.035932,-0.37567 0.00374,-0.75483 -0.020173,-1.13167 0,0 -1.19105953,-0.45151 -1.19187638,-0.45151"
       style="fill:#fdcba9;fill-opacity:1;fill-rule:nonzero;stroke:none;stroke-width:0.0116668"
       id="path398" />
    <path
       d="m 1.6293854,115.55639 c 0,0 -1.28415803,-0.448 -1.39744314,-0.595 -0.11340085,-0.14584 0.0265892,0.756 0.0265892,0.756 l 1.27762644,0.44801 0.093217,-0.60901"
       style="fill:#f2f2f2;fill-opacity:1;fill-rule:nonzero;stroke:none;stroke-width:0.0116668"
       id="path400" />
  </g>
</svg>
