<?xml version="1.0" encoding="UTF-8" standalone="no"?>
<!-- Created with Inkscape (http://www.inkscape.org/) -->

<svg
   width="658.92078mm"
   height="401.59869mm"
   viewBox="0 0 658.92078 401.59869"
   version="1.1"
   id="svg8504"
   inkscape:version="1.1.1 (c3084ef, 2021-09-22)"
   sodipodi:docname="facebook-groups-notifications.svg"
   xmlns:inkscape="http://www.inkscape.org/namespaces/inkscape"
   xmlns:sodipodi="http://sodipodi.sourceforge.net/DTD/sodipodi-0.dtd"
   xmlns="http://www.w3.org/2000/svg"
   xmlns:svg="http://www.w3.org/2000/svg">
  <sodipodi:namedview
     id="namedview8506"
     pagecolor="#ffffff"
     bordercolor="#666666"
     borderopacity="1.0"
     inkscape:pageshadow="2"
     inkscape:pageopacity="0.0"
     inkscape:pagecheckerboard="0"
     inkscape:document-units="mm"
     showgrid="false"
     inkscape:zoom="0.30446291"
     inkscape:cx="1179.1256"
     inkscape:cy="553.43358"
     inkscape:window-width="1365"
     inkscape:window-height="787"
     inkscape:window-x="0"
     inkscape:window-y="25"
     inkscape:window-maximized="0"
     inkscape:current-layer="layer1" />
  <defs
     id="defs8501" />
  <g
     inkscape:label="Warstwa 1"
     inkscape:groupmode="layer"
     id="layer1"
     transform="translate(227.64523,70.832518)">
    <path
       d="m 431.27556,329.12575 h -0.22578 v -0.11994 h 0.11289 V -70.723157 h -0.11289 v -0.109361 h 0.22578 V 329.12575"
       style="fill:#87c9ff;fill-opacity:1;fill-rule:nonzero;stroke:none;stroke-width:0.0352778"
       id="path204" />
    <path
       d="m 431.04978,329.00581 h 0.11286 V -70.723157 h -0.11286 z"
       style="fill:#86c8ff;fill-opacity:1;fill-rule:nonzero;stroke:none;stroke-width:0.0352778"
       id="path206" />
    <path
       d="m 381.05059,329.64081 h -608.69582 c 10.3632,-23.94303 39.04333,-42.92247 70.11247,-49.24778 20.68477,-4.21216 71.698907,-3.16441 112.328323,-14.23458 56.771468,-15.46931 38.239346,-44.28419 117.108818,-45.86817 154.347329,-3.09386 111.160269,-64.25494 172.815239,-75.46622 8.86531,-1.61219 16.42886,-2.30716 23.01875,-2.30716 20.98322,0 32.10983,7.05908 43.89261,14.11816 11.78983,7.05909 24.23583,14.11817 47.879,14.11817 6.31472,0 13.43025,-0.50447 21.54061,-1.64747 v 160.53505"
       style="fill:#e9f6ff;fill-opacity:1;fill-rule:nonzero;stroke:none;stroke-width:0.0352778"
       id="path884" />
    <path
       d="m 80.402791,297.23817 c 29.506329,-24.52158 1.04775,-32.79422 34.600449,-49.54058 36.06799,-18.00578 86.02485,5.66561 110.67344,-23.67845 20.92325,-24.90611 33.16464,-32.81891 77.05725,-39.82508 20.56341,-3.28083 68.10022,-52.32752 127.6491,-31.39369 v 177.9658 H 29.525183 c 1.598083,-20.96911 34.088918,-19.57564 50.877608,-33.528"
       style="fill:#387bff;fill-opacity:1;fill-rule:nonzero;stroke:none;stroke-width:0.0352778"
       id="path944" />
    <path
       d="m 66.215637,82.616611 c -2.14842,0 -3.89114,1.74625 -3.89114,3.894667 l 0.0176,26.726442 c 0,31.95815 25.9962,57.95434 57.954333,57.95434 2.9457,0 5.93373,-0.23283 8.90059,-0.69497 V 98.911413 H 95.873627 c -4.77661,0 -8.6607,-3.827635 -8.6607,-8.526635 v -3.8735 c 0,-2.148417 -1.74625,-3.894667 -3.89466,-3.894667 z m 54.080833,93.225059 c -34.522833,0 -62.603943,-28.08464 -62.603943,-62.60395 l -0.0212,-26.726442 c 0,-4.713111 3.8347,-8.544278 8.54428,-8.544278 h 17.1027 c 4.71311,0 8.54428,3.831167 8.54428,8.544278 v 3.8735 c 0,2.102555 1.83444,3.8735 4.01108,3.8735 h 37.973003 v 80.122892 l -1.89089,0.35984 c -3.86997,0.73025 -7.79639,1.10066 -11.65931,1.10066"
       style="fill:#fdbf14;fill-opacity:1;fill-rule:nonzero;stroke:none;stroke-width:0.0352778"
       id="path2028" />
    <path
       d="m 168.06964,170.49709 c 2.97392,0.46214 5.96194,0.69497 8.90764,0.69497 31.95461,0 57.9508,-25.99619 57.9508,-57.95081 l 0.0212,-26.729972 c 0,-2.148417 -1.74978,-3.894667 -3.89467,-3.894667 h -17.10266 c -2.14842,0 -3.89467,1.74625 -3.89467,3.894667 v 3.877028 c 0,4.699 -3.88761,8.523107 -8.66069,8.523107 h -33.32692 z m 8.90764,5.34458 c -3.86292,0 -7.78228,-0.37041 -11.66284,-1.10066 l -1.89441,-0.35984 V 94.261806 h 37.97653 c 2.17311,0 4.01108,-1.774473 4.01108,-3.8735 v -3.877028 c 0,-4.713111 3.83469,-8.544278 8.54428,-8.544278 h 17.10266 c 4.70959,0 8.54428,3.831167 8.54428,8.544278 l -0.0212,26.729972 c 0,34.51931 -28.08111,62.60042 -62.60041,62.60042"
       style="fill:#fdbf14;fill-opacity:1;fill-rule:nonzero;stroke:none;stroke-width:0.0352778"
       id="path2030" />
    <path
       d="M 155.225,266.054 H 142.04875 V 186.22745 H 155.225 V 266.054"
       style="fill:#fdbf14;fill-opacity:1;fill-rule:nonzero;stroke:none;stroke-width:0.0352778"
       id="path2032" />
    <path
       d="m 155.225,208.18434 h -13.17625 v -7.48947 H 155.225 v 7.48947"
       style="fill:#ffa813;fill-opacity:1;fill-rule:nonzero;stroke:none;stroke-width:0.0352778"
       id="path2034" />
    <path
       d="M 157.51453,204.75181 H 139.7557 v -20.26003 h 17.75883 v 20.26003"
       style="fill:#ffa813;fill-opacity:1;fill-rule:nonzero;stroke:none;stroke-width:0.0352778"
       id="path2036" />
    <path
       d="M 157.51453,204.75181 H 139.7557 v -4.75897 h 17.75883 v 4.75897"
       style="fill:#fdbf14;fill-opacity:1;fill-rule:nonzero;stroke:none;stroke-width:0.0352778"
       id="path2038" />
    <path
       d="m 178.47306,273.80453 c -6.07484,0 -11.0102,-4.826 -11.21834,-10.85144 h -16.2948 -4.64961 -16.29481 c -0.20814,6.02544 -5.1435,10.85144 -11.21833,10.85144 H 107.5612 v 11.62403 h 38.74911 4.64961 38.74911 v -11.62403 h -11.23597"
       style="fill:#fdbf14;fill-opacity:1;fill-rule:nonzero;stroke:none;stroke-width:0.0352778"
       id="path2040" />
    <path
       d="m 108.72183,104.07608 v 64.23026 c 0,15.88911 12.88345,28.76903 28.77256,28.76903 h 22.28144 c 15.88911,0 28.77256,-12.87992 28.77256,-28.76903 v -64.23026 h -79.82656"
       style="fill:#fdbf14;fill-opacity:1;fill-rule:nonzero;stroke:none;stroke-width:0.0352778"
       id="path2042" />
    <path
       d="M 194.74669,104.85219 H 102.52 V 92.452056 h 92.22669 v 12.400134"
       style="fill:#fdbf14;fill-opacity:1;fill-rule:nonzero;stroke:none;stroke-width:0.0352778"
       id="path2044" />
    <path
       d="m 148.63511,121.04822 5.26345,10.66095 11.76513,1.71098 -8.51252,8.29733 2.0073,11.71928 -10.52336,-5.53156 -10.52336,5.53156 2.00731,-11.71928 -8.51253,-8.29733 11.76514,-1.71098 5.26344,-10.66095"
       style="fill:#ffa813;fill-opacity:1;fill-rule:nonzero;stroke:none;stroke-width:0.0352778"
       id="path2046" />
    <path
       d="m 108.72183,110.01686 h 79.82656 v -5.94078 h -79.82656 v 5.94078"
       style="fill:#ffa813;fill-opacity:1;fill-rule:nonzero;stroke:none;stroke-width:0.0352778"
       id="path2048" />
    <path
       d="m 112.79995,275.74128 v 9.68728 h 76.90908 v -9.68728 h -76.90908"
       style="fill:#ffa813;fill-opacity:1;fill-rule:nonzero;stroke:none;stroke-width:0.0352778"
       id="path2050" />
    <path
       d="m 196.20367,25.911113 c 0.7373,-0.02117 7.47889,1.315861 9.46855,5.2705 1.98614,3.958166 1.22414,8.477249 -1.69333,11.835694 -2.91747,3.358444 -6.59695,5.482166 -4.03225,8.777111 8.24089,10.583333 1.64042,11.151305 -1.15711,12.661194 -5.40456,2.917472 -14.22753,-1.143 -13.41261,-4.236861 1.016,-3.845278 10.70327,-7.750528 7.51416,-11.708694 -2.36008,-2.938639 -2.9598,-4.236861 -0.59266,-8.3185 2.36361,-4.085167 7.29191,-3.806472 5.00239,-5.669139 -2.70581,-2.201333 -7.47184,-8.427861 -1.09714,-8.611305"
       style="fill:#194866;fill-opacity:1;fill-rule:nonzero;stroke:none;stroke-width:0.0352778"
       id="path2052" />
    <path
       d="m 197.68533,26.345029 c 7.97278,1.435806 6.55109,5.161139 5.79967,10.244667 -0.75142,5.08 -5.22111,14.904861 -10.65389,16.252472 -5.43278,1.344083 -9.01347,10.498666 -9.87425,5.947833 -1.00894,-5.30225 -2.5788,-7.186083 -4.46969,-10.025944 -3.33375,-4.995334 -0.90664,-10.107083 4.46969,-12.505972 5.37633,-2.398889 4.09928,-2.515306 5.334,-5.74675 1.23825,-3.234972 6.90386,-4.614333 9.39447,-4.166306"
       style="fill:#163f59;fill-opacity:1;fill-rule:nonzero;stroke:none;stroke-width:0.0352778"
       id="path2054" />
    <path
       d="m 193.03572,45.730168 c -1.25589,-1.143 -12.97516,0.469194 -16.09725,0.963083 -3.11855,0.493889 -6.74158,1.622778 -4.69194,2.977445 2.04611,1.354666 5.33753,1.044222 7.73994,0.956027 2.40242,-0.08467 5.73617,-0.34925 7.4542,-0.313972 1.71802,0.03175 6.85447,-3.439583 5.59505,-4.582583"
       style="fill:#deccaf;fill-opacity:1;fill-rule:nonzero;stroke:none;stroke-width:0.0352778"
       id="path2056" />
    <path
       d="m 174.85708,48.570029 c 0.56798,-2.144889 1.05834,-4.861278 0.92781,-7.574139 -0.28222,-5.909027 0.13758,-9.817805 0.13758,-9.817805 l -1.44991,-0.462139 c 0,0 -2.63173,13.462 -2.74814,15.867944 -0.0564,1.192389 -0.0317,1.74625 0.20108,2.490611 0.23636,0.758472 2.26483,2.014361 2.93158,-0.504472"
       style="fill:#deccaf;fill-opacity:1;fill-rule:nonzero;stroke:none;stroke-width:0.0352778"
       id="path2058" />
    <path
       d="m 172.61694,25.064446 0.93487,-1.806222 c 0,0 0.27516,0.860778 -0.06,1.509889 -0.2928,0.560916 -0.64558,1.248833 -0.64558,1.248833 l -0.22931,-0.9525"
       style="fill:#deccaf;fill-opacity:1;fill-rule:nonzero;stroke:none;stroke-width:0.0352778"
       id="path2060" />
    <path
       d="m 173.20256,27.064696 0.32102,-1.319389 1.16417,-0.508 c 0,0 0.24342,0.306917 -0.54681,1.058334 -0.17991,0.169333 -0.4833,1.629833 -0.4833,1.629833 l -0.45508,-0.860778"
       style="fill:#deccaf;fill-opacity:1;fill-rule:nonzero;stroke:none;stroke-width:0.0352778"
       id="path2062" />
    <path
       d="m 175.08992,32.465724 c 0,0 -1.62278,-2.088445 -2.66348,-4.945945 -1.04069,-2.861027 -0.35983,-3.129138 -0.23283,-4.071055 0.127,-0.945445 0.1905,-2.282472 0.54681,-1.234722 0.35983,1.04775 0.0388,2.885722 0.20108,3.439583 0.16228,0.557389 0.74789,1.167694 1.20297,1.855611 0.45156,0.687917 0.71261,1.231194 0.61384,0.377472 -0.0988,-0.853722 -0.13053,-1.139472 -0.067,-1.435805 0.0635,-0.296334 0.127,-0.769056 0.4833,-0.762 0.35631,0.0071 0.19403,0.66675 0.22931,0.9525 0.0317,0.282222 0.68086,1.636889 0.77964,1.972027 0.0953,0.331612 -0.0635,1.509889 -0.0952,2.264834 -0.0318,0.758472 -0.67381,3.601861 -1.30881,3.630083 0,0 0.762,-1.354667 0.31045,-2.042583"
       style="fill:#deccaf;fill-opacity:1;fill-rule:nonzero;stroke:none;stroke-width:0.0352778"
       id="path2064" />
    <path
       d="m 153.18947,126.79498 c 0,0 -0.3175,4.28978 -0.80433,6.36764 -0.49036,2.07433 -1.01247,3.52778 -0.94544,5.22464 0.067,1.69686 5.68325,-2.20839 6.06425,-3.45017 0.38452,-1.24531 -0.58209,-4.74486 1.08655,-8.13506 1.66864,-3.3902 -5.40103,-0.007 -5.40103,-0.007"
       style="fill:#e9d6b8;fill-opacity:1;fill-rule:nonzero;stroke:none;stroke-width:0.0352778"
       id="path2066" />
    <path
       d="m 168.97981,84.122973 c 0,0 -16.29128,13.57489 -17.44134,16.411217 -1.14652,2.83633 1.20298,21.26545 1.3582,26.36309 0.0317,1.07245 4.96711,0.99484 6.00427,-0.11288 1.0407,-1.1042 3.31964,-13.10924 3.38667,-16.05493 0.0741,-3.25261 -1.40758,-6.64633 -0.71614,-7.23547 1.45345,-1.22767 16.77459,-10.69975 18.64784,-13.052778 1.87325,-2.3495 6.97441,-10.198805 5.66208,-11.828638 -1.31233,-1.626306 -16.90158,5.510389 -16.90158,5.510389"
       style="fill:#cde5f7;fill-opacity:1;fill-rule:nonzero;stroke:none;stroke-width:0.0352778"
       id="path2068" />
    <path
       d="m 157.58861,130.1499 c 0,0 1.7145,1.14652 2.22956,1.71802 0.51858,0.5715 1.47814,0.98778 1.11477,1.86973 -0.36336,0.88194 -2.159,3.06211 -3.12561,6.01838 -0.96308,2.95981 -3.12561,6.6922 -4.84363,8.24795 -1.7145,1.55222 -4.75192,2.2225 -5.08706,1.21003 -0.33867,-1.01248 0.83256,-2.93159 1.48519,-3.73592 0.64912,-0.80081 1.83092,-8.45961 1.93675,-9.62731 0.10584,-1.16769 0.57503,-1.86972 1.55928,-1.65805 0.98778,0.20814 2.13078,0.18697 3.19617,-1.24178 1.06539,-1.42522 1.53458,-2.80105 1.53458,-2.80105"
       style="fill:#0063cb;fill-opacity:1;fill-rule:nonzero;stroke:none;stroke-width:0.0352778"
       id="path2070" />
    <path
       d="m 156.05403,132.95095 c -1.06539,1.42875 -2.20839,1.44992 -3.19617,1.24178 -0.98425,-0.21167 -1.45344,0.49036 -1.55928,1.65805 -0.10583,1.1677 -1.28763,8.8265 -1.93675,9.62731 -0.65263,0.80433 -1.82386,2.72344 -1.48519,3.73592 0.0141,0.0494 0.0388,0.0917 0.067,0.13405 1.07244,0.127 3.06211,-0.58208 4.34622,-1.76389 1.72861,-1.59808 3.94053,-5.3975 4.953,-8.39258 1.01247,-2.99156 2.82928,-5.21758 3.21028,-6.11364 0.0917,-0.21872 0.10583,-0.40922 0.0635,-0.57855 -0.22931,-0.21167 -0.49742,-0.40923 -0.6985,-0.63148 -0.51506,-0.5715 -2.22956,-1.71802 -2.22956,-1.71802 0,0 -0.46919,1.37583 -1.53458,2.80105"
       style="fill:#0253a2;fill-opacity:1;fill-rule:nonzero;stroke:none;stroke-width:0.0352778"
       id="path2072" />
    <path
       d="m 167.44875,90.021417 c -0.83961,-0.451556 -2.27894,-1.4605 -3.04094,-2.010833 -4.9142,4.240388 -12.11792,10.671529 -12.86934,12.523606 -1.14652,2.83633 1.20298,21.26545 1.3582,26.36309 0.0141,0.40923 0.74083,0.64912 1.69333,0.73025 0.1905,-1.89794 0.37747,-4.23687 0.93486,-5.83142 1.04422,-3.00214 1.19945,-8.05039 1.68981,-12.38956 0.48683,-4.33916 -2.10256,-6.71689 -0.17286,-8.64305 1.93322,-1.926167 11.5958,-10.110611 10.40694,-10.742083"
       style="fill:#d4edff;fill-opacity:1;fill-rule:nonzero;stroke:none;stroke-width:0.0352778"
       id="path2074" />
    <path
       d="m 194.22811,59.403834 c 0,0 -2.01789,4.039306 -2.02142,7.291917 -0.004,3.252611 4.7237,10.484555 1.25237,17.917583 -1.76742,3.77825 -17.91406,7.224888 -17.91406,7.224888 6.18067,-24.549805 5.92667,-29.456943 4.41678,-31.615943 -1.51342,-2.159 -0.9525,-4.272139 0.91016,-6.903861 1.86267,-2.628195 4.24745,-5.432778 5.21053,-7.552972 0,0 15.23647,-6.512278 8.14564,13.638388"
       style="fill:#7dc2f5;fill-opacity:1;fill-rule:nonzero;stroke:none;stroke-width:0.0352778"
       id="path2076" />
    <path
       d="m 196.23894,39.514224 c 0.39159,-0.652639 -5.10116,-2.663473 -5.41513,-1.548695 -0.68792,2.462389 -0.37748,2.776361 -0.99484,5.496278 -0.49036,2.173111 -2.19428,3.277305 -2.31422,3.866444 -0.32456,1.5875 2.21544,0.261056 5.85964,-1.562805 0.80786,-0.402167 1.17475,-3.432528 2.86455,-6.251222"
       style="fill:#e9dbc4;fill-opacity:1;fill-rule:nonzero;stroke:none;stroke-width:0.0352778"
       id="path2078" />
    <path
       d="m 194.81019,35.905307 c 0.52917,1.262944 1.18534,2.391833 2.11667,3.227917 -5.461,2.628194 -9.24983,-1.400528 -9.36978,-1.545167 -0.127,-0.155222 -0.254,-0.303389 -0.19402,-0.66675 0.06,-0.359833 0.23636,-0.656167 0.37747,-0.754944 0.14111,-0.102306 0.37747,-0.127 0.35278,-0.186973 -0.0212,-0.05644 -0.17639,-0.448027 -0.2152,-0.546805 -0.0388,-0.09525 0.11642,-0.335139 0.11642,-0.335139 l 0.381,-0.05997 c -0.20109,-0.508 -0.0882,-0.733778 -0.0212,-0.850195 0.067,-0.116416 0.33161,-0.15875 0.55386,-0.194028 0.1905,-0.03175 0.43745,-0.377472 0.48684,-0.532694 0.0529,-0.151694 -0.17639,-0.624417 -0.1517,-0.790222 0.0212,-0.169334 0.14111,-0.440972 0.22578,-0.451556 0.0847,-0.01058 0.36689,0.0035 0.91722,0.02822 0.55033,0.02117 1.51695,-0.268111 2.40947,-1.432277 0.89253,-1.160639 1.36173,-1.118306 1.74978,-1.234722 0.42686,-0.130528 -1.47814,2.158999 0.26458,6.325305"
       style="fill:#e9dbc4;fill-opacity:1;fill-rule:nonzero;stroke:none;stroke-width:0.0352778"
       id="path2080" />
    <path
       d="m 193.24386,48.111418 c -0.91369,2.229555 -5.59505,14.192249 -6.50875,18.242138 -0.91722,4.046361 -1.25589,8.949972 1.53106,6.88975 2.78341,-2.056694 4.02519,-6.251222 5.11175,-9.263944 1.08655,-3.01625 2.40947,-7.246056 3.30905,-9.369778 0.90311,-2.120194 -1.09714,-12.230805 -3.44311,-6.498166"
       style="fill:#e9dbc4;fill-opacity:1;fill-rule:nonzero;stroke:none;stroke-width:0.0352778"
       id="path2082" />
    <path
       d="m 175.164,113.87272 c 0,0 3.54542,2.89983 4.09928,4.19805 0.55739,1.29823 1.01953,2.15548 2.08491,1.50637 1.06539,-0.64912 1.85562,-4.29684 1.27706,-5.20348 -0.57856,-0.90311 -4.03225,-2.35302 -4.93536,-3.78883 -0.90311,-1.43933 -2.36361,3.89114 -2.36361,3.89114 l -0.16228,-0.60325"
       style="fill:#e9d6b8;fill-opacity:1;fill-rule:nonzero;stroke:none;stroke-width:0.0352778"
       id="path2084" />
    <path
       d="m 179.93003,112.28875 c 0,0 1.82739,0.22577 2.81869,0.0176 0.99131,-0.20814 2.62467,0.24341 3.07622,2.13783 0.44803,1.89794 1.2312,5.73969 2.01084,8.06803 0.78316,2.32834 -0.18345,6.88623 -0.52564,7.85637 -0.54328,1.54869 -2.70933,2.24014 -3.54542,1.30175 -0.83255,-0.93839 -1.23119,-4.22628 -1.70039,-5.82436 -0.46919,-1.5981 -2.81164,-6.57226 -3.07269,-7.17904 -0.26106,-0.60678 1.12889,-2.57175 2.01789,-2.01436 0.88547,0.55386 1.21355,-0.52211 1.04069,-1.09714 -0.17286,-0.5715 -2.12019,-3.26672 -2.12019,-3.26672"
       style="fill:#0063cb;fill-opacity:1;fill-rule:nonzero;stroke:none;stroke-width:0.0352778"
       id="path2086" />
    <path
       d="m 184.92889,114.5183 c -0.35983,-1.50636 -1.46756,-2.09903 -2.40595,-2.17311 -0.22577,0.0318 -0.47977,0.0423 -0.7373,0.0459 -0.50095,0.0917 -1.17828,0.0882 -1.7392,0.0564 0.41981,0.58561 1.85562,2.62114 2.00378,3.10797 0.17286,0.57503 -0.15522,1.651 -1.04069,1.09714 l -0.0106,-0.007 c -0.17286,0.23636 -0.46213,0.33867 -0.87488,0.0847 -0.69145,0.43039 -1.31587,1.51342 -1.13242,1.93675 0.26105,0.60678 2.6035,5.58094 3.07269,7.17904 0.4692,1.59808 0.86784,4.88597 1.70039,5.82436 0.20461,0.23283 0.49389,0.36336 0.81845,0.40922 0.77258,-0.21872 1.54164,-0.80081 1.83444,-1.63689 0.3422,-0.97367 1.30528,-5.52803 0.52564,-7.85637 -0.78317,-2.33186 -1.56281,-6.17008 -2.01436,-8.06803"
       style="fill:#0253a2;fill-opacity:1;fill-rule:nonzero;stroke:none;stroke-width:0.0352778"
       id="path2088" />
    <path
       d="m 179.21036,80.270639 c -3.94758,1.305278 -22.59894,5.736167 -24.47925,8.748889 -1.87678,3.012722 4.35328,7.926915 18.58433,6.63575 14.23106,-1.291167 16.50295,-2.935111 19.40278,-8.494889 2.89984,-5.563305 -10.56569,-7.863416 -13.50786,-6.88975"
       style="fill:#e9f6ff;fill-opacity:1;fill-rule:nonzero;stroke:none;stroke-width:0.0352778"
       id="path2090" />
    <path
       d="m 162.00892,92.339167 c 0,0 8.92175,3.570111 11.51466,9.853083 2.59292,6.27944 4.93184,8.83355 4.93184,8.83355 l -3.12914,3.45017 c 0,0 -17.54011,-14.28397 -19.55447,-17.645947 -2.01436,-3.35844 -2.96334,-7.369523 -0.18345,-7.598828 2.77989,-0.232834 6.42056,3.107972 6.42056,3.107972"
       style="fill:#e9f6ff;fill-opacity:1;fill-rule:nonzero;stroke:none;stroke-width:0.0352778"
       id="path2092" />
    <path
       d="m 175.29806,114.4548 0.0282,0.0212 2.73403,-3.01978 z"
       style="fill:#89d5da;fill-opacity:1;fill-rule:nonzero;stroke:none;stroke-width:0.0352778"
       id="path2094" />
    <path
       d="m 160.61544,94.226528 c 3.40431,1.74625 9.16164,3.668885 12.13556,9.338022 2.53294,4.82953 4.72017,7.27075 5.31283,7.88811 l 0.39159,-0.42686 c 0,0 -2.33892,-2.55411 -4.93184,-8.83355 -2.59291,-6.282972 -11.45469,-8.918222 -11.45469,-8.918222 0,0 -3.54894,-0.123472 -1.45345,0.9525"
       style="fill:#d4edff;fill-opacity:1;fill-rule:nonzero;stroke:none;stroke-width:0.0352778"
       id="path2096" />
    <path
       d="m 179.21036,80.270639 c -0.16228,0.05292 -0.34925,0.112889 -0.55739,0.172861 1.8662,0.1905 4.28978,0.462139 5.28461,0.694973 1.7145,0.395111 1.78506,2.010833 -0.89605,3.675944 -2.68464,1.661583 -13.07042,5.284611 -16.24895,5.309305 -3.18205,0.02117 -8.77005,0.66675 -7.95161,1.859139 0.30339,0.440972 2.27895,0.525639 2.78342,0.970139 1.95439,0.627945 2.62467,2.772833 5.63739,2.885722 1.82386,0.07056 3.84175,0.01764 6.05366,-0.183444 14.23106,-1.291167 16.50295,-2.935111 19.40278,-8.494889 1.06892,-2.049639 1.56281,-4.039305 1.55928,-5.976055 -0.0106,-3.316111 -12.12497,-1.887361 -15.06714,-0.913695"
       style="fill:#d4edff;fill-opacity:1;fill-rule:nonzero;stroke:none;stroke-width:0.0352778"
       id="path2098" />
    <path
       d="m 170.11222,80.619889 c 0,0 -0.21519,-0.4445 -0.57503,-0.292805 -0.58208,0.250472 -1.45697,1.185333 -1.7533,1.531055 -0.32808,0.384528 -1.58045,2.458861 -1.58045,2.458861 0,0 0.85373,-0.289277 1.3582,-1.121833 0.74083,-1.217083 2.55058,-2.575278 2.55058,-2.575278"
       style="fill:#e2c59c;fill-opacity:1;fill-rule:nonzero;stroke:none;stroke-width:0.0352778"
       id="path2100" />
    <path
       d="m 169.87586,80.849195 c -0.8255,0.398639 -1.30175,1.344083 -1.59103,2.592916 -0.27516,1.185334 -0.99836,1.495778 -0.99836,1.495778 0,0 0.0988,-0.779639 0.71967,-2.575278 0.17286,-0.500944 0.39511,-1.040694 0.7373,-1.442861 1.03012,-1.213555 3.25262,-1.086555 1.13242,-0.07055"
       style="fill:#e2c59c;fill-opacity:1;fill-rule:nonzero;stroke:none;stroke-width:0.0352778"
       id="path2102" />
    <path
       d="m 187.40539,73.726612 c -4.09928,1.636889 -10.7562,3.901722 -10.7562,3.901722 0,0 -8.8653,4.229805 -1.14652,-1.742722 1.66864,-1.291167 5.89844,-5.115278 12.60827,-8.156222 0.73731,-0.335139 0.4057,-0.02117 1.30175,0.01411 1.55223,0.06703 1.32292,4.656666 -2.0073,5.983111"
       style="fill:#e9dbc4;fill-opacity:1;fill-rule:nonzero;stroke:none;stroke-width:0.0352778"
       id="path2104" />
    <path
       d="m 169.26908,81.65 -0.15169,-0.433916 0.75142,-1.389945 c 0,0 2.25425,-1.732139 3.34433,-2.084916 1.08303,-0.34925 4.46969,-3.104445 4.96358,-3.316111 0.49742,-0.211667 2.45886,1.358194 2.45886,1.358194 0,0 -4.08164,1.933222 -5.63739,2.839861 -1.55222,0.903111 -3.32316,2.956278 -3.91583,3.33375 -1.01953,0.642056 -1.4993,1.026583 -1.4993,1.026583 0,0 -0.26812,-0.592666 1.27,-1.693333 0.40569,-0.289278 -0.13759,-0.589139 -0.13759,-0.589139 L 169.26908,81.65"
       style="fill:#e9dbc4;fill-opacity:1;fill-rule:nonzero;stroke:none;stroke-width:0.0352778"
       id="path2106" />
    <path
       d="m 170.39444,80.027223 c 0,0 -1.19944,0.818444 -1.45697,1.502833 -0.17286,0.47625 -0.635,2.8575 -0.635,2.8575 0,0 0.6985,-0.567972 0.88547,-1.524 0.2787,-1.397 1.2065,-2.836333 1.2065,-2.836333"
       style="fill:#e9d6b8;fill-opacity:1;fill-rule:nonzero;stroke:none;stroke-width:0.0352778"
       id="path2108" />
    <path
       d="m 170.71547,80.701028 c 0,0 0.37747,0.176389 0.4057,0.359834 0.0882,-0.102306 0.14816,-0.232834 0.20108,-0.324556 0.127,-0.204611 1.23825,-1.411111 1.23825,-1.411111 0,0 -0.96661,0.716139 -1.29469,0.864305 -0.20462,0.09172 -0.59267,0.402167 -0.92428,0.663223 -0.0423,0.03175 -0.0811,0.116416 -0.14111,0.186972 l 0.51505,-0.338667"
       style="fill:#e2c59c;fill-opacity:1;fill-rule:nonzero;stroke:none;stroke-width:0.0352778"
       id="path2110" />
    <path
       d="m 170.85306,81.290167 c -1.03364,0.740833 -1.25237,1.248833 -1.28059,1.506361 0.23989,-0.176389 0.63853,-0.451555 1.21003,-0.818444 0.20814,-0.127 0.55739,-0.462139 0.99131,-0.881945 0.0847,-0.07761 -0.1905,-0.426861 0.28575,-1.305277 0.0847,-0.15875 -0.82903,0.479777 -1.27353,0.956027 0.13053,0.09525 0.37747,0.321028 0.067,0.543278"
       style="fill:#e2c59c;fill-opacity:1;fill-rule:nonzero;stroke:none;stroke-width:0.0352778"
       id="path2112" />
    <path
       d="m 83.367697,141.4917 3.75708,-20.90562 c 0,0 -9.80722,12.96107 -9.53558,19.72381 0.27516,6.76628 5.7785,1.18181 5.7785,1.18181"
       style="fill:#e9d6b8;fill-opacity:1;fill-rule:nonzero;stroke:none;stroke-width:0.0352778"
       id="path2114" />
    <path
       d="M 23.430747,150.66392 5.1850883,141.08953 c 0,0 10.0682687,13.2327 14.5697187,15.45167 4.49792,2.21897 3.67594,-5.87728 3.67594,-5.87728"
       style="fill:#e9d6b8;fill-opacity:1;fill-rule:nonzero;stroke:none;stroke-width:0.0352778"
       id="path2116" />
    <path
       d="m 8.7058073,143.23442 c 0,0 1.09714,-3.45016 0.4833,-4.2933 -0.61736,-0.84314 -3.090329,-3.78531 -3.090329,-3.78531 l -0.70555,-0.69497 c 0,0 -1.25236,0.30692 0.43744,2.26836 1.68275,1.96145 0.30339,1.42875 0.30339,1.42875 l -2.24719,-1.22767 -2.88573,-1.29822 -1.19590996,-0.73025 c 0,0 -0.64911,-0.46566 -0.90311004,-0.44803 -0.73731,0.0388 -0.43392,0.55034 -0.43392,0.55034 l 4.40267,3.2138 -4.92478,-1.92264 c 0,0 -0.67381,-0.14816 -0.88195,0.13759 -0.1905,0.26458 0.0106,0.35983 0.0106,0.35983 l 5.02002,3.40783 -2.66346996,-0.72672 c 0,0 -0.65969004,-0.127 -0.87841004,0.14111 -0.23284,0.28928 -0.31045,0.36689 -0.31045,0.36689 l 9.842499,4.10986 0.62089,-0.85725"
       style="fill:#e9d6b8;fill-opacity:1;fill-rule:nonzero;stroke:none;stroke-width:0.0352778"
       id="path2118" />
    <path
       d="m 2.1970583,138.91995 -3.55247,-1.16417 c 0,0 -0.762,-0.34572 -1.22414,-0.2928 -0.52564,0.0564 -0.49389,0.48683 -0.49389,0.48683 l 5.16819,2.25072 0.10231,-1.28058"
       style="fill:#e9d6b8;fill-opacity:1;fill-rule:nonzero;stroke:none;stroke-width:0.0352778"
       id="path2120" />
    <path
       d="m 85.272697,124.8159 c 0,0 -2.47298,-2.71288 -2.27189,-3.72535 0.20108,-1.00894 1.19944,-4.66725 1.19944,-4.66725 l 0.34925,-0.91016 c 0,0 1.27353,-0.21167 0.5715,2.24013 -0.70203,2.44828 0.33161,1.42523 0.33161,1.42523 l 1.53106,-2.00731 2.0708,-2.31775 0.78317,-1.13947 c 0,0 0.39158,-0.67733 0.63147,-0.762 0.68792,-0.254 0.63148,0.33161 0.63148,0.33161 l -2.64937,4.66372 3.67595,-3.69005 c 0,0 0.55033,-0.40217 0.86078,-0.22225 0.28927,0.1658 0.14816,0.33161 0.14816,0.33161 l -3.12914,5.08 2.1202,-1.70392 c 0,0 0.55033,-0.37747 0.86078,-0.21872 0.33866,0.17286 0.43744,0.21167 0.43744,0.21167 l -7.21783,7.62353 -0.93486,-0.54327"
       style="fill:#e9d6b8;fill-opacity:1;fill-rule:nonzero;stroke:none;stroke-width:0.0352778"
       id="path2122" />
    <path
       d="m 89.368447,118.32125 2.74461,-2.45886 c 0,0 0.55033,-0.61384 0.9913,-0.74437 0.50448,-0.15875 0.6597,0.25048 0.6597,0.25048 l -3.75709,4.07811 -0.63852,-1.12536"
       style="fill:#e9d6b8;fill-opacity:1;fill-rule:nonzero;stroke:none;stroke-width:0.0352778"
       id="path2124" />
    <path
       d="m 60.677027,155.36645 13.22917,-10.07181 1.72861,-4.00402 -1.12184,-0.13053 2.25425,-3.77472 8.39259,1.905 -1.05128,6.61811 -1.22767,-0.0353 -1.16769,3.75356 -1.81681,0.59619 -10.61861,17.15206 -8.60072,-12.00856"
       style="fill:#b0bfde;fill-opacity:1;fill-rule:nonzero;stroke:none;stroke-width:0.0352778"
       id="path2126" />
    <path
       d="m 49.663307,291.20706 0.43039,4.20864 -0.13406,3.57364 -1.29116,1.18886 -1.04423,0.51152 -0.20108,0.63853 -3.34786,3.07975 c -0.94192,0.60325 -2.35303,1.08656 -4.18747,0.99836 -0.62089,-0.0317 -0.0882,-1.72861 0.0741,-2.00025 0.94192,-1.55927 2.49414,-3.35491 2.49414,-3.35491 l 2.29658,-4.0005 2.51884,-4.94595 2.39183,0.10231"
       style="fill:#161711;fill-opacity:1;fill-rule:nonzero;stroke:none;stroke-width:0.0352778"
       id="path2128" />
    <path
       d="m 79.028527,281.67853 -0.63147,1.83092 -0.15522,1.95791 0.64558,2.96334 1.73919,-0.06 1.2312,-0.49037 0.94544,0.41275 c 0,0 4.97417,0.0529 6.78745,-0.21166 3.00919,-0.43392 4.59316,-1.016 5.07294,-1.66864 0.27164,-0.36336 -1.23472,-0.71967 -1.71097,-0.70556 -2.72697,0.0847 -5.83142,-1.03716 -5.83142,-1.03716 l -2.63878,-1.96145 -0.74083,-1.58397 -4.71311,0.55386"
       style="fill:#161711;fill-opacity:1;fill-rule:nonzero;stroke:none;stroke-width:0.0352778"
       id="path2130" />
    <path
       d="m 41.196637,158.04403 21.85458,-4.72016 c 0,0 18.91948,7.75405 18.04459,43.82558 -0.004,0.16933 -27.08981,8.25147 -27.2662,1.36878 -0.43744,-17.19792 -12.63297,-40.4742 -12.63297,-40.4742"
       style="fill:#d1dbea;fill-opacity:1;fill-rule:nonzero;stroke:none;stroke-width:0.0352778"
       id="path2132" />
    <path
       d="m 47.430227,158.66492 -20.22475,-8.68186 0.45155,-0.79022 -5.03061,-1.09008 -6.11364,8.22325 5.57389,3.33727 0.71967,-1.41111 1.40052,-2.08844 -1.13594,2.52236 5.30931,4.49792 4.44147,0.40922 16.68639,10.85497 -2.07786,-15.78328"
       style="fill:#d1dbea;fill-opacity:1;fill-rule:nonzero;stroke:none;stroke-width:0.0352778"
       id="path2134" />
    <path
       d="m 54.856197,198.88512 -11.42295,97.27494 7.05556,-0.87842 7.83166,-36.24439 1.56634,-9.3733 9.34155,-37.34506 0.71967,-15.55397 -15.09183,2.1202"
       style="fill:#163f59;fill-opacity:1;fill-rule:nonzero;stroke:none;stroke-width:0.0352778"
       id="path2136" />
    <path
       d="m 77.769107,282.21123 0.60678,-32.26859 -5.09411,-17.00389 -6.70631,-23.38916 1.3582,-12.53067 12.97869,-1.68275 1.84856,9.17575 5.39397,38.09647 1.23472,9.25336 -3.0868,30.93509 -8.5337,-0.58561"
       style="fill:#163f59;fill-opacity:1;fill-rule:nonzero;stroke:none;stroke-width:0.0352778"
       id="path2138" />
    <path
       d="m 56.193227,148.52256 c 1.25941,4.63197 1.68275,7.02381 1.59808,7.35542 -0.57503,2.27541 -7.14022,1.85208 -7.23195,0.55033 -0.0952,-1.29822 -2.46591,-6.56519 -2.99861,-7.28133 -0.53269,-0.71261 7.88811,-3.37256 8.63248,-0.62442"
       style="fill:#e9d6b8;fill-opacity:1;fill-rule:nonzero;stroke:none;stroke-width:0.0352778"
       id="path2140" />
    <path
       d="m 51.973997,147.43953 c -1.61925,0.31398 -3.13619,0.79728 -3.90525,1.19945 0.79728,1.29469 1.61573,2.55764 2.24014,3.35491 1.7392,2.22956 4.35328,2.28248 6.08542,2.49062 0.37747,0.0459 0.81139,0.007 1.26294,-0.0741 -0.13405,-0.83255 -0.55386,-2.55058 -1.46402,-5.88786 -0.33867,-1.24883 -2.26484,-1.37583 -4.21923,-1.08303"
       style="fill:#e2c59c;fill-opacity:1;fill-rule:nonzero;stroke:none;stroke-width:0.0352778"
       id="path2142" />
    <path
       d="m 52.884167,136.02012 6.87211,11.08427 c 0,0 1.62631,2.6282 0.80433,3.60187 -0.8255,0.97013 -3.78177,2.38477 -5.51391,2.17663 -1.73567,-0.21166 -4.34975,-0.26105 -6.08895,-2.49061 -1.73919,-2.23308 -5.00944,-8.07508 -5.00944,-8.07508 0,0 -0.30339,-2.36361 4.09575,-3.31611 4.39914,-0.95956 4.84011,-2.98097 4.84011,-2.98097"
       style="fill:#e9d6b8;fill-opacity:1;fill-rule:nonzero;stroke:none;stroke-width:0.0352778"
       id="path2144" />
    <path
       d="m 50.820417,133.5542 c 0.58914,-0.15522 1.68275,-0.26105 2.39889,0.45508 0.74083,0.73378 0.69497,2.46945 0.0247,3.09034 -0.66675,0.61736 -5.67266,3.47133 -6.41702,3.60891 -0.74084,0.13759 -2.05317,0.55386 -3.14678,-0.0494 -0.71261,-0.39158 0.40569,-2.72697 1.72155,-3.04447 3.35139,-0.81139 3.20675,-3.48897 5.41867,-4.06047"
       style="fill:#194866;fill-opacity:1;fill-rule:nonzero;stroke:none;stroke-width:0.0352778"
       id="path2146" />
    <path
       d="m 45.003107,139.98887 2.97039,4.79072 1.17475,2.75872 -0.59266,0.33867 -1.09361,0.6103 c 0,0 -5.85612,-5.57036 -4.63903,-7.27075 1.22061,-1.70038 1.84855,-1.54516 2.18016,-1.22766"
       style="fill:#194866;fill-opacity:1;fill-rule:nonzero;stroke:none;stroke-width:0.0352778"
       id="path2148" />
    <path
       d="m 48.781357,148.38498 c 0.25753,0.40922 0.10937,0.94544 -0.32808,1.19239 l -0.46214,0.26105 c -0.43744,0.24695 -1.00189,0.10936 -1.25941,-0.30339 l -1.08656,-1.75683 c -0.26106,-0.41275 -0.11289,-0.94897 0.32808,-1.19592 l 0.46214,-0.26105 c 0.43392,-0.24342 1.00189,-0.10936 1.25942,0.30691 l 1.08655,1.75684"
       style="fill:#e9d6b8;fill-opacity:1;fill-rule:nonzero;stroke:none;stroke-width:0.0352778"
       id="path2150" />
    <path
       d="m 57.082227,156.99981 c 0,0 15.38111,14.45683 19.75202,34.32528 0.3422,1.56633 -0.89605,3.14325 -0.89605,3.14325 l -3.02331,-1.47109 c 0,0 -7.68703,-21.64644 -15.83266,-35.99744"
       style="fill:#387bff;fill-opacity:1;fill-rule:nonzero;stroke:none;stroke-width:0.0352778"
       id="path2152" />
    <path
       d="m 56.905837,156.90809 0.56444,2.9598 -7.12258,-2.85044 0.16228,-0.80786 6.39586,0.6985"
       style="fill:#b0bfde;fill-opacity:1;fill-rule:nonzero;stroke:none;stroke-width:0.0352778"
       id="path2154" />
    <path
       d="m 57.823057,154.98192 2.04964,2.9845 -2.91395,-1.12889 z"
       style="fill:#b0bfde;fill-opacity:1;fill-rule:nonzero;stroke:none;stroke-width:0.0352778"
       id="path2156" />
    <path
       d="m 23.243777,18.086502 v 11.295944 c -0.41628,-0.165806 -0.87136,-0.264583 -1.34408,-0.264583 -2.01436,0 -3.65125,1.636889 -3.65125,3.65125 0,2.014361 1.63689,3.65125 3.65125,3.65125 2.01083,0 3.65125,-1.636889 3.65125,-3.65125 v -9.281584 l 10.18116,-2.035527 v 5.432777 c -0.41627,-0.165805 -0.86783,-0.264583 -1.34408,-0.264583 -2.01436,0 -3.65125,1.640417 -3.65125,3.65125 0,2.010833 1.63689,3.65125 3.65125,3.65125 2.01083,0 3.65125,-1.640417 3.65125,-3.65125 v -15.14475 l -14.7955,2.959806"
       style="fill:#86c0f0;fill-opacity:1;fill-rule:nonzero;stroke:none;stroke-width:0.0352778"
       id="path4196" />
    <path
       d="M 119.85903,61.735695 H 99.090997 V 40.445557 h 20.768033 v 21.290138"
       style="fill:#2b83fd;fill-opacity:1;fill-rule:nonzero;stroke:none;stroke-width:0.0352778"
       id="path4198" />
    <path
       d="m 113.77361,49.035696 h -3.56658 c 0.17286,-0.398639 0.37747,-0.896056 0.42686,-1.150056 0.0494,-0.257528 0,-0.871361 0,-0.871361 0,-0.462139 -0.37394,-0.836083 -0.83608,-0.836083 H 109.378 v 1.291166 c 0,0 -1.46403,1.707445 -1.46403,2.402417 v 4.078111 c 0,0.462139 0.37748,0.839611 0.83961,0.839611 h 2.92806 c 0.45861,0 0.97014,-0.377472 1.13947,-0.839611 l 1.4852,-4.078111 c 0.1658,-0.462139 -0.0706,-0.836083 -0.5327,-0.836083"
       style="fill:#ffffff;fill-opacity:1;fill-rule:nonzero;stroke:none;stroke-width:0.0352778"
       id="path4200" />
    <path
       d="m 108.43961,54.263862 h -1.1183 v -4.564944 h 1.1183 v 4.564944"
       style="fill:#ffffff;fill-opacity:1;fill-rule:nonzero;stroke:none;stroke-width:0.0352778"
       id="path4202" />
    <path
       d="m 104.05106,54.789501 h 1.98614 v -5.753805 h -1.98614 v 5.753805"
       style="fill:#ffffff;fill-opacity:1;fill-rule:nonzero;stroke:none;stroke-width:0.0352778"
       id="path4204" />
    <path
       d="m 63.372247,-4.0291374 c -0.85725,0 -1.61219,0.419806 -2.08491,1.061861 l -4.064,-2.54 c 0.06,-0.218722 0.1023,-0.444499 0.1023,-0.684388 0,-0.236361 -0.0423,-0.462139 -0.1023,-0.684389 l 4.064,-2.54 c 0.47272,0.645583 1.22766,1.068916 2.08491,1.068916 1.42875,0 2.58939,-1.164166 2.58939,-2.5929156 0,-1.42875 -1.16064,-2.589389 -2.58939,-2.589389 -1.42875,0 -2.59291,1.160639 -2.59291,2.589389 0,0.102305 0.0212,0.197555 0.0318,0.296333 l -4.22628,2.6423056 c -0.47272,-0.479778 -1.12536,-0.779639 -1.84856,-0.779639 -1.42875,0 -2.59291,1.160639 -2.59291,2.589389 0,1.42875 1.16416,2.592916 2.59291,2.592916 0.7232,0 1.37584,-0.299861 1.84856,-0.779639 l 4.22628,2.642306 c -0.0106,0.09878 -0.0318,0.194028 -0.0318,0.296333 0,1.42875001 1.16416,2.592917 2.59291,2.592917 1.42875,0 2.58939,-1.16416699 2.58939,-2.592917 0,-1.42875 -1.16064,-2.589389 -2.58939,-2.589389"
       style="fill:#74b2e8;fill-opacity:1;fill-rule:nonzero;stroke:none;stroke-width:0.0352778"
       id="path4206" />
    <path
       d="m 63.372247,-12.234747 c 0.71261,0 1.2947,0.578555 1.2947,1.294694 0,0.712611 -0.58209,1.2946936 -1.2947,1.2946936 -0.71614,0 -1.29469,-0.5820826 -1.29469,-1.2946936 0,-0.716139 0.57855,-1.294694 1.29469,-1.294694"
       style="fill:#74b2e8;fill-opacity:1;fill-rule:nonzero;stroke:none;stroke-width:0.0352778"
       id="path4208" />
    <path
       d="m 54.736247,-4.8934424 c -0.71614,0 -1.29822,-0.582083 -1.29822,-1.298222 0,-0.712611 0.58208,-1.294695 1.29822,-1.294695 0.71261,0 1.2947,0.582084 1.2947,1.294695 0,0.716139 -0.58209,1.298222 -1.2947,1.298222"
       style="fill:#74b2e8;fill-opacity:1;fill-rule:nonzero;stroke:none;stroke-width:0.0352778"
       id="path4210" />
    <path
       d="m 63.372247,-0.14505339 c -0.71614,0 -1.29469,-0.582084 -1.29469,-1.29469501 0,-0.712611 0.57855,-1.294694 1.29469,-1.294694 0.71261,0 1.2947,0.582083 1.2947,1.294694 0,0.71261101 -0.58209,1.29469501 -1.2947,1.29469501"
       style="fill:#74b2e8;fill-opacity:1;fill-rule:nonzero;stroke:none;stroke-width:0.0352778"
       id="path4212" />
    <path
       d="m 135.9845,31.989474 c -0.97367,-0.970139 -2.54705,-0.970139 -3.51719,0 l -0.58561,0.585611 -0.58562,-0.585611 c -0.97013,-0.970139 -2.54352,-0.970139 -3.51719,0 -0.96661,0.970139 -0.96661,2.543527 0,3.513666 l 0.58914,0.585611 3.51367,3.513667 3.51366,-3.513667 0.58914,-0.585611 c 0.96661,-0.973666 0.96661,-2.547055 0,-3.513666"
       style="fill:#ff5931;fill-opacity:1;fill-rule:nonzero;stroke:none;stroke-width:0.0352778"
       id="path4214" />
    <path
       d="m 166.32339,47.79039 c 0,-1.569861 -1.27353,-2.846917 -2.84692,-2.846917 h -1.89794 v -6.639277 l -6.63928,6.639277 h -21.82283 c -1.57339,0 -2.84692,1.277056 -2.84692,2.846917 v 23.720777 c 0,1.573389 1.27353,2.846917 2.84692,2.846917 h 30.36005 c 1.57339,0 2.84692,-1.273528 2.84692,-2.846917 V 47.79039"
       style="fill:#86c0f0;fill-opacity:1;fill-rule:nonzero;stroke:none;stroke-width:0.0352778"
       id="path4216" />
    <path
       d="m 160.62956,63.91939 h -24.66623 v 1.897944 h 24.66623 V 63.91939"
       style="fill:#ffffff;fill-opacity:1;fill-rule:nonzero;stroke:none;stroke-width:0.0352778"
       id="path4218" />
    <path
       d="m 160.62956,59.178056 h -24.66623 v 1.894417 h 24.66623 v -1.894417"
       style="fill:#ffffff;fill-opacity:1;fill-rule:nonzero;stroke:none;stroke-width:0.0352778"
       id="path4220" />
    <path
       d="m 160.62956,54.433195 h -24.66623 v 1.897945 h 24.66623 v -1.897945"
       style="fill:#ffffff;fill-opacity:1;fill-rule:nonzero;stroke:none;stroke-width:0.0352778"
       id="path4222" />
    <path
       d="m 105.8855,17.86778 c -0.98072,0 -1.77447,-0.79375 -1.77447,-1.770945 0,-0.977194 0.79375,-1.774472 1.77447,-1.774472 0.9772,0 1.77095,0.797278 1.77095,1.774472 0,0.977195 -0.79375,1.770945 -1.77095,1.770945 z m 0,-8.0962504 c -3.30905,0 -5.990163,2.6846394 -5.990163,5.9901664 0,3.312584 5.990163,12.3825 5.990163,12.3825 0,0 5.99017,-9.069916 5.99017,-12.3825 0,-3.305527 -2.68111,-5.9901664 -5.99017,-5.9901664"
       style="fill:#ff5931;fill-opacity:1;fill-rule:nonzero;stroke:none;stroke-width:0.0352778"
       id="path4224" />
    <path
       d="m 77.169387,52.831584 c -3.00919,0 -5.461,2.451806 -5.461,5.461 0,3.012722 2.45181,5.464528 5.461,5.464528 3.01272,0 5.46453,-2.451806 5.46453,-5.464528 0,-3.009194 -2.45181,-5.461 -5.46453,-5.461"
       style="fill:#4e99ff;fill-opacity:1;fill-rule:nonzero;stroke:none;stroke-width:0.0352778"
       id="path4226" />
    <path
       d="m 79.504777,59.925945 -1.83797,-1.837972 v -3.266722 h -0.99131 v 3.675944 l 2.12725,2.130778 0.70203,-0.702028"
       style="fill:#ffffff;fill-opacity:1;fill-rule:nonzero;stroke:none;stroke-width:0.0352778"
       id="path4228" />
    <path
       d="m 38.159227,-11.88197 c 0,8.2126666 -6.65692,14.8731106 -14.87312,14.8731106 -8.21266,0 -14.8695797,-6.660444 -14.8695797,-14.8731106 0,-8.212666 6.6569197,-14.869583 14.8695797,-14.869583 8.2162,0 14.87312,6.656917 14.87312,14.869583"
       style="fill:#4e99ff;fill-opacity:1;fill-rule:nonzero;stroke:none;stroke-width:0.0352778"
       id="path4230" />
    <path
       d="m 30.048857,-4.6782484 v -1.802694 c 0,-1.989667 -1.61572,-3.6053886 -3.60538,-3.6053886 h -6.3112 c -1.98967,0 -3.60539,1.6157216 -3.60539,3.6053886 v 1.802694 h 13.52197"
       style="fill:#ffffff;fill-opacity:1;fill-rule:nonzero;stroke:none;stroke-width:0.0352778"
       id="path4232" />
    <path
       d="m 26.443477,-15.94597 c 0,-1.739194 -1.41464,-3.153833 -3.15737,-3.153833 -1.74272,0 -3.15383,1.414639 -3.15383,3.153833 0,1.742723 1.41111,3.157361 3.15383,3.157361 1.74273,0 3.15737,-1.414638 3.15737,-3.157361"
       style="fill:#ffffff;fill-opacity:1;fill-rule:nonzero;stroke:none;stroke-width:0.0352778"
       id="path4234" />
    <path
       d="m 39.662057,-21.872636 c 0,3.192639 -2.58939,5.782027 -5.78556,5.782027 -3.19264,0 -5.78202,-2.589388 -5.78202,-5.782027 0,-3.192639 2.58938,-5.782028 5.78202,-5.782028 3.19617,0 5.78556,2.589389 5.78556,5.782028"
       style="fill:#ff5931;fill-opacity:1;fill-rule:nonzero;stroke:none;stroke-width:0.0352778"
       id="path4236" />
    <path
       d="m 86.863717,95.782278 c 0,1.065385 0.80434,1.926165 1.79917,1.926165 h 3.48192 v 7.228417 l 8.533693,-7.228417 h 17.51189 c 0.99483,0 1.79917,-0.86078 1.79917,-1.926165 V 73.910056 c 0,-1.065389 -0.80434,-1.926167 -1.79917,-1.926167 H 88.662887 c -0.99483,0 -1.79917,0.860778 -1.79917,1.926167 v 21.872222"
       style="fill:#ff5931;fill-opacity:1;fill-rule:nonzero;stroke:none;stroke-width:0.0352778"
       id="path4238" />
    <path
       d="m 109.61083,84.743861 -4.83305,2.794 -4.833063,2.786945 V 79.166445 l 4.833063,2.786944 4.83305,2.790472"
       style="fill:#ffffff;fill-opacity:1;fill-rule:nonzero;stroke:none;stroke-width:0.0352778"
       id="path4240" />
    <path
       d="m 167.80153,6.4977516 c 0.007,-0.5715 -0.20461,-1.143 -0.64206,-1.583972 l -5.85964,-5.85611099 -1.40758,-1.41111101 -1.46403,-1.464028 c -0.15875,0.137583 -0.31397,0.275167 -0.46214,0.426861 -3.77119,3.76766701 -3.00566,10.639778 1.70392,15.3493614 0.26106,0.264583 0.53269,0.511528 0.80786,0.751417 0.29281,0.130527 0.61031,0.1905 0.92428,0.186972 l 6.39939,-6.3993894"
       style="fill:#2b83fd;fill-opacity:1;fill-rule:nonzero;stroke:none;stroke-width:0.0352778"
       id="path4242" />
    <path
       d="m 178.24375,6.0673626 -0.004,-0.01764 c -0.18697,-0.797278 -0.50447,-1.538111 -0.92428,-2.211916 l -0.0423,-0.07056 c -0.0882,-0.141111 -0.18697,-0.278695 -0.28575,-0.41275 -0.0317,-0.04233 -0.06,-0.08467 -0.0917,-0.123473 -0.0952,-0.127 -0.19403,-0.246944 -0.29986,-0.363361 -0.0388,-0.04939 -0.0847,-0.09525 -0.127,-0.141111 -0.10231,-0.109361 -0.20461,-0.218722 -0.31045,-0.321027 -0.0529,-0.04939 -0.1023,-0.09525 -0.15522,-0.141112 -0.10583,-0.09525 -0.21519,-0.194027 -0.32808,-0.28575 -0.0494,-0.04233 -0.10231,-0.07761 -0.1517,-0.112888 -0.19755,-0.151695 -0.40216,-0.292806 -0.61383,-0.426862 -0.0953,-0.05644 -0.1905,-0.119944 -0.28928,-0.172861 -0.0917,-0.05292 -0.18697,-0.09525 -0.27869,-0.141111 -0.10936,-0.05644 -0.21872,-0.109361 -0.33161,-0.15874999 -0.0917,-0.04233 -0.18345,-0.07761 -0.2787,-0.116416 -0.11994,-0.04586 -0.23989,-0.09172 -0.36336,-0.130528 -0.0917,-0.03175 -0.18344,-0.05997 -0.27869,-0.08819 -0.13053,-0.0388 -0.26459,-0.07056 -0.39864,-0.102306 -0.0917,-0.02117 -0.17992,-0.04233 -0.26811,-0.05997 -0.1517,-0.02822 -0.30339,-0.04939 -0.45861,-0.07056 -0.0776,-0.0071 -0.15523,-0.02117 -0.23284,-0.02822 -0.23283,-0.02469 -0.46919,-0.03528 -0.70908,-0.03528 -0.19756,0 -0.39158,0.01058 -0.58561,0.02822 -3.52778,0.275167 -6.35706,3.01624999 -6.77334,6.50169499 -0.26105,-0.927806 -1.11125,-1.612195 -2.12019,-1.612195 h -8.28675 -1.99319 -2.07081 c -0.0141,0.211667 -0.0282,0.419806 -0.0282,0.631472 0,5.3269454 5.40103,9.6484734 12.06147,9.6484734 0.37394,0 0.73731,-0.01411 1.10067,-0.04233 0.58208,-0.22225 1.04069,-0.687916 1.26647,-1.27 0.007,2.836334 0.0141,5.510389 0.0141,5.510389 0.91017,0.201084 1.72861,0.310445 2.69875,0.310445 0.40569,0 0.80433,-0.02117 1.19944,-0.05645 0.13053,-0.01411 0.26106,-0.03528 0.39159,-0.04939 0.26105,-0.03175 0.51858,-0.0635 0.77258,-0.112889 0.1517,-0.02469 0.30339,-0.0635 0.45508,-0.09525 0.22578,-0.04939 0.45156,-0.102305 0.67028,-0.162277 0.15875,-0.04233 0.31397,-0.09172 0.47272,-0.141111 0.20462,-0.06703 0.40923,-0.134056 0.61031,-0.208139 0.15875,-0.05997 0.31044,-0.123473 0.46567,-0.186973 0.19402,-0.08114 0.381,-0.165805 0.56797,-0.254 0.15522,-0.07408 0.30692,-0.148166 0.45508,-0.229305 0.17639,-0.09172 0.35278,-0.194028 0.52211,-0.296333 0.14817,-0.0882 0.29634,-0.172862 0.44098,-0.264584 0.1658,-0.105833 0.32455,-0.22225 0.47977,-0.338666 0.14111,-0.09878 0.28223,-0.194028 0.41628,-0.299862 0.15522,-0.119944 0.29633,-0.250472 0.4445,-0.377472 0.13053,-0.112889 0.26106,-0.218722 0.38453,-0.331611 0.25047,-0.236361 0.48683,-0.479778 0.71614,-0.737305 0.127,-0.141111 0.24694,-0.296334 0.37041,-0.448028 0.10231,-0.127 0.20462,-0.250472 0.30339,-0.381 0.11642,-0.15875 0.22225,-0.324556 0.33161,-0.486833 0.0882,-0.134056 0.17639,-0.264584 0.25753,-0.402167 0.10584,-0.165806 0.19756,-0.342195 0.29281,-0.515056 0.0705,-0.141111 0.14816,-0.278694 0.21519,-0.419805 0.0847,-0.179917 0.16581,-0.363361 0.23989,-0.546806 0.0635,-0.144639 0.11995,-0.292805 0.17286,-0.440972 0.0706,-0.186972 0.13406,-0.373944 0.1905,-0.564444 0.0459,-0.155223 0.0882,-0.310445 0.13053,-0.465667 0.0494,-0.194028 0.0953,-0.384528 0.13406,-0.582083 0.0106,-0.04586 0.0247,-0.09172 0.0318,-0.137584 v -0.05997 c 0.11288,-0.6244174 0.18344,-1.2558894 0.18344,-1.9050004 0,-0.850194 -0.34925,-2.4765 -0.381,-2.4765"
       style="fill:#4e99ff;fill-opacity:1;fill-rule:nonzero;stroke:none;stroke-width:0.0352778"
       id="path4244" />
    <path
       d="m 166.03411,20.104391 c -0.127,0 -0.254,-0.0035 -0.37747,-0.0035 l -0.14817,-0.0035 c -0.1023,-0.0035 -0.20814,-0.0035 -0.31397,-0.01058 -0.254,-0.01411 -0.508,-0.04233 -0.75847,-0.07408 l -0.11642,-0.01058 c -0.0882,-0.0071 -0.17639,-0.01764 -0.26458,-0.02822 -0.39864,-0.05997 -0.7867,-0.134056 -1.15006,-0.22225 -0.87489,-0.208139 -1.62278,-0.483306 -2.50119,-0.913695 l 0.7373,-1.513416 c 0.76553,0.370416 1.41111,0.606778 2.159,0.790222 0.31398,0.07408 0.64911,0.137583 0.99836,0.1905 0.0635,0.0071 0.12348,0.01411 0.18345,0.01764 l 0.14817,0.01764 c 0.22577,0.02469 0.4445,0.04939 0.66675,0.0635 0.0776,0.0035 0.15875,0.0071 0.23636,0.0071 l 0.15875,0.0035 c 0.18697,0.0035 0.38452,0.0035 0.58208,0 0.12347,-0.0035 0.24342,-0.01411 0.37042,-0.02469 l 0.1023,0.839611 0.0635,0.839611 c -0.1905,0.01411 -0.33514,0.02469 -0.4833,0.02822 -0.0953,0.0035 -0.19403,0.0071 -0.29281,0.0071"
       style="fill:#4e99ff;fill-opacity:1;fill-rule:nonzero;stroke:none;stroke-width:0.0352778"
       id="path4246" />
    <path
       d="m 174.43022,5.4641126 h 6.97795"
       style="fill:#4e99ff;fill-opacity:1;fill-rule:nonzero;stroke:none;stroke-width:0.0352778"
       id="path4248" />
    <path
       d="m 181.40817,6.0250296 h -6.97795 v -1.121834 h 6.97795 v 1.121834"
       style="fill:#4e99ff;fill-opacity:1;fill-rule:nonzero;stroke:none;stroke-width:0.0352778"
       id="path4250" />
    <path
       d="m 174.43022,5.1501406 6.55814,-2.144889"
       style="fill:#4e99ff;fill-opacity:1;fill-rule:nonzero;stroke:none;stroke-width:0.0352778"
       id="path4252" />
    <path
       d="m 174.60308,5.6828346 -0.34925,-1.065389 6.55814,-2.148416 0.34925,1.068917 -6.55814,2.144888"
       style="fill:#4e99ff;fill-opacity:1;fill-rule:nonzero;stroke:none;stroke-width:0.0352778"
       id="path4254" />
    <path
       d="m 170.06989,18.926113 c -0.0494,-0.363361 -0.0776,-0.73025 -0.0776,-1.100667 0,-4.392083 3.54189,-8.0115834 8.05039,-8.4208054 -0.0282,0.338667 -0.0776,0.6879174 -0.14817,1.0583334 l -0.0141,0.07761 v 0.03528 l -0.0176,0.07761 c -0.0423,0.186972 -0.0882,0.370417 -0.13758,0.553861 -0.0423,0.148167 -0.0811,0.296334 -0.127,0.440972 -0.06,0.186973 -0.12348,0.366889 -0.1905,0.543278 -0.0565,0.141111 -0.11289,0.282222 -0.17639,0.419806 -0.0776,0.179916 -0.15875,0.352778 -0.24342,0.525639 -0.06,0.123472 -0.13053,0.243416 -0.20108,0.370416 l -0.0176,0.03175 c -0.0917,0.162278 -0.18697,0.328084 -0.28928,0.490361 -0.067,0.105834 -0.13405,0.201084 -0.20108,0.299862 l -0.11289,0.155222 c -0.0917,0.134055 -0.18345,0.264583 -0.2787,0.395111 -0.0741,0.09172 -0.15169,0.179917 -0.22577,0.264583 l -0.19403,0.225778 c -0.0847,0.105833 -0.16933,0.208139 -0.26458,0.306917 -0.23284,0.246944 -0.47625,0.486833 -0.71967,0.705555 -0.0741,0.06703 -0.1517,0.127 -0.23283,0.1905 -0.0529,0.04233 -0.2787,0.229306 -0.2787,0.229306 -0.10583,0.08819 -0.21167,0.176389 -0.32455,0.261055 -0.10231,0.07761 -0.20462,0.144639 -0.30692,0.211667 l -0.11995,0.08114 c -0.17286,0.119944 -0.32808,0.225778 -0.48683,0.324555 -0.11994,0.07408 -0.24342,0.144639 -0.36689,0.211667 l -0.0776,0.04586 c -0.17639,0.09878 -0.35278,0.194028 -0.53269,0.28575 -0.1517,0.07761 -0.30339,0.148167 -0.46214,0.218722 -0.18697,0.08467 -0.37747,0.165806 -0.57503,0.243417 -0.15522,0.0635 -0.3175,0.123472 -0.47625,0.183444 -0.0564,0.02117 -0.11642,0.03881 -0.17286,0.05645"
       style="fill:#2b83fd;fill-opacity:1;fill-rule:nonzero;stroke:none;stroke-width:0.0352778"
       id="path4256" />
    <path
       d="m 174.43022,5.4641126 c 0,0.5715 -0.46566,1.033639 -1.03716,1.033639 -0.5715,0 -1.03364,-0.462139 -1.03364,-1.033639 0,-0.5715 0.46214,-1.033639 1.03364,-1.033639 0.5715,0 1.03716,0.462139 1.03716,1.033639"
       style="fill:#ffffff;fill-opacity:1;fill-rule:nonzero;stroke:none;stroke-width:0.0352778"
       id="path4258" />
    <path
       d="m 55.106667,43.380668 c -1.51694,0 -2.74461,-1.231195 -2.74461,-2.748139 V 16.841196 c 0,-1.513416 1.22767,-2.744611 2.74461,-2.744611 h 34.7733 c 1.51342,0 2.74462,1.231195 2.74462,2.744611 v 23.791333 c 0,1.516944 -1.2312,2.748139 -2.74462,2.748139 h -34.7733"
       style="fill:#ffbf0d;fill-opacity:1;fill-rule:nonzero;stroke:none;stroke-width:0.0352778"
       id="path4868" />
    <path
       d="m 55.106667,43.380668 c -1.51694,0 -2.74461,-1.231195 -2.74461,-2.748139 V 16.841196 c 0,-1.513416 1.22767,-2.744611 2.74461,-2.744611 h 34.7733 c 1.51342,0 2.74462,1.231195 2.74462,2.744611 v 23.791333 c 0,1.516944 -1.2312,2.748139 -2.74462,2.748139 h -34.7733"
       style="fill:#ffbf0d;fill-opacity:1;fill-rule:nonzero;stroke:none;stroke-width:0.0352778"
       id="path4870" />
    <path
       d="m 89.879967,14.096585 h -34.7733 c -1.51694,0 -2.74461,1.231195 -2.74461,2.744611 v 1.439334 l 31.94403,25.100138 h 5.57388 c 1.51342,0 2.74462,-1.231195 2.74462,-2.748139 V 16.841196 c 0,-1.513416 -1.2312,-2.744611 -2.74462,-2.744611"
       style="fill:#f3aa06;fill-opacity:1;fill-rule:nonzero;stroke:none;stroke-width:0.0352778"
       id="path4872" />
    <path
       d="m 72.491557,32.398696 20.13303,-14.005278 v -1.552222 c 0,-1.513416 -1.2312,-2.744611 -2.74462,-2.744611 h -34.7733 c -1.51694,0 -2.74461,1.231195 -2.74461,2.744611 v 1.552222 l 20.1295,14.005278"
       style="fill:#fece40;fill-opacity:1;fill-rule:nonzero;stroke:none;stroke-width:0.0352778"
       id="path4874" />
    <path
       d="m 267.65528,123.28836 c 0,1.07951 -0.87489,1.95087 -1.94734,1.95087 h -52.5145 c -1.0795,0 -1.95086,-0.87136 -1.95086,-1.95087 v -14.6297 c 0,-1.0795 0.87136,-1.95086 1.95086,-1.95086 h 52.5145 c 1.07245,0 1.94734,0.87136 1.94734,1.95086 v 14.6297"
       style="fill:#4e99ff;fill-opacity:1;fill-rule:nonzero;stroke:none;stroke-width:0.0352778"
       id="path4876" />
    <path
       d="m 226.52492,129.64895 -5.05884,-5.05883 5.05884,-5.05885 5.05883,5.05885 -5.05883,5.05883"
       style="fill:#4e99ff;fill-opacity:1;fill-rule:nonzero;stroke:none;stroke-width:0.0352778"
       id="path4878" />
    <path
       d="m 224.26361,119.76764 c 0,0 0,-0.32103 0,-0.48684 0,-1.61572 -1.30881,-2.92805 -2.92806,-2.92805 -0.53269,0 -2.39183,0 -2.92452,0 -1.61573,0 -2.92806,1.31233 -2.92806,2.92805 0,0.16581 0,0.48684 0,0.48684 h 8.78064"
       style="fill:#ffffff;fill-opacity:1;fill-rule:nonzero;stroke:none;stroke-width:0.0352778"
       id="path4880" />
    <path
       d="m 221.82592,112.93786 c 0,1.0795 -0.87489,1.95439 -1.95439,1.95439 -1.07598,0 -1.95086,-0.87489 -1.95086,-1.95439 0,-1.07597 0.87488,-1.94734 1.95086,-1.94734 1.0795,0 1.95439,0.87137 1.95439,1.94734"
       style="fill:#ffffff;fill-opacity:1;fill-rule:nonzero;stroke:none;stroke-width:0.0352778"
       id="path4882" />
    <path
       d="m 226.52492,119.54891 c 0,1.43934 -1.16417,2.6035 -2.6035,2.6035 -1.43581,0 -2.59998,-1.16416 -2.59998,-2.6035 0,-1.4358 1.16417,-2.59997 2.59998,-2.59997 1.43933,0 2.6035,1.16417 2.6035,2.59997"
       style="fill:#ff5931;fill-opacity:1;fill-rule:nonzero;stroke:none;stroke-width:0.0352778"
       id="path4884" />
    <path
       d="m 262.36714,105.31433 c -0.55739,-0.55739 -1.4605,-0.55739 -2.01789,0 l -0.33514,0.33514 -0.33514,-0.33514 c -0.55739,-0.55739 -1.45697,-0.55739 -2.01436,0 -0.55739,0.55739 -0.55739,1.45697 0,2.01436 l 0.33514,0.33514 2.01436,2.01436 2.01436,-2.01436 0.33867,-0.33514 c 0.55386,-0.55739 0.55386,-1.4605 0,-2.01436"
       style="fill:#ff5931;fill-opacity:1;fill-rule:nonzero;stroke:none;stroke-width:0.0352778"
       id="path4886" />
    <path
       d="m 258.93814,113.11777 h -3.78531 c 0.18697,-0.42333 0.40217,-0.9525 0.45509,-1.22061 0.0529,-0.27164 0,-0.92427 0,-0.92427 0,-0.49037 -0.39864,-0.889 -0.889,-0.889 h -0.4445 v 1.3723 c 0,0 -1.55575,1.80975 -1.55575,2.55058 v 4.33212 c 0,0.49036 0.40216,0.88547 0.889,0.88547 h 3.1115 c 0.49036,0 1.03011,-0.39511 1.21002,-0.88547 l 1.57339,-4.33212 c 0.17992,-0.49036 -0.0741,-0.889 -0.56444,-0.889"
       style="fill:#ffffff;fill-opacity:1;fill-rule:nonzero;stroke:none;stroke-width:0.0352778"
       id="path4888" />
    <path
       d="m 253.27605,118.6705 h -1.18533 v -4.84717 h 1.18533 v 4.84717"
       style="fill:#ffffff;fill-opacity:1;fill-rule:nonzero;stroke:none;stroke-width:0.0352778"
       id="path4890" />
    <path
       d="m 249.10622,119.22436 h 2.10961 v -6.10659 h -2.10961 v 6.10659"
       style="fill:#ffffff;fill-opacity:1;fill-rule:nonzero;stroke:none;stroke-width:0.0352778"
       id="path4892" />
    <path
       d="m 240.78419,113.41411 h -7.24252 v -0.55739 h 7.24252 z m 0,1.38994 h -7.24252 v -0.55739 h 7.24252 z m 0,1.39347 h -7.24252 v -0.55738 h 7.24252 z m 0.83609,-5.84905 h -8.91117 c -0.46214,0 -0.83608,0.37394 -0.83608,0.83608 v 6.96031 c 0,0.46214 0.37394,0.83961 0.83608,0.83961 h 0.55386 v 1.94733 l 1.95086,-1.94733 h 6.40645 c 0.45861,0 0.83608,-0.37747 0.83608,-0.83961 v -6.96031 c 0,-0.46214 -0.37747,-0.83608 -0.83608,-0.83608"
       style="fill:#ffffff;fill-opacity:1;fill-rule:nonzero;stroke:none;stroke-width:0.0352778"
       id="path4894" />
    <path
       d="m 276.14311,171.30142 c 0,10.14236 -8.21972,18.36209 -18.36208,18.36209 -10.13884,0 -18.35856,-8.21973 -18.35856,-18.36209 0,-10.13883 8.21972,-18.35855 18.35856,-18.35855 10.14236,0 18.36208,8.21972 18.36208,18.35855"
       style="fill:#ff3d0d;fill-opacity:1;fill-rule:nonzero;stroke:none;stroke-width:0.0352778"
       id="path4896" />
    <path
       d="m 264.74486,166.33431 c -1.64747,-1.64747 -4.32153,-1.64747 -5.969,0 l -0.99483,0.99483 -0.99131,-0.99483 c -1.64747,-1.64747 -4.32153,-1.64747 -5.97253,0 -1.64394,1.64747 -1.64394,4.318 0,5.96195 l 1.00189,0.99836 5.96195,5.96194 5.96547,-5.96194 0.99836,-0.99836 c 1.64394,-1.64748 1.64394,-4.318 0,-5.96195"
       style="fill:#ffffff;fill-opacity:1;fill-rule:nonzero;stroke:none;stroke-width:0.0352778"
       id="path4898" />
    <path
       d="m -4.3751917,-31.175386 c 0,5.069417 -4.10986,9.179278 -9.1792803,9.179278 -5.07294,0 -9.1828,-4.109861 -9.1828,-9.179278 0,-5.069417 4.10986,-9.179278 9.1828,-9.179278 5.0694203,0 9.1792803,4.109861 9.1792803,9.179278"
       style="fill:#0095ef;fill-opacity:1;fill-rule:nonzero;stroke:none;stroke-width:0.0352778"
       id="path4900" />
    <path
       d="m -9.4622517,-33.249719 h -3.2349703 c 0.15875,-0.363361 0.34572,-0.814917 0.38806,-1.044222 0.0459,-0.232834 0,-0.790223 0,-0.790223 0,-0.419805 -0.33867,-0.762 -0.75847,-0.762 h -0.381 v 1.17475 c 0,0 -1.32645,1.548695 -1.32645,2.176639 v 3.700639 c 0,0.416278 0.3422,0.758472 0.762,0.758472 h 2.65289 c 0.41981,0 0.88194,-0.342194 1.03364,-0.758472 l 1.3476103,-3.700639 c 0.15169,-0.416278 -0.0635,-0.754944 -0.48331,-0.754944"
       style="fill:#ffffff;fill-opacity:1;fill-rule:nonzero;stroke:none;stroke-width:0.0352778"
       id="path4902" />
    <path
       d="m -14.298832,-28.511914 h -1.01247 v -4.138083 h 1.01247 v 4.138083"
       style="fill:#ffffff;fill-opacity:1;fill-rule:nonzero;stroke:none;stroke-width:0.0352778"
       id="path4904" />
    <path
       d="m -18.278162,-28.035664 h 1.80269 v -5.214055 h -1.80269 v 5.214055"
       style="fill:#ffffff;fill-opacity:1;fill-rule:nonzero;stroke:none;stroke-width:0.0352778"
       id="path4906" />
    <path
       d="m 298.62916,142.49712 c 0,4.70958 -3.81705,8.52664 -8.52663,8.52664 -4.70606,0 -8.52312,-3.81706 -8.52312,-8.52664 0,-4.70606 3.81706,-8.52311 8.52312,-8.52311 4.70958,0 8.52663,3.81705 8.52663,8.52311"
       style="fill:#f9d05e;fill-opacity:1;fill-rule:nonzero;stroke:none;stroke-width:0.0352778"
       id="path4908" />
    <path
       d="m 297.91655,139.08928 c 0.11289,0.55387 0.16934,1.12889 0.16934,1.71803 0,4.81895 -3.90525,8.72772 -8.72773,8.72772 -2.8963,0 -5.461,-1.41111 -7.0485,-3.58775 1.32292,2.98803 4.31448,5.07648 7.79287,5.07648 4.70958,0 8.52663,-3.81706 8.52663,-8.52664 0,-1.21003 -0.25752,-2.36361 -0.71261,-3.40784"
       style="fill:#f4c249;fill-opacity:1;fill-rule:nonzero;stroke:none;stroke-width:0.0352778"
       id="path4910" />
    <path
       d="m 286.4548,146.49409 c 1.05834,0.65969 2.30717,1.02658 3.61598,1.02658 0.58561,0 1.17827,-0.0741 1.77094,-0.22578 1.92264,-0.49741 3.45017,-1.73566 4.32858,-3.31258 l -0.53269,-0.29633 c -0.79728,1.43228 -2.19075,2.56469 -3.94758,3.01978 -0.54328,0.14111 -1.08656,0.20813 -1.61925,0.20813 -1.19239,0 -2.33187,-0.33513 -3.29495,-0.93486 l -0.32103,0.51506"
       style="fill:#2f3844;fill-opacity:1;fill-rule:nonzero;stroke:none;stroke-width:0.0352778"
       id="path4912" />
    <path
       d="m 288.41272,140.93078 c 0,0.71261 -0.57503,1.28764 -1.28764,1.28764 -0.70908,0 -1.28411,-0.57503 -1.28411,-1.28764 0,-0.70908 0.57503,-1.28411 1.28411,-1.28411 0.71261,0 1.28764,0.57503 1.28764,1.28411"
       style="fill:#2f3844;fill-opacity:1;fill-rule:nonzero;stroke:none;stroke-width:0.0352778"
       id="path4914" />
    <path
       d="m 294.88619,139.85481 -2.32128,0.75495 c -0.12347,0.0423 -0.20813,0.15522 -0.21166,0.28927 0,0.13053 0.0847,0.24695 0.20814,0.28928 l 2.37066,0.79728 c 0.15875,0.0564 0.33161,-0.0317 0.38453,-0.1905 0.0529,-0.15875 -0.0318,-0.33161 -0.1905,-0.38453 l -1.4993,-0.50447 1.44991,-0.4692 c 0.15875,-0.0529 0.24695,-0.22577 0.19403,-0.38452 -0.0529,-0.15875 -0.22225,-0.24695 -0.38453,-0.19403"
       style="fill:#2f3844;fill-opacity:1;fill-rule:nonzero;stroke:none;stroke-width:0.0352778"
       id="path4916" />
  </g>
</svg>
