<?xml version="1.0" encoding="UTF-8" standalone="no"?>
<svg
   version="1.1"
   id="svg2"
   xml:space="preserve"
   width="422.14401"
   height="379.52478"
   viewBox="0 0 422.14401 379.52478"
   sodipodi:docname="facebook-groups-monitor6.svg"
   inkscape:version="1.1.1 (c3084ef, 2021-09-22)"
   xmlns:inkscape="http://www.inkscape.org/namespaces/inkscape"
   xmlns:sodipodi="http://sodipodi.sourceforge.net/DTD/sodipodi-0.dtd"
   xmlns="http://www.w3.org/2000/svg"
   xmlns:svg="http://www.w3.org/2000/svg"
   xmlns:rdf="http://www.w3.org/1999/02/22-rdf-syntax-ns#"
   xmlns:cc="http://creativecommons.org/ns#"
   xmlns:dc="http://purl.org/dc/elements/1.1/"><metadata
     id="metadata8"><rdf:RDF><cc:Work
         rdf:about=""><dc:format>image/svg+xml</dc:format><dc:type
           rdf:resource="http://purl.org/dc/dcmitype/StillImage" /></cc:Work></rdf:RDF></metadata><defs
     id="defs6"><clipPath
       clipPathUnits="userSpaceOnUse"
       id="clipPath22"><path
         d="M 4760,162.051 H 141.66 c 0,147.558 0,295.121 0,442.699 0,702.04 0,1404.09 0,2106.14 0,134.14 0,268.29 0,402.44 149.5,0 299.008,0 448.508,0 1237.482,0 2474.972,0 3712.452,0 152.44,0 304.9,0 457.38,0 V 162.051 M 268.949,2952.05 V 327.949 H 4631.05 V 2952.05 H 268.949"
         id="path20" /></clipPath><clipPath
       clipPathUnits="userSpaceOnUse"
       id="clipPath290"><path
         d="m 3007.41,1483.31 c 2.92,11.79 4.25,21.33 4.6,23.96 h 0.01 c -0.34,-2.63 -1.68,-12.17 -4.61,-23.96"
         id="path288" /></clipPath><clipPath
       clipPathUnits="userSpaceOnUse"
       id="clipPath590"><path
         d="m 5821.79,2464.91 -6.37,10.83 v 0 l 6.37,-10.83 v 0"
         id="path588" /></clipPath><radialGradient
       fx="0"
       fy="0"
       cx="0"
       cy="0"
       r="1"
       gradientUnits="userSpaceOnUse"
       gradientTransform="matrix(2505.86,-3427.34,-3273.3,-2393.23,3851.05,4589.72)"
       spreadMethod="pad"
       id="radialGradient596"><stop
         style="stop-opacity:1;stop-color:#5b94d5"
         offset="0"
         id="stop592" /><stop
         style="stop-opacity:1;stop-color:#4e78c5"
         offset="1"
         id="stop594" /></radialGradient><clipPath
       clipPathUnits="userSpaceOnUse"
       id="clipPath608"><path
         d="m 5815.42,2475.74 -6.73,11.43 v 0 l 6.73,-11.43 v 0"
         id="path606" /></clipPath><radialGradient
       fx="0"
       fy="0"
       cx="0"
       cy="0"
       r="1"
       gradientUnits="userSpaceOnUse"
       gradientTransform="matrix(2505.86,-3427.34,-3273.3,-2393.23,3851.05,4589.72)"
       spreadMethod="pad"
       id="radialGradient614"><stop
         style="stop-opacity:1;stop-color:#325eb4"
         offset="0"
         id="stop610" /><stop
         style="stop-opacity:1;stop-color:#3152ab"
         offset="1"
         id="stop612" /></radialGradient><clipPath
       clipPathUnits="userSpaceOnUse"
       id="clipPath694"><path
         d="m 5900.82,2838.99 c 0.11,3.08 0.18,6.21 0.22,9.31 22.44,83.84 16.7,173.58 -17.12,254.32 1.01,-1.52 2.01,-3.04 3,-4.58 18.93,-46.08 29.36,-96.52 29.36,-149.39 0,-0.64 0,-1.27 0,-1.91 -0.18,-37.39 -5.56,-73.53 -15.46,-107.75"
         id="path692" /></clipPath><radialGradient
       fx="0"
       fy="0"
       cx="0"
       cy="0"
       r="1"
       gradientUnits="userSpaceOnUse"
       gradientTransform="matrix(2505.86,-3427.34,-3273.3,-2393.23,3851.05,4589.72)"
       spreadMethod="pad"
       id="radialGradient700"><stop
         style="stop-opacity:1;stop-color:#99c6d3"
         offset="0"
         id="stop696" /><stop
         style="stop-opacity:1;stop-color:#88bbd5"
         offset="1"
         id="stop698" /></radialGradient><clipPath
       clipPathUnits="userSpaceOnUse"
       id="clipPath844"><path
         d="m 6438.6,1334.18 v 0 l -109.23,68.25 c -2.34,1.89 -4.59,3.87 -6.71,5.91 2.12,-2.04 4.37,-4.02 6.71,-5.91 l 109.23,-68.25 m -116,74.21 c -0.01,0.01 -0.02,0.02 -0.03,0.03 0.01,-0.01 0.02,-0.02 0.03,-0.03"
         id="path842" /></clipPath><linearGradient
       x1="0"
       y1="0"
       x2="1"
       y2="0"
       gradientUnits="userSpaceOnUse"
       gradientTransform="matrix(0,-4414.09,-4414.09,0,4000,5308.98)"
       spreadMethod="pad"
       id="linearGradient850"><stop
         style="stop-opacity:1;stop-color:#fabf9d"
         offset="0"
         id="stop846" /><stop
         style="stop-opacity:1;stop-color:#d2b5a0"
         offset="1"
         id="stop848" /></linearGradient><clipPath
       clipPathUnits="userSpaceOnUse"
       id="clipPath860"><path
         d="m 6358.4,1531.95 -0.82,16.09 c 0,0 0.02,0 0.02,0.01 l 0.83,-16.1 c -0.01,0 -0.02,0 -0.03,0"
         id="path858" /></clipPath><radialGradient
       fx="0"
       fy="0"
       cx="0"
       cy="0"
       r="1"
       gradientUnits="userSpaceOnUse"
       gradientTransform="matrix(2505.86,-3427.34,-3273.3,-2393.23,3851.05,4589.72)"
       spreadMethod="pad"
       id="radialGradient866"><stop
         style="stop-opacity:1;stop-color:#f4b99b"
         offset="0"
         id="stop862" /><stop
         style="stop-opacity:1;stop-color:#a1a0a2"
         offset="1"
         id="stop864" /></radialGradient><clipPath
       clipPathUnits="userSpaceOnUse"
       id="clipPath880"><path
         d="m 6168.15,1197.84 c -0.11,2.29 -0.09,4.83 0.05,7.66 l -10.18,225.56 h 0.61 l 16.23,-224.95 c -0.06,-1.31 -0.12,-2.57 -0.17,-3.77 -2.27,-1.41 -4.47,-2.93 -6.54,-4.5"
         id="path878" /></clipPath><clipPath
       clipPathUnits="userSpaceOnUse"
       id="clipPath896"><path
         d="m 6158.63,1431.06 h -0.61 l -1.01,22.46 v 0 l 1.62,-22.46 m -0.92,29.1 c -0.84,12.53 -2.13,36.69 -2.91,75.08 v 0 c 0.79,-38.3 2.08,-62.44 2.92,-74.97 0,-0.04 -0.01,-0.07 -0.01,-0.11 m 64.91,69.99 0.32,2.28 c 1.35,0.03 2.69,0.06 4.04,0.1 -1.46,-0.94 -2.91,-1.74 -4.36,-2.38"
         id="path894" /></clipPath><radialGradient
       fx="0"
       fy="0"
       cx="0"
       cy="0"
       r="1"
       gradientUnits="userSpaceOnUse"
       gradientTransform="matrix(2505.86,-3427.34,-3273.3,-2393.23,3851.05,4589.72)"
       spreadMethod="pad"
       id="radialGradient902"><stop
         style="stop-opacity:1;stop-color:#f4b99b"
         offset="0"
         id="stop898" /><stop
         style="stop-opacity:1;stop-color:#a1a0a2"
         offset="1"
         id="stop900" /></radialGradient><clipPath
       clipPathUnits="userSpaceOnUse"
       id="clipPath920"><path
         d="m 6357.6,1548.05 v 0 c 19.97,5.4 32,11.93 29.9,19.23 2.1,-7.3 -9.92,-13.84 -29.9,-19.23"
         id="path918" /></clipPath><radialGradient
       fx="0"
       fy="0"
       cx="0"
       cy="0"
       r="1"
       gradientUnits="userSpaceOnUse"
       gradientTransform="matrix(2505.86,-3427.34,-3273.3,-2393.23,3851.05,4589.72)"
       spreadMethod="pad"
       id="radialGradient926"><stop
         style="stop-opacity:1;stop-color:#b2cae6"
         offset="0"
         id="stop922" /><stop
         style="stop-opacity:1;stop-color:#7fa8de"
         offset="1"
         id="stop924" /></radialGradient><clipPath
       clipPathUnits="userSpaceOnUse"
       id="clipPath936"><path
         d="m 6357.58,1548.04 v 0 c 0,0 0.01,0.01 0.02,0.01 v 0 c 0,-0.01 -0.02,-0.01 -0.02,-0.01"
         id="path934" /></clipPath><radialGradient
       fx="0"
       fy="0"
       cx="0"
       cy="0"
       r="1"
       gradientUnits="userSpaceOnUse"
       gradientTransform="matrix(2505.86,-3427.34,-3273.3,-2393.23,3851.05,4589.72)"
       spreadMethod="pad"
       id="radialGradient942"><stop
         style="stop-opacity:1;stop-color:#a9978e"
         offset="0"
         id="stop938" /><stop
         style="stop-opacity:1;stop-color:#6f8196"
         offset="1"
         id="stop940" /></radialGradient><clipPath
       clipPathUnits="userSpaceOnUse"
       id="clipPath992"><path
         d="m 6120.89,1127.16 c -8.63,0 -17.01,1.76 -24.74,5.12 l -0.06,-0.7 v 0 c 0.03,6.03 2.43,10.15 6.53,13.77 29.8,3.37 69.81,6.26 120.48,7.89 0.17,-1.92 0.25,-3.42 0.25,-4.36 v 0 c -0.02,0.79 -0.11,2.09 -0.22,3.64 -8.23,-8.17 -14.09,-16.32 -25.65,-18.62 -10.5,-2.13 -25.23,-2.85 -35.8,-4.81 -5.14,-1.03 -10.37,-1.28 -15.62,-1.28 -2.44,0 -4.89,0.06 -7.34,0.11 -0.27,-0.13 -11.18,-0.44 -13.25,-0.6 -1.53,-0.11 -3.06,-0.16 -4.58,-0.16"
         id="path990" /></clipPath><linearGradient
       x1="0"
       y1="0"
       x2="1"
       y2="0"
       gradientUnits="userSpaceOnUse"
       gradientTransform="matrix(703.858,0,0,-703.858,6035.8,1134.73)"
       spreadMethod="pad"
       id="linearGradient998"><stop
         style="stop-opacity:1;stop-color:#708dd0"
         offset="0"
         id="stop994" /><stop
         style="stop-opacity:1;stop-color:#6280c9"
         offset="1"
         id="stop996" /></linearGradient><clipPath
       clipPathUnits="userSpaceOnUse"
       id="clipPath1008"><path
         d="m 6138.07,1119.72 c -21.18,0 -42.04,1.61 -41.98,11.86 v 0 l 0.06,0.7 c 7.73,-3.36 16.11,-5.12 24.74,-5.12 1.52,0 3.05,0.05 4.58,0.16 2.07,0.16 12.98,0.47 13.25,0.6 2.45,-0.05 4.9,-0.11 7.34,-0.11 5.25,0 10.48,0.25 15.62,1.28 10.57,1.96 25.3,2.68 35.8,4.81 11.56,2.3 17.42,10.45 25.65,18.62 0.11,-1.55 0.2,-2.85 0.22,-3.64 v 0 c -0.15,-20.3 -26.42,-28.97 -48.76,-28.97 -0.98,0 -1.95,0.02 -2.92,0.05 -1.9,0.07 -4,0.1 -6.26,0.1 -3.93,0 -8.33,-0.08 -12.97,-0.17 -4.64,-0.08 -9.52,-0.17 -14.37,-0.17"
         id="path1006" /></clipPath><linearGradient
       x1="0"
       y1="0"
       x2="1"
       y2="0"
       gradientUnits="userSpaceOnUse"
       gradientTransform="matrix(703.858,0,0,-703.858,6035.8,1134.73)"
       spreadMethod="pad"
       id="linearGradient1014"><stop
         style="stop-opacity:1;stop-color:#ffffff"
         offset="0"
         id="stop1010" /><stop
         style="stop-opacity:1;stop-color:#dbf0fb"
         offset="1"
         id="stop1012" /></linearGradient></defs><sodipodi:namedview
     pagecolor="#ffffff"
     bordercolor="#666666"
     borderopacity="1"
     objecttolerance="10"
     gridtolerance="10"
     guidetolerance="10"
     inkscape:pageopacity="0"
     inkscape:pageshadow="2"
     inkscape:window-width="1440"
     inkscape:window-height="793"
     id="namedview4"
     inkscape:pagecheckerboard="0"
     showgrid="false"
     inkscape:zoom="1.370772"
     inkscape:cx="184.93229"
     inkscape:cy="203.17018"
     inkscape:window-x="0"
     inkscape:window-y="25"
     inkscape:window-maximized="1"
     inkscape:current-layer="g10" /><g
     id="g10"
     inkscape:groupmode="layer"
     inkscape:label="ink_ext_XXXXXX"
     transform="matrix(1.3333333,0,0,-1.3333333,-218.94265,410.61906)"><path
       d="m 399.2366,104.1767 c -9.8856,0 -19.3608,1.758 -28.1292,4.9788 26.6532,27.492 35.2716,69.528 18.492,106.5096 -7.5192,16.572 -19.1652,29.9772 -33.168,39.546 10.6932,6.6036 23.0256,10.8072 36.246,11.8596 -0.9168,-2.2716 -1.4208,-4.7532 -1.4208,-7.3536 0,-10.8624 8.8056,-19.668 19.668,-19.668 3.2916,0 6.3936,0.8076 9.1176,2.2368 4.6128,-2.196 9.6936,-3.3636 14.8656,-3.3636 4.7688,0 9.6144,0.9936 14.2404,3.0924 2.0736,0.9408 4.0092,2.0616 5.796,3.3336 15.9216,-14.8872 25.8708,-36.0768 25.8708,-59.5944 0,-20.5176 -7.5744,-39.264 -20.0784,-53.5992 0.1308,0.2484 0.2496,0.4872 0.3564,0.708 0.678,1.3956 1.4088,2.9532 1.5732,4.4916 0.15,1.4352 0.7584,3.684 0.4116,5.0928 -0.234,0.9624 -0.6468,1.7628 -1.1436,2.4876 -1.0536,1.5408 -2.4864,2.7444 -3.408,4.4604 -0.2448,0.4584 -1.2048,3.9948 -1.6008,4.0596 -0.4872,0.0852 -1.0752,0.198 -1.6836,0.2724 -0.0288,0.042 -0.0576,0.0816 -0.0852,0.1212 -0.432,0.0708 -0.8856,0.1236 -1.3224,0.1236 -0.7824,0 -1.5144,-0.1692 -1.9788,-0.7104 -0.2784,-0.3228 -0.4632,-0.7896 -0.5952,-1.326 -0.4524,-1.4652 -0.4032,-3.5592 -0.8388,-4.716 -0.3096,-0.8292 -1.1352,-1.4136 -1.4772,-2.1648 -1.3296,-2.9568 1.9524,-7.8228 2.952,-10.584 0.6516,-1.7964 1.1712,-5.0604 3.2268,-6.0252 0.4308,-0.2016 0.8448,-0.2916 1.2384,-0.2916 0.2592,-0.001 0.5112,0.0384 0.7536,0.1116 -14.7768,-14.8776 -35.2524,-24.0888 -57.8784,-24.0888 m 16.044,41.946 c -1.158,-1.7004 -3.0888,-1.4172 -5.0652,-4.0248 -0.6876,-3.624 -2.0868,-10.8 1.7652,-14.8272 4.4676,-4.2924 -3.402,-9.5736 -2.0112,-14.964 0.6216,-2.4132 3.0984,-1.926 5.6832,-2.1888 2.5128,-0.2568 5.406,-1.3596 8.0784,-1.3596 0.6636,0 1.314,0.0684 1.9416,0.234 4.7148,1.2468 1.6752,5.4228 0.678,9.2028 -0.8208,3.1032 -1.416,5.3904 -0.7404,8.7876 0.528,2.67 3.27,9.0564 5.028,9.0564 0.1848,0 0.3588,-0.0708 0.5184,-0.2244 0.3744,1.9596 -1.0656,6.534 -2.8584,7.7568 -0.708,0.4836 -1.47,0.5592 -2.2596,0.5592 -0.18,0 -0.3612,-0.004 -0.5436,-0.008 -0.1824,-0.004 -0.366,-0.007 -0.5508,-0.007 -0.8772,0 -1.7748,0.0876 -2.664,0.684 -1.584,1.0632 -2.2092,2.4636 -2.376,4.2312 0.002,0.004 0.005,0.007 0.007,0.012 -0.0144,0.1404 -0.0312,0.2772 -0.0396,0.4248 v 0 c -1.1724,-0.1836 -2.508,-0.3264 -3.696,-0.6624 -0.002,-0.018 -0.005,-0.036 -0.007,-0.054 -0.1668,-1.0944 -0.5208,-1.9248 -0.9936,-2.6016 0.036,-0.01 0.0708,-0.018 0.1056,-0.0264"
       style="fill:#e0e2ff;fill-opacity:1;fill-rule:nonzero;stroke:none;stroke-width:0.12"
       id="path50" /><path
       d="m 454.9442,245.3483 c -7.0716,6.6144 -15.3228,11.9844 -24.402,15.7596 -0.714,10.212 -9.222,18.276 -19.6176,18.276 -3.8304,0 -7.4052,-1.0944 -10.428,-2.988 1.0428,12.0168 8.364,23.136 20.1312,28.4748 4.626,2.1 9.4716,3.0936 14.2404,3.0936 13.1268,0 25.6716,-7.5288 31.4496,-20.2608 6.9348,-15.2856 1.8036,-32.9712 -11.3736,-42.3552"
       style="fill:#f4e0ea;fill-opacity:1;fill-rule:nonzero;stroke:none;stroke-width:0.12"
       id="path52" /><path
       d="m 434.9078,238.9223 c -5.172,0 -10.2528,1.1676 -14.8656,3.3636 6.2712,3.2868 10.548,9.8592 10.548,17.4312 0,0.468 -0.0156,0.9312 -0.048,1.3908 9.0792,-3.7752 17.3304,-9.1452 24.402,-15.7596 -1.7868,-1.272 -3.7224,-2.3928 -5.796,-3.3336 -4.626,-2.0988 -9.4716,-3.0924 -14.2404,-3.0924"
       style="fill:#decbea;fill-opacity:1;fill-rule:nonzero;stroke:none;stroke-width:0.12"
       id="path54" /><path
       d="m 302.2526,79.99682 c -16.1148,0 -31.9152,4.08 -45.9204,11.68188 2.9208,5.538 4.5756,11.8488 4.5756,18.546 0,21.984 -17.8188,39.8028 -39.7956,39.8028 -3.7776,0 -7.4304,-0.5256 -10.8924,-1.5084 -13.6008,45.3012 8.0484,94.8072 52.3152,114.8916 12.864,5.8368 26.34,8.6004 39.6024,8.6004 19.4196,0 38.3796,-5.9232 54.294,-16.8 -3.4092,-2.1048 -6.6516,-4.4556 -9.7032,-7.0236 -1.9272,0.9912 -4.1124,1.5516 -6.4296,1.5516 -7.77,0 -14.0688,-6.2988 -14.0688,-14.0676 0,-3.1452 1.032,-6.048 2.7756,-8.3916 -7.2084,-12.1644 -11.3448,-26.3604 -11.3448,-41.526 0,-3.0036 0.162,-5.9676 0.4776,-8.8872 -4.8228,-5.1528 -8.2068,-11.4408 -9.8976,-18.1896 -1.2192,0.96 -2.5536,1.7472 -3.8508,2.2464 -0.396,0.8604 -1.0128,1.5072 -1.9164,1.8336 -0.9204,0.3324 -1.8372,0.4896 -2.7204,0.4896 -4.2768,0 -7.8024,-3.6792 -7.4316,-8.9988 0.0588,-0.8328 0.1068,-1.5756 0.156,-2.2356 -0.45,-0.6816 -1.0272,-1.2948 -1.512,-1.9332 -1.1832,-1.5468 -1.2852,-3.2964 1.0008,-3.8316 -0.6972,-0.4488 -1.8636,-0.9672 -2.2668,-1.728 -0.6276,-1.1808 -0.2124,-2.3052 0.3888,-3.312 1.0272,-1.7148 2.6892,-3.084 4.7508,-3.2436 0.0828,-0.006 0.1632,-0.01 0.2412,-0.01 1.9824,0 2.7144,1.9644 4.4316,2.6592 0.1536,0.0624 0.312,0.0876 0.4776,0.0876 0.6768,0 1.4448,-0.4212 2.2788,-0.4236 0.004,0 0.008,0 0.0132,0 0.9948,0 2.2968,0.528 3.1608,1.0056 0.8148,0.45 1.4724,0.9396 1.9896,1.4916 0.546,-3.7464 1.6212,-7.4808 3.264,-11.1012 6.8952,-15.2004 21.87,-24.1872 37.5396,-24.1872 5.6928,0 11.478,1.1868 16.9992,3.6924 0.1476,0.066 0.2916,0.1332 0.4368,0.2016 1.7796,-0.804 3.5928,-1.5468 5.436,-2.2248 -8.1396,-8.3952 -17.9604,-15.4344 -29.2536,-20.5596 -12.8616,-5.8344 -26.3424,-8.59908 -39.6012,-8.59908 M 218.4002,189.6755 c -3.5748,-3.7452 -5.7696,-8.8176 -5.7696,-14.4036 0,-11.5248 9.3432,-20.868 20.8692,-20.868 8.5308,0 15.8628,5.118 19.098,12.4488 4.6464,-0.234 9.2412,-0.5808 13.896,-0.5808 0.0336,0 0.0684,0 0.102,0 0.018,0 0.0348,0 0.0528,0 0.8364,0 1.7112,-0.024 2.604,-0.048 0.8952,-0.024 1.8072,-0.048 2.7168,-0.048 5.1672,0 10.2708,0.7728 11.6952,6.7032 1.542,6.42 0.0312,16.1496 0.0312,19.6968 0,6.096 1.1196,13.2984 -0.966,18.93 -0.3108,0.8424 -0.9684,4.2852 -1.4952,4.8048 -1.1364,1.1244 -3.306,1.3944 -5.5164,1.3944 -2.0208,0 -4.0764,-0.2256 -5.4072,-0.2292 -5.586,-0.018 -11.2008,-0.204 -16.7976,-0.204 -5.1816,0 -10.3416,0.6492 -15.5244,0.6492 -0.018,0 -0.0372,0 -0.0564,0 -4.7652,-0.004 -8.9208,-1.3296 -13.6356,-1.5492 -3.318,-0.1548 -3.8412,0.2748 -5.16,-2.64 -2.0412,-4.5108 -0.0204,-10.3116 -0.4572,-15.186 -0.2592,-2.9016 -0.342,-5.886 -0.2796,-8.8704"
       style="fill:#f7f5dd;fill-opacity:1;fill-rule:nonzero;stroke:none;stroke-width:0.12"
       id="path56" /><path
       d="m 371.1074,109.1555 c -1.8432,0.678 -3.6564,1.4208 -5.436,2.2248 20.4096,9.5436 29.3916,33.7632 20.0568,54.336 -6.8952,15.198 -21.8712,24.186 -37.5396,24.186 -5.6928,0 -11.478,-1.1868 -16.9992,-3.6924 -5.0784,-2.304 -9.4632,-5.5104 -13.0512,-9.3432 -0.3156,2.9196 -0.4776,5.8836 -0.4776,8.8872 0,15.1656 4.1364,29.3616 11.3448,41.526 2.5644,-3.444 6.6684,-5.676 11.2932,-5.676 7.7712,0 14.0664,6.2988 14.0664,14.0676 0,5.4528 -3.102,10.1808 -7.6368,12.516 3.0516,2.568 6.294,4.9188 9.7032,7.0236 14.0028,-9.5688 25.6488,-22.974 33.168,-39.546 16.7796,-36.9816 8.1612,-79.0176 -18.492,-106.5096"
       style="fill:#d3e1fd;fill-opacity:1;fill-rule:nonzero;stroke:none;stroke-width:0.12"
       id="path58" /><path
       d="m 348.2354,107.4863 c -15.6696,0 -30.6444,8.9868 -37.5396,24.1872 -1.6428,3.6204 -2.718,7.3548 -3.264,11.1012 0.9588,1.0272 1.4328,2.2728 1.5192,3.8988 6.7644,2.442 3.8364,8.424 -0.7104,12.0036 1.6908,6.7488 5.0748,13.0368 9.8976,18.1896 0.996,-9.192 3.5172,-17.922 7.308,-25.9392 -0.3624,-0.2568 -0.6492,-0.6432 -0.7944,-1.3008 -0.324,-1.4604 0.5628,-3.4356 1.3356,-4.6284 1.1112,-1.7208 2.6424,-2.5164 4.356,-2.9484 8.496,-13.3668 20.7744,-24.0912 35.328,-30.6696 -0.1452,-0.0684 -0.2892,-0.1356 -0.4368,-0.2016 -5.5212,-2.5056 -11.3064,-3.6924 -16.9992,-3.6924"
       style="fill:#dbe1f5;fill-opacity:1;fill-rule:nonzero;stroke:none;stroke-width:0.12"
       id="path60" /><path
       d="m 365.6714,111.3803 c -14.5536,6.5784 -26.832,17.3028 -35.328,30.6696 1.8972,-0.4788 4.0212,-0.5124 6.0468,-0.8652 0.3108,-0.0552 0.6264,-0.0816 0.9396,-0.0816 1.9068,0 3.7572,1.0044 4.3764,2.9772 0.5616,1.8192 0.0396,4.9716 -1.2408,6.4512 -0.7728,0.8928 -2.1936,1.1172 -3.072,1.92 -0.008,0.008 -0.9432,0.8664 -1.5948,2.238 0,10e-4 10e-4,10e-4 10e-4,0.002 -0.3852,0.81 -0.6708,1.7988 -0.612,2.9004 v 0 c 0,0.005 0.001,0.01 0.001,0.0144 0,0.001 0,0.002 0,0.004 0,0.004 0,0.007 0,0.0108 0,10e-4 0,0.002 0,0.002 0.1068,2.3004 -2.2524,4.296 -4.0812,4.296 -0.5184,0 -0.9948,-0.1608 -1.3596,-0.5208 -0.002,-0.004 -0.005,-0.006 -0.008,-0.008 v 0 0 0 c 0,0 0,0 0,-0.001 v 0 0 c -0.002,-0.0684 -0.1764,-3.9912 -0.6036,-6.6096 0.001,-0.001 0.001,-0.001 0.001,-0.001 -0.1524,-0.9384 -0.3384,-1.71 -0.5604,-2.0784 -0.7872,-1.3104 -2.2044,-1.1184 -3.1308,-1.7724 -3.7908,8.0172 -6.312,16.7472 -7.308,25.9392 3.588,3.8328 7.9728,7.0392 13.0512,9.3432 5.5212,2.5056 11.3064,3.6924 16.9992,3.6924 15.6684,0 30.6444,-8.988 37.5396,-24.186 9.3348,-20.5728 0.3528,-44.7924 -20.0568,-54.336"
       style="fill:#d2d8f5;fill-opacity:1;fill-rule:nonzero;stroke:none;stroke-width:0.12"
       id="path62" /><path
       d="m 221.1122,70.42682 c -21.984,0 -39.8028,17.81388 -39.8028,39.79788 0,18.2076 12.222,33.5568 28.9104,38.2944 1.2312,-4.1004 2.7504,-8.166 4.5684,-12.174 8.976,-19.782 23.8188,-35.0448 41.544,-44.6664 -6.6672,-12.6396 -19.938,-21.25188 -35.22,-21.25188"
       style="fill:#ffcedd;fill-opacity:1;fill-rule:nonzero;stroke:none;stroke-width:0.12"
       id="path64" /><path
       d="m 256.3322,91.6787 c -17.7252,9.6216 -32.568,24.8844 -41.544,44.6664 -1.818,4.008 -3.3372,8.0736 -4.5684,12.174 3.462,0.9828 7.1148,1.5084 10.8924,1.5084 21.9768,0 39.7956,-17.8188 39.7956,-39.8028 0,-6.6972 -1.6548,-13.008 -4.5756,-18.546"
       style="fill:#ffcedd;fill-opacity:1;fill-rule:nonzero;stroke:none;stroke-width:0.12"
       id="path66" /><path
       d="m 300.8546,59.33618 c -18.7728,0 -33.9888,1.57452 -33.9888,3.51372 0,1.944 15.216,3.51936 33.9888,3.51936 18.7716,0 33.9852,-1.57536 33.9852,-3.51936 0,-1.9392 -15.2136,-3.51372 -33.9852,-3.51372"
       style="fill:#f8eaf1;fill-opacity:1;fill-rule:nonzero;stroke:none;stroke-width:0.12"
       id="path68" /><path
       d="m 293.9066,136.8335 c -0.8052,-2.1996 -0.9228,-3.9708 -1.1196,-6.1608 -0.4344,-4.836 0.186,-7.2804 0,-9.894 -0.2508,-3.5004 -1.3176,-9.3948 -2.988,-11.7612 -1.6692,-2.3688 -4.5096,-8.0376 -3.546,-9.5208 0.9648,-1.4832 1.9104,2.3076 3.7332,3.546 0.6612,-0.8448 -0.5028,-1.9416 -0.1872,-2.9868 -0.01,0.03 1.3152,3.3936 1.494,3.7344 1.194,2.2452 0.1656,2.3016 1.1508,4.5744 0.9612,2.2116 1.9692,3.8184 2.5788,6.2064 0.5208,2.04 1.6884,3.7392 2.0784,5.7576 0.5556,2.8704 0.9072,5.8788 1.0512,8.8008 0.0984,1.9608 2.8812,12.6432 0.0816,12.6024 -1.86,-0.0288 -3.822,-3.5196 -4.3272,-4.8984"
       style="fill:#f5b29c;fill-opacity:1;fill-rule:nonzero;stroke:none;stroke-width:0.12"
       id="path70" /><path
       d="m 274.517,45.0239 c -51.3588,0 -92.988,1.40388 -92.988,3.12372 0,1.72776 41.6292,3.12936 92.988,3.12936 51.3576,0 92.9808,-1.4016 92.9808,-3.12936 0,-1.71984 -41.6232,-3.12372 -92.9808,-3.12372"
       style="fill:#ffeedd;fill-opacity:1;fill-rule:nonzero;stroke:none;stroke-width:0.12"
       id="path72" /><path
       d="m 253.7138,34.03214 c -7.3188,0 -14.0172,0.26484 -19.1736,0.70404 0.2352,1.40904 0.228,2.94516 0.1644,4.47372 5.1336,0.43224 11.7672,0.69144 19.0092,0.69144 16.284,0 29.4864,-1.31532 29.4864,-2.93436 0,-1.62096 -13.2024,-2.93484 -29.4864,-2.93484 m -23.3976,1.14696 c -3.8244,0.49548 -6.0972,1.1148 -6.0972,1.78788 0,0.83676 3.5256,1.59144 9.1788,2.12676 -1.1916,-1.05384 -2.3676,-2.46984 -3.0816,-3.91464"
       style="fill:#f4e0ea;fill-opacity:1;fill-rule:nonzero;stroke:none;stroke-width:0.12"
       id="path236" /><path
       d="m 374.711,28.48214 c -15.9756,0 -28.9404,1.23564 -28.9404,2.76324 0,1.51836 12.9648,2.75388 28.9404,2.75388 15.9768,0 28.9296,-1.23552 28.9296,-2.75388 0,-1.5276 -12.9528,-2.76324 -28.9296,-2.76324"
       style="fill:#e5ebff;fill-opacity:1;fill-rule:nonzero;stroke:none;stroke-width:0.12"
       id="path238" /><path
       d="m 415.781,53.71538 c -15.0636,0 -27.2892,0.98904 -27.2892,2.21064 0,1.21692 12.2256,2.20404 27.2892,2.20404 15.066,0 27.2808,-0.98712 27.2808,-2.20404 0,-1.2216 -12.2148,-2.21064 -27.2808,-2.21064"
       style="fill:#e5ebff;fill-opacity:1;fill-rule:nonzero;stroke:none;stroke-width:0.12"
       id="path240" /><path
       d="m 298.6358,29.61926 c -7.5312,0 -13.644,0.49464 -13.644,1.10532 0,0.60852 6.1128,1.1016 13.644,1.1016 7.5336,0 13.6404,-0.49308 13.6404,-1.1016 0,-0.61068 -6.1068,-1.10532 -13.6404,-1.10532"
       style="fill:#e5ebff;fill-opacity:1;fill-rule:nonzero;stroke:none;stroke-width:0.12"
       id="path242" /><path
       d="m 444.581,48.11618 c -15.0636,0 -27.2892,0.98904 -27.2892,2.21064 0,1.21692 12.2256,2.20452 27.2892,2.20452 15.066,0 27.2808,-0.9876 27.2808,-2.20452 0,-1.2216 -12.2148,-2.21064 -27.2808,-2.21064"
       style="fill:#f8eaf1;fill-opacity:1;fill-rule:nonzero;stroke:none;stroke-width:0.12"
       id="path244" /><path
       d="m 295.8818,143.9483 c -4.98,0.9456 -12.1092,-8.154 -14.2896,-8.04 -2.1816,0.1152 -10.8492,6.7596 -10.8492,6.7596 -0.4512,0.33 -0.8856,0.7176 -1.3956,1.3512 -0.534,0.66 -1.7232,3.4776 -2.5032,3.6648 -0.2964,-0.4536 1.1928,-2.82 -0.4824,-1.5384 -1.2768,0.9804 -3.5964,2.7492 -4.0524,2.4648 -0.4596,-0.2856 2.2452,-1.818 2.0928,-2.2644 -0.1524,-0.4416 -3.3756,1.6416 -3.5928,1.2672 -0.2088,-0.3732 3.0792,-2.082 2.9076,-2.46 -0.2952,-0.6492 -2.5392,1.212 -2.8356,0.8148 -0.3012,-0.3984 1.926,-1.272 2.424,-1.9752 -0.6492,-0.4596 -2.5824,1.0476 -2.4756,0.2016 0.1056,-0.846 3.0732,-1.2516 4.0536,-1.752 1.1268,-0.5784 3.0144,-1.17 3.0144,-1.17 0,0 12.4752,-11.2776 15.174,-11.2332 2.6976,0.0444 8.9784,4.7568 11.1156,6.606 2.1408,1.8492 6.6768,6.3624 1.6944,7.3032"
       style="fill:#f5c4b8;fill-opacity:1;fill-rule:nonzero;stroke:none;stroke-width:0.12"
       id="path268" /><path
       d="m 291.1118,84.04442 c 0,0 4.1112,-20.46516 4.7796,-24.9984 0.6684,-4.52292 2.0064,-6.3192 2.6172,-8.09676 0.612,-1.77792 -3.0168,-1.57632 -5.4504,-2.59404 l -4.9932,-0.33 c 0,0 4.1028,2.65692 5.1144,4.2924 1.0152,1.63548 -4.5936,15.87936 -4.5936,15.87936 l -6.2232,14.4216 8.7492,1.42584"
       style="fill:#f5c4b8;fill-opacity:1;fill-rule:nonzero;stroke:none;stroke-width:0.12"
       id="path270" /><path
       d="m 305.309,89.7503 -1.3404,-40.76172 c 0,0 -8.6424,-1.2432 -10.2096,-1.3908 -1.566,-0.14628 4.6128,2.87532 5.4624,4.53372 0.8484,1.66308 1.9488,2.19708 1.404,6.45372 -0.5448,4.25484 -5.3784,28.21176 -5.3784,28.21176 l 10.0056,3.52572 0.0564,-0.5724"
       style="fill:#f5c4b8;fill-opacity:1;fill-rule:nonzero;stroke:none;stroke-width:0.12"
       id="path272" /><path
       d="m 293.021,155.6639 c -0.0996,-0.1344 -0.1656,-0.2748 -0.1884,-0.4152 -0.1356,-0.8868 0.5604,-1.3128 0.102,-2.3988 -0.4404,-1.0416 -1.2936,-1.8828 -1.9692,-2.7708 -1.1832,-1.5468 -1.2852,-3.2964 1.0008,-3.8316 -0.6972,-0.4488 -1.8636,-0.9672 -2.2668,-1.728 -0.6276,-1.1808 -0.2124,-2.3052 0.3888,-3.312 1.0272,-1.7148 2.6892,-3.084 4.7508,-3.2436 2.1672,-0.1668 2.8872,1.9272 4.6728,2.6496 0.7836,0.3168 1.7196,-0.3324 2.7564,-0.336 0.9972,-0.005 2.3052,0.5256 3.174,1.0056 2.3268,1.2852 3.3756,2.8884 3.5088,5.3904 9.6516,3.4836 -0.4284,14.178 -6.7908,14.8116 -0.1596,0.0156 -0.3252,0.0108 -0.4908,0.005 -0.0924,-0.002 -0.1848,-0.006 -0.276,-0.005 -1.9884,-1.3716 -3.9792,-2.7408 -5.9712,-4.1124 -0.5484,-0.378 -1.8972,-1.0152 -2.4012,-1.7088"
       style="fill:#0b1238;fill-opacity:1;fill-rule:nonzero;stroke:none;stroke-width:0.12"
       id="path274" /><path
       d="m 302.7734,141.4115 c 0,0 -1.4964,2.538 -0.5988,4.3296 0.8964,1.7916 5.6724,15.0756 0.2988,17.016 -5.3736,1.9404 -10.5996,-2.0904 -10.152,-8.5092 0.4488,-6.4176 0.2988,-7.4616 4.6296,-6.4176 0,0 -0.4488,-3.8808 -1.9416,-6.8664 -0.7872,-1.5756 -0.4944,-0.7812 0.9684,0.0132 1.308,0.7104 3.552,1.4208 6.7956,0.4344"
       style="fill:#f5c4b8;fill-opacity:1;fill-rule:nonzero;stroke:none;stroke-width:0.12"
       id="path276" /><path
       d="m 301.9574,143.9567 c 0,0 3.5016,-1.1484 4.6464,-2.2968 1.1472,-1.146 -3.1644,-20.5164 -3.1644,-20.5164 l -12.8724,0.828 c 0,0 1.4088,6.0876 0.312,8.0592 -1.0956,1.9728 -3.5016,3.7548 -0.6552,8.3544 2.7408,4.428 1.2948,2.6988 3.1224,4.734 1.68,1.8648 6.42,-1.134 8.6112,0.8376"
       style="fill:#fa8795;fill-opacity:1;fill-rule:nonzero;stroke:none;stroke-width:0.12"
       id="path278" /><path
       d="m 300.533,164.0999 c -3.1272,0.27 -8.958,-2.238 -8.3592,-5.5224 0.5976,-3.2844 5.2236,-2.9844 7.3128,-1.7916 l 0.4488,-1.3428 c 0,0 1.7904,1.0452 1.9404,-0.7464 0.1488,-1.7916 -1.7916,-1.4928 -1.7916,-1.4928 0,0 1.0452,-5.2236 4.7772,-4.1784 3.7308,1.044 4.3272,14.328 -4.3284,15.0744"
       style="fill:#0b1238;fill-opacity:1;fill-rule:nonzero;stroke:none;stroke-width:0.12"
       id="path280" /><path
       d="m 293.0654,154.8983 c 0,0 -1.6116,-2.9652 -1.8984,-3.4332 -0.288,-0.4692 1.986,-0.8364 1.986,-0.8364 l -0.0876,4.2696"
       style="fill:#f5c4b8;fill-opacity:1;fill-rule:nonzero;stroke:none;stroke-width:0.12"
       id="path282" /><g
       id="g284"
       transform="matrix(0.12,0,0,0.12,-64.502199,-33.1285)"><g
         id="g286"
         clip-path="url(#clipPath290)"><path
           d="m 3007.41,1483.31 h 4.6094 v 23.9609 h -4.6094 z"
           style="fill:#080d2a;fill-opacity:1;fill-rule:nonzero;stroke:none"
           id="path292" /></g></g><path
       d="m 296.381,144.8447 c 0.002,0.007 0.005,0.0156 0.006,0.024 0.3516,1.4148 0.5124,2.5596 0.5532,2.8752 1.3476,0.4572 2.3976,0.9816 2.3976,0.9816 -0.2292,-1.5312 -1.6392,-2.9052 -2.9568,-3.8808"
       style="fill:#b28a8b;fill-opacity:1;fill-rule:nonzero;stroke:none;stroke-width:0.12"
       id="path294" /><path
       d="M 290.8346,124.1903 278.3582,81.3707 c 0,0 16.788,-6.1092 33.2712,-0.60696 0,0 -0.8844,26.89416 -7.9212,42.59736 0,0 -8.6352,-2.1384 -12.8736,0.8292"
       style="fill:#7e4d98;fill-opacity:1;fill-rule:nonzero;stroke:none;stroke-width:0.12"
       id="path296" /><path
       d="m 304.235,122.1335 0.096,-0.2256 c -0.9468,-0.3792 -3.6528,-1.3344 -6.9456,-1.3344 -2.2164,0 -4.7004,0.4356 -7.086,1.7724 l 0.0708,0.2472 c 5.8464,-3.312 12.3168,-1.0836 13.8648,-0.4596"
       style="fill:#ffffff;fill-opacity:1;fill-rule:nonzero;stroke:none;stroke-width:0.12"
       id="path300" /><path
       d="m 291.8978,50.6723 c -0.1164,-0.01692 -0.2208,-0.03708 -0.33,-0.05628 -1.5444,-1.32228 -3.5028,-2.5908 -3.5028,-2.5908 l 4.9932,0.33 c 2.4336,1.01772 6.0624,0.81612 5.4504,2.59404 -0.2088,0.60612 -0.5028,1.22304 -0.8256,1.94064 -3.8544,-3.36228 -5.7852,-2.2176 -5.7852,-2.2176"
       style="fill:#2e3054;fill-opacity:1;fill-rule:nonzero;stroke:none;stroke-width:0.12"
       id="path302" /><path
       d="m 303.8306,52.43294 c -3.1944,-1.97676 -5.01,-1.82436 -5.8176,-1.5516 -1.9992,-1.58904 -5.4744,-3.39612 -4.254,-3.28356 1.5672,0.1476 10.2096,1.3908 10.2096,1.3908 l 0.1176,3.58824 -0.2556,-0.14388"
       style="fill:#2e3054;fill-opacity:1;fill-rule:nonzero;stroke:none;stroke-width:0.12"
       id="path304" /><path
       d="m 439.529,28.46294 c 0,-0.62676 -4.926,-1.13676 -11.0052,-1.13676 -6.0768,0 -11.004,0.51 -11.004,1.13676 0,0.63 4.9272,1.13856 11.004,1.13856 6.0792,0 11.0052,-0.50856 11.0052,-1.13856"
       style="fill:#b0bcd8;fill-opacity:1;fill-rule:nonzero;stroke:none;stroke-width:0.12"
       id="path306" /><path
       d="m 425.6618,28.80134 c -0.552,5.52468 -1.6236,11.29872 -1.0548,16.89936 0.156,1.5324 1.458,8.36856 3.9216,6.79452 1.9788,-1.26612 0.6768,-5.8884 0.6636,-7.8084 -0.0396,-5.1708 -1.062,-10.7508 -2.472,-15.53064 l -1.0584,-0.35484"
       style="fill:#ff9edd;fill-opacity:1;fill-rule:nonzero;stroke:none;stroke-width:0.12"
       id="path308" /><path
       d="m 429.959,40.5623 c -1.2516,0 -1.7904,-2.98548 -2.082,-4.59372 -0.0756,-0.41868 -0.1392,-0.78468 -0.2016,-1.0224 -0.1764,-0.68388 -0.3792,-1.39308 -0.5772,-2.07468 -0.4356,-1.51308 -0.8844,-3.07692 -1.1028,-4.56372 l 3.0936,0.4884 0.174,0.0816 c 1.0548,0.49356 2.148,1.00356 2.6784,1.99356 0.3252,0.60324 0.3912,1.17792 0.1776,1.53708 -0.1344,0.22212 -0.366,0.34164 -0.6552,0.34164 -0.2448,0 -0.6468,-0.08388 -1.1664,-0.4908 l -0.5268,-0.41244 0.2544,0.61692 c 0.8424,2.04552 2.5656,6.9192 0.4212,7.97244 -0.1728,0.08532 -0.336,0.12612 -0.4872,0.12612 z m -4.3776,-12.67692 0.0324,0.23304 c 0.2028,1.58532 0.6816,3.24372 1.146,4.85148 0.1944,0.6816 0.3996,1.38468 0.5748,2.06532 0.0588,0.22548 0.1212,0.5832 0.198,0.99852 0.348,1.94484 0.8784,4.88244 2.4264,4.88244 0.2064,0 0.42,-0.05532 0.6432,-0.16404 2.1756,-1.06824 1.0104,-5.2008 -0.0432,-7.89984 0.3144,0.16548 0.6168,0.25308 0.9048,0.25308 0.4116,0 0.7596,-0.1884 0.9564,-0.51612 0.2832,-0.47388 0.2208,-1.16016 -0.168,-1.88616 -0.5856,-1.0932 -1.7832,-1.6524 -2.8392,-2.14548 l -0.2424,-0.10548 -3.5892,-0.56676"
       style="fill:#f7f5dd;fill-opacity:1;fill-rule:nonzero;stroke:none;stroke-width:0.12"
       id="path310" /><path
       d="m 426.3158,27.80618 c 0.7752,3.5616 -0.9852,9.33516 -2.3928,12.7584 -0.4584,1.11852 -2.9544,4.82532 -4.5324,4.0632 -1.5,-0.72468 0.5808,-4.67484 1.1544,-5.5908 -0.414,0.53292 -1.272,0.99516 -2.1216,0.98064 -1.5456,-0.02628 -1.2144,-0.32304 -1.0608,-1.58904 0.24,-1.9524 1.7184,-3.03708 3.0744,-4.19016 -1.0092,0.3768 -2.6136,0.30936 -2.5584,-1.16064 0.0564,-1.4724 8.4372,-5.2716 8.4372,-5.2716"
       style="fill:#db2777;fill-opacity:1;fill-rule:nonzero;stroke:none;stroke-width:0.12"
       id="path312" /><path
       d="m 257.5754,230.3231 c 0,-2.1492 -1.74,-3.8892 -3.8892,-3.8892 -2.148,0 -3.888,1.74 -3.888,3.8892 0,2.148 1.74,3.8892 3.888,3.8892 2.1492,0 3.8892,-1.7412 3.8892,-3.8892"
       style="fill:#c7e6fe;fill-opacity:1;fill-rule:nonzero;stroke:none;stroke-width:0.12"
       id="path314" /><path
       d="m 431.1566,135.8147 c -1.6752,1.6092 -4.9632,-5.8812 -5.5464,-8.832 -0.6756,-3.3972 -0.0804,-5.6844 0.7404,-8.7876 0.9972,-3.78 4.0368,-7.956 -0.678,-9.2028 -3.1536,-0.834 -6.8832,0.804 -10.02,1.1256 -2.5848,0.2628 -5.0616,-0.2244 -5.6832,2.1888 -1.3908,5.3904 6.4788,10.6716 2.0112,14.964 -3.852,4.0272 -2.4528,11.2032 -1.7652,14.8272 2.6604,3.5112 5.2392,1.782 5.9604,6.7068 1.188,0.336 2.5236,0.4788 3.696,0.6624 0.1044,-1.974 0.696,-3.5196 2.4084,-4.668 1.0764,-0.7212 2.166,-0.6984 3.2148,-0.6768 0.984,0.0216 1.9332,0.0432 2.8032,-0.5508 1.7928,-1.2228 3.2328,-5.7972 2.8584,-7.7568"
       style="fill:#d88a4f;fill-opacity:1;fill-rule:nonzero;stroke:none;stroke-width:0.12"
       id="path316" /><path
       d="m 409.4978,142.6175 c 2.4468,0.6804 3.3864,-2.4192 4.02,-5.9592 0.6972,-3.9072 1.326,-8.5692 1.326,-8.5692 -0.6708,-2.1648 -1.4532,-5.2452 -2.1228,-7.4088 -0.5964,-1.9128 -3.3,-7.038 -3.6924,-8.9928 -0.4128,-2.0796 0.0564,-5.9592 0.198,-8.0364 -1.6656,0.762 -3.5016,4.0164 -2.8188,6.816 0.63,2.61 2.9772,14.1672 3.3792,16.4364 0,0 -3.576,14.7984 -0.2892,15.714"
       style="fill:#d88a4f;fill-opacity:1;fill-rule:nonzero;stroke:none;stroke-width:0.12"
       id="path318" /><path
       d="m 409.4978,142.6175 c 2.4468,0.6804 3.3864,-2.4192 4.02,-5.9592 0.6972,-3.9072 1.326,-8.5692 1.326,-8.5692 -0.6708,-2.1648 -1.4532,-5.2452 -2.1228,-7.4088 -0.1608,-0.5172 -3.012,-7.0224 -2.7828,-7.0908 -1.7028,0.5088 -2.79,0.882 -2.79,0.882 0,0 1.0488,4.4088 1.3248,5.7648 0.45,2.2188 0.6792,4.2564 1.0752,6.4848 0,0 -3.3372,14.9808 -0.0504,15.8964"
       style="fill:#ffffff;fill-opacity:1;fill-rule:nonzero;stroke:none;stroke-width:0.12"
       id="path320" /><path
       d="m 431.1566,135.8147 c -1.3032,0.0144 -4.9632,-5.8812 -5.5464,-8.832 -0.6756,-3.3972 1.0104,-6.0084 1.83,-9.1104 0.3036,-1.1508 0.942,-2.6832 -0.4548,-3.2616 -0.75,-0.3096 -1.794,-0.3264 -2.6232,-0.4176 -1.8192,-0.204 -3.6972,-0.0936 -5.514,-0.005 -1.9512,0.096 -3.768,0.264 -5.6436,0.6624 -0.432,0.0948 -2.8812,-0.0456 -2.8008,0.5196 0.2388,1.6692 -0.0588,3.222 0.8268,4.4664 0.882,1.2384 1.6332,2.706 1.5924,4.2624 -0.0336,1.374 -1.7028,3.1992 -3.4188,6.7524 -1.7124,3.552 0.6084,10.1604 0.0948,11.1576 -1.0212,1.7808 2.4564,1.884 3.5508,2.5092 -1.1676,-3.8256 -1.386,-4.686 2.5404,-5.1396 3.9264,-0.4524 6.9204,6.3864 11.3904,5.3592 3.474,-0.8004 4.764,-5.8428 4.176,-8.9232"
       style="fill:#ffffff;fill-opacity:1;fill-rule:nonzero;stroke:none;stroke-width:0.12"
       id="path322" /><path
       d="m 415.2806,146.1227 c -0.0348,0.008 -0.0696,0.0168 -0.1056,0.0264 0.4728,0.6768 0.8268,1.5072 0.9936,2.6016 -0.1872,-1.236 -0.492,-2.0472 -0.888,-2.628 m 4.6236,2.9076 c -0.0132,0.1428 -0.024,0.2892 -0.0324,0.4368 0.008,-0.1476 0.0252,-0.2844 0.0396,-0.4248 -0.002,-0.005 -0.005,-0.008 -0.007,-0.012"
       style="fill:#cfa09f;fill-opacity:1;fill-rule:nonzero;stroke:none;stroke-width:0.12"
       id="path324" /><path
       d="m 415.8974,146.0507 c -0.2052,0 -0.4116,0.024 -0.6168,0.072 0.396,0.5808 0.7008,1.392 0.888,2.628 0.002,0.018 0.005,0.036 0.007,0.054 1.188,0.336 2.5236,0.4788 3.696,0.6624 v 0 c 0.008,-0.1476 0.0192,-0.294 0.0324,-0.4368 -1.044,-1.7712 -2.5224,-2.9796 -4.0068,-2.9796"
       style="fill:#c86131;fill-opacity:1;fill-rule:nonzero;stroke:none;stroke-width:0.12"
       id="path326" /><path
       d="m 412.4666,162.1091 c -1.0932,-3.444 -0.4524,-8.7912 1.2288,-11.85 2.3988,-4.362 6.0204,-2.3148 7.7352,1.4388 1.4184,3.0972 2.4516,9.3948 -0.504,11.9448 -1.2228,1.0548 -3.9672,1.5432 -5.5668,1.0116 -2.8524,-0.9432 -2.592,-2.8644 -2.6052,-5.4372 l -0.288,2.892"
       style="fill:#d88a4f;fill-opacity:1;fill-rule:nonzero;stroke:none;stroke-width:0.12"
       id="path328" /><path
       d="m 420.899,165.2507 c 2.4936,-1.2624 4.4856,-3.816 4.5984,-6.48 0.1416,-3.3816 -0.15,-5.2992 -5.1996,-7.65 1.0344,1.3668 1.1136,2.9532 0.4296,4.3212 -0.7908,1.5828 -1.2264,2.3532 -0.7008,4.3404 -1.0692,-2.7228 -3.942,-1.098 -5.88,-2.2392 -1.7772,-1.0488 -2.0376,-2.9052 -1.3992,-4.6224 -3.048,3.7776 -3.4632,6.882 -0.4908,10.704 1.626,2.0928 6.372,2.7756 8.6424,1.626"
       style="fill:#2e3054;fill-opacity:1;fill-rule:nonzero;stroke:none;stroke-width:0.12"
       id="path330" /><path
       d="m 410.7326,62.79842 -3.0156,0.63 c -0.114,-0.70224 -0.24,-1.39548 -0.3852,-2.07 -0.8772,-4.17144 -5.8104,-5.32836 -5.766,-6.72 0.0432,-1.39224 8.4648,2.00616 8.4648,2.00616 0,0 0.504,5.63532 0.702,6.15384"
       style="fill:#f5b29c;fill-opacity:1;fill-rule:nonzero;stroke:none;stroke-width:0.12"
       id="path332" /><path
       d="m 423.1766,62.19374 -2.5272,1.16244 c -0.2196,-0.7308 -0.24,-2.30388 -0.366,-3.03 -0.7944,-4.64856 -4.794,-4.58016 -4.9152,-5.82324 -0.1476,-1.48596 7.9236,1.31484 7.9236,1.31484 0,0 -0.3972,5.85132 -0.1152,6.37596"
       style="fill:#f5b29c;fill-opacity:1;fill-rule:nonzero;stroke:none;stroke-width:0.12"
       id="path334" /><path
       d="m 409.2722,109.75406 -2.5524,-52.87548 4.554,0.14148 5.8032,42.1056 2.8356,-43.0656 3.3792,-0.24228 c 0,0 10.4184,41.52588 3.4176,60.98748 0,0 -7.3572,-2.5464 -15.0012,-1.0596 0,0 -2.1708,-2.0472 -2.436,-5.9916"
       style="fill:#b03e91;fill-opacity:1;fill-rule:nonzero;stroke:none;stroke-width:0.12"
       id="path336" /><path
       d="m 433.0694,135.3239 c 1.1964,-2.3664 4.6272,-5.7996 4.1124,-8.4036 -0.7536,-3.816 -5.016,-7.404 -7.7052,-9.714 -0.5412,-0.462 -0.5352,-1.35 -0.9492,-1.9224 -0.3984,-0.5508 -1.2192,-0.888 -1.2348,-1.6644 -0.0168,-0.9312 0.6108,-0.7524 1.308,-0.7164 -1.944,-1.9908 -4.248,0.1344 -3.4692,2.4336 0.7248,2.1372 2.9484,3.3888 4.2852,5.0868 1.5168,1.9284 3.5652,5.7972 3.5652,5.7972 0,0 -0.7992,2.2104 -2.274,4.3764 -1.9608,2.8728 -4.3464,5.5476 -4.4616,9.1668 -0.0384,1.2132 0.36,4.35 2.412,3.8376 1.608,-0.4008 3.6108,-6.6948 4.4112,-8.2776"
       style="fill:#d88a4f;fill-opacity:1;fill-rule:nonzero;stroke:none;stroke-width:0.12"
       id="path338" /><path
       d="m 433.3478,135.7715 c 1.1964,-2.3664 4.5648,-6.2976 4.05,-8.9004 -0.7392,-3.7512 -4.506,-6.5412 -6.9504,-9.2004 -0.3252,0.8916 -1.1028,1.5564 -1.7496,2.1 1.4484,2.172 3.0564,4.1304 4.284,6.45 0,0 -1.0584,2.0328 -2.5344,4.2 -1.9608,2.874 -4.284,5.5788 -4.3992,9.2004 -0.0384,1.2132 0.498,4.8132 2.55,4.2996 1.608,-0.3996 3.9492,-6.5664 4.7496,-8.1492"
       style="fill:#ffffff;fill-opacity:1;fill-rule:nonzero;stroke:none;stroke-width:0.12"
       id="path340" /><path
       d="m 410.1878,58.3091 -0.2052,-0.0984 c -4.8564,-2.69532 -5.2596,-1.35468 -5.2368,-0.75228 -1.56,-1.2816 -3.2064,-2.0124 -3.18,-2.82 0.0432,-1.39224 8.4648,2.00616 8.4648,2.00616 0,0 0.0648,0.71916 0.1572,1.66452"
       style="fill:#2e3054;fill-opacity:1;fill-rule:nonzero;stroke:none;stroke-width:0.12"
       id="path342" /><path
       d="m 423.1358,57.51134 c -2.1384,-1.19904 -1.8888,-1.23372 -3.7572,-1.52676 -1.866,-0.29388 -1.032,0.58836 -1.0572,0.69468 -1.4604,-0.97536 -2.8692,-1.31016 -2.9532,-2.17632 -0.1476,-1.48596 7.9236,1.31484 7.9236,1.31484 0,0 -0.0204,0.49452 -0.156,1.69356"
       style="fill:#2e3054;fill-opacity:1;fill-rule:nonzero;stroke:none;stroke-width:0.12"
       id="path344" /><path
       d="m 352.427,280.6607 c 0,-4.7124 -3.8208,-8.5332 -8.5332,-8.5332 -4.7148,0 -8.5356,3.8208 -8.5356,8.5332 0,4.7148 3.8208,8.5344 8.5356,8.5344 4.7124,0 8.5332,-3.8196 8.5332,-8.5344"
       style="fill:#c7e6fe;fill-opacity:1;fill-rule:nonzero;stroke:none;stroke-width:0.12"
       id="path346" /><path
       d="m 392.6774,267.0707 c 1.5624,3.8724 4.3212,7.134 7.8192,9.3252 -0.2592,-2.9976 -0.1296,-6.0492 0.42,-9.0816 -0.558,0.0108 -1.1184,0.0168 -1.68,0.0168 -2.208,0 -4.3956,-0.0876 -6.5592,-0.2604"
       style="fill:#ffffff;fill-opacity:1;fill-rule:nonzero;stroke:none;stroke-width:0.12"
       id="path348" /><path
       d="m 430.5422,261.1079 c -9.1512,3.8064 -19.1472,5.9952 -29.6256,6.2064 -0.5496,3.0324 -0.6792,6.084 -0.42,9.0816 3.0228,1.8936 6.5976,2.988 10.428,2.988 10.3956,0 18.9036,-8.064 19.6176,-18.276"
       style="fill:#f7f5dd;fill-opacity:1;fill-rule:nonzero;stroke:none;stroke-width:0.12"
       id="path352" /><path
       d="m 420.0422,242.2859 c -7.0944,3.3756 -13.0812,9.1812 -16.5816,16.8972 -1.2048,2.6568 -2.046,5.3856 -2.544,8.1312 10.4784,-0.2112 20.4744,-2.4 29.6256,-6.2064 0.0324,-0.4596 0.048,-0.9228 0.048,-1.3908 0,-7.572 -4.2768,-14.1444 -10.548,-17.4312"
       style="fill:#e8dbf0;fill-opacity:1;fill-rule:nonzero;stroke:none;stroke-width:0.12"
       id="path354" /><path
       d="m 329.0054,227.2799 c -1.7436,2.3436 -2.7756,5.2464 -2.7756,8.3916 0,7.7688 6.2988,14.0676 14.0688,14.0676 2.3172,0 4.5024,-0.5604 6.4296,-1.5516 -7.0152,-5.9064 -13.0212,-12.9756 -17.7228,-20.9076"
       style="fill:#e9f2fe;fill-opacity:1;fill-rule:nonzero;stroke:none;stroke-width:0.12"
       id="path356" /><path
       d="m 340.2986,221.6039 c -4.6248,0 -8.7288,2.232 -11.2932,5.676 4.7016,7.932 10.7076,15.0012 17.7228,20.9076 4.5348,-2.3352 7.6368,-7.0632 7.6368,-12.516 0,-7.7688 -6.2952,-14.0676 -14.0664,-14.0676"
       style="fill:#e0eafe;fill-opacity:1;fill-rule:nonzero;stroke:none;stroke-width:0.12"
       id="path358" /><path
       d="m 233.4998,154.4039 c -11.526,0 -20.8692,9.3432 -20.8692,20.868 0,5.586 2.1948,10.6584 5.7696,14.4036 0.0684,-3.2484 0.3084,-6.4968 0.6804,-9.6408 0.4704,-3.9708 0.3648,-8.6256 3.9744,-10.8276 4.0296,-2.4564 9.6456,-1.8792 14.1408,-2.0352 4.9968,-0.174 10.092,-0.0576 15,-0.2988 0.1344,-0.006 0.2676,-0.0132 0.402,-0.0204 -3.2352,-7.3308 -10.5672,-12.4488 -19.098,-12.4488"
       style="fill:#e9f2fe;fill-opacity:1;fill-rule:nonzero;stroke:none;stroke-width:0.12"
       id="path360" /><path
       d="m 224.8958,24.71858 c 2.6856,0.02052 9.0948,0.2676 8.1312,4.53276 -0.3228,-0.01452 -0.7032,0.03324 -1.0908,0.08016 -0.5148,0.06372 -1.0392,0.12708 -1.4508,0.04308 4.4568,1.76772 4.4004,6.35916 4.1784,10.69692 -1.9764,-1.29708 -4.3824,-4.02708 -4.9236,-6.47532 -2.3844,2.30532 -3.012,-0.91176 -3.6072,-2.91324 -0.8316,-2.79852 -1.4496,-4.5708 -4.1832,-6.2892 l 2.946,0.32484"
       style="fill:#f7f5dd;fill-opacity:1;fill-rule:nonzero;stroke:none;stroke-width:0.12"
       id="path388" /><path
       d="m 223.7966,23.3207 c -5.0124,0 -9.0756,0.6516 -9.0756,1.4532 0,0.80052 4.0632,1.45212 9.0756,1.45212 0.1056,0 0.2124,0 0.318,-0.0014 -0.5352,-0.64308 -1.224,-1.24068 -2.1648,-1.83084 l 2.946,0.32484 c 1.5168,0.01068 4.2228,0.09516 6.1164,0.93516 1.1676,-0.24384 1.86,-0.54984 1.86,-0.87984 0,-0.8016 -4.0632,-1.4532 -9.0756,-1.4532"
       style="fill:#e5ebff;fill-opacity:1;fill-rule:nonzero;stroke:none;stroke-width:0.12"
       id="path390" /><path
       d="m 221.9498,24.39374 c 0.9408,0.59016 1.6296,1.18776 2.1648,1.83084 2.8116,-0.01548 5.2992,-0.23616 6.8976,-0.57084 -1.8936,-0.84 -4.5996,-0.92448 -6.1164,-0.93516 l -2.946,-0.32484"
       style="fill:#e5c2d3;fill-opacity:1;fill-rule:nonzero;stroke:none;stroke-width:0.12"
       id="path392" /><path
       d="m 223.5734,24.0191 c -0.7152,0.23532 3.0384,10.08 3.0432,11.02224 0.0132,4.35096 -2.4612,5.24256 -3.2844,0.53016 1.0056,4.14144 0.1524,12.51468 -3.6756,15.0384 -2.2788,-1.89696 -1.9524,-6.04212 -1.3128,-8.74452 0.7572,-3.21936 2.4,-16.9092 5.2296,-17.84628"
       style="fill:#ff9edd;fill-opacity:1;fill-rule:nonzero;stroke:none;stroke-width:0.12"
       id="path394" /><path
       d="m 222.6974,26.07134 c -2.2236,6.82872 -3.2868,13.78176 -12.6372,13.0116 -0.1728,-3.25692 3.198,-4.91772 5.7852,-5.93676 -2.0532,0.30144 -3.6588,-0.7476 -2.4912,-2.52096 0.876,-1.32984 4.1544,-1.38372 5.4984,-1.64064 -3.2724,-2.05776 2.5152,-4.1592 4.218,-4.40616 l -0.3732,1.49292"
       style="fill:#db2777;fill-opacity:1;fill-rule:nonzero;stroke:none;stroke-width:0.12"
       id="path396" /><path
       d="m 220.9682,117.9755 c -1.5312,1.1616 -1.4316,2.0856 -2.9508,3.972 -1.5228,1.8876 -2.5512,-2.1276 -1.0092,-4.3212 1.542,-2.1936 2.1756,-5.2272 3.2172,-5.4252 1.6956,-0.3216 -0.426,0.6432 0.2016,2.0376 0.042,0.0888 0.9948,-0.4344 1.9452,-1.2072 0.5136,-0.42 0.672,-1.1232 1.7844,-1.8576 1.1112,-0.7344 -0.5316,2.3052 1.2912,0.36 1.326,0.6636 -2.9508,5.2812 -4.4796,6.4416"
       style="fill:#f5b29c;fill-opacity:1;fill-rule:nonzero;stroke:none;stroke-width:0.12"
       id="path398" /><path
       d="m 207.7154,150.2687 c 3.258,1.116 5.9076,-16.7628 6.6516,-19.9896 0.7452,-3.2256 6.9504,-11.418 6.9504,-11.418 l -3.7236,-3.2256 c 0,0 -6.5472,8.6352 -8.3628,12.5088 -1.8132,3.8724 -6.9276,20.2692 -1.5156,22.1244"
       style="fill:#ffe3f1;fill-opacity:1;fill-rule:nonzero;stroke:none;stroke-width:0.12"
       id="path400" /><path
       d="m 190.4294,97.3319 -2.0952,-47.71332 c 0,0 8.106,-1.99932 9.5772,-2.28564 1.4784,-0.2808 -4.1388,3.28776 -4.8084,5.02404 -0.6684,1.73904 -1.6692,2.3676 -0.7992,6.5892 0.8664,4.22292 7.692,53.24532 7.692,53.24532 h -8.58 l -0.9864,-14.8596"
       style="fill:#f5b29c;fill-opacity:1;fill-rule:nonzero;stroke:none;stroke-width:0.12"
       id="path402" /><path
       d="m 190.2542,131.7131 -0.0624,-0.222 c 0.9228,-0.2268 3.5424,-0.762 6.5724,-0.3384 2.0472,0.282 4.2768,1.002 6.3084,2.5416 l -0.0996,0.216 c -4.9632,-3.8004 -11.2116,-2.5728 -12.7188,-2.1972"
       style="fill:#ffffff;fill-opacity:1;fill-rule:nonzero;stroke:none;stroke-width:0.12"
       id="path404" /><path
       d="m 194.1614,50.98682 c -3.0108,-0.97224 -4.8084,-0.35064 -5.742,0.28548 l -0.0852,-1.65372 c 0,0 8.106,-1.99932 9.5772,-2.28564 1.1508,-0.21756 -1.98,1.88712 -3.75,3.65388"
       style="fill:#2e3054;fill-opacity:1;fill-rule:nonzero;stroke:none;stroke-width:0.12"
       id="path406" /><path
       d="m 200.7914,96.3455 6.3504,-47.22108 c 0,0 8.3208,-0.10068 9.8196,-0.04212 1.5,0.06228 -4.716,2.26308 -5.7252,3.80532 -1.008,1.54452 -2.1156,1.9308 -2.13,6.25164 -0.0204,4.31772 0.06,53.47464 0.06,53.47464 l -10.8216,1.38 2.4468,-17.6484"
       style="fill:#f5b29c;fill-opacity:1;fill-rule:nonzero;stroke:none;stroke-width:0.12"
       id="path408" /><path
       d="m 206.8106,149.7959 c -0.1152,-1.44 -3.6696,-3.7668 -4.938,-4.0884 -2.2824,-0.5784 -4.9728,0.696 -6.7896,1.9848 -0.9852,0.6972 -3.4104,1.2564 -3.5184,2.556 -0.18,2.1048 3.0672,1.8372 4.1868,2.1792 1.6596,0.5076 2.9016,3.0624 3.0936,4.626 1.5348,-0.1296 3.0684,-0.1992 4.5816,-0.4824 -0.3396,-1.8468 0.3756,-3.6492 1.6692,-4.926 0.4164,-0.4116 1.764,-1.2408 1.7148,-1.8492"
       style="fill:#f5b29c;fill-opacity:1;fill-rule:nonzero;stroke:none;stroke-width:0.12"
       id="path410" /><path
       d="m 212.5502,51.78926 c -2.7408,-1.63536 -4.6224,-1.44084 -5.664,-1.03164 l 0.2556,-1.6332 c 0,0 8.3208,-0.10068 9.8196,-0.04212 1.164,0.04824 -2.3208,1.38468 -4.4112,2.70696"
       style="fill:#2e3054;fill-opacity:1;fill-rule:nonzero;stroke:none;stroke-width:0.12"
       id="path412" /><path
       d="m 197.9954,123.3827 c 0.6912,-2.748 -0.8112,-4.7892 -1.4016,-7.416 -0.552,-2.4564 -0.5544,-5.2608 -0.39,-7.7388 0.3744,-5.5536 1.7268,-10.788 3.4176,-15.9192 1.6992,-5.1468 5.244,-37.1556 5.244,-37.1556 0,0 4.524,0.876 6.0708,0.44292 -0.3444,5.73096 1.0464,35.25588 1.134,41.12988 0.072,5.052 -0.72,10.2804 -1.0884,15.3516 -0.3552,4.884 -1.1244,9.4308 -4.7004,12.7584 l -8.286,-1.4532"
       style="fill:#214065;fill-opacity:1;fill-rule:nonzero;stroke:none;stroke-width:0.12"
       id="path414" /><path
       d="m 192.3758,124.0583 c 0.1152,-2.8404 -2.2536,-3.606 -3.3708,-6.0324 -1.0416,-2.2752 -1.1328,-5.8944 -1.4784,-8.3532 -0.7728,-5.5068 -0.5256,-10.9272 0.0768,-16.32 0.6,-5.4144 0.1332,-33.13428 -0.0192,-38.1204 1.6464,-0.41388 3.4992,0.3108 4.92,-0.46692 0.8376,5.67372 4.3572,32.91492 5.646,38.63052 1.104,4.914 2.8668,13.0944 3.5436,18.1272 0.654,4.8516 1.8852,8.0004 -0.9252,12.0648 l -8.3928,0.4704"
       style="fill:#315075;fill-opacity:1;fill-rule:nonzero;stroke:none;stroke-width:0.12"
       id="path416" /><path
       d="m 196.5278,151.2947 c -0.366,0.6132 -0.4176,1.1676 -0.4164,1.1688 -0.0312,0.3636 -5.0088,-0.5256 -5.4612,-0.7428 -2.3076,-1.0884 -2.1948,-2.0004 -2.3364,-4.2108 -0.3264,-5.1468 1.5876,-10.1256 1.7148,-15.2484 0.072,-2.8476 0.6588,-5.7372 -0.2928,-8.508 -0.8652,-2.5188 -2.586,-3.9396 0.0612,-6.0156 2.8884,-2.2692 13.2576,-2.856 16.7028,-1.8684 2.4012,0.6924 2.2776,1.9404 3.09,4.29 2.106,6.1116 2.3844,11.7672 1.5276,18.1836 -0.432,3.2256 -0.6144,7.1652 -1.6704,10.2408 -0.5052,1.4832 -0.2628,1.6188 -1.6848,2.4612 -0.1284,0.078 -2.646,0.6828 -2.6664,0.5988 -0.0192,-0.0756 -0.9084,-3.6684 -3.0768,-3.9156 -2.1936,-0.252 -3.2964,0.756 -4.236,1.7184 -0.0984,0.1008 -0.774,1.0416 -1.2552,1.848"
       style="fill:#dd95aa;fill-opacity:1;fill-rule:nonzero;stroke:none;stroke-width:0.12"
       id="path418" /><path
       d="m 203.621,153.9767 c -0.162,0.4776 -0.2568,0.978 -0.2748,1.4892 0.0204,-0.5112 0.1188,-1.0116 0.2796,-1.4892 -0.001,0 -0.004,0 -0.005,0 m -4.8612,2.5968 c -0.001,0.002 -0.004,0.006 -0.005,0.01 0.03,0.1284 0.0588,0.258 0.078,0.3792 -0.018,-0.1248 -0.0432,-0.2544 -0.0732,-0.3888"
       style="fill:#b9b3c0;fill-opacity:1;fill-rule:nonzero;stroke:none;stroke-width:0.12"
       id="path420" /><path
       d="m 203.3714,153.9719 c -1.9872,0.001 -3.6588,0.7728 -4.6116,2.6016 0.03,0.1344 0.0552,0.264 0.0732,0.3888 0.005,0.0312 0.008,0.0612 0.012,0.0912 1.5348,-0.1296 3.0684,-0.1992 4.5816,-0.4824 v 0 c -0.0696,-0.372 -0.0948,-0.7404 -0.0804,-1.1052 0.018,-0.5112 0.1128,-1.0116 0.2748,-1.4892 -0.084,-0.002 -0.1668,-0.005 -0.2496,-0.005"
       style="fill:#b27d75;fill-opacity:1;fill-rule:nonzero;stroke:none;stroke-width:0.12"
       id="path422" /><path
       d="m 204.209,156.1403 c 4.8912,1.2588 4.2156,7.1676 2.1936,10.5936 -1.05,1.7712 -2.8752,3.8424 -5.0892,3.9216 -2.1576,0.0732 -5.9316,-0.8556 -6.3144,-3.3408 -0.1908,-1.266 0.7404,-2.5344 1.0152,-3.7644 0.4008,-1.806 0.642,-3.5616 1.6464,-5.166 1.5036,-2.4 3.9216,-2.922 6.5484,-2.244"
       style="fill:#f5b29c;fill-opacity:1;fill-rule:nonzero;stroke:none;stroke-width:0.12"
       id="path424" /><path
       d="m 198.389,160.5215 c -1.116,-0.168 -1.6284,0.8208 -1.3632,1.8024 0.492,1.8072 1.3788,0.642 2.3664,0.7164 0.63,0.0468 0,0 0,0 l 0.2784,2.2932 c 0,0 4.0164,-0.3804 3.1752,1.464 1.3236,-0.2172 4.7412,-0.9204 5.2044,1.0236 0.864,3.6024 -5.6532,3.6504 -7.5456,3.3636 -1.8624,-0.2796 -4.2144,-1.2888 -5.3196,-2.8656 -1.944,-2.7732 -0.4188,-10.416 3.654,-10.5948 l -0.45,2.7972"
       style="fill:#0b1238;fill-opacity:1;fill-rule:nonzero;stroke:none;stroke-width:0.12"
       id="path426" /><path
       d="m 225.1118,103.8635 h -0.1368 0.1368"
       style="fill:#2e3054;fill-opacity:1;fill-rule:nonzero;stroke:none;stroke-width:0.12"
       id="path428" /><path
       d="m 215.5574,143.2283 c -0.1548,-0.3 -0.3204,-0.5952 -0.5004,-0.882 -1.7412,-2.7636 -6.5736,-9.36 -8.4888,-9.0756 -1.914,0.2868 -6.9444,4.1112 -9.6684,6.0756 -3.1392,2.268 -9.2832,7.9812 -6.8712,10.2696 2.4204,2.292 3.5664,0.3816 7.5576,-1.998 2.6004,-1.554 4.9344,-3.5568 7.1712,-5.5872 0.8988,-0.8208 2.2656,-2.9856 2.2656,-2.9856 0,0 3.7152,3.4908 4.5864,4.5336 0.9756,1.17 1.1196,3.1788 1.8444,4.5156 1.8864,3.4752 3.78,7.68 4.8888,11.4144 0.5184,1.7508 0.486,2.7396 1.572,4.2564 1.944,-1.1184 -0.4836,-3.9672 0.6552,-5.5464 0.4764,-0.66 1.3884,-0.4584 1.884,-1.1112 0.7392,-0.9732 0.5532,-2.4936 -0.1128,-3.4128 -0.4236,-0.5856 -3.4476,-1.4904 -3.4152,-1.392 -0.002,-10e-4 -2.1396,-6.7044 -3.3684,-9.0744"
       style="fill:#f5b29c;fill-opacity:1;fill-rule:nonzero;stroke:none;stroke-width:0.12"
       id="path430" /><path
       d="m 207.2582,140.1587 c 0.1272,-0.0168 0.252,-0.0108 0.3768,0.0204 0.7968,0.1992 2.5404,3.1152 3.0984,3.876 0.7896,1.0776 1.746,2.178 2.3544,3.372 0.5724,1.1232 0.5568,3.714 1.7292,4.3884 1.7952,1.0236 5.1828,-1.6764 4.6068,-3.5904 -0.5832,-1.9404 -2.1144,-3.516 -2.8512,-5.3928 -0.6564,-1.6932 -1.3428,-3.3732 -2.4996,-4.8288 -2.2992,-2.8908 -3.9804,-6.4464 -8.2032,-5.664 -5.07,0.9396 -8.832,5.49 -12.3828,8.9016 -1.6368,1.5672 -6.4404,5.8776 -4.956,8.4312 1.8048,3.0948 7.9248,0.2604 9.7572,-1.224 1.8396,-1.4856 3.5328,-3.1128 5.2512,-4.7316 0.8748,-0.822 2.3892,-3.384 3.7188,-3.558"
       style="fill:#ffe3f1;fill-opacity:1;fill-rule:nonzero;stroke:none;stroke-width:0.12"
       id="path432" /><path
       d="m 352.3802,53.74442 c 0.156,-2.53212 4.1772,-3.59052 5.4228,-5.55744 -1.2936,-0.53016 -5.832,-0.29256 -7.0908,0.57744 -1.734,1.19628 -0.4416,4.22256 -2.4528,5.95692 l 4.1208,-0.97692"
       style="fill:#2e3054;fill-opacity:1;fill-rule:nonzero;stroke:none;stroke-width:0.12"
       id="path434" /><path
       d="m 323.4194,54.53618 c -0.132,-1.96692 0.5436,-3.8916 0.432,-5.9184 -2.9892,-0.41388 -5.496,-0.99708 -8.574,-0.83724 0.714,1.85256 2.2956,2.19804 3.9396,3.30564 2.6508,1.78224 1.3824,3.01824 2.3352,5.5692 l 1.8672,-2.1192"
       style="fill:#2e3054;fill-opacity:1;fill-rule:nonzero;stroke:none;stroke-width:0.12"
       id="path436" /><path
       d="m 329.7398,161.3903 c 0,0 -0.3156,-7.2864 -1.1628,-8.6904 -1.0968,-1.824 -3.4104,-0.7368 -3.9252,-3.0732 -0.324,-1.4604 0.5628,-3.4356 1.3356,-4.6284 2.3424,-3.6288 6.5472,-3.1428 10.4028,-3.8136 2.2044,-0.3864 4.5948,0.5988 5.316,2.8956 0.5616,1.8192 0.0396,4.9716 -1.2408,6.4512 -0.7728,0.8928 -2.1936,1.1172 -3.072,1.92 -0.0144,0.012 -2.37,2.1768 -2.2056,5.1408 0.1668,2.9712 -3.798,5.4516 -5.448,3.798"
       style="fill:#ecb49f;fill-opacity:1;fill-rule:nonzero;stroke:none;stroke-width:0.12"
       id="path438" /><path
       d="m 343.4942,123.5795 10.392,-70.41348 -5.112,-0.1692 -15.8892,47.29908 -8.034,-48.30828 -4.7472,0.33612 c 0,0 -0.3672,31.98 -0.1824,41.91216 0.1824,9.93 -0.3648,23.7324 3.8352,29.6232 0,0 13.9044,-3.5904 19.7376,-0.2796"
       style="fill:#2f4858;fill-opacity:1;fill-rule:nonzero;stroke:none;stroke-width:0.12"
       id="path440" /><path
       d="m 335.7986,154.6895 c -0.3852,0.8112 -0.672,1.8012 -0.6108,2.9028 v 0 0 c -0.0588,-1.1016 0.2268,-2.0904 0.612,-2.9004 0,-0.001 -10e-4,-0.001 -10e-4,-0.002 m -6.6612,0.0888 c 0,0 0,0 -0.001,0.001 0.4272,2.6184 0.6012,6.5412 0.6036,6.6096 -0.002,-0.0684 -0.1752,-3.9912 -0.6024,-6.6108 m 6.0516,2.8284 c 0,0.001 0,0.002 0,0.004 0,-10e-4 0,-0.002 0,-0.004 m 0,0.0144 c 0,0.001 0,0.002 0,0.002 0,0 0,-0.001 0,-0.002 m -5.4492,3.768 v 0 0 m 0,0.001 v 0 0 m 0,0 c 0.004,0.002 0.006,0.005 0.008,0.008 -0.002,-0.004 -0.006,-0.006 -0.008,-0.008"
       style="fill:#c29899;fill-opacity:1;fill-rule:nonzero;stroke:none;stroke-width:0.12"
       id="path442" /><path
       d="m 332.747,153.1463 c -1.6188,0 -2.772,0.6336 -3.6096,1.632 0.4272,2.6196 0.6,6.5424 0.6024,6.6108 v 0 0 c 0,10e-4 0,10e-4 0,10e-4 v 0 0 0 c 0.002,0.002 0.006,0.005 0.008,0.008 0.3552,0.3504 0.828,0.4812 1.3308,0.4908 0.8316,-0.096 1.7124,-0.4608 2.484,-1.0116 0.9588,-0.7992 1.686,-1.968 1.626,-3.2544 0,0 0,-10e-4 0,-0.002 0,-0.004 0,-0.007 0,-0.0108 0,-10e-4 0,-0.002 0,-0.004 0,-0.005 -0.001,-0.01 -0.001,-0.0144 v 0 c -0.0612,-1.1016 0.2256,-2.0916 0.6108,-2.9028 -0.7476,-0.888 -1.6692,-1.4976 -2.8308,-1.5396 -0.0744,-0.002 -0.1476,-0.004 -0.2208,-0.004"
       style="fill:#da7f63;fill-opacity:1;fill-rule:nonzero;stroke:none;stroke-width:0.12"
       id="path444" /><path
       d="m 336.7274,165.7151 c 0,0 3.192,-9.4224 -0.6708,-11.1168 -3.8664,-1.6896 -6.294,3.1656 -7.9908,6.7308 -1.8948,3.9912 -2.0376,5.3712 2.4516,7.4028 4.3248,1.962 6.21,-3.0168 6.21,-3.0168"
       style="fill:#ecb49f;fill-opacity:1;fill-rule:nonzero;stroke:none;stroke-width:0.12"
       id="path446" /><path
       d="m 332.723,121.6043 c -0.2172,0.0288 -0.4392,0.0648 -0.6612,0.1092 -2.0076,0.4044 -4.0128,0.9528 -5.8872,1.5756 -2.0952,0.6972 -2.9928,1.0704 -3.2964,3.4512 -0.2328,1.818 -0.2256,3.708 -0.4212,5.544 -0.2256,2.1492 -0.7464,3.8796 -1.266,5.91 -1.0908,4.254 -0.4548,8.3268 0.9564,12.4896 0.3216,0.9384 0.3372,2.1084 1.4664,2.4336 0.6096,0.1776 1.4016,0.5376 1.9524,0.4056 1.122,-0.27 2.3052,-0.3996 3.4572,-0.4248 l 4.3908,-22.5228 c 0,0 4.7076,19.8372 3.7584,22.3728 0.1908,-0.5052 5.0544,0.3768 5.622,0.4488 1.4484,0.1812 2.8836,-0.0192 3.486,-1.2096 1.0116,-2.0052 1.2756,-4.5276 0.9576,-6.7308 -0.3348,-2.3484 -0.7152,-4.9692 -1.3008,-7.2624 -0.5148,-2.0292 0.1632,-4.2096 -0.0624,-6.3564 -0.3024,-2.892 -1.0272,-5.6592 -1.2888,-8.5608 -4.1472,0.3684 -7.6248,-2.2056 -11.8632,-1.6728"
       style="fill:#ff9edd;fill-opacity:1;fill-rule:nonzero;stroke:none;stroke-width:0.12"
       id="path448" /><path
       d="m 337.3934,152.4515 -1.1976,1.464 -3.312,-2.448 -3.8892,2.5908 -0.4176,-1.3584 3.8748,-27.5964 2.1612,0.4356 2.7804,26.9124"
       style="fill:#ff9edd;fill-opacity:1;fill-rule:nonzero;stroke:none;stroke-width:0.12"
       id="path450" /><path
       d="m 332.7398,151.4675 0.9336,-1.98 -0.5388,-1.1916 2.3796,-21.066 -2.1612,-4.8624 -2.8092,4.7532 1.62,21.3924 -0.216,0.9744 0.792,1.98"
       style="fill:#fa7071;fill-opacity:1;fill-rule:nonzero;stroke:none;stroke-width:0.12"
       id="path452" /><path
       d="m 332.6918,170.7731 c 0.2832,-0.1848 0.5556,-0.3576 0.8532,-0.4008 0.2328,-0.0324 0.5568,0.3024 0.8232,0.3012 0.6252,-0.002 1.1952,0.102 1.8048,-0.1944 4.0548,-1.9704 1.7352,-6.7932 -1.68,-7.722 -1.5912,-0.4332 -3.234,0.5964 -4.782,-0.0324 0.5616,-1.4448 0.0192,-2.9256 -1.6788,-3.1464 -4.314,-0.5736 -4.8204,6.4956 -2.8368,8.8224 1.2516,1.4676 4.884,3.4428 6.7644,2.7744 0.2616,-0.0888 0.498,-0.2496 0.732,-0.402"
       style="fill:#2e3054;fill-opacity:1;fill-rule:nonzero;stroke:none;stroke-width:0.12"
       id="path454" /><path
       d="m 323.7446,125.3579 c 0.972,-0.2844 2.0892,-0.4524 3.054,-0.648 1.536,-0.3144 3.0852,-0.5616 4.6392,-0.7596 2.19,-0.2784 4.4088,-0.4392 6.618,-0.3372 2.1108,0.0996 3.8808,0.6636 5.856,1.254 0.0864,-0.822 -0.1872,-1.8588 -0.1716,-2.7444 -1.3704,-0.0264 -2.6748,-0.528 -4.0296,-0.72 -1.8924,-0.2652 -3.7368,-0.4296 -5.6964,-0.4332 -2.5572,-10e-4 -5.0304,0.7344 -7.4832,1.3668 -0.7752,0.1992 -2.5404,0.2496 -3.1356,0.7932 -0.4224,0.39 0.004,2.3316 -0.1368,2.3808 0.1584,-0.0564 0.318,-0.1056 0.486,-0.1524"
       style="fill:#2e3054;fill-opacity:1;fill-rule:nonzero;stroke:none;stroke-width:0.12"
       id="path456" /><path
       d="m 332.8838,151.4675 0.7896,-1.98 3.4584,1.6188 -3.8868,-2.16 -0.3612,2.5212"
       style="fill:#9dafe2;fill-opacity:1;fill-rule:nonzero;stroke:none;stroke-width:0.12"
       id="path458" /><path
       d="m 332.7398,151.4675 -0.792,-1.98 -3.4572,1.6188 3.888,-2.16 0.3612,2.5212"
       style="fill:#9dafe2;fill-opacity:1;fill-rule:nonzero;stroke:none;stroke-width:0.12"
       id="path460" /><path
       d="m 335.267,133.2287 c 1.5096,3.1896 4.0428,2.5956 5.5296,2.268 0.4848,-0.1068 1.4964,-0.3204 1.71,-1.0572 0.198,-0.6912 -0.3564,-2.1564 -0.4668,-2.8104 -0.8952,0.1728 -1.6296,0.6972 -2.61,0.4632 -0.8736,-0.216 -1.5804,-0.4344 -2.5524,-0.2904 l -1.6104,1.4268"
       style="fill:#ecb49f;fill-opacity:1;fill-rule:nonzero;stroke:none;stroke-width:0.12"
       id="path462" /><path
       d="m 345.3542,153.0575 c 0.3888,-0.0984 6.1584,-9.9144 4.4064,-24.3108 -1.2516,-10.2816 -12.5004,2.586 -16.4868,2.844 -0.3876,0.1188 -1.0272,2.9316 -1.0272,2.9316 0,0 3.8052,0.7752 7.188,-0.174 3.3828,-0.948 5.7972,-1.7232 5.7972,-1.7232 0,0 -1.5696,9.138 -1.3284,8.7936 0.24,-0.3444 -2.7876,12.3996 1.4508,11.6388"
       style="fill:#fb4797;fill-opacity:1;fill-rule:nonzero;stroke:none;stroke-width:0.12"
       id="path464" /><path
       d="m 334.1894,134.7455 c -1.4772,0.5496 -3.2652,-0.2844 -4.4868,-1.5384 -0.3996,-0.4104 -1.2312,-1.2528 -1.1868,-2.0496 0.0432,-0.744 1.0032,-1.692 1.3068,-2.2056 0.7428,0.7368 1.2312,1.6788 2.1792,2.1024 0.8472,0.3744 1.548,0.6372 2.3652,1.392 l -0.1776,2.2992"
       style="fill:#ecb49f;fill-opacity:1;fill-rule:nonzero;stroke:none;stroke-width:0.12"
       id="path466" /><path
       d="m 323.429,152.7983 c 0,0 -3.5964,1.02 -4.9968,-20.9628 -0.6612,-10.4112 12.486,-4.296 18.3444,-2.4864 0.1932,-0.03 -0.4836,3.3612 -0.4836,3.3612 0,0 -3.924,0.2592 -7.3068,-0.6888 -3.3816,-0.948 -4.7184,0.7764 -4.7184,0.7764 0,0 1.1748,8.3568 1.3284,8.7936 0.8532,2.4132 0.9144,11.8104 -2.1672,11.2068"
       style="fill:#fb4797;fill-opacity:1;fill-rule:nonzero;stroke:none;stroke-width:0.12"
       id="path468" /><path
       d="m 374.4458,62.51618 14.676,-31.1784 8.9016,-1.10628 c 0,0 -2.6832,3.8016 -6.5328,3.02064 l -4.896,17.2416 -4.5444,17.38776 c 0,0 -7.3116,4.28292 -7.6044,-5.36532"
       style="fill:#f5b29c;fill-opacity:1;fill-rule:nonzero;stroke:none;stroke-width:0.12"
       id="path470" /><path
       d="m 362.5826,65.46134 c 0,0 -1.4532,-22.34532 5.0904,-36.12276 0,0 8.4792,2.70984 7.6956,3.19584 0,0 -2.6244,1.06548 -4.3476,-0.31068 0,0 -3.96,16.70616 -1.548,27.55632 2.3724,10.68612 -3.102,7.23288 -6.8904,5.68128"
       style="fill:#f5b29c;fill-opacity:1;fill-rule:nonzero;stroke:none;stroke-width:0.12"
       id="path472" /><path
       d="m 378.083,122.1923 2.7552,-7.5792 c 0,0 -3.1548,-2.4012 -2.9268,-6.0264 0.2688,-4.3128 8.6148,-34.58892 8.6148,-34.58892 0,0 -16.1952,-9.26388 -24.978,-2.20176 -0.4464,0.36 0.018,4.1184 0.0216,4.66548 0.0264,3.71292 0.0732,7.42308 0.1512,11.1372 0.042,2.0604 1.398,5.3388 1.692,7.3812 0.1968,1.3692 1.6848,5.5344 1.7748,6.9252 0.2856,4.3968 -0.1776,3.1956 -2.3136,11.0052 -1.0824,3.6936 -0.0648,9.5004 3.636,11.508 3.864,2.0952 8.7924,0.8472 11.5728,-2.226"
       style="fill:#fa989c;fill-opacity:1;fill-rule:nonzero;stroke:none;stroke-width:0.12"
       id="path474" /><path
       d="m 367.3166,131.2355 c 0.8796,-4.1904 7.4172,-2.7372 8.526,-0.09 2.13,5.0904 -0.3552,8.9976 -0.3552,8.9976 -1.2408,4.0284 -2.3664,4.7352 -5.3268,4.9116 0,0 -5.448,-1.416 -2.844,-13.8192"
       style="fill:#f5b29c;fill-opacity:1;fill-rule:nonzero;stroke:none;stroke-width:0.12"
       id="path476" /><path
       d="m 378.9794,103.0295 c 0,0 7.5528,-15.8856 8.1036,-17.1696 1.5504,-3.606 2.9616,-7.3908 4.3584,-11.09616 1.4676,-3.89916 2.5368,-8.44224 0.6168,-12.3816 -2.088,-4.28304 -8.676,-3.32208 -12.1344,-5.34 -3.696,-2.16 -10.4676,-2.65824 -14.04,0.15792 -6.0108,4.74384 -5.5044,-0.74148 -9.5736,2.61984 -4.0728,3.3624 0.7632,13.12452 2.4852,20.9532 2.3088,12.6084 6.3924,21.8424 6.3924,21.8424 0,0 8.1096,-2.7816 13.7916,0.414"
       style="fill:#fa7071;fill-opacity:1;fill-rule:nonzero;stroke:none;stroke-width:0.12"
       id="path478" /><path
       d="m 374.8214,123.9947 c 2.484,1.4364 8.94,-8.898 10.608,-8.712 2.1828,0.2412 4.3512,5.0208 5.2848,6.6288 0.7176,1.2372 1.5024,2.5128 2.0436,3.8412 0.6936,1.7052 1.6164,2.9028 2.7432,4.4124 0.2136,-0.5184 0.1272,-1.3128 0.1644,-1.962 2.8548,1.1688 5.4864,2.25 8.5368,0.822 -0.3108,0.1452 -3.5304,-1.5408 -4.0116,-1.7664 -1.1136,-0.5196 -2.4024,-1.212 -3.3588,-2.0016 -1.7532,-1.4484 -2.766,-3.9948 -3.822,-5.9652 -1.2252,-2.2896 -2.394,-4.6068 -3.6204,-6.8952 -0.4188,-0.786 -1.2492,-3.1572 -2.1828,-3.5064 -1.4832,-0.5568 -10.668,6.3732 -10.668,6.3732 0,0 -8.0112,5.0892 -1.7172,8.7312"
       style="fill:#f5b29c;fill-opacity:1;fill-rule:nonzero;stroke:none;stroke-width:0.12"
       id="path480" /><path
       d="m 375.8066,138.6467 c 0,0 -1.4412,-1.0728 -3.6036,0.2688 0,0 -0.8652,-1.2084 0.144,-2.5512 0,0 -1.4244,1.0392 -1.7136,-0.8388 -0.1236,-0.8076 1.8576,-1.8432 1.8576,-1.8432 0,0 3.606,-7.5144 3.606,-11.6748 0,-4.2108 -4.5744,-11.6976 -12.6888,-8.7216 0,0 -3.9612,1.4628 -4.1388,5.9028 0,0 -4.0848,-1.5972 -5.3268,1.2432 -4.92,11.2452 5.4288,17.2764 5.4288,17.2764 0,0 0.5748,9.1248 9.8028,8.5872 6.0864,-0.354 9.0852,-5.6364 6.6324,-7.6488"
       style="fill:#0b1238;fill-opacity:1;fill-rule:nonzero;stroke:none;stroke-width:0.12"
       id="path482" /><path
       d="m 395.117,32.6615 c 1.7508,-0.92292 2.8164,-2.43 2.8164,-2.43 l -8.9028,1.10628 -0.7296,1.55148 c 3.0396,-1.75872 6.2124,-0.49632 6.816,-0.22776"
       style="fill:#2e3054;fill-opacity:1;fill-rule:nonzero;stroke:none;stroke-width:0.12"
       id="path484" /><path
       d="m 366.9806,30.68618 c 1.4124,0.21612 4.5696,0.73692 5.55,1.18308 0.936,0.42288 0.1008,0.77304 -0.4104,0.92916 1.5312,0.39372 3.1584,-0.264 3.1584,-0.264 0.786,-0.486 -7.6932,-3.19584 -7.6932,-3.19584 -0.2112,0.4392 -0.4104,0.89052 -0.6048,1.3476"
       style="fill:#2e3054;fill-opacity:1;fill-rule:nonzero;stroke:none;stroke-width:0.12"
       id="path486" /><path
       d="m 379.595,101.7347 c 0.0948,-0.198 0.1944,-0.4092 0.306,-0.6432 -0.7152,-0.2916 -5.2464,-2.0628 -9.6168,-2.0628 -2.1588,0 -4.2696,0.444 -5.8656,1.7028 0.0984,0.2532 0.1896,0.4836 0.2712,0.6864 4.3392,-3.6948 13.7484,-0.1428 14.9052,0.3168"
       style="fill:#2e3054;fill-opacity:1;fill-rule:nonzero;stroke:none;stroke-width:0.12"
       id="path488" /><path
       d="m 242.1362,136.0859 c -0.9648,-2.8608 -3.3828,-5.772 -5.8512,-7.5984 3.8232,-0.3492 7.65,-0.9996 11.4672,-1.2432 -0.5664,3.6756 -1.4232,6.444 -1.0188,10.2192 l -4.5972,-1.3776"
       style="fill:#f5b29c;fill-opacity:1;fill-rule:nonzero;stroke:none;stroke-width:0.12"
       id="path490" /><path
       d="m 254.015,70.11134 c 0.1356,-12.06276 0.6864,-24.41532 -0.2784,-36.10356 -2.1828,0.91452 -2.5572,1.0068 -3.9096,2.68824 -0.654,1.49388 0.8736,2.18856 2.0064,1.21308 -0.0552,5.33628 -1.9632,12.30612 -3.0072,17.4948 -0.732,3.6384 -4.1256,13.7676 -1.7712,16.84212 l 6.96,-2.13468"
       style="fill:#ba6b4f;fill-opacity:1;fill-rule:nonzero;stroke:none;stroke-width:0.12"
       id="path492" /><path
       d="m 253.8818,36.18374 c -0.0732,-0.19692 -0.2508,-0.46932 -0.696,-0.60612 -0.7464,-0.23388 -1.9608,0.88548 -2.4264,1.81776 -0.3828,0.7632 0.5532,0.65304 0.846,0.66468 -1.08,2.55756 -4.3512,1.43304 -3.7392,0.03612 1.3536,-1.67856 3.6876,-3.17388 5.8704,-4.0884 0.0588,0.72 0.096,1.4484 0.1452,2.17596"
       style="fill:#0b1238;fill-opacity:1;fill-rule:nonzero;stroke:none;stroke-width:0.12"
       id="path494" /><path
       d="m 243.7478,69.5999 c 0.1344,-12.06228 0.6864,-24.41616 -0.2772,-36.10308 -2.184,0.91176 -2.5572,1.00548 -3.9096,2.68692 -0.6552,1.49388 0.8712,2.18856 2.0052,1.21308 -0.054,5.33628 -1.9632,12.30612 -3.006,17.49612 -0.7332,3.63696 -4.1268,13.76616 -1.7724,16.8408 l 6.96,-2.13384"
       style="fill:#ba6b4f;fill-opacity:1;fill-rule:nonzero;stroke:none;stroke-width:0.12"
       id="path496" /><path
       d="m 243.6158,35.66858 c -0.0744,-0.19644 -0.2508,-0.46644 -0.696,-0.60564 -0.7464,-0.2316 -1.9608,0.88548 -2.4276,1.82016 -0.3816,0.76212 0.5532,0.65148 0.846,0.66372 -0.8928,2.0916 -3.8844,0.68628 -3.2724,-0.7092 1.3524,-1.68144 3.2208,-2.42904 5.4048,-3.3408 0.0576,0.72 0.096,1.4484 0.1452,2.17176"
       style="fill:#0b1238;fill-opacity:1;fill-rule:nonzero;stroke:none;stroke-width:0.12"
       id="path498" /><path
       d="m 239.0414,143.1071 c -1.8024,-3.2892 -0.9252,-11.3316 4.3188,-10.3668 4.7496,0.8724 7.0248,8.4156 5.0964,12.1476 -2.6964,5.2068 -7.3368,2.0112 -9.4152,-1.7808"
       style="fill:#ba6b4f;fill-opacity:1;fill-rule:nonzero;stroke:none;stroke-width:0.12"
       id="path500" /><path
       d="m 251.1794,126.6683 c 1.2708,3.1284 2.1204,2.0556 4.4928,-1.2648 2.3712,-3.3192 4.77,-14.802 4.5048,-15.7848 -0.24,-0.8736 -8.3052,-14.9172 -8.3052,-14.9172 l -1.5432,7.3296 c 0,0 4.6296,5.7828 4.8228,8.0976 0.1908,2.3136 -5.2404,13.4112 -3.972,16.5396"
       style="fill:#b4d1fe;fill-opacity:1;fill-rule:nonzero;stroke:none;stroke-width:0.12"
       id="path502" /><path
       d="m 236.9282,129.0251 c 0.8388,0.8664 -0.0336,0.9264 1.3428,1.1592 4.758,0.8112 10.9512,2.0856 14.5008,-2.1192 2.1972,-2.6028 2.6208,-7.3032 1.794,-10.4256 -1.5048,-5.682 -2.88,-8.82 -2.6568,-10.8432 0.2208,-2.0232 0.2232,-7.6824 1.0644,-9.8676 0,0 -20.3172,-1.1916 -17.1372,4.482 2.904,5.1804 1.1748,10.53 -0.498,15.4668 -1.1004,3.2556 -0.9648,9.4968 1.59,12.1476"
       style="fill:#ffffff;fill-opacity:1;fill-rule:nonzero;stroke:none;stroke-width:0.12"
       id="path504" /><path
       d="m 236.6378,103.6043 c -0.9084,-2.8428 -2.61,-5.4168 -3.2952,-8.4324 -0.882,-3.87 -1.2696,-7.8468 -1.5588,-11.79816 -0.402,-5.41692 0.6324,-10.63368 -1.2216,-15.62772 4.2036,-0.83532 9.3132,-1.35984 13.1556,-1.36212 2.6808,0 5.3796,-0.2508 8.0532,0.01212 0.9156,0.09096 3.0456,0.09612 3.7488,0.72936 0.8028,0.72144 0.8136,3.34836 0.9828,4.37064 0.8628,5.24772 0.834,11.00856 0.3096,16.38948 -0.4404,4.5432 -1.4988,10.3056 -3.7416,14.34 -0.3072,0.5556 -0.7704,2.022 -1.254,2.3712 -0.7548,0.546 -2.6412,0.162 -3.54,0.1296 -1.71,-0.0636 -3.4248,-0.2964 -5.1384,-0.2964 -0.342,0 -6.3504,-0.4512 -6.156,0.4524 -0.0924,-0.4356 -0.21,-0.858 -0.3444,-1.278"
       style="fill:#2a2b7c;fill-opacity:1;fill-rule:nonzero;stroke:none;stroke-width:0.12"
       id="path506" /><path
       d="m 252.3458,138.0515 c 0.0504,0.198 0.12,0.4128 0.2088,0.648 1.1292,2.9892 1.0584,5.2092 -0.528,7.9524 -1.014,1.7556 -2.6784,3.2448 -4.6056,3.7464 -1.092,0.2844 -2.3496,0.2232 -3.3708,-0.0576 -3.12,-0.8568 -6.2628,-4.2444 -5.7984,-7.6596 0.2964,-2.178 2.7672,-1.5228 3.0576,-3.9492 0.3384,-2.8236 -1.8588,-4.6692 -2.022,-7.4148 -0.1392,-2.3964 0.834,-4.9116 3.0348,-6.0792 5.4084,-2.874 14.6628,2.0676 11.4396,8.85 -0.8832,1.8576 -1.836,2.2788 -1.416,3.9636"
       style="fill:#0b1238;fill-opacity:1;fill-rule:nonzero;stroke:none;stroke-width:0.12"
       id="path508" /><path
       d="m 222.383,100.2167 -3.9192,-3.36 2.9856,0.5592 c 0,0 -4.8828,-4.422 -3.9204,-5.7876 2.2404,-3.1728 8.2152,7.0944 8.2152,7.0944 l -3.3612,1.494"
       style="fill:#ba6b4f;fill-opacity:1;fill-rule:nonzero;stroke:none;stroke-width:0.12"
       id="path510" /><path
       d="m 237.8774,129.8987 c -2.5068,2.1492 -6.5328,-17.55 -6.5328,-17.55 l -9.708,-12.6924 c 0,0 2.7984,-2.4276 2.9868,-2.988 0.186,-0.5604 11.574,13.6284 11.574,13.6284 0,0 5.6004,16.242 1.68,19.602"
       style="fill:#b4d1fe;fill-opacity:1;fill-rule:nonzero;stroke:none;stroke-width:0.12"
       id="path512" /><path
       d="m 443.8934,56.46842 c -0.216,-1.95984 0.3768,-3.91224 0.18,-5.9316 -3.0048,-0.28452 -5.5344,-0.75984 -8.6016,-0.4692 0.7908,1.8192 2.388,2.0976 4.0764,3.13308 2.7252,1.6692 1.512,2.95548 2.5728,5.46612 l 1.7724,-2.1984"
       style="fill:#0b1238;fill-opacity:1;fill-rule:nonzero;stroke:none;stroke-width:0.12"
       id="path514" /><path
       d="m 458.1746,55.34762 c -0.2148,-1.95852 0.3768,-3.9108 0.18,-5.9292 -3.0048,-0.28548 -5.5332,-0.76224 -8.6028,-0.4716 0.792,1.8192 2.3892,2.09856 4.0764,3.13452 2.7252,1.66776 1.512,2.95548 2.574,5.46468 l 1.7724,-2.1984"
       style="fill:#0b1238;fill-opacity:1;fill-rule:nonzero;stroke:none;stroke-width:0.12"
       id="path516" /><path
       d="m 445.8962,114.7055 -6.4404,-60.4848 6.1608,-0.83856 5.88,40.60296 1.68,-40.32504 6.1608,-0.27792 c 0,0 5.2308,28.79712 5.6004,37.24176 1.1208,10.9224 2.094,18.9768 -1.68,23.5224 0,0 -12.564,-1.6464 -17.3616,0.5592"
       style="fill:#4f528d;fill-opacity:1;fill-rule:nonzero;stroke:none;stroke-width:0.12"
       id="path518" /><path
       d="m 461.9342,144.9347 c -1.0536,1.5408 -2.4864,2.7444 -3.408,4.4604 -0.2448,0.4584 -1.2048,3.9948 -1.6008,4.0596 -1.4976,0.2592 -3.9456,0.7932 -5.052,-0.366 -1.146,-1.1988 -0.8784,-4.3452 -1.452,-5.8692 -0.3096,-0.8292 -1.1352,-1.4136 -1.4772,-2.1648 -1.3296,-2.9568 1.9524,-7.8228 2.952,-10.584 0.6516,-1.7964 1.1712,-5.0604 3.2268,-6.0252 2.886,-1.3548 4.9536,2.322 5.97,4.4172 0.678,1.3956 1.4088,2.9532 1.5732,4.4916 0.15,1.4352 0.7584,3.684 0.4116,5.0928 -0.234,0.9624 -0.6468,1.7628 -1.1436,2.4876"
       style="fill:#ba6b4f;fill-opacity:1;fill-rule:nonzero;stroke:none;stroke-width:0.12"
       id="path520" /><path
       d="m 451.2602,151.9355 c 0.132,0.5364 0.3168,1.0032 0.5952,1.326 0.4644,0.5412 1.1964,0.7104 1.9788,0.7104 0.4368,0 0.8904,-0.0528 1.3224,-0.1236 0.0276,-0.0396 0.0564,-0.0792 0.0852,-0.1212 -0.3816,0.0468 -0.7704,0.078 -1.1484,0.078 -0.8784,0 -1.698,-0.1692 -2.22,-0.7164 -0.276,-0.2892 -0.4692,-0.69 -0.6132,-1.1532"
       style="fill:#cfa09f;fill-opacity:1;fill-rule:nonzero;stroke:none;stroke-width:0.12"
       id="path522" /><path
       d="m 450.965,146.9519 c -0.192,0 -0.3816,0.018 -0.57,0.0552 l -0.005,0.0612 c 0.0648,0.1248 0.126,0.2508 0.1716,0.384 0.3696,1.0992 0.3456,3.0456 0.6984,4.4832 0.144,0.4632 0.3372,0.864 0.6132,1.1532 0.522,0.5472 1.3416,0.7164 2.22,0.7164 0.378,0 0.7668,-0.0312 1.1484,-0.078 0.4764,-0.6864 1.0152,-1.5252 1.3776,-2.0604 -0.1212,-0.2784 -0.2652,-0.5688 -0.4428,-0.8628 -1.0944,-1.86 -3.2028,-3.852 -5.2116,-3.852"
       style="fill:#ac4c31;fill-opacity:1;fill-rule:nonzero;stroke:none;stroke-width:0.12"
       id="path524" /><path
       d="m 455.615,150.7247 c 0.3732,0.2352 0.7104,0.4824 0.9864,0.7332 2.0364,1.8564 1.6932,7.2204 0.9492,9.7164 -0.834,2.7888 -2.7456,4.05 -5.1696,4.1148 -5.8488,0.1536 -6.9756,-10.6968 -4.0584,-14.7036 1.5072,-2.0712 5.1048,-1.212 7.2924,0.1392"
       style="fill:#ba6b4f;fill-opacity:1;fill-rule:nonzero;stroke:none;stroke-width:0.12"
       id="path526" /><path
       d="m 437.3282,115.4135 c -0.8784,-1.7676 -3.5892,-3.9252 -3.7536,-4.68 -0.1644,-0.7524 1.7088,0.2412 1.7088,0.2412 0,0 -3.0252,-5.4492 -1.6584,-6 1.1652,-0.4692 5.2008,4.7508 5.4984,6.2136 0.3,1.464 1.0428,2.7048 1.0428,2.7048 0,0 -1.9608,3.2916 -2.838,1.5204"
       style="fill:#ba6b4f;fill-opacity:1;fill-rule:nonzero;stroke:none;stroke-width:0.12"
       id="path528" /><path
       d="m 435.5222,114.2843 c 0,0 3.612,6.024 5.3148,9.318 3.7728,7.3008 6.6756,18.2952 6.6756,18.2952 l 3.6108,-4.9236 -3.0732,-13.7652 -8.2344,-11.8968 -4.2936,2.9724"
       style="fill:#7ab6f6;fill-opacity:1;fill-rule:nonzero;stroke:none;stroke-width:0.12"
       id="path530" /><path
       d="m 444.6038,109.0007 c -0.0876,5.0952 -0.2112,18.5424 0.4764,23.5776 0.7092,5.1948 1.6956,9.5256 4.5084,14.0676 0,0 1.0752,-1.3296 1.8972,-1.6872 0.8244,-0.3552 1.9824,-0.0372 2.8152,0.1428 0.1704,0.0384 0.324,0.072 0.4608,0.102 1.1232,0.2424 2.2572,0.8172 3.234,1.572 2.25,1.7424 7.7064,-1.8228 8.6916,-4.1796 1.3056,-3.1224 2.1684,-6.8472 2.6448,-10.206 0.7524,-5.3172 -3.174,-19.812 -4.9128,-24.7104 l -19.8156,1.3212"
       style="fill:#c7e6fe;fill-opacity:1;fill-rule:nonzero;stroke:none;stroke-width:0.12"
       id="path532" /><path
       d="m 460.9514,107.0183 c 0,0 -2.9736,-5.1168 -1.1568,-8.088 1.8168,-2.9748 2.9724,4.2912 4.128,6.9324 1.1556,2.6412 -1.8156,2.9724 -2.9712,1.1556"
       style="fill:#ba6b4f;fill-opacity:1;fill-rule:nonzero;stroke:none;stroke-width:0.12"
       id="path534" /><path
       d="m 460.1258,106.5239 c 0.516,3.5556 5.52,14.028 5.118,16.512 -0.8712,5.376 -7.7976,20.718 -4.0212,23.1888 1.0704,0.6996 3.3288,-0.3768 5.3904,-3.6732 1.692,-2.7096 4.5804,-12.5592 5.2356,-18.5244 0.54,-4.9128 -6.6096,-15.8796 -7.4292,-19.1556 l -4.2936,1.6524"
       style="fill:#7ab6f6;fill-opacity:1;fill-rule:nonzero;stroke:none;stroke-width:0.12"
       id="path536" /><path
       d="m 445.4066,161.7299 c 0.3768,0.126 0.5736,0.426 0.9792,0.528 0.1188,-0.006 0.1152,-0.012 -0.007,-0.0168 -2.3208,1.686 2.016,3.4764 3.1416,3.7476 2.9028,0.702 5.598,0.8364 7.9164,-1.3248 1.5408,-1.4352 2.3016,-3.5832 1.9428,-5.6688 -0.4932,-2.8512 -2.358,-3.0408 -3.9972,-4.7304 1.8528,1.9104 -1.5696,4.9176 -3.0768,5.4048 -1.8456,0.594 -3.126,-0.93 -5.0508,-0.2844 -0.2508,0.0828 -3.0444,1.9356 -1.848,2.3448"
       style="fill:#2e3054;fill-opacity:1;fill-rule:nonzero;stroke:none;stroke-width:0.12"
       id="path538" /><path
       d="m 459.299,106.6883 c 0,0 -0.6612,-4.458 3.798,-6.1104 l -0.6612,-5.1192 c 0,0 -9.4116,6.7716 -3.1368,11.2296"
       style="fill:#0b1238;fill-opacity:1;fill-rule:nonzero;stroke:none;stroke-width:0.12"
       id="path540" /><path
       d="m 229.6646,194.0783 c -1.9308,-8.0388 -10.6224,-6.6 -17.0688,-6.6072 -4.8228,-0.005 -9.582,0.366 -14.4,0.6012 -4.908,0.2412 -10.0032,0.1248 -15,0.2988 -4.4952,0.1572 -10.1112,-0.4212 -14.1408,2.0364 -3.6096,2.2008 -3.504,6.8556 -3.9744,10.8276 -0.714,6.0336 -0.9432,12.4524 -0.4008,18.5112 0.4368,4.8744 -1.584,10.674 0.4572,15.1848 1.3188,2.9148 1.842,2.4864 5.16,2.64 4.7148,0.2208 8.8704,1.5468 13.6356,1.5504 5.202,0.005 10.3812,-0.6504 15.5808,-0.6504 5.5968,0 11.2116,0.186 16.7976,0.204 2.7876,0.01 8.748,0.9888 10.9236,-1.164 0.5268,-0.5208 1.1844,-3.9624 1.4952,-4.8048 2.0856,-5.6328 0.966,-12.8352 0.966,-18.9312 0,-3.546 1.5108,-13.2768 -0.0312,-19.6968"
       style="fill:#7ab6f6;fill-opacity:1;fill-rule:nonzero;stroke:none;stroke-width:0.12"
       id="path542" /><path
       d="m 283.6646,172.8791 c -1.6752,-6.9756 -8.4396,-6.8148 -14.412,-6.6552 -0.9108,0.0252 -1.8036,0.0492 -2.6568,0.048 -4.8228,-0.005 -9.582,0.3648 -14.4,0.6012 -4.908,0.2412 -10.0032,0.1248 -15,0.2988 -4.4952,0.156 -10.1112,-0.4212 -14.1408,2.0352 -3.6096,2.202 -3.504,6.8568 -3.9744,10.8276 -0.714,6.0336 -0.9432,12.4524 -0.4008,18.5112 0.4368,4.8744 -1.584,10.6752 0.4572,15.186 1.3188,2.9148 1.842,2.4852 5.16,2.64 4.7148,0.2196 8.8704,1.5456 13.6356,1.5492 5.202,0.005 10.3812,-0.6492 15.5808,-0.6492 5.5968,0 11.2116,0.186 16.7976,0.204 2.7876,0.008 8.748,0.9876 10.9236,-1.1652 0.5268,-0.5196 1.1844,-3.9624 1.4952,-4.8048 2.0856,-5.6316 0.966,-12.834 0.966,-18.93 0,-3.5472 1.5108,-13.2768 -0.0312,-19.6968"
       style="fill:#fb4797;fill-opacity:1;fill-rule:nonzero;stroke:none;stroke-width:0.12"
       id="path544" /><path
       d="m 341.5646,192.8783 c -0.84,-3.4932 -2.5848,-6.006 -5.9688,-6.0072 -13.6164,0 -27.2304,0 -40.8468,0 -3.4596,0 -10.1604,-1.2684 -13.2108,0.54 -3.6348,2.1552 -4.1256,8.9832 -4.5576,12.624 -0.9888,8.3664 -0.4056,16.7376 -0.2796,25.128 0.042,2.8788 -0.9,5.2752 1.134,7.4736 7.2588,7.8444 24.0588,4.6344 33.5784,4.6344 8.9952,0 18.342,0.7248 27.1644,-1.2144 5.412,-1.1892 3.6576,-5.8368 3.0828,-9.648 -0.6684,-4.4184 -0.0648,-9.3684 -0.0648,-13.8336 0,-3.546 1.5108,-13.2768 -0.0312,-19.6968"
       style="fill:#ff9edd;fill-opacity:1;fill-rule:nonzero;stroke:none;stroke-width:0.12"
       id="path546" /><path
       d="m 248.1411,181.90033 c -0.5568,0 -1.038,0.1908 -1.4448,0.5712 -0.408,0.3804 -0.6108,0.8388 -0.6108,1.3788 0,0.5388 0.2004,1.0044 0.5976,1.3932 0.3984,0.3888 0.876,0.5832 1.4328,0.5832 0.5568,0 1.038,-0.1896 1.446,-0.57 0.4056,-0.3804 0.6096,-0.84 0.6096,-1.38 0,-0.5388 -0.1992,-1.0032 -0.5964,-1.392 -0.3972,-0.39 -0.8772,-0.5844 -1.434,-0.5844 m 1.446,5.8896 h -2.9988 v 1.6188 c 0,0.7056 0.0852,1.2324 0.2532,1.5768 0.168,0.3456 0.5352,0.8016 1.1004,1.3668 l 1.9368,1.9368 c 0.4068,0.4416 0.6108,0.99 0.6108,1.6452 0,0.654 -0.2124,1.1976 -0.6372,1.6308 -0.4236,0.4332 -0.9732,0.6492 -1.644,0.6492 -0.672,0 -1.2324,-0.2064 -1.6836,-0.6228 -0.4512,-0.4152 -0.7128,-0.9684 -0.7848,-1.6572 h -3.2088 c 0.1764,1.5732 0.792,2.8068 1.8432,3.6996 1.0536,0.8928 2.3652,1.3392 3.9396,1.3392 1.5732,0 2.8572,-0.4284 3.8472,-1.2864 0.99,-0.858 1.4844,-2.0544 1.4844,-3.594 0,-1.0608 -0.2916,-1.9452 -0.8736,-2.652 -0.336,-0.426 -0.594,-0.726 -0.7716,-0.9024 -0.1764,-0.1776 -0.4092,-0.4032 -0.7008,-0.6768 -0.2928,-0.2748 -0.54,-0.5124 -0.7452,-0.7152 -0.2028,-0.2052 -0.3672,-0.3768 -0.4896,-0.5172 -0.3168,-0.39 -0.4776,-0.9384 -0.4776,-1.6452 v -1.194"
       style="fill:#f4e0ea;fill-opacity:1;fill-rule:nonzero;stroke:none;stroke-width:0.12"
       id="path588-3" /><path
       d="m 258.9903,181.82113 c -0.5388,0 -1.0032,0.1956 -1.392,0.5832 -0.39,0.3888 -0.5844,0.8532 -0.5844,1.3932 0,0.54 0.1944,1.0032 0.5844,1.3932 0.3888,0.3888 0.8532,0.5832 1.392,0.5832 0.5412,0 1.0044,-0.1944 1.3944,-0.5832 0.3888,-0.39 0.582,-0.8532 0.582,-1.3932 0,-0.54 -0.1932,-1.0044 -0.582,-1.3932 -0.39,-0.3876 -0.8532,-0.5832 -1.3944,-0.5832 m 1.0476,6.2076 h -2.1216 l -0.7956,9.576 v 3.4224 h 3.714 v -3.4224 l -0.7968,-9.576"
       style="fill:#f4e0ea;fill-opacity:1;fill-rule:nonzero;stroke:none;stroke-width:0.12"
       id="path590" /><path
       d="m 412.199,170.4287 c -0.804,-3.8472 -2.4744,-6.6132 -5.7156,-6.6132 -13.038,0 -26.0748,0 -39.1128,0 -3.3132,0 -9.7296,-1.3968 -12.6492,0.5928 -3.4824,2.3724 -3.9516,9.8904 -4.3644,13.8984 -0.948,9.2124 -0.3888,18.4296 -0.2688,27.6672 0.0396,3.1692 -0.8628,5.808 1.086,8.2272 6.9504,8.6376 23.0376,5.1036 32.1528,5.1036 8.6136,0 17.5644,0.798 26.0124,-1.338 5.1828,-1.3092 3.5028,-6.426 2.952,-10.6224 -0.6396,-4.8636 -0.0624,-10.314 -0.0624,-15.2292 0,-3.9048 1.446,-14.6184 -0.03,-21.6864"
       style="fill:#ffffff;fill-opacity:1;fill-rule:nonzero;stroke:none;stroke-width:0.12"
       id="path548" /><path
       d="m 474.1646,185.4791 c -1.9308,-8.0388 -10.6224,-6.6 -17.0688,-6.6072 -4.8228,-0.005 -9.582,0.3648 -14.4,0.6012 -4.908,0.2412 -10.0032,0.1248 -15,0.2988 -4.4952,0.156 -10.1112,-0.4212 -14.1408,2.0352 -3.6096,2.202 -3.504,6.8556 -3.9744,10.8276 -1.326,11.2116 -3.1452,25.9884 6.4968,33.8544 8.2008,6.69 18.2988,3.3828 27.936,3.3828 5.4708,0 11.2308,0.7128 16.6704,0.1608 4.0308,-0.4092 8.5836,-0.01 11.5656,-3.2124 3.57,-3.8352 3.5412,-7.884 2.6292,-12.5268 -1.8732,-9.5412 1.5552,-19.368 -0.714,-28.8144"
       style="fill:#dd95aa;fill-opacity:1;fill-rule:nonzero;stroke:none;stroke-width:0.12"
       id="path550" /><path
       d="m 447.0974,181.2719 c -0.2256,-4.1652 -2.7204,-8.0628 -3.2268,-12.258 2.2032,2.6988 6.0564,4.1268 8.4372,6.6468 2.5284,2.6784 2.7252,5.3208 3.5904,8.8104 l -8.8008,-3.1992"
       style="fill:#dd95aa;fill-opacity:1;fill-rule:nonzero;stroke:none;stroke-width:0.12"
       id="path552" /><path
       d="m 376.6982,166.4711 c -0.6516,-4.5636 3.1344,-8.9592 6.33,-11.5692 0.4044,3.9276 -3.0024,9.3 -0.33,12.7692 l -6,-1.2"
       style="fill:#ffffff;fill-opacity:1;fill-rule:nonzero;stroke:none;stroke-width:0.12"
       id="path554" /><path
       d="m 187.0982,191.6711 c 2.5128,-4.8552 4.1352,-8.1972 8.1384,-12.3396 -1.8528,2.8032 -2.9748,8.772 1.4616,10.74 l -9.6,1.5996"
       style="fill:#7ab6f6;fill-opacity:1;fill-rule:nonzero;stroke:none;stroke-width:0.12"
       id="path556" /><path
       d="m 253.0982,169.6715 c 0.9804,-2.2884 0.2904,-6.2928 0.48,-9.078 2.076,2.622 4.4988,5.46 5.52,8.6784 l -6,0.3996"
       style="fill:#fb4797;fill-opacity:1;fill-rule:nonzero;stroke:none;stroke-width:0.12"
       id="path558" /><path
       d="m 307.0982,189.6719 c -1.5636,-3.696 -1.7052,-8.3844 -3.9396,-11.9388 2.7732,3.3588 8.7972,5.4624 9.9396,10.338 l -6,1.6008"
       style="fill:#ff9edd;fill-opacity:1;fill-rule:nonzero;stroke:none;stroke-width:0.12"
       id="path560" /><path
       d="m 459.8978,209.2715 c 0,-0.4416 -0.3588,-0.8004 -0.8004,-0.8004 h -33.1992 c -0.4416,0 -0.8004,0.3588 -0.8004,0.8004 0,0.4428 0.3588,0.8004 0.8004,0.8004 h 33.1992 c 0.4416,0 0.8004,-0.3576 0.8004,-0.8004"
       style="fill:#ffffff;fill-opacity:1;fill-rule:nonzero;stroke:none;stroke-width:0.12"
       id="path562" /><path
       d="m 459.8978,203.6711 c 0,-0.4416 -0.3588,-0.7992 -0.8004,-0.7992 h -33.1992 c -0.4416,0 -0.8004,0.3576 -0.8004,0.7992 0,0.4428 0.3588,0.8004 0.8004,0.8004 h 33.1992 c 0.4416,0 0.8004,-0.3576 0.8004,-0.8004"
       style="fill:#ffffff;fill-opacity:1;fill-rule:nonzero;stroke:none;stroke-width:0.12"
       id="path564" /><path
       d="m 459.8978,198.0707 c 0,-0.4416 -0.3588,-0.7992 -0.8004,-0.7992 h -33.1992 c -0.4416,0 -0.8004,0.3576 -0.8004,0.7992 0,0.4428 0.3588,0.8004 0.8004,0.8004 h 33.1992 c 0.4416,0 0.8004,-0.3576 0.8004,-0.8004"
       style="fill:#ffffff;fill-opacity:1;fill-rule:nonzero;stroke:none;stroke-width:0.12"
       id="path566" /><path
       d="m 213.8978,220.0715 c 0,-0.4416 -0.3588,-0.8004 -0.8004,-0.8004 h -33.1992 c -0.4428,0 -0.8004,0.3588 -0.8004,0.8004 0,0.4428 0.3576,0.8004 0.8004,0.8004 h 33.1992 c 0.4416,0 0.8004,-0.3576 0.8004,-0.8004"
       style="fill:#f7f5dd;fill-opacity:1;fill-rule:nonzero;stroke:none;stroke-width:0.12"
       id="path568" /><path
       d="m 213.8978,214.4711 c 0,-0.4416 -0.3588,-0.7992 -0.8004,-0.7992 h -33.1992 c -0.4428,0 -0.8004,0.3576 -0.8004,0.7992 0,0.4428 0.3576,0.8004 0.8004,0.8004 h 33.1992 c 0.4416,0 0.8004,-0.3576 0.8004,-0.8004"
       style="fill:#f7f5dd;fill-opacity:1;fill-rule:nonzero;stroke:none;stroke-width:0.12"
       id="path570" /><path
       d="m 213.8978,208.8707 c 0,-0.4416 -0.3588,-0.7992 -0.8004,-0.7992 h -33.1992 c -0.4428,0 -0.8004,0.3576 -0.8004,0.7992 0,0.4428 0.3576,0.8004 0.8004,0.8004 h 33.1992 c 0.4416,0 0.8004,-0.3576 0.8004,-0.8004"
       style="fill:#f7f5dd;fill-opacity:1;fill-rule:nonzero;stroke:none;stroke-width:0.12"
       id="path572" /><path
       d="m 292.2986,211.8719 c 0,-1.2156 -0.9852,-2.2008 -2.2008,-2.2008 -1.2156,0 -2.1996,0.9852 -2.1996,2.2008 0,1.2144 0.984,2.1996 2.1996,2.1996 1.2156,0 2.2008,-0.9852 2.2008,-2.1996"
       style="fill:#ffffff;fill-opacity:1;fill-rule:nonzero;stroke:none;stroke-width:0.12"
       id="path574" /><path
       d="m 302.8994,211.8719 c 0,-1.2156 -0.9852,-2.2008 -2.2008,-2.2008 -1.2156,0 -2.1996,0.9852 -2.1996,2.2008 0,1.2144 0.984,2.1996 2.1996,2.1996 1.2156,0 2.2008,-0.9852 2.2008,-2.1996"
       style="fill:#ffffff;fill-opacity:1;fill-rule:nonzero;stroke:none;stroke-width:0.12"
       id="path576" /><path
       d="m 313.5002,211.8719 c 0,-1.2156 -0.9852,-2.2008 -2.2008,-2.2008 -1.2156,0 -2.1996,0.9852 -2.1996,2.2008 0,1.2144 0.984,2.1996 2.1996,2.1996 1.2156,0 2.2008,-0.9852 2.2008,-2.1996"
       style="fill:#ffffff;fill-opacity:1;fill-rule:nonzero;stroke:none;stroke-width:0.12"
       id="path578" /><path
       d="m 324.101,211.8719 c 0,-1.2156 -0.9852,-2.2008 -2.2008,-2.2008 -1.2156,0 -2.1996,0.9852 -2.1996,2.2008 0,1.2144 0.984,2.1996 2.1996,2.1996 1.2156,0 2.2008,-0.9852 2.2008,-2.1996"
       style="fill:#ffffff;fill-opacity:1;fill-rule:nonzero;stroke:none;stroke-width:0.12"
       id="path580" /><path
       d="m 374.1182,197.6831 c -0.1368,0 -0.2748,0.004 -0.4152,0.0108 -1.1892,0.06 -2.436,0.444 -3.6408,0.8136 -1.9488,0.5988 -3.7896,1.164 -5.1732,0.3708 -0.2856,-0.1656 -0.654,-0.0672 -0.8184,0.2196 -0.1656,0.288 -0.0672,0.654 0.2208,0.8196 1.83,1.0572 4.0128,0.3852 6.1236,-0.2628 1.134,-0.3492 2.3076,-0.7092 3.3492,-0.762 1.7784,-0.0972 3.0408,0.4752 4.3992,1.0716 1.3704,0.6024 2.7828,1.2228 4.6164,1.0404 0.7272,-0.0732 1.3476,-0.4188 1.9488,-0.7536 0.7176,-0.3996 1.3944,-0.7764 2.2872,-0.7764 0.8556,0 1.5168,0.33 2.2848,0.7116 0.672,0.3336 1.368,0.6804 2.244,0.8196 2.0148,0.3216 3.9228,-0.1584 5.9436,-0.6672 1.2972,-0.3264 2.64,-0.6648 4.0272,-0.7752 0.33,-0.0264 0.576,-0.3156 0.5496,-0.6456 -0.0264,-0.3312 -0.3192,-0.5808 -0.6456,-0.5508 -1.4868,0.12 -2.8788,0.4692 -4.224,0.8076 -1.8972,0.4764 -3.6912,0.9264 -5.4612,0.6468 -0.696,-0.1116 -1.2804,-0.402 -1.9008,-0.7104 -0.8256,-0.4116 -1.6812,-0.8364 -2.8164,-0.8364 -1.2048,0 -2.0904,0.4932 -2.8716,0.9276 -0.54,0.3 -1.0068,0.5604 -1.4856,0.6084 -1.5144,0.1548 -2.7288,-0.3804 -4.014,-0.9456 -1.2672,-0.5556 -2.6916,-1.182 -4.5276,-1.182"
       style="fill:#ff9edd;fill-opacity:1;fill-rule:nonzero;stroke:none;stroke-width:0.12"
       id="path582" /><path
       d="m 383.6042,189.6551 c -0.7584,0 -1.3608,0.21 -2.346,0.5532 l -0.6684,0.2304 c -0.5436,0.1848 -1.0128,0.4644 -1.4664,0.7356 -0.8964,0.5364 -1.674,0.9972 -2.9328,0.7512 -0.7956,-0.1548 -1.3056,-0.4884 -1.8432,-0.8424 -0.7464,-0.4896 -1.512,-0.996 -2.8608,-0.84 -0.72,0.0828 -1.2816,0.4368 -1.8252,0.7788 -0.6852,0.4308 -1.3308,0.8388 -2.382,0.8388 -1.0128,-0.004 -2.0256,-0.3708 -3.006,-0.7272 -0.5832,-0.2112 -1.1856,-0.4296 -1.7844,-0.5712 -0.3264,-0.0756 -0.6456,0.1224 -0.7212,0.4452 -0.0768,0.3216 0.1224,0.6456 0.4452,0.7212 0.5304,0.126 1.0752,0.324 1.6512,0.5328 1.0764,0.3912 2.1888,0.7944 3.3996,0.7992 1.4124,0 2.3124,-0.5676 3.0372,-1.0236 0.4692,-0.2952 0.8736,-0.5496 1.3236,-0.6024 0.9108,-0.1032 1.3956,0.2124 2.064,0.6516 0.5844,0.3828 1.2444,0.816 2.2728,1.0176 1.7088,0.336 2.8116,-0.3204 3.7776,-0.8988 0.4188,-0.2508 0.8148,-0.486 1.236,-0.63 l 0.678,-0.2328 c 1.6128,-0.5616 1.9032,-0.6624 3.6756,-0.1836 0.6,0.162 1.0464,0.4512 1.5192,0.7572 0.7308,0.4728 1.5948,0.9972 2.9148,0.9492 0.6228,-0.0276 1.3284,-0.3708 2.076,-0.7344 0.756,-0.3684 1.5372,-0.7488 2.2332,-0.8196 0.6684,-0.0672 1.212,0.036 1.7868,0.1464 0.8388,0.1608 1.704,0.3264 2.7996,-0.1284 0.3072,-0.1272 0.4512,-0.4788 0.324,-0.7848 -0.1272,-0.3072 -0.48,-0.45 -0.7836,-0.324 -0.7668,0.318 -1.3608,0.2028 -2.1132,0.0588 -0.6036,-0.1164 -1.2912,-0.2484 -2.136,-0.162 -0.9072,0.0924 -1.8264,0.54 -2.6352,0.9336 -0.6048,0.2952 -1.23,0.5988 -1.6032,0.6156 -0.9636,0.0324 -1.5204,-0.3108 -2.2116,-0.7572 -0.504,-0.3276 -1.0764,-0.6972 -1.8564,-0.9084 -0.8856,-0.24 -1.5012,-0.3456 -2.0388,-0.3456"
       style="fill:#ff9edd;fill-opacity:1;fill-rule:nonzero;stroke:none;stroke-width:0.12"
       id="path584" /><path
       d="m 393.2054,178.5047 c -0.438,0 -0.9,0.078 -1.392,0.2712 -0.732,0.2868 -1.1016,1.0428 -1.428,1.71 -0.252,0.516 -0.5124,1.05 -0.8556,1.1964 -0.774,0.3336 -1.6164,0.066 -2.5092,-0.2172 -0.4104,-0.1308 -0.834,-0.2652 -1.2528,-0.3372 -0.3516,-0.06 -0.7536,-0.2316 -1.1784,-0.414 -0.7128,-0.306 -1.4436,-0.6264 -2.2248,-0.546 -0.792,0.0756 -1.4136,0.5616 -1.9128,0.9516 -0.2484,0.1944 -0.5892,0.4608 -0.7308,0.4644 -2.2548,0.0516 -2.7588,-0.2544 -4.1976,-2.4996 -0.1008,-0.1548 -0.2652,-0.2556 -0.4488,-0.2736 -1.692,-0.174 -3.402,0.8844 -5.0556,1.896 -1.6824,1.0296 -3.2736,2.0028 -4.5372,1.566 -0.87,-0.3 -1.632,-1.3068 -2.262,-2.9952 -0.1164,-0.3108 -0.4644,-0.4668 -0.7728,-0.3516 -0.3108,0.1164 -0.4692,0.462 -0.3528,0.7716 0.7752,2.0688 1.7544,3.282 2.9964,3.7104 1.7988,0.6216 3.708,-0.5472 5.5548,-1.6776 1.3788,-0.8448 2.8032,-1.716 4.0368,-1.7352 1.4688,2.2404 2.3436,2.8356 5.064,2.7888 0.54,-0.012 0.9792,-0.3552 1.4448,-0.7188 0.4152,-0.324 0.8436,-0.66 1.2876,-0.7032 0.4692,-0.0456 1.0656,0.21 1.6392,0.4548 0.4692,0.2016 0.9552,0.4092 1.446,0.4932 0.3384,0.0588 0.7044,0.1752 1.092,0.2988 1.014,0.3216 2.1624,0.6864 3.348,0.1764 0.7512,-0.3228 1.1268,-1.0932 1.4604,-1.7724 0.2412,-0.4932 0.4908,-1.0032 0.7872,-1.1196 1.0932,-0.4272 1.938,-0.0624 3.0108,0.402 1.1352,0.492 2.4216,1.0488 4.1268,0.5652 0.3192,-0.09 0.504,-0.4224 0.414,-0.7416 -0.09,-0.318 -0.4224,-0.504 -0.7416,-0.4128 -1.29,0.366 -2.2788,-0.0612 -3.3228,-0.5124 -0.7608,-0.3288 -1.5888,-0.6888 -2.5332,-0.6888"
       style="fill:#ff9edd;fill-opacity:1;fill-rule:nonzero;stroke:none;stroke-width:0.12"
       id="path586" /><path
       d="m 430.6923,259.7904 c 0,10.91363 -8.84876,19.7624 -19.7624,19.7624 -10.91364,0 -19.7624,-8.84877 -19.7624,-19.7624 0,-9.86312 7.22581,-18.0393 16.67483,-19.52352 v 13.80958 h -5.01917 v 5.71394 h 5.01917 v 4.35493 c 0,4.95247 2.95141,7.68991 7.46469,7.68991 2.16212,0 4.42439,-0.38629 4.42439,-0.38629 v -4.86355 h -2.49294 c -2.45389,0 -3.221,-1.52297 -3.221,-3.08758 v -3.70727 h 5.48037 l -0.87546,-5.71394 h -4.60506 v -13.80958 c 9.44902,1.48148 16.67483,9.65767 16.67483,19.52352 z"
       fill="#1977f3"
       id="path5095"
       style="fill:#5a96d6;fill-opacity:0.73333335;stroke-width:0.151963" /><path
       d="m 418.62254,254.07661 0.87546,5.71394 h -5.48037 v 3.70727 c 0,1.56188 0.76421,3.08758 3.22099,3.08758 h 2.49294 v 4.86355 c 0,0 -2.26211,0.38629 -4.42439,0.38629 -4.51327,0 -7.46469,-2.73472 -7.46469,-7.68991 v -4.35493 h -5.01916 v -5.71394 h 5.01916 v -13.80958 c 1.006,-0.15819 2.03706,-0.23888 3.08757,-0.23888 1.05053,0 2.08159,0.0834 3.08758,0.23888 v 13.80958 h 4.60506 z"
       fill="#fefefe"
       id="path5097"
       style="stroke-width:0.151963" /><g
       transform="matrix(0.02694051,0,0,0.02694051,218.83246,248.12258)"
       fill="#000000"
       stroke="none"
       id="g54778"
       style="fill:#dd95aa;fill-opacity:1"><path
         d="M 645,1473 C 590,1467 488,1435 429,1405 243,1312 113,1158 48,954 17,855 17,645 48,546 127,298 298,127 546,48 c 99,-31 309,-31 408,0 248,79 419,250 498,498 31,99 31,309 0,408 -78,245 -253,420 -493,496 -65,20 -233,33 -314,23 z m 174,-393 c 54,-27 81,-74 81,-140 0,-87 -63,-150 -150,-150 -87,0 -150,63 -150,150 0,122 113,194 219,140 z m -364,-70 c 42,-16 75,-59 75,-97 0,-102 -106,-149 -176,-79 -55,55 -43,131 26,167 40,22 41,22 75,9 z m 682,-17 c 54,-36 58,-110 9,-159 -70,-70 -176,-23 -176,78 0,39 23,71 65,93 33,17 63,13 102,-12 z M 494,756 c 48,-20 51,-31 17,-73 -33,-43 -71,-112 -71,-130 0,-9 -16,-13 -52,-12 -62,1 -155,13 -164,21 -9,10 16,91 42,130 45,69 147,98 228,64 z m 676,-6 c 22,-11 51,-37 64,-58 26,-39 51,-120 42,-130 -9,-8 -102,-20 -163,-21 -50,-1 -52,0 -59,32 -7,36 -28,76 -61,124 -13,17 -23,34 -23,38 0,3 15,12 33,20 47,21 121,18 167,-5 z M 863,731 c 87,-40 148,-130 161,-237 l 6,-52 -62,-6 C 933,433 834,425 746,420 659,415 559,407 524,404 l -64,-7 v 34 c 0,114 87,253 187,300 53,25 161,25 216,0 z"
         id="path54776"
         style="fill:#dd95aa;fill-opacity:1" /></g><path
       d="m 304.3886,141.9335 c 2.778,0.9252 4.0344,-2.5872 4.9656,-6.624 1.0248,-4.4496 2.0184,-9.774 2.0184,-9.774 -0.6492,-2.526 -1.3692,-6.1128 -2.0184,-8.6376 -0.5736,-2.2368 -3.3852,-8.2824 -3.7248,-10.554 -0.3588,-2.4132 0.4032,-6.8472 0.6864,-9.2244 -1.9608,0.78 -4.2552,4.4172 -3.6348,7.6752 0.5808,3.036 2.61,16.452 2.9484,19.086 0,0 -4.9656,16.812 -1.2408,18.0528"
       style="fill:#f5c4b8;fill-opacity:1;fill-rule:nonzero;stroke:none;stroke-width:0.12"
       id="path298" /></g></svg>
