<?xml version="1.0" encoding="UTF-8" standalone="no"?>
<!-- Created with Inkscape (http://www.inkscape.org/) -->

<svg
   width="305.51227mm"
   height="223.02034mm"
   viewBox="0 0 305.51227 223.02034"
   version="1.1"
   id="svg428"
   inkscape:version="1.1.1 (c3084ef, 2021-09-22)"
   sodipodi:docname="safe-for-facebook-account.svg"
   xmlns:inkscape="http://www.inkscape.org/namespaces/inkscape"
   xmlns:sodipodi="http://sodipodi.sourceforge.net/DTD/sodipodi-0.dtd"
   xmlns="http://www.w3.org/2000/svg"
   xmlns:svg="http://www.w3.org/2000/svg">
  <sodipodi:namedview
     id="namedview430"
     pagecolor="#ffffff"
     bordercolor="#666666"
     borderopacity="1.0"
     inkscape:pageshadow="2"
     inkscape:pageopacity="0.0"
     inkscape:pagecheckerboard="0"
     inkscape:document-units="mm"
     showgrid="false"
     inkscape:zoom="0.55856481"
     inkscape:cx="545.14712"
     inkscape:cy="357.16535"
     inkscape:window-width="1365"
     inkscape:window-height="781"
     inkscape:window-x="0"
     inkscape:window-y="25"
     inkscape:window-maximized="0"
     inkscape:current-layer="layer1" />
  <defs
     id="defs425" />
  <g
     inkscape:label="Warstwa 1"
     inkscape:groupmode="layer"
     id="layer1"
     transform="translate(46.887721,-39.595097)">
    <path
       d="m 60.116883,115.42183 c -0.05011,-0.0347 -5.612209,-3.64176 -10.820601,-11.81985 -4.666034,-7.325484 -7.427187,-13.414482 -8.19356,-19.990555 -0.55562,-4.774343 -0.397925,-9.662193 -0.24465,-14.388639 0.09728,-2.99845 0.197479,-6.098564 0.115701,-9.148588 -0.0052,-0.203453 -0.199693,-0.361077 -0.378028,-0.358863 -0.203391,0.0063 -0.364027,0.174627 -0.35887,0.378018 0.08107,3.028655 -0.01838,6.117719 -0.114949,9.10585 -0.15401,4.752974 -0.313182,9.668815 0.249072,14.496966 0.769321,6.599657 3.307196,14.029796 7.97028,21.350881 5.296819,8.31514 10.343091,11.89573 10.55016,12.03869 0.06338,0.0443 0.108327,-0.72732 0.180539,-0.72732 0.117163,0 0.232122,-0.0553 0.303603,-0.15917 0.115701,-0.16648 0.907857,-0.66174 0.741317,-0.77742"
       style="fill:#1d5b45;fill-opacity:1;fill-rule:nonzero;stroke:none;stroke-width:0.0736898"
       id="path16" />
    <path
       d="m 40.605316,79.736099 c 0,0 -7.372656,-1.54896 -12.427773,-6.943063 C 23.122429,67.398955 32.2968,60.8553 40.605316,79.736099"
       style="fill:#1d5b45;fill-opacity:1;fill-rule:nonzero;stroke:none;stroke-width:0.0736898"
       id="path18" />
    <path
       d="m 43.50648,95.139455 c 0,0 -16.972217,-2.130369 -16.928004,-8.119144 0.04422,-5.988754 12.530203,-0.259371 16.928004,8.119144"
       style="fill:#6eaf45;fill-opacity:1;fill-rule:nonzero;stroke:none;stroke-width:0.0736898"
       id="path20" />
    <path
       d="m 52.347775,109.81919 c 0,0 -4.907736,-16.813049 2.461237,-15.523481 7.368972,1.289568 -2.461237,15.523481 -2.461237,15.523481"
       style="fill:#6eaf45;fill-opacity:1;fill-rule:nonzero;stroke:none;stroke-width:0.0736898"
       id="path22" />
    <path
       d="m 49.95728,106.64831 c 0,0 -14.416658,-7.346856 -14.914801,-0.73026 -0.498143,6.61587 14.914801,0.73026 14.914801,0.73026"
       style="fill:#2c8443;fill-opacity:1;fill-rule:nonzero;stroke:none;stroke-width:0.0736898"
       id="path24" />
    <path
       d="m 43.50648,94.225712 c 0,0 -0.137801,-17.996508 7.240017,-14.489613 7.378553,3.506143 -7.240017,14.489613 -7.240017,14.489613"
       style="fill:#2c8443;fill-opacity:1;fill-rule:nonzero;stroke:none;stroke-width:0.0736898"
       id="path26" />
    <path
       d="m 40.605316,72.793036 c 0,0 7.599621,-18.411373 11.325375,-11.806557 2.889373,5.121425 -11.325375,11.806557 -11.325375,11.806557"
       style="fill:#2c8443;fill-opacity:1;fill-rule:nonzero;stroke:none;stroke-width:0.0736898"
       id="path28" />
    <path
       d="m 40.887548,62.834625 c 0,0 -13.097613,-16.605256 -8.349784,-22.050925 2.97633,-3.414782 10.466891,-0.460561 8.349784,22.050925"
       style="fill:#6eaf45;fill-opacity:1;fill-rule:nonzero;stroke:none;stroke-width:0.0736898"
       id="path30" />
    <path
       d="m 191.92349,198.16801 c 0,0 10.07781,6.22383 15.508,0.31172 5.43093,-5.91287 0.2594,-9.22007 8.81845,-9.38292 8.55906,-0.16439 10.69091,-1.24242 12.66284,-6.05655 1.9712,-4.81416 10.67323,-0.97198 14.3356,-6.28427 3.66166,-5.31155 -1.41705,-4.79425 5.78171,-11.3077 7.19949,-6.51269 11.71149,-10.23033 8.59001,-13.2752 -3.12297,-3.04411 -9.8118,-5.09416 -14.75343,-0.0723 -4.94089,5.02195 -9.02404,7.43381 -14.55003,5.58051 -2.72209,-0.91301 -4.37201,1.42958 -6.14794,3.77293 -1.8297,2.41408 -3.79428,4.8274 -7.20317,3.68227 -6.71903,-2.25712 -12.40419,-0.9425 -14.96417,4.15241 -2.55925,5.09417 -11.11609,1.00219 -15.69592,5.9475 -4.57833,4.94459 -7.19064,11.09621 -7.19064,11.09621 l 14.80869,11.8353"
       style="fill:#2c8443;fill-opacity:1;fill-rule:nonzero;stroke:none;stroke-width:0.0736898"
       id="path32" />
    <path
       d="m 243.25575,160.46762 c 0,0 -0.25496,0.17901 -0.73911,0.51141 -3.06254,2.10087 -15.27661,10.32245 -30.15456,18.18883 -17.23456,9.11174 -29.5341,11.7314 -29.5341,11.7314 l 1.86581,1.49074 c 0,0 8.73224,-1.6256 25.76415,-10.7167 17.03041,-9.09035 32.79781,-21.20568 32.79781,-21.20568"
       style="fill:#1d5b45;fill-opacity:1;fill-rule:nonzero;stroke:none;stroke-width:0.0736898"
       id="path34" />
    <path
       d="m 190.10557,189.0467 c 0,0 11.3261,1.45833 14.92217,-8.28493 3.59531,-9.74399 -2.24753,-10.62091 5.89739,-15.57433 8.14492,-4.95342 9.89211,-7.36676 10.47646,-13.93546 0.58362,-6.56797 9.94812,-7.04991 12.01511,-15.1263 2.06626,-8.07565 -2.65356,-4.65793 2.47156,-16.06877 5.12512,-11.41087 8.43673,-18.14831 4.62549,-19.86824 -3.81122,-1.720644 -10.76606,-0.324232 -14.13443,8.13462 -3.36834,8.45883 -6.62175,13.4749 -12.41154,14.44688 -5.78906,0.97269 -3.71691,14.73131 -10.75577,15.90885 -7.0403,1.17757 -12.12343,5.83844 -13.19413,13.05341 -1.07072,7.21497 -10.36373,7.3314 -13.40711,15.50137 -3.04339,8.16998 -3.8783,16.61482 -3.8783,16.61482 l 17.3731,5.19808"
       style="fill:#6eaf45;fill-opacity:1;fill-rule:nonzero;stroke:none;stroke-width:0.0736898"
       id="path36" />
    <path
       d="m 229.01595,117.61336 c 0,0 -0.19531,0.34633 -0.56961,0.99406 -2.36102,4.09346 -11.82206,20.2389 -23.92853,37.4646 -14.02315,19.95369 -25.08251,29.7817 -25.08251,29.7817 l 2.18858,0.6551 c 0,0 7.91576,-6.71093 21.74952,-26.52903 13.83526,-19.81738 25.64255,-42.36643 25.64255,-42.36643"
       style="fill:#2c8443;fill-opacity:1;fill-rule:nonzero;stroke:none;stroke-width:0.0736898"
       id="path38" />
    <path
       d="m 171.0914,183.35711 c 0,0 9.58557,-0.21885 9.21712,-7.09337 -0.36845,-6.87451 0.69563,-11.96573 4.7714,-14.9966 4.07579,-3.03085 7.41393,-7.82806 6.71903,-14.60456 -0.69414,-6.77725 0.098,-7.95703 4.09052,-13.97526 3.99324,-6.01749 9.09699,-15.32158 1.79949,-18.85205 -7.29822,-3.53121 -12.28995,13.52281 -16.65091,17.2412 -4.36169,3.71837 -12.81687,3.95861 -15.37904,11.87877 -2.56293,7.92018 -0.4532,11.20526 -8.42349,14.03568 -7.96954,2.83116 -8.21419,16.4763 -6.71829,20.20795 l 20.57417,6.15824"
       style="fill:#2c8443;fill-opacity:1;fill-rule:nonzero;stroke:none;stroke-width:0.0736898"
       id="path40" />
    <path
       d="m 188.92873,128.51354 c 0,0 -15.72096,32.87152 -21.03767,40.3606 -5.31671,7.48982 -8.01744,11.12568 -8.01744,11.12568 l 2.24532,0.67131 c 0,0 22.7377,-37.90378 26.80979,-52.15759"
       style="fill:#1d5b45;fill-opacity:1;fill-rule:nonzero;stroke:none;stroke-width:0.0736898"
       id="path42" />
    <path
       d="m 242.16366,252.46326 c 0,5.60706 -56.96583,10.15217 -127.23563,10.15217 -70.271253,0 -127.236803,-4.54511 -127.236803,-10.15217 0,-5.60704 56.96555,-10.15134 127.236803,-10.15134 70.2698,0 127.23563,4.5443 127.23563,10.15134"
       style="fill:#d4dde8;fill-opacity:1;fill-rule:nonzero;stroke:none;stroke-width:0.0736898"
       id="path44" />
    <path
       d="m 108.97024,253.76404 c -24.889464,0 -47.661058,-0.26455 -65.17858,-0.70323 2.198901,-0.0767 3.887133,-0.30854 4.016827,-0.76194 0.368449,-1.28957 -0.30655,-2.21069 -1.719182,-2.76338 -1.412632,-0.55266 -5.035218,-1.71991 -5.58789,-2.27257 -0.05306,-0.052 -0.109059,-0.12951 -0.167275,-0.22535 1.131875,-0.33072 2.8599,-0.64854 5.114068,-0.94846 0.610151,0.31605 1.293255,0.49364 2.013939,0.49364 H 178.57092 c 0.689,0 1.34041,-0.15834 1.92624,-0.44273 4.04409,0.55645 6.29164,1.1724 6.29164,1.82007 0,0.33764 -0.61458,0.66557 -1.77005,0.98161 15.02534,0.5106 24.10688,1.1747 24.10688,1.9012 0,1.61315 -44.84094,2.92114 -100.15539,2.92114 M 36.302575,252.85302 C 19.266983,252.32907 8.814537,251.62187 8.814537,250.8429 c 0,-0.71413 8.7819,-1.36842 23.368045,-1.87613 -0.215174,1.39576 -0.09212,2.78835 0.85775,3.3321 0.378763,0.21761 1.6337,0.41192 3.262243,0.55415"
       style="fill:#7e91aa;fill-opacity:1;fill-rule:nonzero;stroke:none;stroke-width:0.0736898"
       id="path46" />
    <path
       d="M 165.41731,92.261865 V 117.46597 H 142.32882 V 92.261865 c 0,-15.714322 -13.60091,-28.510552 -30.32625,-28.510552 -16.702536,0 -30.302699,12.79623 -30.302699,28.510552 V 117.46597 H 58.587821 V 92.261865 c 0,-27.711026 23.961687,-50.256389 53.414749,-50.256389 29.4523,0 53.41474,22.545363 53.41474,50.256389"
       style="fill:#b2b9c1;fill-opacity:1;fill-rule:nonzero;stroke:none;stroke-width:0.0736898"
       id="path48" />
    <path
       d="m 81.699871,115.98997 h -23.11205 v -5.20324 h 13.922201 c 0,0 -4.847312,-54.212054 39.492548,-54.212054 18.19841,0 28.09272,9.123522 33.43376,19.884426 -1.31684,4.42139 -2.78768,9.539139 -3.42731,11.658458 -2.14144,-13.759354 -14.77921,-24.366247 -30.00645,-24.366247 -16.702536,0 -30.302699,12.79623 -30.302699,28.510552 v 23.728105 m 60.628949,-10.88398 v -8.650438 c 1.32421,-1.190098 2.44577,-2.25712 2.75011,-2.712509 0.53203,-0.795118 2.22984,-4.374225 3.45311,-7.000527 0.1974,1.123756 0.42297,2.294698 0.65878,3.441306 0.0884,0.420025 0.1694,0.86217 0.24318,1.333789 v 0 c 0.21369,1.296941 0.38318,2.763351 0.5232,4.192934 v 0 0 c 0.0612,0.595424 0.11864,1.184938 0.1717,1.755296 -2.45312,1.564439 -4.44863,2.878319 -4.49728,3.093489 -0.0443,0.20638 0.0516,0.77448 0.23581,1.40011 v 0 0 c 0.26382,0.91302 0.70078,1.95424 1.1164,2.18121 -1.35294,0.27782 -2.93505,0.605 -4.65498,0.96534 m 5.37787,-1.11346 c 0.61606,-0.25423 1.68897,-0.74206 3.00286,-1.3662 0.0884,0.25275 0.37655,0.42666 0.78995,0.54088 7.4e-4,0.0188 7.4e-4,0.0368 0.001,0.056 -0.41341,0.0833 -1.79804,0.36108 -3.7943,0.76932"
       style="fill:#9ca9b8;fill-opacity:1;fill-rule:nonzero;stroke:none;stroke-width:0.0736898"
       id="path50" />
    <path
       d="m 183.20599,120.94928 v 120.29096 c 0,2.72742 -2.08541,4.95939 -4.64245,4.95939 H 47.454777 c -2.409655,0 -4.384539,-1.95939 -4.620346,-4.45078 l -0.0073,-0.11718 v -0.0522 c -0.01483,-0.1105 -0.01483,-0.22771 -0.01483,-0.33913 V 120.94936 c 0,-2.72652 2.07068,-4.95931 4.642453,-4.95931 H 178.5635 c 2.55704,0 4.64245,2.23279 4.64245,4.95931"
       style="fill:#abc1dd;fill-opacity:1;fill-rule:nonzero;stroke:none;stroke-width:0.0736898"
       id="path52" />
    <path
       d="m 120.53142,184.94219 8.85824,26.09572 H 96.647087 l 8.541383,-26.26521 c -5.1406,-2.95569 -8.541383,-8.78235 -8.541383,-15.37021 0,-9.7123 7.276133,-17.48215 16.371663,-17.48215 9.01592,0 16.37091,7.76985 16.37091,17.48215 0,6.75662 -3.63733,12.58326 -8.85824,15.5397"
       style="fill:#425b7f;fill-opacity:1;fill-rule:nonzero;stroke:none;stroke-width:0.0736898"
       id="path54" />
    <path
       d="m 183.20599,128.37574 v -7.42646 c 0,-2.72652 -2.08541,-4.95931 -4.64245,-4.95931 h 0.12533 c 2.48334,0 4.51719,1.91593 4.51719,4.25188 v 8.13389 0"
       style="fill:#ffffff;fill-opacity:1;fill-rule:nonzero;stroke:none;stroke-width:0.0736898"
       id="path56" />
    <path
       d="m 178.68881,227.68133 h -2.82894 c -0.067,-0.36011 -0.11134,-0.74411 -0.11134,-1.1494 v -95.16956 c 0,-3.53046 -3.02865,-6.38225 -6.77946,-6.38225 h -35.346 c 0.29254,-1.35886 0.53646,-2.26376 0.71184,-2.49809 1.10535,-1.4738 3.80238,-1.4738 10.68501,-2.45387 5.73085,-0.82311 17.8609,-0.96018 23.10246,-4.03819 h 10.4411 c 2.55703,0 4.64245,2.23279 4.64245,4.95931 v 7.42646 56.6475 1.95941 3.8304 0.38834 32.22821 l -0.008,0.11864 c -0.0589,2.29088 -2.07067,4.13311 -4.50981,4.13311 M 124.8751,124.98014 h -3.63438 c 1.40527,-2.86802 2.39346,-4.85173 2.52611,-4.95196 0.0773,-0.0574 0.74793,-0.22402 1.83264,-0.47308 -0.20554,1.48116 -0.45539,3.34698 -0.72437,5.42504 m -13.85512,0 H 50.483424 v -7.26508 c 0,-0.47235 -0.04422,-0.92187 -0.117894,-1.34189 h -1.179037 v 0 c 0.567411,-0.25054 1.193774,-0.38318 1.864351,-0.38318 h 63.124826 c -0.40308,1.25494 -0.85112,2.74714 -1.46127,4.52454 -0.33233,0.97566 -0.94248,2.55925 -1.69338,4.46561"
       style="fill:#d7e2ef;fill-opacity:1;fill-rule:nonzero;stroke:none;stroke-width:0.0736898"
       id="path58" />
    <path
       d="m 43.429107,244.06492 c -0.364028,-0.68738 -0.578465,-1.47608 -0.594676,-2.31607 l -0.0073,-0.11718 0.0073,0.11718 c 0.08032,0.84891 0.362554,1.63592 0.795111,2.30517 -0.06559,0.004 -0.134124,0.006 -0.200445,0.0104 m 139.284623,-0.19468 c -0.0708,-0.004 -0.14079,-0.006 -0.21223,-0.0104 0.44657,-0.76105 0.70448,-1.65948 0.70448,-2.61975 v -5.13527 h 0.008 v 5.52672 c 0,0.80454 -0.17985,1.5659 -0.49963,2.23862"
       style="fill:#ced5de;fill-opacity:1;fill-rule:nonzero;stroke:none;stroke-width:0.0736898"
       id="path60" />
    <path
       d="m 180.49716,246.14002 c -0.24759,-0.034 -0.50036,-0.0679 -0.76121,-0.1011 1.15987,-0.32498 2.14436,-1.11914 2.76556,-2.17902 0.0714,0.004 0.14142,0.006 0.21223,0.0104 -0.47455,0.99858 -1.2564,1.80314 -2.21658,2.26972 m -135.048954,-0.051 c -0.848906,-0.44074 -1.555591,-1.1503 -2.019099,-2.02419 0.06632,-0.004 0.134856,-0.008 0.200446,-0.0104 0.596887,0.92313 1.480427,1.62118 2.514294,1.94526 -0.236545,0.0292 -0.469403,0.0595 -0.695631,0.0898"
       style="fill:#aebbcd;fill-opacity:1;fill-rule:nonzero;stroke:none;stroke-width:0.0736898"
       id="path62" />
    <path
       d="M 178.57092,246.58275 H 47.462145 c -0.720684,0 -1.403788,-0.17755 -2.013939,-0.49364 0.226228,-0.0303 0.459086,-0.0606 0.69563,-0.0898 0.415611,0.13035 0.855538,0.20032 1.310941,0.20032 H 178.56354 c 0.4053,0 0.79806,-0.0558 1.17241,-0.16063 0.26085,0.033 0.51362,0.067 0.76121,0.1011 -0.58583,0.28446 -1.23724,0.44273 -1.92624,0.44273"
       style="fill:#6e839f;fill-opacity:1;fill-rule:nonzero;stroke:none;stroke-width:0.0736898"
       id="path64" />
    <path
       d="M 178.56354,246.19963 H 47.454777 c -0.455403,0 -0.89533,-0.07 -1.310941,-0.20032 -1.033866,-0.32408 -1.917407,-1.02213 -2.514294,-1.94525 -0.432557,-0.66925 -0.714789,-1.45626 -0.795111,-2.30517 l -0.0073,-0.11718 v -23.66692 c 0.386872,-7.93861 0.70079,-14.82049 0.677946,-15.77256 -0.01316,-0.52689 -0.277074,-2.60051 -0.677946,-5.49873 V 162.542 l 0.272652,-0.0347 c 0.274863,-0.0353 0.473825,-0.27193 0.473825,-0.53867 0,-0.0443 -0.0052,-0.0884 -0.01629,-0.13264 l -0.387608,-1.53791 c -0.01107,-0.0457 -0.01692,-0.0907 -0.01692,-0.13411 0,-0.28738 0.228438,-0.53351 0.525408,-0.54234 l 2.099419,-0.0723 c 0.15917,-0.008 0.30434,-0.0781 0.404556,-0.19739 l 4.30127,-5.23124 v 74.54823 c 0,4.11195 3.109706,7.43603 6.96368,7.43603 H 183.206 v 5.13527 c 0,0.96026 -0.2579,1.8587 -0.70448,2.61975 -0.6212,1.05987 -1.60569,1.85403 -2.76556,2.17901 -0.37435,0.10486 -0.76711,0.16064 -1.17241,0.16064 M 42.827061,147.35969 v -5.63802 c 0.280022,-0.11781 0.488564,-0.24095 0.589518,-0.3677 0.254968,-0.31909 -0.06043,-1.78919 -0.589518,-3.58796 v -16.43353 c 0,-2.72653 2.085419,-4.95933 4.635084,-4.95933 h 1.72434 c -1.56959,0.66321 -2.652831,2.15174 -2.652831,3.8687 v 4.73827 h 3.94977 v 3.45087 c -3.731647,3.50101 -4.896682,8.86342 -3.171605,13.51101 l -4.484758,5.41769"
       style="fill:#90a7c5;fill-opacity:1;fill-rule:nonzero;stroke:none;stroke-width:0.0736898"
       id="path66" />
    <path
       d="m 50.483424,124.98012 h -3.94977 v -4.73827 c 0,-1.71696 1.083241,-3.20549 2.652831,-3.8687 h 1.179036 c 0.0737,0.42002 0.117895,0.86954 0.117895,1.34189 v 7.26508"
       style="fill:#b0bfd2;fill-opacity:1;fill-rule:nonzero;stroke:none;stroke-width:0.0736898"
       id="path68" />
    <path
       d="m 165.41731,92.261865 v 10.505965 c -2.64179,0.64846 -5.12293,1.23208 -6.36385,1.36104 -3.44649,0.34633 -3.83704,-5.057335 -4.59456,-17.118857 C 153.67778,74.969109 147.17613,49.723 108.11985,49.723 c -39.056297,0 -41.353205,46.840879 -44.799675,50.32125 -1.217354,1.23135 -2.985908,1.59907 -4.732354,1.53421 v -9.316595 c 0,-27.711026 23.961687,-50.256389 53.414749,-50.256389 29.4523,0 53.41474,22.545363 53.41474,50.256389"
       style="fill:#c7ccd3;fill-opacity:1;fill-rule:nonzero;stroke:none;stroke-width:0.0736898"
       id="path70" />
    <path
       d="m 33.438989,243.14896 c 0,0 -0.184215,2.21069 -0.798059,3.99163 -0.613835,1.78035 -0.982284,4.367 0.399399,5.15828 1.380945,0.79077 14.39971,1.28956 14.768158,0 0.368449,-1.28957 -0.30655,-2.21069 -1.719182,-2.76338 -1.412632,-0.55266 -5.035218,-1.71991 -5.58789,-2.27257 -0.552675,-0.55269 -1.474533,-3.74551 -1.474533,-3.74551 l -5.587893,-0.36845"
       style="fill:#252549;fill-opacity:1;fill-rule:nonzero;stroke:none;stroke-width:0.0736898"
       id="path72" />
    <path
       d="m 14.415986,241.61385 c 0,0 -0.184215,2.21071 -0.798796,3.99105 -0.613836,1.78122 -0.982285,4.36758 0.399399,5.15827 1.381682,0.79165 14.400446,1.28957 14.768895,0 0.368449,-1.28957 -0.307287,-2.21068 -1.719917,-2.76337 -1.411897,-0.55267 -5.035221,-1.71904 -5.587893,-2.2717 -0.552674,-0.55267 -1.473795,-3.7458 -1.473795,-3.7458 l -5.587893,-0.36845"
       style="fill:#252549;fill-opacity:1;fill-rule:nonzero;stroke:none;stroke-width:0.0736898"
       id="path74" />
    <path
       d="m 41.537491,243.45847 c -0.02947,0.4346 -0.04422,0.72274 -0.05157,0.85486 -0.125268,1.96743 -7.737423,0.8621 -8.724865,0.8621 -0.980074,0 0,-37.21332 0,-38.19338 0,-0.98746 -5.526729,-26.15985 -6.182569,-27.26521 -0.655838,-1.10535 0.287391,23.33016 0.375818,26.27775 0.08107,2.94759 -3.522369,35.7396 -4.259265,37.33859 -0.736898,1.59907 -9.093313,-0.86209 -9.579665,-1.34852 -0.493723,-0.49372 3.065492,-32.30558 3.065492,-35.86478 0,-3.55922 -1.473794,-12.40198 -2.144371,-19.40251 -0.677946,-7.00053 0,-20.51523 0,-20.51523 l 24.420776,0.86217 c 0,0 4.988796,32.79192 5.047747,35.1279 0.05157,2.17384 -1.650649,35.25302 -1.967516,41.26626"
       style="fill:#3b345b;fill-opacity:1;fill-rule:nonzero;stroke:none;stroke-width:0.0736898"
       id="path76" />
    <path
       d="m 37.80216,245.48492 c -2.141425,0 -4.518656,-0.30949 -5.041115,-0.30949 -0.327182,0 -0.435507,-4.13841 -0.435507,-9.69248 0,-11.09833 0.435507,-27.84728 0.435507,-28.5009 v 0 0 c 0,-0.98746 -5.526729,-26.15985 -6.182569,-27.26521 l 0.375818,-4.67192 c 0,0 2.615985,8.59958 4.951951,15.10638 2.328593,6.51419 2.697042,11.67246 4.539287,13.14626 1.842242,1.47378 -0.736898,3.92765 -0.854801,6.74997 -0.125268,2.82969 -1.230618,28.49583 0,31.20023 0.589518,1.30505 3.301299,1.91674 5.94676,2.21071 -0.02947,0.4346 -0.04422,0.72274 -0.05157,0.85486 -0.05895,0.92688 -1.778134,1.17159 -3.68375,1.17159"
       style="fill:#26242f;fill-opacity:1;fill-rule:nonzero;stroke:none;stroke-width:0.0736898"
       id="path78" />
    <path
       d="m 31.699913,112.21042 c 0,0 3.097179,-2.21144 1.779606,-4.36318 -1.318308,-2.15173 -7.895117,-1.40967 -11.668031,-0.23505 -3.772914,1.17459 -6.014555,2.79873 -4.055146,8.08818 1.95941,5.2887 4.561394,6.71166 4.561394,6.71166 0,0 9.562716,-8.75361 9.382177,-10.20161"
       style="fill:#252549;fill-opacity:1;fill-rule:nonzero;stroke:none;stroke-width:0.0736898"
       id="path80" />
    <path
       d="m 31.699913,112.21042 c 0,0 0.957229,7.98429 -0.131911,10.01149 -1.08766,2.02793 -3.545213,1.71991 -3.545213,1.71991 0,0 0.618993,2.83926 1.311677,3.08908 0.692683,0.24908 4.763305,3.8186 2.754523,4.52676 -2.008784,0.70889 -9.354911,0 -9.354911,0 l -0.851118,-5.03228 c 0,0 0.336026,-0.99848 0.391292,-1.78917 0.05454,-0.79069 0.04274,-2.49442 0.04274,-2.49442 0,0 0.956491,-1.77445 0.364764,-2.18048 -0.590992,-0.40676 -1.734656,-1.18491 -1.901196,-2.44649 -0.167274,-1.26156 0.804692,-1.29546 1.467899,-0.93144 0.663208,0.36403 1.235778,0.5092 1.182722,-1.24756 -0.05306,-1.75676 0.0015,-2.54745 1.694126,-2.44649 1.69339,0.10172 5.136174,0.56225 6.574597,-0.77891"
       style="fill:#ffbf9f;fill-opacity:1;fill-rule:nonzero;stroke:none;stroke-width:0.0736898"
       id="path82" />
    <path
       d="m 28.022796,123.94182 -3.078758,-1.12376 c 0,0 3.234243,3.77218 3.233505,3.24824 -7.37e-4,-0.52468 -0.154741,-2.12448 -0.154741,-2.12448"
       style="fill:#ff9b80;fill-opacity:1;fill-rule:nonzero;stroke:none;stroke-width:0.0736898"
       id="path84" />
    <path
       d="m 44.765102,146.79965 -4.421384,5.24669 -1.805398,-5.24669 -2.092788,-6.07941 5.099329,-2.29913 1.466426,3.82524 1.753815,4.5533"
       style="fill:#ffbf9f;fill-opacity:1;fill-rule:nonzero;stroke:none;stroke-width:0.0736898"
       id="path86" />
    <path
       d="m 43.011287,142.24635 c -1.45169,1.24461 -3.234981,2.91001 -4.472967,4.5533 l -2.092788,-6.07941 5.099329,-2.29913 1.466426,3.82524"
       style="fill:#ff9b80;fill-opacity:1;fill-rule:nonzero;stroke:none;stroke-width:0.0736898"
       id="path88" />
    <path
       d="m 43.416579,141.35397 c -0.670575,0.84005 -6.02045,1.51801 -6.02045,1.51801 0,0 1.201143,9.97021 1.967516,18.0245 0.221069,2.34407 0.405292,4.52529 0.508458,6.24963 0.125268,1.93731 0.147389,3.30056 0.01483,3.69113 -0.280022,0.83269 -1.761185,1.10533 -3.750808,1.12818 -2.630724,0.0361 -6.130985,-0.34708 -8.864873,-0.39792 -1.148824,-0.0209 -2.535665,0.002 -3.979983,0.0251 -4.582027,0.0714 -9.748414,0.14225 -9.748414,-1.12375 v -0.36108 c -0.0221,-2.49072 -0.176862,-12.35041 0,-15.34957 0.03685,-0.72142 0.05895,-1.60644 0.06632,-2.56368 0.0073,-2.49882 -0.08107,-5.40956 -0.125268,-6.64018 -0.01483,-0.37582 -0.0221,-0.59688 -0.0221,-0.59688 0,0 -0.06632,-0.22844 -0.176862,-0.61899 -0.663208,-2.43914 -2.910744,-11.26716 -0.847431,-13.01362 1.237988,-1.04638 3.655011,-2.38754 5.858333,-3.33814 l 0.06632,-0.0294 c 2.033838,-0.87692 3.868713,-1.40748 4.391909,-1.05376 0,0 3.853974,2.85915 6.668921,2.99916 2.814948,0.13265 -0.700053,-3.55184 -0.700053,-3.55184 0,0 10.611322,1.76118 11.348217,3.55184 0.736898,1.79066 4.016091,10.61133 3.345514,11.4514"
       style="fill:#63d697;fill-opacity:1;fill-rule:nonzero;stroke:none;stroke-width:0.0736898"
       id="path90" />
    <path
       d="m 39.872103,167.14611 c -0.0958,-0.0303 -0.176863,-0.0522 -0.243175,-0.0819 -0.803218,-0.30948 -0.294759,2.02647 -1.584329,2.08544 -1.179037,0.0589 -0.921123,1.24608 -1.908565,2.81568 -2.630724,0.0361 -6.130985,-0.34708 -8.864873,-0.39793 -1.148824,-0.0209 -2.535665,0.002 -3.979983,0.0251 -4.582027,0.0714 -9.748414,0.14225 -9.748414,-1.12376 v -0.36107 c 3.824496,0.0959 9.682831,0.19154 10.257609,-0.0959 0.854801,-0.42742 4.355064,-7.42793 4.605608,-8.16483 0.243177,-0.7369 -11.119779,-3.68449 -12.711477,-5.09932 -0.736898,-0.64848 -1.488532,-2.60863 -2.085419,-4.5533 0.0073,-2.49882 -0.08107,-5.40956 -0.125268,-6.64019 -0.01483,-0.37582 -0.0221,-0.59688 -0.0221,-0.59688 0,0 -0.06632,-0.22844 -0.176862,-0.61899 0.353712,-0.19155 0.788481,-0.36108 1.304309,-0.54531 2.026467,-0.7369 5.121437,7.85532 5.121437,7.85532 0,0 15.327462,6.82369 19.65305,9.24806 0.221069,2.34408 0.405292,4.52529 0.508458,6.24963"
       style="fill:#3daa89;fill-opacity:1;fill-rule:nonzero;stroke:none;stroke-width:0.0736898"
       id="path92" />
    <path
       d="m 56.011628,147.39654 -0.773743,0.93805 -0.756792,0.92407 -8.298939,10.09328 c -0.100222,0.11928 -0.245387,0.19009 -0.404556,0.1974 l -2.099419,0.0723 c -0.342658,0.0104 -0.593939,0.33604 -0.50846,0.67648 l 0.387608,1.53791 c 0.07959,0.31612 -0.137801,0.63003 -0.457613,0.67131 l -2.109,0.27263 c -0.311708,0.042 -0.526882,0.33309 -0.468668,0.6389 l 0.245387,1.3102 c 0.0597,0.32645 -0.175379,0.62563 -0.504038,0.64627 l -1.700021,0.0994 c -0.30876,0.0188 -0.540146,0.28886 -0.509195,0.59542 l 0.17022,1.69266 c 0.02726,0.30213 -0.187913,0.56593 -0.487089,0.59761 l -1.445793,0.15103 c -0.278547,0.0228 -0.486351,0.26085 -0.486351,0.53572 l -0.0038,1.65581 c -0.0058,0.28592 -0.226228,0.52613 -0.515092,0.5431 l -5.555468,0.32274 c -0.215173,0.0146 -0.41782,-0.10381 -0.517301,-0.29475 l -2.204062,-4.288 c -0.09506,-0.19531 -0.07,-0.42813 0.0678,-0.59689 l 0.453191,-0.55193 19.781272,-23.89538 0.328657,-0.39277 c 0.178324,-0.21369 0.494458,-0.25937 0.726581,-0.10172 l 7.53551,5.15238 c 0.264546,0.18047 0.315393,0.54753 0.109059,0.7966"
       style="fill:#ffc655;fill-opacity:1;fill-rule:nonzero;stroke:none;stroke-width:0.0736898"
       id="path94" />
    <path
       d="m 58.898791,130.00723 c 1.960884,-1.52097 4.785411,-1.16357 6.306369,0.79658 1.520955,1.96088 1.164295,4.78542 -0.796587,6.30637 -1.960884,1.52094 -4.785411,1.16356 -6.306367,-0.79658 -1.520957,-1.96088 -1.16356,-4.78542 0.796585,-6.30637 m -7.50972,-2.3485 c -4.441279,3.44427 -5.93497,9.27828 -4.077252,14.28327 0.434032,1.17168 1.051553,2.29692 1.855507,3.333 0.656575,0.84743 1.397895,1.58065 2.205534,2.21438 0.957228,0.74499 2.002886,1.33893 3.108233,1.76928 3.985878,1.57032 8.669596,1.05672 12.298816,-1.75823 5.472935,-4.24528 6.472168,-12.11902 2.235009,-17.59931 l -0.0096,-0.0125 c -4.248951,-5.47737 -12.138174,-6.47807 -17.616268,-2.22913"
       style="fill:#ffc655;fill-opacity:1;fill-rule:nonzero;stroke:none;stroke-width:0.0736898"
       id="path96" />
    <path
       d="m 69.070185,129.9726 v 0 0 m -0.03463,-0.0457 c -0.0015,-10e-4 -0.0023,-0.002 -0.0038,-0.004 0.0015,0.001 0.0023,0.002 0.0038,0.004 m -17.812281,-2.13774 c 0.0023,-10e-4 0.0044,-0.004 0.0067,-0.004 -0.0023,0.002 -0.0044,0.004 -0.0067,0.004 m 0.02137,-0.0167 c 0.0029,-0.002 0.0067,-0.004 0.0096,-0.008 -0.0029,0.002 -0.0058,0.004 -0.0096,0.008 m 0.02285,-0.0188 c 0.0038,-0.002 0.0081,-0.006 0.0117,-0.0104 -0.0038,0.002 -0.0081,0.006 -0.0117,0.0104 m 0.02431,-0.0188 c 0.0038,-0.002 0.0081,-0.006 0.0117,-0.0104 -0.0038,0.002 -0.0081,0.006 -0.0117,0.0104 m 0.02431,-0.0188 c 0.0044,-0.004 0.0088,-0.006 0.01316,-0.0104 -0.0044,0.004 -0.0096,0.008 -0.01316,0.0104 m 0.02431,-0.0188 c 0.0052,-0.004 0.01024,-0.008 0.01546,-0.0125 -0.0052,0.004 -0.01023,0.008 -0.01546,0.0125 m 0.02432,-0.0188 c 0.0081,-0.006 0.01629,-0.0125 0.02431,-0.0188 -0.0081,0.006 -0.01629,0.0125 -0.02431,0.0188"
       style="fill:#e0e8f2;fill-opacity:1;fill-rule:nonzero;stroke:none;stroke-width:0.0736898"
       id="path98" />
    <path
       d="m 46.823993,140.25083 c -0.981547,-4.51348 0.571096,-9.38953 4.399276,-12.46168 0.0023,-0.001 0.0044,-0.002 0.0067,-0.004 0.0052,-0.004 0.01024,-0.008 0.01483,-0.0125 0.0038,-0.002 0.0067,-0.004 0.0096,-0.008 0.0044,-0.002 0.0088,-0.006 0.01316,-0.0104 0.0038,-0.002 0.0081,-0.006 0.0117,-0.0104 0.0044,-0.002 0.0081,-0.006 0.01253,-0.0104 0.0038,-0.002 0.0081,-0.006 0.0117,-0.0105 0.0044,-0.002 0.0081,-0.006 0.01253,-0.0104 0.0038,-0.002 0.0088,-0.006 0.01316,-0.0105 0.0038,-0.002 0.0073,-0.006 0.01107,-0.008 0.0052,-0.004 0.01024,-0.008 0.01546,-0.0125 0.0029,-0.002 0.0058,-0.004 0.0088,-0.006 0.0081,-0.006 0.01629,-0.0125 0.02431,-0.0188 v 0 c 2.287329,-1.77445 4.993953,-2.63293 7.682154,-2.63293 3.748597,0 7.458875,1.67202 9.934114,4.86206 l 0.0096,0.0125 v 0 0 c 0.03612,0.14371 0.142229,0.35149 0.308022,0.63593 0.525407,0.89607 0.901225,1.88278 1.098713,2.93213 -0.328654,-0.61531 -0.712579,-1.21147 -1.153244,-1.78183 l -0.01024,-0.0125 c -2.4745,-3.19077 -6.184779,-4.86205 -9.934112,-4.86205 -2.686728,0 -5.394825,0.85849 -7.681417,2.63221 -3.4391,2.66756 -5.101541,6.76766 -4.818571,10.80585"
       style="fill:#ffeac0;fill-opacity:1;fill-rule:nonzero;stroke:none;stroke-width:0.0736898"
       id="path100" />
    <path
       d="m 30.005786,168.29198 c -0.06632,0 -0.133372,-0.0125 -0.197479,-0.0376 l -0.03685,-0.0125 c -0.348551,-0.1364 -0.459823,-0.57404 -0.217384,-0.85922 L 47.70459,145.97358 c 0.106844,-0.12595 0.260125,-0.19238 0.414873,-0.19238 0.110542,0 0.222543,0.0338 0.31834,0.10319 l 0.09139,0.0656 c 0.257176,0.1857 0.30139,0.55193 0.09579,0.79437 l -18.205785,21.35676 c -0.105383,0.12387 -0.257177,0.19155 -0.413399,0.19155"
       style="fill:#ff9b56;fill-opacity:1;fill-rule:nonzero;stroke:none;stroke-width:0.0736898"
       id="path102" />
    <path
       d="m 59.099228,150.13484 v 0 c 7.37e-4,0 0.0023,0 0.0038,0 -0.0015,0 -0.0029,0 -0.0038,0 m -0.0023,0 c -1.536432,0 -3.065494,-0.28149 -4.506864,-0.83343 1.440633,0.55194 2.97117,0.83343 4.506864,0.83343 m -4.561395,-0.85479 c -0.0023,-7.6e-4 -0.0038,-10e-4 -0.0052,-0.002 0.0015,7.3e-4 0.0029,0.001 0.0052,0.002 m 12.163227,-1.71699 c 7.37e-4,-7.3e-4 7.37e-4,-7.3e-4 7.37e-4,-7.3e-4 0,0 0,0 -7.37e-4,7.3e-4"
       style="fill:#e79a7e;fill-opacity:1;fill-rule:nonzero;stroke:none;stroke-width:0.0736898"
       id="path104" />
    <path
       d="m 29.694079,171.56971 c -0.201177,0 -0.386136,-0.11572 -0.480457,-0.29551 l -2.204061,-4.288 c -0.03831,-0.0781 -0.05673,-0.16146 -0.05673,-0.24464 -7.38e-4,-0.12596 0.04201,-0.25056 0.124536,-0.35224 l 0.453192,-0.55194 c 1.135559,2.06773 2.454605,4.21211 3.213609,4.52529 0.313182,0.12888 0.613836,0.19009 0.90049,0.19009 1.104607,0 1.995517,-0.91596 2.53124,-2.42438 0.678684,-1.90414 0.74132,-1.26379 1.799505,-1.56886 1.058183,-0.30435 -0.13707,-1.61528 1.096503,-2.13848 1.229881,-0.52689 2.461972,0.067 2.396389,-1.34926 -0.06189,-1.41116 -0.62931,-1.92109 0.706685,-2.08983 1.32494,-0.174 1.806134,-0.88502 1.775921,-1.81203 -0.02653,-0.90417 -0.311707,-1.61306 0.994812,-1.61306 0.02653,0 0.05379,0 0.0818,7.3e-4 0.0073,0 0.01546,0 0.02285,0 1.411894,0 4.246738,-3.0537 5.518624,-4.72574 1.279253,-1.68085 2.089839,-5.11848 2.803893,-5.34249 v 0 c 0.957229,0.74499 2.002887,1.33893 3.108234,1.76927 l -3.997669,4.86206 -4.30127,5.23123 c -0.100223,0.11928 -0.245387,0.19009 -0.404557,0.1974 l -2.099418,0.0723 c -0.296971,0.008 -0.525409,0.25497 -0.525409,0.54235 0,0.0435 0.0058,0.0884 0.01692,0.1341 l 0.387607,1.53791 c 0.01107,0.0443 0.01629,0.0884 0.01629,0.13265 0,0.26674 -0.198962,0.50328 -0.473824,0.53867 l -0.272653,0.0347 -0.01483,0.002 -1.82161,0.23579 c -0.27781,0.0376 -0.478985,0.27265 -0.478247,0.53942 0,0.0324 0.0029,0.0664 0.0096,0.0994 l 0.245387,1.31021 c 0.0067,0.0347 0.0096,0.0685 0.0096,0.10235 -7.35e-4,0.28371 -0.219594,0.52541 -0.513617,0.54383 l -1.700022,0.0994 c -0.290336,0.0188 -0.512879,0.25791 -0.512142,0.54161 0,0.0167 7.35e-4,0.0353 0.0029,0.0539 l 0.17022,1.69265 c 0.0015,0.0167 0.0023,0.0324 0.0023,0.0487 0.0015,0.28149 -0.206336,0.51878 -0.489301,0.54899 l -1.445793,0.15102 c -0.278547,0.0228 -0.486351,0.26086 -0.486351,0.53573 l -0.0038,1.6558 c -0.0058,0.28592 -0.226228,0.52614 -0.515092,0.5431 l -5.555467,0.32275 c -0.0117,7.5e-4 -0.02431,7.5e-4 -0.03685,7.5e-4"
       style="fill:#ff9b56;fill-opacity:1;fill-rule:nonzero;stroke:none;stroke-width:0.0736898"
       id="path106" />
    <path
       d="m 59.099228,150.13484 c -7.38e-4,0 -0.0015,0 -0.0023,0 -1.535694,0 -3.066231,-0.28149 -4.506864,-0.83343 -0.01838,-0.008 -0.03685,-0.0146 -0.05454,-0.0213 -0.0023,-7.5e-4 -0.0038,-0.001 -0.0052,-0.002 -0.0081,-0.002 -0.01546,-0.006 -0.02358,-0.008 -0.0088,-0.004 -0.01776,-0.006 -0.0258,-0.0104 v 0 c -1.105347,-0.43034 -2.151005,-1.02429 -3.108234,-1.76927 0.02358,-0.008 0.05157,-0.0104 0.08548,-0.0104 0.448034,0 1.820873,0.61974 3.779546,0.85628 0.464982,0.056 0.963125,0.0913 1.488534,0.0913 2.191532,0 4.871626,-0.60575 7.704997,-2.78107 5.131752,-3.9424 6.69029,-8.44851 5.990237,-12.17574 0.551937,1.03534 0.946177,2.12521 1.186407,3.23719 -0.163599,-2.36545 -0.995549,-4.70951 -2.537875,-6.73376 1.729497,2.27036 2.568086,4.9431 2.568823,7.59593 0.0023,3.74859 -1.668336,7.4574 -4.8591,9.9319 v 0 c -0.02653,0.0209 -0.05306,0.0411 -0.08032,0.0618 0,0 0,0 -7.37e-4,7.3e-4 -2.268907,1.73098 -4.942369,2.57103 -7.595937,2.57179 -0.0015,0 -0.0029,0 -0.0038,0 m 9.970958,-20.16225 c -0.0117,-0.0146 -0.02358,-0.0303 -0.03463,-0.0457 0.01107,0.0146 0.02285,0.0303 0.03463,0.0457 m -0.03831,-0.0501 c -0.0052,-0.008 -0.01107,-0.0146 -0.01692,-0.0213 0.0058,0.008 0.0117,0.0146 0.01692,0.0213"
       style="fill:#ff9b56;fill-opacity:1;fill-rule:nonzero;stroke:none;stroke-width:0.0736898"
       id="path108" />
    <path
       d="m 71.60806,136.70636 c -0.240229,-1.11197 -0.634469,-2.20185 -1.186406,-3.23718 -0.197479,-1.04935 -0.573306,-2.03606 -1.098713,-2.93213 -0.165791,-0.28444 -0.271915,-0.49224 -0.308023,-0.63593 v 0 c 0.0058,0.006 0.0117,0.0146 0.01692,0.0213 0.0015,0.001 0.0023,0.002 0.0038,0.004 0.01107,0.0146 0.02285,0.0303 0.03463,0.0457 v 0 c 1.542326,2.02426 2.374283,4.36831 2.537875,6.73376"
       style="fill:#ffa675;fill-opacity:1;fill-rule:nonzero;stroke:none;stroke-width:0.0736898"
       id="path110" />
    <path
       d="m 49.95728,154.76109 4.523813,-5.50243 c 0,0 4.072095,0.91376 4.871628,0.87248 0.798797,-0.042 0.798797,-0.042 0.798797,-0.042 0,0 0.319812,-2.20701 2.615985,-3.33152 2.296908,-1.12451 2.913691,-1.01988 2.604931,1.69117 -0.308023,2.71105 -2.027205,3.50911 -4.176733,3.50911 -2.14953,0 -1.473058,0.0612 -3.223926,0.67574 -1.750131,0.61383 -8.014495,2.12743 -8.014495,2.12743"
       style="fill:#ffbf9f;fill-opacity:1;fill-rule:nonzero;stroke:none;stroke-width:0.0736898"
       id="path112" />
    <path
       d="m 19.714277,134.27238 c 0,0 2.210694,9.45734 1.934356,9.5185 -0.276337,0.0612 -0.859222,0 -0.859222,0 l 1.473795,6.34396 14.246434,6.61292 1.949095,-4.61078 -0.266757,-2.40595 c 0,0 -2.450184,3.42434 -5.305661,3.24013 -2.855477,-0.18424 -9.856002,-2.74052 -9.948114,-3.81124 -0.09212,-1.0707 -1.703706,-4.61666 -1.243145,-4.61666 0.46056,0 0.736898,-0.26085 0.736898,-0.75238 0,-0.4915 -1.428107,-7.90617 -2.717679,-9.5185"
       style="fill:#3daa89;fill-opacity:1;fill-rule:nonzero;stroke:none;stroke-width:0.0736898"
       id="path114" />
    <path
       d="m 37.399813,142.87049 -0.951334,-8.90465 c 0,0 1.658019,6.97694 3.069914,7.38813 1.412632,0.41044 3.297616,0.36992 3.297616,0.36992 0,0 -3.48184,1.20852 -5.416196,1.1466"
       style="fill:#3daa89;fill-opacity:1;fill-rule:nonzero;stroke:none;stroke-width:0.0736898"
       id="path116" />
    <path
       d="m 31.369046,141.06289 c -0.656575,0 -1.417054,-0.16293 -2.282908,-0.52689 -3.300562,-1.38682 -5.969606,-6.3233 -6.613653,-7.59666 -0.09728,-0.19238 -0.148119,-0.3014 -0.148119,-0.3014 0.07,-0.6853 0.73616,-1.13555 1.766344,-1.13555 0.779637,0 1.767079,0.2579 2.862109,0.86659 0.806164,0.44804 1.419264,0.6433 1.95646,0.6433 1.154719,0 1.954253,-0.90121 3.547426,-2.1171 0.34634,-0.26453 0.630047,-0.38245 0.863642,-0.38245 1.338207,0 1.005866,3.89083 1.162088,6.4007 0.142961,2.27627 -0.886488,4.14946 -3.113391,4.14946"
       style="fill:#78e69c;fill-opacity:1;fill-rule:nonzero;stroke:none;stroke-width:0.0736898"
       id="path118" />
    <path
       d="m 13.483811,145.55428 c -0.01483,-0.37582 -0.0221,-0.59689 -0.0221,-0.59689 0,0 -0.0117,-0.0412 -0.03463,-0.11948 0.02285,0.0781 0.03463,0.11948 0.03463,0.11948 0,0 0.0073,0.22107 0.0221,0.59689 v 0 m -1.19952,-14.07842 c 5.89e-4,0 8.83e-4,-7.3e-4 0.0015,-7.3e-4 -2.94e-4,0 -0.0012,7.3e-4 -0.0015,7.3e-4 m 0.0058,-0.006 c 8.86e-4,-7.3e-4 0.0015,-0.002 0.0023,-0.002 -8.83e-4,7.3e-4 -0.0015,0.002 -0.0023,0.002 m 0.0054,-0.006 c 0.0011,-7.3e-4 0.002,-0.002 0.0031,-0.004 -8.84e-4,0.001 -0.0023,0.002 -0.0031,0.004 m 0.0054,-0.006 c 0.0012,-0.001 0.0023,-0.002 0.0038,-0.004 -0.0015,7.3e-4 -0.0025,0.002 -0.0038,0.004 m 0.0048,-0.004 c 0.0069,-0.008 0.0142,-0.0146 0.02099,-0.0228 -0.0069,0.008 -0.014,0.0146 -0.02099,0.0228 m 0.02099,-0.0228 c 0.02624,-0.0274 0.05299,-0.0539 0.08061,-0.0781 -0.02763,0.0242 -0.05439,0.0508 -0.08061,0.0781 m 0.08061,-0.0781 c 0.0021,-0.002 0.0038,-0.004 0.0054,-0.004 -0.0017,0.001 -0.0033,0.002 -0.0054,0.004 m 0.0063,-0.006 c 0.0018,-0.001 0.0031,-0.002 0.005,-0.004 -0.0018,0.001 -0.0031,0.002 -0.005,0.004 m 0.0067,-0.006 c 0.0015,-0.001 0.0029,-0.002 0.0044,-0.004 -0.0015,0.001 -0.0029,0.002 -0.0044,0.004 m 0.0069,-0.006 c 0.0011,-7.5e-4 0.0025,-0.002 0.0038,-0.002 -0.0012,7.5e-4 -0.0027,10e-4 -0.0038,0.002"
       style="fill:#98f4ad;fill-opacity:1;fill-rule:nonzero;stroke:none;stroke-width:0.0736898"
       id="path120" />
    <path
       d="m 13.287061,144.33766 c -0.648471,-2.36838 -2.79402,-10.81102 -1.00277,-12.8618 2.94e-4,0 0.0012,-7.3e-4 0.0015,-7.3e-4 0.0014,-0.002 0.0029,-0.004 0.0042,-0.004 8.86e-4,-7.3e-4 0.0015,-0.002 0.0023,-0.002 0.0011,-7.3e-4 0.002,-0.002 0.0031,-0.004 8.1e-4,-7.3e-4 0.0023,-0.002 0.0031,-0.004 8.11e-4,-7.3e-4 0.0014,-0.001 0.0023,-0.002 0.0012,-10e-4 0.0023,-0.002 0.0038,-0.004 2.94e-4,-7.3e-4 8.1e-4,-0.001 0.0011,-0.001 0.0069,-0.008 0.0142,-0.0146 0.02099,-0.0228 v 0 c 0.02624,-0.0274 0.05299,-0.0539 0.08061,-0.0781 v 0 c 0.0021,-0.002 0.0038,-0.004 0.0054,-0.004 2.95e-4,0 5.89e-4,-7.4e-4 8.84e-4,-7.4e-4 0.0018,-0.001 0.0031,-0.002 0.005,-0.004 5.16e-4,-7.3e-4 0.0011,-7.3e-4 0.0017,-0.001 0.0015,-0.001 0.0029,-0.002 0.0044,-0.004 8.1e-4,-7.3e-4 0.0017,-0.001 0.0025,-0.002 0.0011,-0.001 0.0025,-0.002 0.0038,-0.002 0.0023,-0.002 0.004,-0.004 0.0063,-0.006 1.237988,-1.04638 3.655011,-2.38754 5.858333,-3.33814 -0.626363,0.28739 -5.681256,2.69706 -5.799307,5.97625 -0.08807,2.61303 0.981472,7.65266 1.529725,10.03948 -0.276338,0.10903 -0.522462,0.21811 -0.739108,0.33528"
       style="fill:#81ee9e;fill-opacity:1;fill-rule:nonzero;stroke:none;stroke-width:0.0736898"
       id="path122" />
    <path
       d="m 13.483811,145.55428 v 0 c -0.01483,-0.37582 -0.0221,-0.59689 -0.0221,-0.59689 0,0 -0.0117,-0.0412 -0.03463,-0.11948 -0.02947,-0.10465 -0.0781,-0.27487 -0.140015,-0.50036 0.216646,-0.11718 0.46277,-0.22622 0.739107,-0.33528 0.18643,0.81133 0.312445,1.3161 0.312445,1.3161 l -0.854802,0.23581"
       style="fill:#7be79c;fill-opacity:1;fill-rule:nonzero;stroke:none;stroke-width:0.0736898"
       id="path124" />
    <path
       d="m 41.544861,163.68932 c -1.039026,0.55269 -2.704413,-1.65802 -3.684487,-2.02647 -0.980073,-0.36845 -19.402506,-6.20468 -20.507851,-6.88261 -0.655838,-0.39792 -1.702233,-3.62554 -2.446499,-6.18258 -0.353712,-1.23062 -0.641101,-2.30648 -0.781112,-2.84442 l 6.661551,-1.96015 0.125268,0.5232 1.348524,5.82223 c 0,0 1.046393,0.71405 3.257084,1.69413 2.210694,0.98744 9.395442,4.23716 10.994509,4.91511 1.591698,0.67794 2.144371,0.73688 3.80239,1.16428 1.658019,0.43477 2.394916,0.80322 2.962328,1.90858 0.567411,1.1127 -0.685316,3.31604 -1.73171,3.8687"
       style="fill:#ffbf9f;fill-opacity:1;fill-rule:nonzero;stroke:none;stroke-width:0.0736898"
       id="path126" />
    <path
       d="m 20.911736,144.31629 -6.005712,4.28137 c -0.353712,-1.23062 -0.641101,-2.30648 -0.781112,-2.84442 l 6.661551,-1.96015 0.125268,0.5232"
       style="fill:#ff9b80;fill-opacity:1;fill-rule:nonzero;stroke:none;stroke-width:0.0736898"
       id="path128" />
    <path
       d="m 127.66972,150.71477 c 0,0 -0.46054,1.79582 -0.46054,3.63807 0,1.84224 0.13849,3.36245 -0.64479,3.63879 -0.78258,0.27635 -10.5929,0 -11.83605,-0.64479 -1.24389,-0.64478 0.64478,-1.52022 1.42737,-1.88867 0.78331,-0.36843 6.32627,-1.63738 6.67776,-2.25636 0.35224,-0.61899 0.41488,-2.25712 0.41488,-2.25712 l 4.42137,-0.22992"
       style="fill:#ff9b80;fill-opacity:1;fill-rule:nonzero;stroke:none;stroke-width:0.0736898"
       id="path130" />
    <path
       d="m 108.78968,147.05977 c 0,0 -1.12303,1.47527 -1.84002,3.17233 -0.717,1.69708 -1.18124,3.15098 -2.01026,3.10013 -0.82827,-0.0493 -9.75726,-4.1222 -10.651849,-5.19954 -0.894588,-1.07808 1.185669,-1.14956 2.050053,-1.18419 0.361809,-0.0146 1.553368,0.1504 2.857683,0.31464 1.812763,0.22844 3.843663,0.45687 4.172313,0.20554 0.5652,-0.43255 1.2601,-1.91741 1.2601,-1.91741 l 4.16198,1.50844"
       style="fill:#ff9b80;fill-opacity:1;fill-rule:nonzero;stroke:none;stroke-width:0.0736898"
       id="path132" />
    <path
       d="m 151.62994,112.29073 c -2.71915,2.57914 -27.36835,7.36898 -27.86207,7.73743 -0.48637,0.36845 -12.52727,26.15985 -14.3695,27.87682 -1.84226,1.71697 -4.78985,-1.84223 -5.52673,-2.94759 -0.0959,-0.13995 -0.0443,-0.55266 0.10319,-1.17902 1.06113,-4.37717 7.34688,-19.17407 8.73961,-23.26386 1.2822,-3.73606 1.84961,-6.21203 2.78548,-7.87005 0.23581,-0.41267 0.48634,-0.77375 0.7811,-1.09063 1.4738,-1.59905 35.34896,-8.35641 35.34896,-8.35641 0,0 2.71915,6.51418 0,9.09331"
       style="fill:#3b345b;fill-opacity:1;fill-rule:nonzero;stroke:none;stroke-width:0.0736898"
       id="path134" />
    <path
       d="m 108.25911,148.36555 c -0.10758,0 -0.2159,-0.0104 -0.32496,-0.028 -1.24683,-0.207 -2.59535,-1.53494 -3.42804,-2.54008 -0.2756,-0.33308 -0.49447,-0.63078 -0.63447,-0.84006 -0.0332,-0.0487 -0.0487,-0.13035 -0.0487,-0.24244 7.5e-4,-0.21001 0.056,-0.52762 0.15186,-0.93659 0.56152,0.21738 1.14515,0.35003 1.73098,0.35003 1.10536,0 2.21879,-0.47384 3.20625,-1.75014 3.80238,-4.91511 10.31655,-21.24474 10.43446,-23.45545 0.12533,-2.21068 1.47378,-3.80976 3.80976,-4.91511 1.41483,-0.67056 -3.5371,-1.1127 -7.65636,-1.36324 0.23581,-0.41267 0.48634,-0.77375 0.7811,-1.09063 0.0303,-0.0332 0.0744,-0.0677 0.13201,-0.10527 l 15.60454,-1.17314 c -4.27252,2.10973 -5.52084,3.98881 -5.9136,5.94307 -0.0848,0.42297 -0.26455,1.62263 -0.50331,3.33668 -1.08471,0.24905 -1.75527,0.41559 -1.83264,0.47308 -0.13265,0.10026 -1.12084,2.08393 -2.5261,4.95195 -3.75892,7.67184 -10.50227,21.67509 -11.84341,22.92487 -0.34781,0.32423 -0.73542,0.46056 -1.13925,0.46056 m 31.5569,-41.08423 -0.66248,-1.50549 c 2.94464,-0.62636 5.67706,-1.19303 7.83028,-1.63517 0.0539,0.0294 0.10695,0.0449 0.15979,0.0449 0.006,0 0.0146,0 0.0209,-7.3e-4 0.0656,-0.006 0.25424,-0.0729 0.54235,-0.19238 2.31607,-0.47382 3.80829,-0.77227 3.91662,-0.79364 0.002,7.3e-4 0.004,0.001 0.008,0.002 0.0125,0.0288 0.1105,0.2675 0.24537,0.65362 -4.05734,1.06188 -8.50305,2.30134 -12.06006,3.42658"
       style="fill:#26242f;fill-opacity:1;fill-rule:nonzero;stroke:none;stroke-width:0.0736898"
       id="path136" />
    <path
       d="m 170.33315,113.76454 c -2.35146,5.27619 -18.43793,5.27619 -25.31316,6.26362 -6.88264,0.98007 -9.57967,0.98007 -10.68502,2.45387 -1.10535,1.47378 -4.91511,29.60116 -6.75734,29.96961 -1.50328,0.30213 -3.994,1.09798 -4.98881,-0.44139 -0.22106,-0.33971 -0.36845,-0.7966 -0.41265,-1.40084 -0.25056,-3.31604 3.43393,-31.93714 3.92765,-34.391 0.49372,-2.45387 2.33598,-4.78985 9.82285,-7.61216 7.49424,-2.82968 26.84516,-7.61952 27.2652,-7.36896 0.21369,0.12533 1.55485,-1.03903 2.82967,-2.218081 1.25275,-1.156926 2.43177,-2.328579 2.43177,-2.328579 0,0 4.22978,11.79035 1.87984,17.07391"
       style="fill:#3b345b;fill-opacity:1;fill-rule:nonzero;stroke:none;stroke-width:0.0736898"
       id="path138" />
    <path
       d="m 124.64255,152.92769 c -0.83859,0 -1.60126,-0.21666 -2.05373,-0.91744 0.7148,-0.0146 1.40011,-0.0597 1.91593,-0.17756 1.74646,-0.40529 5.04038,-17.31709 6.26363,-23.58071 1.23062,-6.26363 -0.61162,-5.52672 0,-8.59223 0.619,-3.07285 26.77886,-2.94758 31.93713,-7.73742 2.98959,-2.77294 3.54522,-7.20023 3.48406,-10.43298 0.80247,0.0965 1.68971,0.21074 2.43618,0.21074 0.5033,0 0.94248,-0.0516 1.24756,-0.1953 0.60278,2.43103 1.16946,5.41987 1.17019,8.07124 7.5e-4,1.57917 -0.19886,3.03822 -0.71035,4.18853 -0.39204,0.87838 -1.16357,1.61085 -2.21071,2.22543 -5.24155,3.07802 -17.37161,3.21509 -23.10245,4.03819 -6.88264,0.98007 -9.57967,0.98007 -10.68502,2.45387 -0.17546,0.23433 -0.41929,1.13924 -0.71184,2.49809 -1.55338,7.2039 -4.49581,27.16202 -6.0455,27.47152 -0.81944,0.16502 -1.93141,0.47605 -2.93508,0.47605"
       style="fill:#26242f;fill-opacity:1;fill-rule:nonzero;stroke:none;stroke-width:0.0736898"
       id="path140" />
    <path
       d="m 150.14141,50.020702 c 0,0 1.81497,-4.912895 9.79853,-3.561414 7.98281,1.350729 5.46483,12.465357 6.57016,14.123376 1.10536,1.658019 3.71545,0.909315 3.60861,3.985867 -0.10842,3.076552 1.05891,1.770023 2.65504,4.480338 1.59684,2.710315 -1.21074,4.929105 -4.10527,4.893741 -2.89526,-0.03384 -16.09752,-2.367661 -17.81743,-5.622538 -1.71918,-3.254125 -0.7369,-3.622576 -0.36845,-6.263625 0.36845,-2.640297 -2.45608,-3.377199 -3.19298,-6.324786 -0.7369,-2.947587 1.03608,-5.342508 2.85179,-5.710959"
       style="fill:#252549;fill-opacity:1;fill-rule:nonzero;stroke:none;stroke-width:0.0736898"
       id="path142" />
    <path
       d="m 151.30719,51.064894 c 0,0 -1.92994,0.736902 -0.82459,4.666767 1.10533,3.929865 1.84224,6.07941 3.68449,6.693237 1.84223,0.61458 2.06405,0.368451 2.06405,0.368451 0,0 1.31388,1.726554 -1.57254,2.859166 -2.88643,1.132613 -4.78985,5.553983 -0.55267,5.492821 4.23715,-0.06183 6.75513,-2.096467 6.75513,-2.096467 l 0.79806,-4.722769 c 0,0 -1.90341,-4.357284 -1.90341,-5.523777 0,-1.167246 0.67501,-1.719933 0.67501,-2.456835 0,-0.736881 -0.36403,-1.658018 -1.34854,-1.350729 -0.98449,0.30729 -1.95351,-0.245376 -2.85104,-0.982278 -0.8968,-0.736902 -3.85398,-3.131823 -4.92395,-2.947587"
       style="fill:#ff9b80;fill-opacity:1;fill-rule:nonzero;stroke:none;stroke-width:0.0736898"
       id="path144" />
    <path
       d="m 158.65037,61.099966 -2.41923,1.693383 c 0,0 0.52981,0.576249 0.27266,1.17535 -0.25718,0.599832 -0.25718,0.599832 -0.25718,0.599832 0,0 1.72801,-1.784018 2.40375,-3.468565"
       style="fill:#d86f56;fill-opacity:1;fill-rule:nonzero;stroke:none;stroke-width:0.0736898"
       id="path146" />
    <path
       d="m 153.34693,65.652515 -0.94251,4.944584 -2.53567,13.250135 c 0,0 -3.92765,8.60622 -4.78982,9.895809 -0.86217,1.289568 -8.29009,7.494247 -8.29009,7.494247 l -1.9012,-4.178209 c 0,0 0.0744,-0.08105 0.21371,-0.228457 1.0906,-1.207769 6.27099,-6.926832 6.6026,-7.752155 0.36845,-0.921117 5.34251,-18.606659 6.13098,-20.080442 0.78848,-1.473804 5.512,-3.345512 5.512,-3.345512"
       style="fill:#ffc655;fill-opacity:1;fill-rule:nonzero;stroke:none;stroke-width:0.0736898"
       id="path148" />
    <path
       d="m 137.0578,101.0118 -1.76338,-4.007259 c 0.24537,0.212227 0.46203,0.364023 0.63225,0.42297 0.07,0.02507 0.15478,0.03676 0.25202,0.03676 1.35146,0 5.15532,-2.327849 6.87377,-5.195119 1.84224,-3.072855 3.19077,-5.769906 3.80976,-9.948114 0.60721,-4.145789 3.56438,-10.729216 3.61079,-10.830921 -1.27998,3.347725 -2.31753,7.459612 -2.57176,8.620236 -0.0884,0.405298 -0.0884,1.061132 -0.0221,1.894559 v 0 0 c 0.095,1.2682 0.33752,2.943159 0.65291,4.737517 -1.22327,2.626302 -2.92108,6.205408 -3.45311,7.000526 -0.30434,0.455389 -1.42591,1.522412 -2.75011,2.712509 -2.0014,1.798765 -4.46559,3.879776 -5.27102,4.556246"
       style="fill:#ff9b56;fill-opacity:1;fill-rule:nonzero;stroke:none;stroke-width:0.0736898"
       id="path150" />
    <path
       d="m 170.10396,101.35518 c -0.67794,0.61164 -2.79285,0.25791 -4.36242,0.081 -0.49372,-0.0589 -0.93514,-0.0959 -1.2601,-0.081 -1.34853,0.0662 -5.7699,1.54013 -7.79637,1.78329 -0.70006,0.0884 -1.58433,0.1694 -2.45387,0.19886 -1.6654,0.0737 -3.29394,-0.0443 -3.52238,-0.71405 -0.21369,-0.63447 -0.42002,-3.692596 -0.75162,-6.91284 -0.13996,-1.429583 -0.30951,-2.895992 -0.5232,-4.192934 -0.0737,-0.471619 -0.15478,-0.913764 -0.24318,-1.333788 -0.61163,-2.977061 -1.15693,-6.116257 -1.31169,-8.178822 -0.0664,-0.833428 -0.0664,-1.489262 0.0221,-1.89456 0.30949,-1.414857 1.78329,-7.214236 3.44131,-10.670268 1.65802,-3.456053 2.00437,-3.787657 2.00437,-3.787657 l 2.54229,-0.891644 c 0,0 -3.44131,3.500253 -1.59907,3.802384 1.84225,0.309503 3.32341,-0.486346 4.78984,-1.473804 1.47378,-0.980064 2.57913,-2.763351 2.57913,-2.763351 0,0 7.5532,2.829671 8.23115,5.593043 0.17693,0.714802 0.22917,1.687493 0.20638,2.873893 -0.0516,3.397106 -0.70004,8.533278 -0.88427,14.317931 -0.24318,7.796355 1.78329,13.448367 0.89164,14.244217"
       style="fill:#ffc655;fill-opacity:1;fill-rule:nonzero;stroke:none;stroke-width:0.0736898"
       id="path152" />
    <path
       d="m 153.40955,103.35659 c -0.67058,0 -1.29619,-0.0434 -1.77886,-0.15541 -0.002,-7.3e-4 -0.004,-10e-4 -0.008,-0.002 -0.47973,-0.11343 -0.81649,-0.29549 -0.91377,-0.57257 4.96744,-2.3566 13.38869,-6.64829 13.65397,-7.534774 0.29773,-0.988921 4.73236,-15.844039 5.60558,-22.298522 h 0.12742 c -0.0516,3.397106 -0.70003,8.533278 -0.88427,14.317931 -0.0146,0.449498 -0.0209,0.891644 -0.0209,1.325663 7.5e-4,5.729383 1.13926,10.130136 1.14072,12.013642 0,0.45245 -0.0656,0.75974 -0.22844,0.90491 -0.28592,0.25866 -0.829,0.34487 -1.47821,0.34487 -0.8887,0 -1.97784,-0.16147 -2.88421,-0.2638 0.62636,-0.35373 1.26747,-0.80322 1.81276,-1.37064 1.71697,-1.775931 0.61163,-10.987143 0.4274,-12.645162 -0.0146,-0.135566 -0.0353,-0.198231 -0.0612,-0.198231 -0.29033,0 -1.26893,7.917215 -3.12961,9.777873 -1.33377,1.333789 -6.91209,4.39929 -10.55973,6.33732 v 0 c -0.13849,0.006 -0.27633,0.0104 -0.4134,0.0146 -0.13703,0.004 -0.27339,0.004 -0.40825,0.004 m -3.28067,-5.890747 c -0.0531,-0.570358 -0.1105,-1.159872 -0.1717,-1.755296 2.49807,-1.252721 6.35942,-3.330764 6.72787,-4.362423 0.15102,-0.419293 -0.44877,-0.571841 -1.39717,-0.571841 -1.59907,0 -4.18925,0.431826 -5.8539,0.74133 v 0 c -0.0737,-0.471619 -0.15478,-0.913764 -0.24318,-1.333789 -0.23581,-1.146608 -0.4613,-2.31755 -0.65878,-3.441306 -0.31539,-1.794357 -0.55784,-3.469317 -0.65291,-4.737516 1.8629,0.184863 4.27181,0.374342 6.38376,0.374342 2.08174,0 3.87534,-0.183401 4.57392,-0.73615 1.99478,-1.585808 4.61592,-8.233362 4.84068,-8.809611 -1.39422,5.311551 -3.82745,18.121776 -4.35434,18.698756 -0.37361,0.414134 -5.34767,3.481098 -9.19427,5.933504"
       style="fill:#ff9b56;fill-opacity:1;fill-rule:nonzero;stroke:none;stroke-width:0.0736898"
       id="path154" />
    <path
       d="m 164.36353,95.091558 c -0.36846,1.230621 -16.46228,9.026992 -17.19918,9.093322 -0.46425,0.0368 -0.99408,-1.17905 -1.29694,-2.22544 -0.18424,-0.62563 -0.28001,-1.19377 -0.23581,-1.40011 0.12533,-0.55266 13.07994,-8.349038 13.69155,-9.026993 0.61901,-0.677934 3.86872,-18.238208 4.97406,-20.692076 0.6411,-1.429583 2.42439,-1.51063 3.80975,-1.326415 0.99481,0.132641 1.78331,0.405298 1.78331,0.405298 1.53273,1.532751 -5.15829,23.949167 -5.52674,25.172414"
       style="fill:#ffc655;fill-opacity:1;fill-rule:nonzero;stroke:none;stroke-width:0.0736898"
       id="path156" />
    <path
       d="m 147.14371,104.18561 c -0.45908,0 -0.9786,-1.19526 -1.2763,-2.22617 4.43612,-1.26009 15.23905,-6.293095 16.46965,-7.722678 1.4738,-1.72434 6.01308,-17.073908 6.5068,-21.443726 0.16941,-1.48853 -0.19154,-2.542288 -0.7369,-3.27919 0.99481,0.132641 1.78331,0.405298 1.78331,0.405298 0.15687,0.157707 0.22768,0.534242 0.22768,1.084715 0,0.476778 -0.0531,1.082501 -0.14893,1.789177 -0.87322,6.454483 -5.30785,21.309601 -5.60558,22.298522 -0.26528,0.886484 -8.68653,5.178182 -13.65397,7.534772 -1.92992,0.91595 -3.33887,1.54012 -3.5452,1.55855 -0.006,7.3e-4 -0.0146,7.3e-4 -0.0209,7.3e-4"
       style="fill:#ffac56;fill-opacity:1;fill-rule:nonzero;stroke:none;stroke-width:0.0736898"
       id="path158" />
    <path
       d="m 152.40369,69.513846 c 0,0 -3.00948,7.526685 0.94324,7.772061 3.95196,0.245398 9.35636,-6.254037 7.39108,-6.688808 -1.96531,-0.434772 -3.68449,1.171652 -5.52675,0 -1.84223,-1.171674 -2.80757,-2.166485 -2.80757,-1.083253"
       style="fill:#ffd180;fill-opacity:1;fill-rule:nonzero;stroke:none;stroke-width:0.0736898"
       id="path160" />
    <path
       d="m 154.6586,107.93569 v 0.008 c 0,0.35373 -0.27266,0.64848 -0.62637,0.67796 l -39.8072,2.9918 v -0.77375 c 0,-0.095 -0.0221,-0.19154 -0.0662,-0.27927 l -8.38589,-18.437175 c -0.19155,-0.42815 0.0884,-0.914495 0.55268,-0.958716 l 2.35806,-0.228436 22.46063,-2.210685 c 0.28814,-0.02945 0.56742,0.132642 0.68606,0.405298 l 8.13461,18.488744 0.22106,0.50847 c 0.11802,0.26528 0.39057,0.42739 0.68533,0.39792 l 13.04306,-1.26009 c 0.39793,-0.0361 0.74428,0.27265 0.74428,0.67058"
       style="fill:#4c66a8;fill-opacity:1;fill-rule:nonzero;stroke:none;stroke-width:0.0736898"
       id="path162" />
    <path
       d="m 114.22503,110.97907 v -0.13996 c 0,-0.095 -0.0221,-0.19154 -0.0662,-0.27927 l -8.38589,-18.437175 c -0.19155,-0.42815 0.0884,-0.914495 0.55268,-0.958716 l 2.35806,-0.228436 c 2.46861,6.337319 7.49424,18.930887 8.39326,18.930887 0.89902,0 15.5338,-1.48853 22.88804,-2.24753 l 0.22106,0.50847 c 0.11864,0.26528 0.39057,0.42739 0.68533,0.39792 l -26.64622,2.45387"
       style="fill:#2f4e8c;fill-opacity:1;fill-rule:nonzero;stroke:none;stroke-width:0.0736898"
       id="path164" />
    <path
       d="M 134.88764,102.67792 117.90585,92.085024 c -0.79291,-0.494471 7.4515,-1.249796 10.50742,-1.249796 0.61604,0 1.02134,0.03029 1.09871,0.100264 0.46055,0.416348 5.37566,11.742468 5.37566,11.742468"
       style="fill:#5489bc;fill-opacity:1;fill-rule:nonzero;stroke:none;stroke-width:0.0736898"
       id="path166" />
    <path
       d="m 145.62055,101.23729 c 0,0 -1.1864,0.54235 -1.69265,0.84226 -0.50699,0.29919 -2.76338,0.78186 -3.68449,1.27704 -0.92112,0.49593 -1.65802,1.12672 -1.65802,1.12672 l 0.62341,1.4178 c 0,0 1.19526,-7.5e-4 2.02426,0 0.82902,7.3e-4 1.92846,0.17087 2.88421,-0.59764 0.95502,-0.76857 2.48631,-1.57179 2.48631,-1.57179 l -0.98303,-2.49439"
       style="fill:#ff9b80;fill-opacity:1;fill-rule:nonzero;stroke:none;stroke-width:0.0736898"
       id="path168" />
    <path
       d="m 194.84971,225.91367 -0.0146,0.0146 c -0.26896,0.31548 -0.56887,0.6151 -0.86806,0.89983 -0.28443,0.25328 -0.56887,0.50544 -0.86879,0.7265 -0.0788,0.0633 -0.15854,0.1268 -0.23729,0.17296 -0.28444,0.20638 -0.56888,0.41133 -0.86879,0.60071 -0.93144,0.56793 -1.95794,1.01096 -3.0316,1.31087 -0.20492,0.0629 -0.42667,0.1105 -0.63225,0.15771 -0.86808,0.20471 -1.75235,0.29992 -2.66906,0.29992 -6.7426,0 -12.23839,-5.47964 -12.23839,-12.20751 0,-0.91523 0.10988,-1.81573 0.29992,-2.68452 0.0944,-0.42667 0.22108,-0.8526 0.36256,-1.26379 0.14288,-0.40971 0.30065,-0.80469 0.47456,-1.19967 l 0.0146,-0.0167 c 1.94245,-4.18485 6.19066,-7.07495 11.08586,-7.07495 0.20638,0 0.42742,0 0.63227,0.0167 h 0.0146 c 4.37496,0.52098 8.13312,3.0795 10.2495,6.67997 0.85333,1.65802 1.32641,3.55333 1.32641,5.54296 0,3.06402 -1.1525,5.87526 -3.03233,8.02332 z m 18.58234,-13.80431 -4.62624,-1.00437 c -0.40825,-1.23505 -0.90048,-2.42883 -1.49737,-3.59018 l 2.56514,-3.98808 c 0.46055,-0.70079 0.35592,-1.64403 -0.24097,-2.24016 l -7.2017,-7.2017 c -0.60648,-0.59616 -1.53864,-0.70079 -2.25048,-0.24024 l -3.97705,2.55409 c -1.16209,-0.58657 -2.36616,-1.07883 -3.59016,-1.48705 l -1.00513,-4.62624 c -0.17838,-0.82681 -0.9108,-1.41264 -1.75824,-1.41264 h -10.1957 c -0.84743,0 -1.5696,0.58583 -1.75824,1.41264 l -1.00513,4.62624 c -1.22398,0.40822 -2.42808,0.90048 -3.59016,1.48705 l -3.97776,-2.55409 c -0.71111,-0.46055 -1.64254,-0.35592 -2.24018,0.24024 l -7.21127,7.2017 c -0.59616,0.59613 -0.70152,1.53937 -0.24097,2.24016 l 2.56514,3.98808 c -0.58657,1.16135 -1.08912,2.35513 -1.48705,3.59018 l -4.62624,1.00437 c -0.82681,0.17839 -1.42369,0.91082 -1.42369,1.75898 v 10.18467 c 0,0.84824 0.59688,1.58057 1.42369,1.75816 l 2.78399,0.60735 1.84225,0.39784 c 0.39793,1.23512 0.90048,2.43921 1.48705,3.59004 l -0.18862,0.29335 -2.3765,3.69429 c -0.46055,0.71154 -0.35519,1.64385 0.24097,2.24001 l 7.21127,7.21267 c 0.59764,0.59616 1.52907,0.69055 2.24018,0.24038 l 3.97776,-2.56447 c 1.16209,0.58575 2.36618,1.08839 3.59016,1.48646 l 1.00513,4.62602 c 0.18862,0.82674 0.91082,1.41337 1.75824,1.41337 h 10.1957 c 0.60648,0 1.15104,-0.29248 1.46497,-0.76393 0.14664,-0.18883 0.24097,-0.40847 0.29327,-0.64944 l 1.00513,-4.62602 c 1.224,-0.39807 2.42807,-0.90071 3.59016,-1.48646 l 3.97705,2.56447 c 0.71184,0.45017 1.64401,0.35578 2.25048,-0.24038 l 7.2017,-7.21267 c 0.59689,-0.59616 0.70152,-1.52847 0.24097,-2.24001 l -2.56514,-3.98764 c 0.59689,-1.15083 1.08912,-2.35492 1.49737,-3.59004 l 4.62624,-1.00519 c 0.81649,-0.17755 1.41338,-0.90992 1.41338,-1.75816 v -10.18467 c 0,-0.84816 -0.59689,-1.58063 -1.41338,-1.75898"
       style="fill:#7088a0;fill-opacity:1;fill-rule:nonzero;stroke:none;stroke-width:0.0736898"
       id="path170" />
    <path
       d="m 195.21153,217.88813 c 0,2.39417 -0.9005,4.59161 -2.36987,6.27024 l -0.0125,0.0125 c -0.21002,0.24686 -0.44509,0.48193 -0.67942,0.703 -0.20928,0.19844 -0.44436,0.39579 -0.67869,0.56822 l -0.18569,0.1362 c -0.22182,0.17233 -0.44361,0.32061 -0.67869,0.46859 -0.72805,0.4445 -1.53054,0.79019 -2.36986,1.02503 -0.16,0.0487 -0.33381,0.0863 -0.49371,0.12325 -0.67869,0.16063 -1.37064,0.23432 -2.08617,0.23432 -5.27103,0 -9.5664,-4.28284 -9.5664,-9.54133 0,-0.71626 0.0863,-1.42002 0.23432,-2.09943 0.0737,-0.33307 0.16064,-0.66616 0.28371,-0.98744 0.0988,-0.32055 0.22255,-0.62931 0.37067,-0.93808 l 0.0125,-0.0125 c 1.518,-3.27036 4.83847,-5.52894 8.66517,-5.52894 0.16063,0 0.33381,0 0.49372,0.0125 h 0.0125 c 3.4929,0.18487 6.50532,2.25934 8.01081,5.22165 0.66689,1.29621 1.03682,2.77737 1.03682,4.33297 z m -9.55388,-16.05994 c -0.29622,0 -0.58068,0.0125 -0.87617,0.0242 -0.21001,0.0125 -0.40751,0.0242 -0.60499,0.0501 -0.27117,0.0125 -0.54383,0.0487 -0.815,0.0863 -0.71554,0.0988 -1.40749,0.24686 -2.07364,0.44363 l -0.12303,0.0257 c -0.28446,0.0863 -0.55563,0.17233 -0.82754,0.27119 -0.0744,0.0242 -0.13556,0.0493 -0.20928,0.0737 -0.30877,0.11133 -0.60574,0.23508 -0.90123,0.35888 l -0.1364,0.0612 c -0.29624,0.13556 -0.59173,0.2837 -0.87619,0.43255 -0.30875,0.16001 -0.60499,0.32056 -0.8887,0.49299 l -0.0501,0.0368 c -0.30802,0.18569 -0.60424,0.38319 -0.90048,0.59321 -0.24686,0.17233 -0.49372,0.3574 -0.72879,0.54234 -0.36992,0.29697 -0.71552,0.60575 -1.06114,0.95061 -0.18486,0.16064 -0.37064,0.33307 -0.54307,0.54383 -0.28371,0.28296 -0.56817,0.59173 -0.83934,0.9248 -0.1974,0.26012 -0.40749,0.51951 -0.59319,0.79069 -0.20928,0.2837 -0.40678,0.56741 -0.59173,0.87618 -0.18486,0.29697 -0.37067,0.61753 -0.54383,0.93881 -1.19747,2.24605 -1.87616,4.81414 -1.87616,7.52888 0,8.87585 7.18477,16.06001 16.05994,16.06001 5.87602,0 11.01073,-3.14737 13.7881,-7.86351 0.11134,-0.18508 0.22255,-0.36986 0.32129,-0.55495 0.30875,-0.55555 0.57992,-1.13549 0.81427,-1.72795 0.14893,-0.37067 0.28444,-0.75384 0.39571,-1.13556 0.0863,-0.24686 0.1598,-0.50698 0.22181,-0.76564 0.0863,-0.35814 0.17317,-0.7288 0.23506,-1.09871 0.0361,-0.1481 0.0612,-0.30802 0.0863,-0.46868 0.0368,-0.25937 0.0737,-0.53129 0.0988,-0.79069 0.0242,-0.27117 0.0487,-0.55488 0.0618,-0.82678 0.0125,-0.27193 0.0242,-0.5549 0.0242,-0.82754 0,-8.86267 -7.18401,-16.04668 -16.04741,-16.04668"
       style="fill:#91aabc;fill-opacity:1;fill-rule:nonzero;stroke:none;stroke-width:0.0736898"
       id="path172" />
    <path
       d="m 184.18533,204.07793 c 8.87298,0 16.05773,7.18547 16.05773,16.04814 0,2.72801 -0.6831,5.29388 -1.88203,7.542 2.09279,-2.71096 3.34994,-6.10061 3.34994,-9.79248 0,-8.86339 -7.18549,-16.04889 -16.05848,-16.04889 -6.14571,0 -11.4779,3.45163 -14.17716,8.51634 2.9358,-3.80387 7.52887,-6.26511 12.71,-6.26511"
       style="fill:#a3b9c6;fill-opacity:1;fill-rule:nonzero;stroke:none;stroke-width:0.0736898"
       id="path174" />
  </g>
</svg>
